%TF.GenerationSoftware,KiCad,Pcbnew,8.0.5*%
%TF.CreationDate,2024-11-18T15:17:10-05:00*%
%TF.ProjectId,RadioMusic_F rev2-2,52616469-6f4d-4757-9369-635f46207265,rev?*%
%TF.SameCoordinates,Original*%
%TF.FileFunction,Paste,Bot*%
%TF.FilePolarity,Positive*%
%FSLAX46Y46*%
G04 Gerber Fmt 4.6, Leading zero omitted, Abs format (unit mm)*
G04 Created by KiCad (PCBNEW 8.0.5) date 2024-11-18 15:17:10*
%MOMM*%
%LPD*%
G01*
G04 APERTURE LIST*
G04 Aperture macros list*
%AMRotRect*
0 Rectangle, with rotation*
0 The origin of the aperture is its center*
0 $1 length*
0 $2 width*
0 $3 Rotation angle, in degrees counterclockwise*
0 Add horizontal line*
21,1,$1,$2,0,0,$3*%
G04 Aperture macros list end*
%ADD10R,1.300000X1.500000*%
%ADD11R,1.400000X1.000000*%
%ADD12R,2.200000X1.400000*%
%ADD13RotRect,1.300000X1.500000X180.600000*%
%ADD14R,1.000000X1.800000*%
%ADD15R,1.500000X1.300000*%
%ADD16R,1.397000X1.397000*%
%ADD17R,0.600000X2.200000*%
%ADD18R,2.235200X1.219200*%
%ADD19R,2.200000X3.600000*%
G04 APERTURE END LIST*
D10*
%TO.C,R16*%
X165425100Y-110050600D03*
X167325100Y-110050600D03*
%TD*%
%TO.C,R1*%
X155773100Y-110304600D03*
X157673100Y-110304600D03*
%TD*%
D11*
%TO.C,D9*%
X149060100Y-97162600D03*
X149060100Y-99062600D03*
X146860100Y-98112600D03*
%TD*%
D12*
%TO.C,C9*%
X119690100Y-104081600D03*
X122890100Y-104081600D03*
%TD*%
D10*
%TO.C,R7*%
X167325100Y-107002600D03*
X165425100Y-107002600D03*
%TD*%
%TO.C,C5*%
X175326100Y-101668600D03*
X173426100Y-101668600D03*
%TD*%
D11*
%TO.C,D6*%
X98473100Y-101475600D03*
X98473100Y-99575600D03*
X100673100Y-100525600D03*
%TD*%
D10*
%TO.C,R3*%
X159451100Y-100398600D03*
X157551100Y-100398600D03*
%TD*%
D13*
%TO.C,R12*%
X197805048Y-100007652D03*
X195905152Y-100027548D03*
%TD*%
D10*
%TO.C,R5*%
X165425100Y-104208600D03*
X167325100Y-104208600D03*
%TD*%
%TO.C,R11*%
X197805100Y-97477600D03*
X195905100Y-97477600D03*
%TD*%
D14*
%TO.C,F2*%
X122563100Y-107637600D03*
X119763100Y-107637600D03*
%TD*%
D10*
%TO.C,R2*%
X171013100Y-99636600D03*
X172913100Y-99636600D03*
%TD*%
%TO.C,C3*%
X165425100Y-100779600D03*
X167325100Y-100779600D03*
%TD*%
D15*
%TO.C,R9*%
X113416100Y-107322600D03*
X113416100Y-109222600D03*
%TD*%
D10*
%TO.C,R8*%
X145354100Y-111193600D03*
X143454100Y-111193600D03*
%TD*%
D14*
%TO.C,F1*%
X108847100Y-103065600D03*
X106047100Y-103065600D03*
%TD*%
D10*
%TO.C,R15*%
X152847100Y-110812600D03*
X150947100Y-110812600D03*
%TD*%
D16*
%TO.C,D2*%
X116972100Y-108780600D03*
X116972100Y-105478600D03*
%TD*%
D11*
%TO.C,D5*%
X151305100Y-108841600D03*
X151305100Y-106941600D03*
X153505100Y-107891600D03*
%TD*%
D15*
%TO.C,R10*%
X113416100Y-113540600D03*
X113416100Y-111640600D03*
%TD*%
D10*
%TO.C,R4*%
X160853100Y-104081600D03*
X162753100Y-104081600D03*
%TD*%
D15*
%TO.C,C4*%
X180853100Y-105285600D03*
X180853100Y-103385600D03*
%TD*%
D10*
%TO.C,C8*%
X175326100Y-111320600D03*
X173426100Y-111320600D03*
%TD*%
%TO.C,C2*%
X153487100Y-100398600D03*
X155387100Y-100398600D03*
%TD*%
D12*
%TO.C,C10*%
X108158100Y-107129600D03*
X104958100Y-107129600D03*
%TD*%
D17*
%TO.C,IC4*%
X169169100Y-103827600D03*
X170439100Y-103827600D03*
X171709100Y-103827600D03*
X172979100Y-103827600D03*
X174249100Y-103827600D03*
X175519100Y-103827600D03*
X176789100Y-103827600D03*
X176789100Y-109027600D03*
X175519100Y-109027600D03*
X174249100Y-109027600D03*
X172979100Y-109027600D03*
X171709100Y-109027600D03*
X170439100Y-109027600D03*
X169169100Y-109027600D03*
%TD*%
D10*
%TO.C,R13*%
X197551100Y-110685600D03*
X195651100Y-110685600D03*
%TD*%
D16*
%TO.C,D1*%
X116972100Y-113733600D03*
X116972100Y-110431600D03*
%TD*%
D10*
%TO.C,C1*%
X160853100Y-106494600D03*
X162753100Y-106494600D03*
%TD*%
D15*
%TO.C,R17*%
X101351100Y-108592600D03*
X101351100Y-110492600D03*
%TD*%
%TO.C,R6*%
X178821100Y-103385600D03*
X178821100Y-105285600D03*
%TD*%
%TO.C,R20*%
X113289100Y-97162600D03*
X113289100Y-99062600D03*
%TD*%
D10*
%TO.C,R14*%
X197551100Y-113352600D03*
X195651100Y-113352600D03*
%TD*%
D15*
%TO.C,R18*%
X102748100Y-99316600D03*
X102748100Y-97416600D03*
%TD*%
%TO.C,R21*%
X113289100Y-103634600D03*
X113289100Y-101734600D03*
%TD*%
D18*
%TO.C,IC1*%
X197286900Y-103294200D03*
X197286900Y-105605600D03*
X197286900Y-107917000D03*
D19*
X191089100Y-105605600D03*
%TD*%
D15*
%TO.C,R19*%
X102748100Y-101607600D03*
X102748100Y-103507600D03*
%TD*%
M02*
