%TF.GenerationSoftware,KiCad,Pcbnew,8.0.5*%
%TF.CreationDate,2024-11-18T15:17:10-05:00*%
%TF.ProjectId,RadioMusic_F rev2-2,52616469-6f4d-4757-9369-635f46207265,rev?*%
%TF.SameCoordinates,Original*%
%TF.FileFunction,Copper,L1,Top*%
%TF.FilePolarity,Positive*%
%FSLAX46Y46*%
G04 Gerber Fmt 4.6, Leading zero omitted, Abs format (unit mm)*
G04 Created by KiCad (PCBNEW 8.0.5) date 2024-11-18 15:17:10*
%MOMM*%
%LPD*%
G01*
G04 APERTURE LIST*
G04 Aperture macros list*
%AMOutline5P*
0 Free polygon, 5 corners , with rotation*
0 The origin of the aperture is its center*
0 number of corners: always 5*
0 $1 to $10 corner X, Y*
0 $11 Rotation angle, in degrees counterclockwise*
0 create outline with 5 corners*
4,1,5,$1,$2,$3,$4,$5,$6,$7,$8,$9,$10,$1,$2,$11*%
%AMOutline6P*
0 Free polygon, 6 corners , with rotation*
0 The origin of the aperture is its center*
0 number of corners: always 6*
0 $1 to $12 corner X, Y*
0 $13 Rotation angle, in degrees counterclockwise*
0 create outline with 6 corners*
4,1,6,$1,$2,$3,$4,$5,$6,$7,$8,$9,$10,$11,$12,$1,$2,$13*%
%AMOutline7P*
0 Free polygon, 7 corners , with rotation*
0 The origin of the aperture is its center*
0 number of corners: always 7*
0 $1 to $14 corner X, Y*
0 $15 Rotation angle, in degrees counterclockwise*
0 create outline with 7 corners*
4,1,7,$1,$2,$3,$4,$5,$6,$7,$8,$9,$10,$11,$12,$13,$14,$1,$2,$15*%
%AMOutline8P*
0 Free polygon, 8 corners , with rotation*
0 The origin of the aperture is its center*
0 number of corners: always 8*
0 $1 to $16 corner X, Y*
0 $17 Rotation angle, in degrees counterclockwise*
0 create outline with 8 corners*
4,1,8,$1,$2,$3,$4,$5,$6,$7,$8,$9,$10,$11,$12,$13,$14,$15,$16,$1,$2,$17*%
G04 Aperture macros list end*
%TA.AperFunction,ComponentPad*%
%ADD10C,1.650000*%
%TD*%
%TA.AperFunction,ComponentPad*%
%ADD11R,1.219200X1.219200*%
%TD*%
%TA.AperFunction,ComponentPad*%
%ADD12Outline8P,-0.609600X0.252505X-0.252505X0.609600X0.252505X0.609600X0.609600X0.252505X0.609600X-0.252505X0.252505X-0.609600X-0.252505X-0.609600X-0.609600X-0.252505X90.000000*%
%TD*%
%TA.AperFunction,ComponentPad*%
%ADD13Outline8P,-0.609600X0.252505X-0.252505X0.609600X0.252505X0.609600X0.609600X0.252505X0.609600X-0.252505X0.252505X-0.609600X-0.252505X-0.609600X-0.609600X-0.252505X270.000000*%
%TD*%
%TA.AperFunction,ComponentPad*%
%ADD14R,1.500000X1.500000*%
%TD*%
%TA.AperFunction,ComponentPad*%
%ADD15R,1.350000X1.350000*%
%TD*%
%TA.AperFunction,ComponentPad*%
%ADD16C,1.050000*%
%TD*%
%TA.AperFunction,ComponentPad*%
%ADD17R,1.676400X1.676400*%
%TD*%
%TA.AperFunction,ComponentPad*%
%ADD18Outline8P,-0.838200X0.347194X-0.347194X0.838200X0.347194X0.838200X0.838200X0.347194X0.838200X-0.347194X0.347194X-0.838200X-0.347194X-0.838200X-0.838200X-0.347194X180.000000*%
%TD*%
%TA.AperFunction,ComponentPad*%
%ADD19R,2.800000X2.800000*%
%TD*%
%TA.AperFunction,ComponentPad*%
%ADD20Outline8P,-0.762000X0.315631X-0.315631X0.762000X0.315631X0.762000X0.762000X0.315631X0.762000X-0.315631X0.315631X-0.762000X-0.315631X-0.762000X-0.762000X-0.315631X90.000000*%
%TD*%
%TA.AperFunction,ComponentPad*%
%ADD21C,1.447800*%
%TD*%
%TA.AperFunction,ViaPad*%
%ADD22C,0.609600*%
%TD*%
%TA.AperFunction,Conductor*%
%ADD23C,0.304800*%
%TD*%
%TA.AperFunction,Conductor*%
%ADD24C,0.152400*%
%TD*%
%TA.AperFunction,Conductor*%
%ADD25C,0.203200*%
%TD*%
G04 APERTURE END LIST*
D10*
%TO.P,CHANNEL-CV0,P$1*%
%TO.N,N$9*%
X110956100Y-110558600D03*
%TO.P,CHANNEL-CV0,P$2*%
%TO.N,N/C*%
X119456100Y-110558600D03*
%TO.P,CHANNEL-CV0,P$3*%
%TO.N,GND*%
X122456100Y-110558600D03*
%TD*%
%TO.P,RESET-CV0,P$1*%
%TO.N,N$14*%
X96351100Y-100398600D03*
%TO.P,RESET-CV0,P$2*%
%TO.N,N/C*%
X104851100Y-100398600D03*
%TO.P,RESET-CV0,P$3*%
%TO.N,GND*%
X107851100Y-100398600D03*
%TD*%
D11*
%TO.P,LED4,A*%
%TO.N,N$12*%
X200157100Y-113352600D03*
D12*
%TO.P,LED4,K*%
%TO.N,GND*%
X200157100Y-110812600D03*
%TD*%
D10*
%TO.P,TIME-CV0,P$1*%
%TO.N,TEMP*%
X110956100Y-100398600D03*
%TO.P,TIME-CV0,P$2*%
%TO.N,N/C*%
X119456100Y-100398600D03*
%TO.P,TIME-CV0,P$3*%
%TO.N,GND*%
X122456100Y-100398600D03*
%TD*%
D11*
%TO.P,LED2,A*%
%TO.N,N$11*%
X200157100Y-104462600D03*
D12*
%TO.P,LED2,K*%
%TO.N,GND*%
X200157100Y-101922600D03*
%TD*%
D11*
%TO.P,LED5,A*%
%TO.N,N$16*%
X147706100Y-110558600D03*
D13*
%TO.P,LED5,K*%
%TO.N,GND*%
X147706100Y-113098600D03*
%TD*%
D14*
%TO.P,RESET0,P$1*%
%TO.N,RESET_SW*%
X141951100Y-111153600D03*
%TO.P,RESET0,P$2*%
X136951100Y-111153600D03*
%TO.P,RESET0,P$3*%
%TO.N,+3.3V*%
X136951100Y-106153600D03*
%TO.P,RESET0,P$4*%
X141951100Y-106153600D03*
%TD*%
D11*
%TO.P,LED3,A*%
%TO.N,N$13*%
X200157100Y-106367600D03*
D13*
%TO.P,LED3,K*%
%TO.N,GND*%
X200157100Y-108907600D03*
%TD*%
D10*
%TO.P,OUTPUT0,P$1*%
%TO.N,N$3*%
X96351100Y-110558600D03*
%TO.P,OUTPUT0,P$2*%
%TO.N,N/C*%
X104851100Y-110558600D03*
%TO.P,OUTPUT0,P$3*%
%TO.N,GND*%
X107851100Y-110558600D03*
%TD*%
D15*
%TO.P,X1,GND1*%
%TO.N,GND*%
X135151100Y-101663600D03*
%TO.P,X1,GND2*%
X143751100Y-101663600D03*
D16*
%TO.P,X1,P$1*%
%TO.N,N/C*%
X135601100Y-98493600D03*
%TO.P,X1,P$2*%
%TO.N,SS*%
X136701100Y-97393600D03*
%TO.P,X1,P$3*%
%TO.N,MOSI*%
X137801100Y-98493600D03*
%TO.P,X1,P$4*%
%TO.N,+3.3V*%
X138901100Y-97393600D03*
%TO.P,X1,P$5*%
%TO.N,SCLK*%
X140001100Y-98493600D03*
%TO.P,X1,P$6*%
%TO.N,GND*%
X141101100Y-97393600D03*
%TO.P,X1,P$7*%
%TO.N,MISO*%
X142201100Y-98493600D03*
%TO.P,X1,P$8*%
%TO.N,N/C*%
X143301100Y-97393600D03*
%TD*%
D11*
%TO.P,LED1,A*%
%TO.N,N$15*%
X200157100Y-97477600D03*
D13*
%TO.P,LED1,K*%
%TO.N,GND*%
X200157100Y-100017600D03*
%TD*%
D17*
%TO.P,TIME-POT0,1*%
%TO.N,GND*%
X155311100Y-102978600D03*
D18*
%TO.P,TIME-POT0,2*%
%TO.N,TIME_POT*%
X155311100Y-105478600D03*
%TO.P,TIME-POT0,3*%
%TO.N,+3.3V*%
X155311100Y-107978600D03*
D19*
%TO.P,TIME-POT0,M1*%
%TO.N,N/C*%
X162311100Y-109978600D03*
%TO.P,TIME-POT0,M2*%
X162311100Y-100978600D03*
%TD*%
D17*
%TO.P,CHANNEL-POT0,1*%
%TO.N,GND*%
X183251100Y-102978600D03*
D18*
%TO.P,CHANNEL-POT0,2*%
%TO.N,CHANNEL_POT*%
X183251100Y-105478600D03*
%TO.P,CHANNEL-POT0,3*%
%TO.N,+3.3V*%
X183251100Y-107978600D03*
D19*
%TO.P,CHANNEL-POT0,M1*%
%TO.N,N/C*%
X190251100Y-109978600D03*
%TO.P,CHANNEL-POT0,M2*%
X190251100Y-100978600D03*
%TD*%
D20*
%TO.P,SV1,1*%
%TO.N,-12V_INLET*%
X128275100Y-110939600D03*
%TO.P,SV1,2*%
X130815100Y-110939600D03*
%TO.P,SV1,3*%
%TO.N,GND*%
X128275100Y-108399600D03*
%TO.P,SV1,4*%
X130815100Y-108399600D03*
%TO.P,SV1,5*%
X128275100Y-105859600D03*
%TO.P,SV1,6*%
X130815100Y-105859600D03*
%TO.P,SV1,7*%
X128275100Y-103319600D03*
%TO.P,SV1,8*%
X130815100Y-103319600D03*
%TO.P,SV1,9*%
%TO.N,+12V_INLET*%
X128275100Y-100779600D03*
%TO.P,SV1,10*%
X130815100Y-100779600D03*
%TD*%
D21*
%TO.P,U1,0*%
%TO.N,N/C*%
X181996100Y-113098600D03*
%TO.P,U1,1*%
X179456100Y-113098600D03*
%TO.P,U1,2*%
X176916100Y-113098600D03*
%TO.P,U1,3*%
%TO.N,LED1*%
X174376100Y-113098600D03*
%TO.P,U1,3.3V*%
%TO.N,+3.3V*%
X179456100Y-97858600D03*
%TO.P,U1,4*%
%TO.N,LED2*%
X171836100Y-113098600D03*
%TO.P,U1,5*%
%TO.N,LED3*%
X169296100Y-113098600D03*
%TO.P,U1,6*%
%TO.N,LED4*%
X166756100Y-113098600D03*
%TO.P,U1,7*%
%TO.N,MOSI*%
X164216100Y-113098600D03*
%TO.P,U1,8*%
%TO.N,RESET_SW*%
X161676100Y-113098600D03*
%TO.P,U1,9*%
%TO.N,RESET_CV*%
X159136100Y-113098600D03*
%TO.P,U1,10*%
%TO.N,SS*%
X156596100Y-113098600D03*
%TO.P,U1,11*%
%TO.N,LED_RESET*%
X154056100Y-113098600D03*
%TO.P,U1,12*%
%TO.N,MISO*%
X151516100Y-113098600D03*
%TO.P,U1,13*%
%TO.N,N/C*%
X151516100Y-97858600D03*
%TO.P,U1,14/A0*%
%TO.N,SCLK*%
X154056100Y-97858600D03*
%TO.P,U1,15/A1*%
%TO.N,N/C*%
X156596100Y-97858600D03*
%TO.P,U1,16/A2*%
X159136100Y-97858600D03*
%TO.P,U1,17/A3*%
X161676100Y-97858600D03*
%TO.P,U1,18/A4*%
X164216100Y-97858600D03*
%TO.P,U1,19/A5*%
X166756100Y-97858600D03*
%TO.P,U1,20/A6*%
%TO.N,PIN20/A6*%
X169296100Y-97858600D03*
%TO.P,U1,21/A7*%
%TO.N,TIME_POT*%
X171836100Y-97858600D03*
%TO.P,U1,22/A8*%
%TO.N,PIN22/A8*%
X174376100Y-97858600D03*
%TO.P,U1,23/A9*%
%TO.N,CHANNEL_POT*%
X176916100Y-97858600D03*
%TO.P,U1,AGND*%
%TO.N,GND*%
X181996100Y-97858600D03*
%TO.P,U1,DAC*%
%TO.N,DAC*%
X151516100Y-100398600D03*
%TO.P,U1,GND*%
%TO.N,DGND*%
X184536100Y-113098600D03*
%TO.P,U1,VIN*%
%TO.N,+5V*%
X184536100Y-97858600D03*
%TD*%
D22*
%TO.N,GND*%
X175366700Y-100335100D03*
X165143200Y-102913200D03*
%TO.N,CHANNEL_CV*%
X168076900Y-113225600D03*
X167010100Y-114292400D03*
X175277800Y-107447100D03*
X117315000Y-107358200D03*
%TO.N,DGND*%
X150119100Y-107624900D03*
X197236100Y-104513400D03*
X150741400Y-105935800D03*
%TO.N,+12V*%
X140429000Y-100157300D03*
X136072900Y-100157300D03*
X173944300Y-105402400D03*
X108780600Y-104602300D03*
X108780600Y-105935800D03*
X183901100Y-106735900D03*
%TO.N,-12V*%
X158831300Y-109847400D03*
X169766000Y-107536000D03*
X158831300Y-111269800D03*
X137139700Y-108691700D03*
%TO.N,PIN20/A6*%
X148163300Y-98112600D03*
%TO.N,LED1*%
X186568100Y-113670100D03*
%TO.N,LED2*%
X179456100Y-108513900D03*
%TO.N,LED4*%
X180700700Y-112958900D03*
%TO.N,AUDIO_OUT*%
X104068900Y-105846900D03*
X167988000Y-102202000D03*
%TO.N,TIME_CV*%
X173233100Y-107447100D03*
X119893100Y-102379800D03*
%TD*%
D23*
%TO.N,GND*%
X182123100Y-97934800D02*
X183101000Y-98912700D01*
X128427500Y-105846900D02*
X130738900Y-105846900D01*
X128249700Y-103446600D02*
X128249700Y-105758000D01*
X135095000Y-101668600D02*
X135151100Y-101663600D01*
X130738900Y-108425000D02*
X128338600Y-108425000D01*
X128249700Y-105758000D02*
X128275100Y-105859600D01*
X181945300Y-97845900D02*
X180878500Y-96779100D01*
X128249700Y-103446600D02*
X128275100Y-103319600D01*
X130738900Y-105846900D02*
X130815100Y-105859600D01*
D24*
X130815100Y-103319600D02*
X130815100Y-108348800D01*
D23*
X175722300Y-97401400D02*
X175811200Y-97490300D01*
X155364200Y-102913200D02*
X165143200Y-102913200D01*
X200169800Y-108958400D02*
X200169800Y-110736400D01*
X175811200Y-97934800D02*
X175366700Y-98379300D01*
X175366700Y-98379300D02*
X175366700Y-100335100D01*
X199191900Y-107091500D02*
X200080900Y-107980500D01*
X141140200Y-99001600D02*
X141140200Y-97401400D01*
X143718300Y-101579700D02*
X143751100Y-101663600D01*
X176522400Y-96779100D02*
X175811200Y-97490300D01*
X168254700Y-102824300D02*
X170388300Y-100690700D01*
X128160800Y-103268800D02*
X125316000Y-100424000D01*
X143896100Y-101668600D02*
X145140700Y-102913200D01*
X200080900Y-102024200D02*
X200157100Y-101922600D01*
X128338600Y-103268800D02*
X128275100Y-103319600D01*
X143896100Y-101668600D02*
X143751100Y-101663600D01*
X174833300Y-96779100D02*
X175455600Y-97401400D01*
X200169800Y-110736400D02*
X200157100Y-110812600D01*
X141140200Y-97401400D02*
X141101100Y-97393600D01*
X130738900Y-108425000D02*
X130815100Y-108399600D01*
X175811200Y-97490300D02*
X175811200Y-97934800D01*
D24*
X130815100Y-108348800D02*
X130738900Y-108425000D01*
D23*
X125316000Y-100424000D02*
X122471200Y-100424000D01*
X155364200Y-102913200D02*
X155311100Y-102978600D01*
X128249700Y-105935800D02*
X128275100Y-105859600D01*
X155186400Y-102913200D02*
X155311100Y-102978600D01*
X130738900Y-103268800D02*
X128338600Y-103268800D01*
X191813200Y-98912700D02*
X192791100Y-99890600D01*
X175455600Y-97401400D02*
X175722300Y-97401400D01*
X192791100Y-99890600D02*
X200080900Y-99890600D01*
X130738900Y-103268800D02*
X130815100Y-103319600D01*
X200080900Y-107980500D02*
X200080900Y-108780600D01*
X128160800Y-103268800D02*
X128275100Y-103319600D01*
X132428000Y-101668600D02*
X135095000Y-101668600D01*
X200169800Y-108958400D02*
X200157100Y-108907600D01*
X128338600Y-108425000D02*
X128275100Y-108399600D01*
X183101000Y-98912700D02*
X191813200Y-98912700D01*
X200169800Y-100068400D02*
X200169800Y-101846400D01*
X180878500Y-96779100D02*
X176522400Y-96779100D01*
X122471200Y-100424000D02*
X122456100Y-100398600D01*
X170388300Y-97845900D02*
X171455100Y-96779100D01*
X182123100Y-97934800D02*
X181996100Y-97858600D01*
X128249700Y-108247200D02*
X128275100Y-108399600D01*
X130827800Y-103268800D02*
X130815100Y-103319600D01*
X165232100Y-102824300D02*
X165143200Y-102913200D01*
X200080900Y-102024200D02*
X199191900Y-102913200D01*
X199191900Y-102913200D02*
X199191900Y-107091500D01*
X145140700Y-102913200D02*
X155186400Y-102913200D01*
X165232100Y-102824300D02*
X168254700Y-102824300D01*
X130827800Y-103268800D02*
X132428000Y-101668600D01*
X171455100Y-96779100D02*
X174833300Y-96779100D01*
X200080900Y-108780600D02*
X200157100Y-108907600D01*
X181945300Y-97845900D02*
X181996100Y-97858600D01*
X143718300Y-101579700D02*
X141140200Y-99001600D01*
X200169800Y-100068400D02*
X200157100Y-100017600D01*
X200169800Y-101846400D02*
X200157100Y-101922600D01*
X170388300Y-100690700D02*
X170388300Y-97845900D01*
X128427500Y-105846900D02*
X128275100Y-105859600D01*
X128249700Y-108247200D02*
X128249700Y-105935800D01*
X200080900Y-99890600D02*
X200157100Y-100017600D01*
%TO.N,+12V_INLET*%
X130815100Y-100779600D02*
X128275100Y-100779600D01*
%TO.N,-12V_INLET*%
X128338600Y-110914200D02*
X128275100Y-110939600D01*
X130738900Y-110914200D02*
X130815100Y-110939600D01*
X130738900Y-110914200D02*
X128338600Y-110914200D01*
D25*
%TO.N,+3.3V*%
X183545500Y-107891600D02*
X184523400Y-106913700D01*
X141940300Y-106113600D02*
X136961900Y-106113600D01*
X156786600Y-106469200D02*
X180700700Y-106469200D01*
X155364200Y-107891600D02*
X156786600Y-106469200D01*
X183189900Y-107891600D02*
X183251100Y-107978600D01*
X184523400Y-102202000D02*
X180256200Y-97934800D01*
X180700700Y-106469200D02*
X182123100Y-107891600D01*
X155364200Y-107891600D02*
X155311100Y-107978600D01*
X179456100Y-97934800D02*
X179456100Y-97858600D01*
X183278800Y-107891600D02*
X183251100Y-107978600D01*
X183278800Y-107891600D02*
X183545500Y-107891600D01*
X180256200Y-97934800D02*
X179456100Y-97934800D01*
X184523400Y-106913700D02*
X184523400Y-102202000D01*
X141940300Y-106113600D02*
X141951100Y-106153600D01*
X136961900Y-106113600D02*
X136951100Y-106153600D01*
X182123100Y-107891600D02*
X183189900Y-107891600D01*
%TO.N,CHANNEL_CV*%
X175277800Y-107447100D02*
X174655500Y-108069400D01*
X166832300Y-114470200D02*
X130294400Y-114470200D01*
X130294400Y-114470200D02*
X123182400Y-107358200D01*
X167010100Y-114292400D02*
X166832300Y-114470200D01*
X168076900Y-112870000D02*
X168076900Y-113225600D01*
X172877500Y-108069400D02*
X168076900Y-112870000D01*
X123182400Y-107358200D02*
X117315000Y-107358200D01*
X174655500Y-108069400D02*
X172877500Y-108069400D01*
%TO.N,DGND*%
X185768000Y-114292400D02*
X187190400Y-114292400D01*
X158920200Y-109136200D02*
X154919700Y-109136200D01*
X154919700Y-109136200D02*
X153408400Y-107624900D01*
X184612300Y-113136700D02*
X185768000Y-114292400D01*
X189412900Y-114292400D02*
X197236100Y-106469200D01*
X150741400Y-105935800D02*
X150119100Y-106558100D01*
X187190400Y-113492300D02*
X180522900Y-106824800D01*
X187190400Y-114292400D02*
X189412900Y-114292400D01*
X197236100Y-106469200D02*
X197236100Y-104513400D01*
X184612300Y-113136700D02*
X184536100Y-113098600D01*
X153408400Y-107624900D02*
X150119100Y-107624900D01*
X150119100Y-106558100D02*
X150119100Y-107624900D01*
X161231600Y-106824800D02*
X158920200Y-109136200D01*
X187190400Y-114292400D02*
X187190400Y-113492300D01*
X180522900Y-106824800D02*
X161231600Y-106824800D01*
D23*
%TO.N,+12V*%
X119804200Y-101579700D02*
X119270800Y-102113100D01*
X173944300Y-105402400D02*
X180256200Y-105402400D01*
X145585200Y-105313500D02*
X140429000Y-100157300D01*
X153497300Y-105313500D02*
X145585200Y-105313500D01*
X135183900Y-99268300D02*
X121937800Y-99268300D01*
X108869500Y-104513400D02*
X108780600Y-104602300D01*
X117670600Y-104513400D02*
X108869500Y-104513400D01*
X121937800Y-99268300D02*
X121315500Y-99890600D01*
X121315500Y-100157300D02*
X119893100Y-101579700D01*
X108780600Y-105935800D02*
X108780600Y-104602300D01*
X136072900Y-100157300D02*
X135183900Y-99268300D01*
X180256200Y-105402400D02*
X181589700Y-106735900D01*
X121315500Y-99890600D02*
X121315500Y-100157300D01*
X154830800Y-106647000D02*
X153497300Y-105313500D01*
X119893100Y-101579700D02*
X119804200Y-101579700D01*
X173499800Y-105846900D02*
X156786600Y-105846900D01*
X155986500Y-106647000D02*
X154830800Y-106647000D01*
X181589700Y-106735900D02*
X183901100Y-106735900D01*
X156786600Y-105846900D02*
X155986500Y-106647000D01*
X119270800Y-102913200D02*
X117670600Y-104513400D01*
X119270800Y-102113100D02*
X119270800Y-102913200D01*
X173944300Y-105402400D02*
X173499800Y-105846900D01*
%TO.N,-12V*%
X137139700Y-108691700D02*
X151274800Y-108691700D01*
X158831300Y-109847400D02*
X161142700Y-107536000D01*
X153852900Y-111269800D02*
X158831300Y-111269800D01*
X161142700Y-107536000D02*
X169766000Y-107536000D01*
X151274800Y-108691700D02*
X153852900Y-111269800D01*
D25*
%TO.N,TIME_POT*%
X155364200Y-105402400D02*
X166298900Y-105402400D01*
X171810700Y-97934800D02*
X171836100Y-97858600D01*
X166298900Y-105402400D02*
X171810700Y-99890600D01*
X171810700Y-99890600D02*
X171810700Y-97934800D01*
X155364200Y-105402400D02*
X155311100Y-105478600D01*
%TO.N,PIN20/A6*%
X150919200Y-96512400D02*
X149319000Y-98112600D01*
X169232600Y-97845900D02*
X169296100Y-97858600D01*
X167899100Y-96512400D02*
X150919200Y-96512400D01*
X169232600Y-97845900D02*
X167899100Y-96512400D01*
X149319000Y-98112600D02*
X148163300Y-98112600D01*
%TO.N,RESET_SW*%
X136961900Y-111180900D02*
X136951100Y-111153600D01*
X141940300Y-111180900D02*
X136961900Y-111180900D01*
X141940300Y-111180900D02*
X141951100Y-111153600D01*
%TO.N,SCLK*%
X152875000Y-99090500D02*
X147807700Y-99090500D01*
X140784600Y-96601300D02*
X140073400Y-97312500D01*
X154030700Y-97934800D02*
X154056100Y-97858600D01*
X154030700Y-97934800D02*
X152875000Y-99090500D01*
X147807700Y-99090500D02*
X145318500Y-96601300D01*
X145318500Y-96601300D02*
X140784600Y-96601300D01*
X140073400Y-98468200D02*
X140001100Y-98493600D01*
X140073400Y-97312500D02*
X140073400Y-98468200D01*
%TO.N,MOSI*%
X147718800Y-108247200D02*
X138028700Y-98557100D01*
X153497300Y-108247200D02*
X147718800Y-108247200D01*
X159453600Y-110647500D02*
X155897600Y-110647500D01*
X155897600Y-110647500D02*
X153497300Y-108247200D01*
X164216100Y-113098600D02*
X163187400Y-112069900D01*
X160876000Y-112069900D02*
X159453600Y-110647500D01*
X163187400Y-112069900D02*
X160876000Y-112069900D01*
X137850900Y-98557100D02*
X137801100Y-98493600D01*
X138028700Y-98557100D02*
X137850900Y-98557100D01*
%TO.N,SS*%
X135895100Y-105313500D02*
X136695200Y-104513400D01*
X155542000Y-112069900D02*
X154030700Y-112069900D01*
X156519900Y-113047800D02*
X155542000Y-112069900D01*
X154030700Y-112069900D02*
X151452600Y-109491800D01*
X136695200Y-104513400D02*
X136695200Y-97401400D01*
X156519900Y-113047800D02*
X156596100Y-113098600D01*
X135895100Y-108247200D02*
X135895100Y-105313500D01*
X136695200Y-97401400D02*
X136701100Y-97393600D01*
X151452600Y-109491800D02*
X137139700Y-109491800D01*
X137139700Y-109491800D02*
X135895100Y-108247200D01*
%TO.N,LED1*%
X184967900Y-112069900D02*
X186568100Y-113670100D01*
X175366700Y-112069900D02*
X184967900Y-112069900D01*
X174388800Y-113047800D02*
X174376100Y-113098600D01*
X174388800Y-113047800D02*
X175366700Y-112069900D01*
%TO.N,LED2*%
X171899600Y-113047800D02*
X176433500Y-108513900D01*
X176433500Y-108513900D02*
X179456100Y-108513900D01*
X171899600Y-113047800D02*
X171836100Y-113098600D01*
%TO.N,LED4*%
X166832300Y-113136700D02*
X167810200Y-114114600D01*
X166832300Y-113136700D02*
X166756100Y-113098600D01*
X180700700Y-113314500D02*
X180700700Y-112958900D01*
X179900600Y-114114600D02*
X180700700Y-113314500D01*
X167810200Y-114114600D02*
X179900600Y-114114600D01*
%TO.N,CHANNEL_POT*%
X183189900Y-105402400D02*
X176966900Y-99179400D01*
X176966900Y-97934800D02*
X176916100Y-97858600D01*
X183189900Y-105402400D02*
X183251100Y-105478600D01*
X176966900Y-99179400D02*
X176966900Y-97934800D01*
%TO.N,AUDIO_OUT*%
X163187400Y-97934800D02*
X162120600Y-96868000D01*
X167988000Y-102202000D02*
X167099000Y-102202000D01*
X162120600Y-96868000D02*
X151097000Y-96868000D01*
X151097000Y-96868000D02*
X149230100Y-98734900D01*
X113581200Y-96245700D02*
X109847400Y-99979500D01*
X163187400Y-98290400D02*
X163187400Y-97934800D01*
X109847400Y-100068400D02*
X104068900Y-105846900D01*
X145496300Y-96245700D02*
X113581200Y-96245700D01*
X167099000Y-102202000D02*
X163187400Y-98290400D01*
X147985500Y-98734900D02*
X145496300Y-96245700D01*
X109847400Y-99979500D02*
X109847400Y-100068400D01*
X149230100Y-98734900D02*
X147985500Y-98734900D01*
%TO.N,TIME_CV*%
X165765500Y-112692200D02*
X165765500Y-112958900D01*
X143184900Y-109847400D02*
X128249700Y-109847400D01*
X128249700Y-109847400D02*
X120782100Y-102379800D01*
X120782100Y-102379800D02*
X119893100Y-102379800D01*
X171010600Y-107447100D02*
X165765500Y-112692200D01*
X147452100Y-114114600D02*
X143184900Y-109847400D01*
X173233100Y-107447100D02*
X171010600Y-107447100D01*
X164609800Y-114114600D02*
X147452100Y-114114600D01*
X165765500Y-112958900D02*
X164609800Y-114114600D01*
%TD*%
M02*
