%TF.GenerationSoftware,KiCad,Pcbnew,8.0.5*%
%TF.CreationDate,2024-11-18T15:17:10-05:00*%
%TF.ProjectId,RadioMusic_F rev2-2,52616469-6f4d-4757-9369-635f46207265,rev?*%
%TF.SameCoordinates,Original*%
%TF.FileFunction,Soldermask,Bot*%
%TF.FilePolarity,Negative*%
%FSLAX46Y46*%
G04 Gerber Fmt 4.6, Leading zero omitted, Abs format (unit mm)*
G04 Created by KiCad (PCBNEW 8.0.5) date 2024-11-18 15:17:10*
%MOMM*%
%LPD*%
G01*
G04 APERTURE LIST*
G04 Aperture macros list*
%AMRoundRect*
0 Rectangle with rounded corners*
0 $1 Rounding radius*
0 $2 $3 $4 $5 $6 $7 $8 $9 X,Y pos of 4 corners*
0 Add a 4 corners polygon primitive as box body*
4,1,4,$2,$3,$4,$5,$6,$7,$8,$9,$2,$3,0*
0 Add four circle primitives for the rounded corners*
1,1,$1+$1,$2,$3*
1,1,$1+$1,$4,$5*
1,1,$1+$1,$6,$7*
1,1,$1+$1,$8,$9*
0 Add four rect primitives between the rounded corners*
20,1,$1+$1,$2,$3,$4,$5,0*
20,1,$1+$1,$4,$5,$6,$7,0*
20,1,$1+$1,$6,$7,$8,$9,0*
20,1,$1+$1,$8,$9,$2,$3,0*%
%AMFreePoly0*
4,1,17,0.288426,0.645521,0.645521,0.288426,0.660400,0.252505,0.660400,-0.252505,0.645521,-0.288426,0.288426,-0.645521,0.252505,-0.660400,-0.252505,-0.660400,-0.288426,-0.645521,-0.645521,-0.288426,-0.660400,-0.252505,-0.660400,0.252505,-0.645521,0.288426,-0.288426,0.645521,-0.252505,0.660400,0.252505,0.660400,0.288426,0.645521,0.288426,0.645521,$1*%
%AMFreePoly1*
4,1,17,0.383115,0.874121,0.874121,0.383115,0.889000,0.347194,0.889000,-0.347194,0.874121,-0.383115,0.383115,-0.874121,0.347194,-0.889000,-0.347194,-0.889000,-0.383115,-0.874121,-0.874121,-0.383115,-0.889000,-0.347194,-0.889000,0.347194,-0.874121,0.383115,-0.383115,0.874121,-0.347194,0.889000,0.347194,0.889000,0.383115,0.874121,0.383115,0.874121,$1*%
%AMFreePoly2*
4,1,17,0.351552,0.797921,0.797921,0.351552,0.812800,0.315631,0.812800,-0.315631,0.797921,-0.351552,0.351552,-0.797921,0.315631,-0.812800,-0.315631,-0.812800,-0.351552,-0.797921,-0.797921,-0.351552,-0.812800,-0.315631,-0.812800,0.315631,-0.797921,0.351552,-0.351552,0.797921,-0.315631,0.812800,0.315631,0.812800,0.351552,0.797921,0.351552,0.797921,$1*%
G04 Aperture macros list end*
%ADD10C,0.038100*%
%ADD11C,1.751600*%
%ADD12RoundRect,0.050800X0.609600X-0.609600X0.609600X0.609600X-0.609600X0.609600X-0.609600X-0.609600X0*%
%ADD13FreePoly0,90.000000*%
%ADD14RoundRect,0.050800X-0.609600X0.609600X-0.609600X-0.609600X0.609600X-0.609600X0.609600X0.609600X0*%
%ADD15FreePoly0,270.000000*%
%ADD16RoundRect,0.050800X0.750000X0.750000X-0.750000X0.750000X-0.750000X-0.750000X0.750000X-0.750000X0*%
%ADD17RoundRect,0.050800X-0.675000X-0.675000X0.675000X-0.675000X0.675000X0.675000X-0.675000X0.675000X0*%
%ADD18C,1.151600*%
%ADD19RoundRect,0.050800X0.838200X0.838200X-0.838200X0.838200X-0.838200X-0.838200X0.838200X-0.838200X0*%
%ADD20FreePoly1,180.000000*%
%ADD21RoundRect,0.050800X1.400000X1.400000X-1.400000X1.400000X-1.400000X-1.400000X1.400000X-1.400000X0*%
%ADD22RoundRect,0.050800X-0.650000X-0.750000X0.650000X-0.750000X0.650000X0.750000X-0.650000X0.750000X0*%
%ADD23RoundRect,0.050800X-0.700000X0.500000X-0.700000X-0.500000X0.700000X-0.500000X0.700000X0.500000X0*%
%ADD24FreePoly2,90.000000*%
%ADD25RoundRect,0.050800X1.100000X0.700000X-1.100000X0.700000X-1.100000X-0.700000X1.100000X-0.700000X0*%
%ADD26C,1.549400*%
%ADD27RoundRect,0.050800X0.650000X0.750000X-0.650000X0.750000X-0.650000X-0.750000X0.650000X-0.750000X0*%
%ADD28RoundRect,0.050800X0.700000X-0.500000X0.700000X0.500000X-0.700000X0.500000X-0.700000X-0.500000X0*%
%ADD29RoundRect,0.050800X0.642111X0.756766X-0.657818X0.743152X-0.642111X-0.756766X0.657818X-0.743152X0*%
%ADD30RoundRect,0.050800X0.500000X0.900000X-0.500000X0.900000X-0.500000X-0.900000X0.500000X-0.900000X0*%
%ADD31RoundRect,0.050800X-0.750000X0.650000X-0.750000X-0.650000X0.750000X-0.650000X0.750000X0.650000X0*%
%ADD32RoundRect,0.050800X-0.698500X0.698500X-0.698500X-0.698500X0.698500X-0.698500X0.698500X0.698500X0*%
%ADD33RoundRect,0.050800X0.750000X-0.650000X0.750000X0.650000X-0.750000X0.650000X-0.750000X-0.650000X0*%
%ADD34RoundRect,0.050800X-1.100000X-0.700000X1.100000X-0.700000X1.100000X0.700000X-1.100000X0.700000X0*%
%ADD35RoundRect,0.050800X-0.300000X-1.100000X0.300000X-1.100000X0.300000X1.100000X-0.300000X1.100000X0*%
%ADD36RoundRect,0.050800X-1.117600X0.609600X-1.117600X-0.609600X1.117600X-0.609600X1.117600X0.609600X0*%
%ADD37RoundRect,0.050800X-1.100000X1.800000X-1.100000X-1.800000X1.100000X-1.800000X1.100000X1.800000X0*%
G04 APERTURE END LIST*
D10*
X116381046Y-107911892D02*
X116723946Y-107911892D01*
X116723946Y-107911892D02*
X116723946Y-107830249D01*
X116723946Y-107830249D02*
X116707617Y-107781263D01*
X116707617Y-107781263D02*
X116674960Y-107748606D01*
X116674960Y-107748606D02*
X116642303Y-107732277D01*
X116642303Y-107732277D02*
X116576989Y-107715949D01*
X116576989Y-107715949D02*
X116528003Y-107715949D01*
X116528003Y-107715949D02*
X116462689Y-107732277D01*
X116462689Y-107732277D02*
X116430032Y-107748606D01*
X116430032Y-107748606D02*
X116397375Y-107781263D01*
X116397375Y-107781263D02*
X116381046Y-107830249D01*
X116381046Y-107830249D02*
X116381046Y-107911892D01*
X116691289Y-107585320D02*
X116707617Y-107568992D01*
X116707617Y-107568992D02*
X116723946Y-107536335D01*
X116723946Y-107536335D02*
X116723946Y-107454692D01*
X116723946Y-107454692D02*
X116707617Y-107422035D01*
X116707617Y-107422035D02*
X116691289Y-107405706D01*
X116691289Y-107405706D02*
X116658632Y-107389377D01*
X116658632Y-107389377D02*
X116625975Y-107389377D01*
X116625975Y-107389377D02*
X116576989Y-107405706D01*
X116576989Y-107405706D02*
X116381046Y-107601649D01*
X116381046Y-107601649D02*
X116381046Y-107389377D01*
X116381046Y-112864892D02*
X116723946Y-112864892D01*
X116723946Y-112864892D02*
X116723946Y-112783249D01*
X116723946Y-112783249D02*
X116707617Y-112734263D01*
X116707617Y-112734263D02*
X116674960Y-112701606D01*
X116674960Y-112701606D02*
X116642303Y-112685277D01*
X116642303Y-112685277D02*
X116576989Y-112668949D01*
X116576989Y-112668949D02*
X116528003Y-112668949D01*
X116528003Y-112668949D02*
X116462689Y-112685277D01*
X116462689Y-112685277D02*
X116430032Y-112701606D01*
X116430032Y-112701606D02*
X116397375Y-112734263D01*
X116397375Y-112734263D02*
X116381046Y-112783249D01*
X116381046Y-112783249D02*
X116381046Y-112864892D01*
X116381046Y-112342377D02*
X116381046Y-112538320D01*
X116381046Y-112440349D02*
X116723946Y-112440349D01*
X116723946Y-112440349D02*
X116674960Y-112473006D01*
X116674960Y-112473006D02*
X116642303Y-112505663D01*
X116642303Y-112505663D02*
X116625975Y-112538320D01*
D11*
%TO.C,CHANNEL-CV0*%
X110956100Y-110558600D03*
X119456100Y-110558600D03*
X122456100Y-110558600D03*
%TD*%
%TO.C,RESET-CV0*%
X96351100Y-100398600D03*
X104851100Y-100398600D03*
X107851100Y-100398600D03*
%TD*%
D12*
%TO.C,LED4*%
X200157100Y-113352600D03*
D13*
X200157100Y-110812600D03*
%TD*%
D11*
%TO.C,TIME-CV0*%
X110956100Y-100398600D03*
X119456100Y-100398600D03*
X122456100Y-100398600D03*
%TD*%
D12*
%TO.C,LED2*%
X200157100Y-104462600D03*
D13*
X200157100Y-101922600D03*
%TD*%
D14*
%TO.C,LED5*%
X147706100Y-110558600D03*
D15*
X147706100Y-113098600D03*
%TD*%
D16*
%TO.C,RESET0*%
X141951100Y-111153600D03*
X136951100Y-111153600D03*
X136951100Y-106153600D03*
X141951100Y-106153600D03*
%TD*%
D14*
%TO.C,LED3*%
X200157100Y-106367600D03*
D15*
X200157100Y-108907600D03*
%TD*%
D11*
%TO.C,OUTPUT0*%
X96351100Y-110558600D03*
X104851100Y-110558600D03*
X107851100Y-110558600D03*
%TD*%
D17*
%TO.C,X1*%
X135151100Y-101663600D03*
X143751100Y-101663600D03*
D18*
X135601100Y-98493600D03*
X136701100Y-97393600D03*
X137801100Y-98493600D03*
X138901100Y-97393600D03*
X140001100Y-98493600D03*
X141101100Y-97393600D03*
X142201100Y-98493600D03*
X143301100Y-97393600D03*
%TD*%
D14*
%TO.C,LED1*%
X200157100Y-97477600D03*
D15*
X200157100Y-100017600D03*
%TD*%
D19*
%TO.C,TIME-POT0*%
X155311100Y-102978600D03*
D20*
X155311100Y-105478600D03*
X155311100Y-107978600D03*
D21*
X162311100Y-109978600D03*
X162311100Y-100978600D03*
%TD*%
D19*
%TO.C,CHANNEL-POT0*%
X183251100Y-102978600D03*
D20*
X183251100Y-105478600D03*
X183251100Y-107978600D03*
D21*
X190251100Y-109978600D03*
X190251100Y-100978600D03*
%TD*%
D22*
%TO.C,R16*%
X165425100Y-110050600D03*
X167325100Y-110050600D03*
%TD*%
%TO.C,R1*%
X155773100Y-110304600D03*
X157673100Y-110304600D03*
%TD*%
D23*
%TO.C,D9*%
X149060100Y-97162600D03*
X149060100Y-99062600D03*
X146860100Y-98112600D03*
%TD*%
D24*
%TO.C,SV1*%
X128275100Y-110939600D03*
X130815100Y-110939600D03*
X128275100Y-108399600D03*
X130815100Y-108399600D03*
X128275100Y-105859600D03*
X130815100Y-105859600D03*
X128275100Y-103319600D03*
X130815100Y-103319600D03*
X128275100Y-100779600D03*
X130815100Y-100779600D03*
%TD*%
D25*
%TO.C,C9*%
X119690100Y-104081600D03*
X122890100Y-104081600D03*
%TD*%
D26*
%TO.C,U1*%
X181996100Y-113098600D03*
X179456100Y-113098600D03*
X176916100Y-113098600D03*
X174376100Y-113098600D03*
X179456100Y-97858600D03*
X171836100Y-113098600D03*
X169296100Y-113098600D03*
X166756100Y-113098600D03*
X164216100Y-113098600D03*
X161676100Y-113098600D03*
X159136100Y-113098600D03*
X156596100Y-113098600D03*
X154056100Y-113098600D03*
X151516100Y-113098600D03*
X151516100Y-97858600D03*
X154056100Y-97858600D03*
X156596100Y-97858600D03*
X159136100Y-97858600D03*
X161676100Y-97858600D03*
X164216100Y-97858600D03*
X166756100Y-97858600D03*
X169296100Y-97858600D03*
X171836100Y-97858600D03*
X174376100Y-97858600D03*
X176916100Y-97858600D03*
X181996100Y-97858600D03*
X151516100Y-100398600D03*
X184536100Y-113098600D03*
X184536100Y-97858600D03*
%TD*%
D27*
%TO.C,R7*%
X167325100Y-107002600D03*
X165425100Y-107002600D03*
%TD*%
%TO.C,C5*%
X175326100Y-101668600D03*
X173426100Y-101668600D03*
%TD*%
D28*
%TO.C,D6*%
X98473100Y-101475600D03*
X98473100Y-99575600D03*
X100673100Y-100525600D03*
%TD*%
D27*
%TO.C,R3*%
X159451100Y-100398600D03*
X157551100Y-100398600D03*
%TD*%
D29*
%TO.C,R12*%
X197805048Y-100007652D03*
X195905152Y-100027548D03*
%TD*%
D22*
%TO.C,R5*%
X165425100Y-104208600D03*
X167325100Y-104208600D03*
%TD*%
D27*
%TO.C,R11*%
X197805100Y-97477600D03*
X195905100Y-97477600D03*
%TD*%
D30*
%TO.C,F2*%
X122563100Y-107637600D03*
X119763100Y-107637600D03*
%TD*%
D22*
%TO.C,R2*%
X171013100Y-99636600D03*
X172913100Y-99636600D03*
%TD*%
%TO.C,C3*%
X165425100Y-100779600D03*
X167325100Y-100779600D03*
%TD*%
D31*
%TO.C,R9*%
X113416100Y-107322600D03*
X113416100Y-109222600D03*
%TD*%
D27*
%TO.C,R8*%
X145354100Y-111193600D03*
X143454100Y-111193600D03*
%TD*%
D30*
%TO.C,F1*%
X108847100Y-103065600D03*
X106047100Y-103065600D03*
%TD*%
D27*
%TO.C,R15*%
X152847100Y-110812600D03*
X150947100Y-110812600D03*
%TD*%
D32*
%TO.C,D2*%
X116972100Y-108780600D03*
X116972100Y-105478600D03*
%TD*%
D28*
%TO.C,D5*%
X151305100Y-108841600D03*
X151305100Y-106941600D03*
X153505100Y-107891600D03*
%TD*%
D33*
%TO.C,R10*%
X113416100Y-113540600D03*
X113416100Y-111640600D03*
%TD*%
D22*
%TO.C,R4*%
X160853100Y-104081600D03*
X162753100Y-104081600D03*
%TD*%
D33*
%TO.C,C4*%
X180853100Y-105285600D03*
X180853100Y-103385600D03*
%TD*%
D27*
%TO.C,C8*%
X175326100Y-111320600D03*
X173426100Y-111320600D03*
%TD*%
D22*
%TO.C,C2*%
X153487100Y-100398600D03*
X155387100Y-100398600D03*
%TD*%
D34*
%TO.C,C10*%
X108158100Y-107129600D03*
X104958100Y-107129600D03*
%TD*%
D35*
%TO.C,IC4*%
X169169100Y-103827600D03*
X170439100Y-103827600D03*
X171709100Y-103827600D03*
X172979100Y-103827600D03*
X174249100Y-103827600D03*
X175519100Y-103827600D03*
X176789100Y-103827600D03*
X176789100Y-109027600D03*
X175519100Y-109027600D03*
X174249100Y-109027600D03*
X172979100Y-109027600D03*
X171709100Y-109027600D03*
X170439100Y-109027600D03*
X169169100Y-109027600D03*
%TD*%
D27*
%TO.C,R13*%
X197551100Y-110685600D03*
X195651100Y-110685600D03*
%TD*%
D32*
%TO.C,D1*%
X116972100Y-113733600D03*
X116972100Y-110431600D03*
%TD*%
D22*
%TO.C,C1*%
X160853100Y-106494600D03*
X162753100Y-106494600D03*
%TD*%
D31*
%TO.C,R17*%
X101351100Y-108592600D03*
X101351100Y-110492600D03*
%TD*%
%TO.C,R6*%
X178821100Y-103385600D03*
X178821100Y-105285600D03*
%TD*%
%TO.C,R20*%
X113289100Y-97162600D03*
X113289100Y-99062600D03*
%TD*%
D27*
%TO.C,R14*%
X197551100Y-113352600D03*
X195651100Y-113352600D03*
%TD*%
D33*
%TO.C,R18*%
X102748100Y-99316600D03*
X102748100Y-97416600D03*
%TD*%
%TO.C,R21*%
X113289100Y-103634600D03*
X113289100Y-101734600D03*
%TD*%
D36*
%TO.C,IC1*%
X197286900Y-103294200D03*
X197286900Y-105605600D03*
X197286900Y-107917000D03*
D37*
X191089100Y-105605600D03*
%TD*%
D31*
%TO.C,R19*%
X102748100Y-101607600D03*
X102748100Y-103507600D03*
%TD*%
M02*
