%TF.GenerationSoftware,KiCad,Pcbnew,8.0.5*%
%TF.CreationDate,2024-11-18T15:17:10-05:00*%
%TF.ProjectId,RadioMusic_F rev2-2,52616469-6f4d-4757-9369-635f46207265,rev?*%
%TF.SameCoordinates,Original*%
%TF.FileFunction,Legend,Top*%
%TF.FilePolarity,Positive*%
%FSLAX46Y46*%
G04 Gerber Fmt 4.6, Leading zero omitted, Abs format (unit mm)*
G04 Created by KiCad (PCBNEW 8.0.5) date 2024-11-18 15:17:10*
%MOMM*%
%LPD*%
G01*
G04 APERTURE LIST*
%ADD10C,0.065024*%
%ADD11C,0.093472*%
%ADD12C,0.078516*%
%ADD13C,0.127000*%
%ADD14C,0.254000*%
%ADD15C,0.080000*%
%ADD16C,0.060000*%
%ADD17C,0.203200*%
%ADD18C,0.050800*%
G04 APERTURE END LIST*
D10*
X169182220Y-100562951D02*
X168932961Y-100206867D01*
X168754919Y-100562951D02*
X168754919Y-99815175D01*
X168754919Y-99815175D02*
X169039786Y-99815175D01*
X169039786Y-99815175D02*
X169111003Y-99850783D01*
X169111003Y-99850783D02*
X169146612Y-99886392D01*
X169146612Y-99886392D02*
X169182220Y-99957608D01*
X169182220Y-99957608D02*
X169182220Y-100064434D01*
X169182220Y-100064434D02*
X169146612Y-100135650D01*
X169146612Y-100135650D02*
X169111003Y-100171259D01*
X169111003Y-100171259D02*
X169039786Y-100206867D01*
X169039786Y-100206867D02*
X168754919Y-100206867D01*
X169823171Y-100562951D02*
X169823171Y-100171259D01*
X169823171Y-100171259D02*
X169787562Y-100100042D01*
X169787562Y-100100042D02*
X169716346Y-100064434D01*
X169716346Y-100064434D02*
X169573912Y-100064434D01*
X169573912Y-100064434D02*
X169502695Y-100100042D01*
X169823171Y-100527343D02*
X169751954Y-100562951D01*
X169751954Y-100562951D02*
X169573912Y-100562951D01*
X169573912Y-100562951D02*
X169502695Y-100527343D01*
X169502695Y-100527343D02*
X169467087Y-100456126D01*
X169467087Y-100456126D02*
X169467087Y-100384909D01*
X169467087Y-100384909D02*
X169502695Y-100313692D01*
X169502695Y-100313692D02*
X169573912Y-100278084D01*
X169573912Y-100278084D02*
X169751954Y-100278084D01*
X169751954Y-100278084D02*
X169823171Y-100242475D01*
X170499730Y-100562951D02*
X170499730Y-99815175D01*
X170499730Y-100527343D02*
X170428513Y-100562951D01*
X170428513Y-100562951D02*
X170286080Y-100562951D01*
X170286080Y-100562951D02*
X170214863Y-100527343D01*
X170214863Y-100527343D02*
X170179254Y-100491734D01*
X170179254Y-100491734D02*
X170143646Y-100420517D01*
X170143646Y-100420517D02*
X170143646Y-100206867D01*
X170143646Y-100206867D02*
X170179254Y-100135650D01*
X170179254Y-100135650D02*
X170214863Y-100100042D01*
X170214863Y-100100042D02*
X170286080Y-100064434D01*
X170286080Y-100064434D02*
X170428513Y-100064434D01*
X170428513Y-100064434D02*
X170499730Y-100100042D01*
X170855813Y-100562951D02*
X170855813Y-100064434D01*
X170855813Y-99815175D02*
X170820205Y-99850783D01*
X170820205Y-99850783D02*
X170855813Y-99886392D01*
X170855813Y-99886392D02*
X170891422Y-99850783D01*
X170891422Y-99850783D02*
X170855813Y-99815175D01*
X170855813Y-99815175D02*
X170855813Y-99886392D01*
X171318723Y-100562951D02*
X171247506Y-100527343D01*
X171247506Y-100527343D02*
X171211897Y-100491734D01*
X171211897Y-100491734D02*
X171176289Y-100420517D01*
X171176289Y-100420517D02*
X171176289Y-100206867D01*
X171176289Y-100206867D02*
X171211897Y-100135650D01*
X171211897Y-100135650D02*
X171247506Y-100100042D01*
X171247506Y-100100042D02*
X171318723Y-100064434D01*
X171318723Y-100064434D02*
X171425548Y-100064434D01*
X171425548Y-100064434D02*
X171496764Y-100100042D01*
X171496764Y-100100042D02*
X171532373Y-100135650D01*
X171532373Y-100135650D02*
X171567981Y-100206867D01*
X171567981Y-100206867D02*
X171567981Y-100420517D01*
X171567981Y-100420517D02*
X171532373Y-100491734D01*
X171532373Y-100491734D02*
X171496764Y-100527343D01*
X171496764Y-100527343D02*
X171425548Y-100562951D01*
X171425548Y-100562951D02*
X171318723Y-100562951D01*
X172458190Y-100562951D02*
X172458190Y-99815175D01*
X172458190Y-99815175D02*
X172707449Y-100349301D01*
X172707449Y-100349301D02*
X172956708Y-99815175D01*
X172956708Y-99815175D02*
X172956708Y-100562951D01*
X173633267Y-100064434D02*
X173633267Y-100562951D01*
X173312791Y-100064434D02*
X173312791Y-100456126D01*
X173312791Y-100456126D02*
X173348400Y-100527343D01*
X173348400Y-100527343D02*
X173419617Y-100562951D01*
X173419617Y-100562951D02*
X173526442Y-100562951D01*
X173526442Y-100562951D02*
X173597658Y-100527343D01*
X173597658Y-100527343D02*
X173633267Y-100491734D01*
X173953742Y-100527343D02*
X174024959Y-100562951D01*
X174024959Y-100562951D02*
X174167392Y-100562951D01*
X174167392Y-100562951D02*
X174238609Y-100527343D01*
X174238609Y-100527343D02*
X174274217Y-100456126D01*
X174274217Y-100456126D02*
X174274217Y-100420517D01*
X174274217Y-100420517D02*
X174238609Y-100349301D01*
X174238609Y-100349301D02*
X174167392Y-100313692D01*
X174167392Y-100313692D02*
X174060567Y-100313692D01*
X174060567Y-100313692D02*
X173989350Y-100278084D01*
X173989350Y-100278084D02*
X173953742Y-100206867D01*
X173953742Y-100206867D02*
X173953742Y-100171259D01*
X173953742Y-100171259D02*
X173989350Y-100100042D01*
X173989350Y-100100042D02*
X174060567Y-100064434D01*
X174060567Y-100064434D02*
X174167392Y-100064434D01*
X174167392Y-100064434D02*
X174238609Y-100100042D01*
X174594692Y-100562951D02*
X174594692Y-100064434D01*
X174594692Y-99815175D02*
X174559084Y-99850783D01*
X174559084Y-99850783D02*
X174594692Y-99886392D01*
X174594692Y-99886392D02*
X174630301Y-99850783D01*
X174630301Y-99850783D02*
X174594692Y-99815175D01*
X174594692Y-99815175D02*
X174594692Y-99886392D01*
X175271252Y-100527343D02*
X175200035Y-100562951D01*
X175200035Y-100562951D02*
X175057602Y-100562951D01*
X175057602Y-100562951D02*
X174986385Y-100527343D01*
X174986385Y-100527343D02*
X174950776Y-100491734D01*
X174950776Y-100491734D02*
X174915168Y-100420517D01*
X174915168Y-100420517D02*
X174915168Y-100206867D01*
X174915168Y-100206867D02*
X174950776Y-100135650D01*
X174950776Y-100135650D02*
X174986385Y-100100042D01*
X174986385Y-100100042D02*
X175057602Y-100064434D01*
X175057602Y-100064434D02*
X175200035Y-100064434D01*
X175200035Y-100064434D02*
X175271252Y-100100042D01*
X176125853Y-100527343D02*
X176197070Y-100562951D01*
X176197070Y-100562951D02*
X176339503Y-100562951D01*
X176339503Y-100562951D02*
X176410720Y-100527343D01*
X176410720Y-100527343D02*
X176446328Y-100456126D01*
X176446328Y-100456126D02*
X176446328Y-100420517D01*
X176446328Y-100420517D02*
X176410720Y-100349301D01*
X176410720Y-100349301D02*
X176339503Y-100313692D01*
X176339503Y-100313692D02*
X176232678Y-100313692D01*
X176232678Y-100313692D02*
X176161461Y-100278084D01*
X176161461Y-100278084D02*
X176125853Y-100206867D01*
X176125853Y-100206867D02*
X176125853Y-100171259D01*
X176125853Y-100171259D02*
X176161461Y-100100042D01*
X176161461Y-100100042D02*
X176232678Y-100064434D01*
X176232678Y-100064434D02*
X176339503Y-100064434D01*
X176339503Y-100064434D02*
X176410720Y-100100042D01*
X176766803Y-100562951D02*
X176766803Y-100064434D01*
X176766803Y-99815175D02*
X176731195Y-99850783D01*
X176731195Y-99850783D02*
X176766803Y-99886392D01*
X176766803Y-99886392D02*
X176802412Y-99850783D01*
X176802412Y-99850783D02*
X176766803Y-99815175D01*
X176766803Y-99815175D02*
X176766803Y-99886392D01*
X177122887Y-100064434D02*
X177122887Y-100562951D01*
X177122887Y-100135650D02*
X177158496Y-100100042D01*
X177158496Y-100100042D02*
X177229713Y-100064434D01*
X177229713Y-100064434D02*
X177336538Y-100064434D01*
X177336538Y-100064434D02*
X177407754Y-100100042D01*
X177407754Y-100100042D02*
X177443363Y-100171259D01*
X177443363Y-100171259D02*
X177443363Y-100562951D01*
X178119922Y-100064434D02*
X178119922Y-100669776D01*
X178119922Y-100669776D02*
X178084313Y-100740993D01*
X178084313Y-100740993D02*
X178048705Y-100776601D01*
X178048705Y-100776601D02*
X177977488Y-100812210D01*
X177977488Y-100812210D02*
X177870663Y-100812210D01*
X177870663Y-100812210D02*
X177799446Y-100776601D01*
X178119922Y-100527343D02*
X178048705Y-100562951D01*
X178048705Y-100562951D02*
X177906272Y-100562951D01*
X177906272Y-100562951D02*
X177835055Y-100527343D01*
X177835055Y-100527343D02*
X177799446Y-100491734D01*
X177799446Y-100491734D02*
X177763838Y-100420517D01*
X177763838Y-100420517D02*
X177763838Y-100206867D01*
X177763838Y-100206867D02*
X177799446Y-100135650D01*
X177799446Y-100135650D02*
X177835055Y-100100042D01*
X177835055Y-100100042D02*
X177906272Y-100064434D01*
X177906272Y-100064434D02*
X178048705Y-100064434D01*
X178048705Y-100064434D02*
X178119922Y-100100042D01*
X178582831Y-100562951D02*
X178511614Y-100527343D01*
X178511614Y-100527343D02*
X178476005Y-100456126D01*
X178476005Y-100456126D02*
X178476005Y-99815175D01*
X179152564Y-100527343D02*
X179081348Y-100562951D01*
X179081348Y-100562951D02*
X178938914Y-100562951D01*
X178938914Y-100562951D02*
X178867697Y-100527343D01*
X178867697Y-100527343D02*
X178832089Y-100456126D01*
X178832089Y-100456126D02*
X178832089Y-100171259D01*
X178832089Y-100171259D02*
X178867697Y-100100042D01*
X178867697Y-100100042D02*
X178938914Y-100064434D01*
X178938914Y-100064434D02*
X179081348Y-100064434D01*
X179081348Y-100064434D02*
X179152564Y-100100042D01*
X179152564Y-100100042D02*
X179188173Y-100171259D01*
X179188173Y-100171259D02*
X179188173Y-100242475D01*
X179188173Y-100242475D02*
X178832089Y-100313692D01*
X180078382Y-100562951D02*
X180078382Y-99815175D01*
X180078382Y-100100042D02*
X180149599Y-100064434D01*
X180149599Y-100064434D02*
X180292033Y-100064434D01*
X180292033Y-100064434D02*
X180363249Y-100100042D01*
X180363249Y-100100042D02*
X180398858Y-100135650D01*
X180398858Y-100135650D02*
X180434466Y-100206867D01*
X180434466Y-100206867D02*
X180434466Y-100420517D01*
X180434466Y-100420517D02*
X180398858Y-100491734D01*
X180398858Y-100491734D02*
X180363249Y-100527343D01*
X180363249Y-100527343D02*
X180292033Y-100562951D01*
X180292033Y-100562951D02*
X180149599Y-100562951D01*
X180149599Y-100562951D02*
X180078382Y-100527343D01*
X180861767Y-100562951D02*
X180790550Y-100527343D01*
X180790550Y-100527343D02*
X180754941Y-100491734D01*
X180754941Y-100491734D02*
X180719333Y-100420517D01*
X180719333Y-100420517D02*
X180719333Y-100206867D01*
X180719333Y-100206867D02*
X180754941Y-100135650D01*
X180754941Y-100135650D02*
X180790550Y-100100042D01*
X180790550Y-100100042D02*
X180861767Y-100064434D01*
X180861767Y-100064434D02*
X180968592Y-100064434D01*
X180968592Y-100064434D02*
X181039808Y-100100042D01*
X181039808Y-100100042D02*
X181075417Y-100135650D01*
X181075417Y-100135650D02*
X181111025Y-100206867D01*
X181111025Y-100206867D02*
X181111025Y-100420517D01*
X181111025Y-100420517D02*
X181075417Y-100491734D01*
X181075417Y-100491734D02*
X181039808Y-100527343D01*
X181039808Y-100527343D02*
X180968592Y-100562951D01*
X180968592Y-100562951D02*
X180861767Y-100562951D01*
X181751976Y-100562951D02*
X181751976Y-100171259D01*
X181751976Y-100171259D02*
X181716367Y-100100042D01*
X181716367Y-100100042D02*
X181645151Y-100064434D01*
X181645151Y-100064434D02*
X181502717Y-100064434D01*
X181502717Y-100064434D02*
X181431500Y-100100042D01*
X181751976Y-100527343D02*
X181680759Y-100562951D01*
X181680759Y-100562951D02*
X181502717Y-100562951D01*
X181502717Y-100562951D02*
X181431500Y-100527343D01*
X181431500Y-100527343D02*
X181395892Y-100456126D01*
X181395892Y-100456126D02*
X181395892Y-100384909D01*
X181395892Y-100384909D02*
X181431500Y-100313692D01*
X181431500Y-100313692D02*
X181502717Y-100278084D01*
X181502717Y-100278084D02*
X181680759Y-100278084D01*
X181680759Y-100278084D02*
X181751976Y-100242475D01*
X182108059Y-100562951D02*
X182108059Y-100064434D01*
X182108059Y-100206867D02*
X182143668Y-100135650D01*
X182143668Y-100135650D02*
X182179276Y-100100042D01*
X182179276Y-100100042D02*
X182250493Y-100064434D01*
X182250493Y-100064434D02*
X182321710Y-100064434D01*
X182891444Y-100562951D02*
X182891444Y-99815175D01*
X182891444Y-100527343D02*
X182820227Y-100562951D01*
X182820227Y-100562951D02*
X182677794Y-100562951D01*
X182677794Y-100562951D02*
X182606577Y-100527343D01*
X182606577Y-100527343D02*
X182570968Y-100491734D01*
X182570968Y-100491734D02*
X182535360Y-100420517D01*
X182535360Y-100420517D02*
X182535360Y-100206867D01*
X182535360Y-100206867D02*
X182570968Y-100135650D01*
X182570968Y-100135650D02*
X182606577Y-100100042D01*
X182606577Y-100100042D02*
X182677794Y-100064434D01*
X182677794Y-100064434D02*
X182820227Y-100064434D01*
X182820227Y-100064434D02*
X182891444Y-100100042D01*
X183817261Y-100562951D02*
X183817261Y-99815175D01*
X183817261Y-99815175D02*
X184102128Y-99815175D01*
X184102128Y-99815175D02*
X184173345Y-99850783D01*
X184173345Y-99850783D02*
X184208954Y-99886392D01*
X184208954Y-99886392D02*
X184244562Y-99957608D01*
X184244562Y-99957608D02*
X184244562Y-100064434D01*
X184244562Y-100064434D02*
X184208954Y-100135650D01*
X184208954Y-100135650D02*
X184173345Y-100171259D01*
X184173345Y-100171259D02*
X184102128Y-100206867D01*
X184102128Y-100206867D02*
X183817261Y-100206867D01*
X184992338Y-100491734D02*
X184956730Y-100527343D01*
X184956730Y-100527343D02*
X184849904Y-100562951D01*
X184849904Y-100562951D02*
X184778688Y-100562951D01*
X184778688Y-100562951D02*
X184671863Y-100527343D01*
X184671863Y-100527343D02*
X184600646Y-100456126D01*
X184600646Y-100456126D02*
X184565037Y-100384909D01*
X184565037Y-100384909D02*
X184529429Y-100242475D01*
X184529429Y-100242475D02*
X184529429Y-100135650D01*
X184529429Y-100135650D02*
X184565037Y-99993217D01*
X184565037Y-99993217D02*
X184600646Y-99922000D01*
X184600646Y-99922000D02*
X184671863Y-99850783D01*
X184671863Y-99850783D02*
X184778688Y-99815175D01*
X184778688Y-99815175D02*
X184849904Y-99815175D01*
X184849904Y-99815175D02*
X184956730Y-99850783D01*
X184956730Y-99850783D02*
X184992338Y-99886392D01*
X185562072Y-100171259D02*
X185668897Y-100206867D01*
X185668897Y-100206867D02*
X185704506Y-100242475D01*
X185704506Y-100242475D02*
X185740114Y-100313692D01*
X185740114Y-100313692D02*
X185740114Y-100420517D01*
X185740114Y-100420517D02*
X185704506Y-100491734D01*
X185704506Y-100491734D02*
X185668897Y-100527343D01*
X185668897Y-100527343D02*
X185597680Y-100562951D01*
X185597680Y-100562951D02*
X185312813Y-100562951D01*
X185312813Y-100562951D02*
X185312813Y-99815175D01*
X185312813Y-99815175D02*
X185562072Y-99815175D01*
X185562072Y-99815175D02*
X185633289Y-99850783D01*
X185633289Y-99850783D02*
X185668897Y-99886392D01*
X185668897Y-99886392D02*
X185704506Y-99957608D01*
X185704506Y-99957608D02*
X185704506Y-100028825D01*
X185704506Y-100028825D02*
X185668897Y-100100042D01*
X185668897Y-100100042D02*
X185633289Y-100135650D01*
X185633289Y-100135650D02*
X185562072Y-100171259D01*
X185562072Y-100171259D02*
X185312813Y-100171259D01*
X186559107Y-100064434D02*
X186737149Y-100562951D01*
X186737149Y-100562951D02*
X186915190Y-100064434D01*
X187164449Y-99886392D02*
X187200057Y-99850783D01*
X187200057Y-99850783D02*
X187271274Y-99815175D01*
X187271274Y-99815175D02*
X187449316Y-99815175D01*
X187449316Y-99815175D02*
X187520533Y-99850783D01*
X187520533Y-99850783D02*
X187556141Y-99886392D01*
X187556141Y-99886392D02*
X187591750Y-99957608D01*
X187591750Y-99957608D02*
X187591750Y-100028825D01*
X187591750Y-100028825D02*
X187556141Y-100135650D01*
X187556141Y-100135650D02*
X187128841Y-100562951D01*
X187128841Y-100562951D02*
X187591750Y-100562951D01*
X187912225Y-100491734D02*
X187947834Y-100527343D01*
X187947834Y-100527343D02*
X187912225Y-100562951D01*
X187912225Y-100562951D02*
X187876617Y-100527343D01*
X187876617Y-100527343D02*
X187912225Y-100491734D01*
X187912225Y-100491734D02*
X187912225Y-100562951D01*
X188232701Y-99886392D02*
X188268309Y-99850783D01*
X188268309Y-99850783D02*
X188339526Y-99815175D01*
X188339526Y-99815175D02*
X188517568Y-99815175D01*
X188517568Y-99815175D02*
X188588785Y-99850783D01*
X188588785Y-99850783D02*
X188624393Y-99886392D01*
X188624393Y-99886392D02*
X188660002Y-99957608D01*
X188660002Y-99957608D02*
X188660002Y-100028825D01*
X188660002Y-100028825D02*
X188624393Y-100135650D01*
X188624393Y-100135650D02*
X188197093Y-100562951D01*
X188197093Y-100562951D02*
X188660002Y-100562951D01*
X189194128Y-99815175D02*
X189194128Y-100349301D01*
X189194128Y-100349301D02*
X189158519Y-100456126D01*
X189158519Y-100456126D02*
X189087303Y-100527343D01*
X189087303Y-100527343D02*
X188980477Y-100562951D01*
X188980477Y-100562951D02*
X188909261Y-100562951D01*
X189550211Y-100562951D02*
X189550211Y-99815175D01*
X189550211Y-99815175D02*
X189799470Y-100349301D01*
X189799470Y-100349301D02*
X190048729Y-99815175D01*
X190048729Y-99815175D02*
X190048729Y-100562951D01*
X169182220Y-101695611D02*
X169146612Y-101731220D01*
X169146612Y-101731220D02*
X169039786Y-101766828D01*
X169039786Y-101766828D02*
X168968570Y-101766828D01*
X168968570Y-101766828D02*
X168861745Y-101731220D01*
X168861745Y-101731220D02*
X168790528Y-101660003D01*
X168790528Y-101660003D02*
X168754919Y-101588786D01*
X168754919Y-101588786D02*
X168719311Y-101446352D01*
X168719311Y-101446352D02*
X168719311Y-101339527D01*
X168719311Y-101339527D02*
X168754919Y-101197094D01*
X168754919Y-101197094D02*
X168790528Y-101125877D01*
X168790528Y-101125877D02*
X168861745Y-101054660D01*
X168861745Y-101054660D02*
X168968570Y-101019052D01*
X168968570Y-101019052D02*
X169039786Y-101019052D01*
X169039786Y-101019052D02*
X169146612Y-101054660D01*
X169146612Y-101054660D02*
X169182220Y-101090269D01*
X169502695Y-101766828D02*
X169502695Y-101268311D01*
X169502695Y-101019052D02*
X169467087Y-101054660D01*
X169467087Y-101054660D02*
X169502695Y-101090269D01*
X169502695Y-101090269D02*
X169538304Y-101054660D01*
X169538304Y-101054660D02*
X169502695Y-101019052D01*
X169502695Y-101019052D02*
X169502695Y-101090269D01*
X169858779Y-101766828D02*
X169858779Y-101268311D01*
X169858779Y-101410744D02*
X169894388Y-101339527D01*
X169894388Y-101339527D02*
X169929996Y-101303919D01*
X169929996Y-101303919D02*
X170001213Y-101268311D01*
X170001213Y-101268311D02*
X170072430Y-101268311D01*
X170642164Y-101731220D02*
X170570947Y-101766828D01*
X170570947Y-101766828D02*
X170428514Y-101766828D01*
X170428514Y-101766828D02*
X170357297Y-101731220D01*
X170357297Y-101731220D02*
X170321688Y-101695611D01*
X170321688Y-101695611D02*
X170286080Y-101624394D01*
X170286080Y-101624394D02*
X170286080Y-101410744D01*
X170286080Y-101410744D02*
X170321688Y-101339527D01*
X170321688Y-101339527D02*
X170357297Y-101303919D01*
X170357297Y-101303919D02*
X170428514Y-101268311D01*
X170428514Y-101268311D02*
X170570947Y-101268311D01*
X170570947Y-101268311D02*
X170642164Y-101303919D01*
X171283115Y-101268311D02*
X171283115Y-101766828D01*
X170962639Y-101268311D02*
X170962639Y-101660003D01*
X170962639Y-101660003D02*
X170998248Y-101731220D01*
X170998248Y-101731220D02*
X171069465Y-101766828D01*
X171069465Y-101766828D02*
X171176290Y-101766828D01*
X171176290Y-101766828D02*
X171247506Y-101731220D01*
X171247506Y-101731220D02*
X171283115Y-101695611D01*
X171639198Y-101766828D02*
X171639198Y-101268311D01*
X171639198Y-101019052D02*
X171603590Y-101054660D01*
X171603590Y-101054660D02*
X171639198Y-101090269D01*
X171639198Y-101090269D02*
X171674807Y-101054660D01*
X171674807Y-101054660D02*
X171639198Y-101019052D01*
X171639198Y-101019052D02*
X171639198Y-101090269D01*
X171888457Y-101268311D02*
X172173324Y-101268311D01*
X171995282Y-101019052D02*
X171995282Y-101660003D01*
X171995282Y-101660003D02*
X172030891Y-101731220D01*
X172030891Y-101731220D02*
X172102108Y-101766828D01*
X172102108Y-101766828D02*
X172173324Y-101766828D01*
X173312793Y-101766828D02*
X173312793Y-101019052D01*
X173312793Y-101731220D02*
X173241576Y-101766828D01*
X173241576Y-101766828D02*
X173099143Y-101766828D01*
X173099143Y-101766828D02*
X173027926Y-101731220D01*
X173027926Y-101731220D02*
X172992317Y-101695611D01*
X172992317Y-101695611D02*
X172956709Y-101624394D01*
X172956709Y-101624394D02*
X172956709Y-101410744D01*
X172956709Y-101410744D02*
X172992317Y-101339527D01*
X172992317Y-101339527D02*
X173027926Y-101303919D01*
X173027926Y-101303919D02*
X173099143Y-101268311D01*
X173099143Y-101268311D02*
X173241576Y-101268311D01*
X173241576Y-101268311D02*
X173312793Y-101303919D01*
X173953743Y-101731220D02*
X173882527Y-101766828D01*
X173882527Y-101766828D02*
X173740093Y-101766828D01*
X173740093Y-101766828D02*
X173668876Y-101731220D01*
X173668876Y-101731220D02*
X173633268Y-101660003D01*
X173633268Y-101660003D02*
X173633268Y-101375136D01*
X173633268Y-101375136D02*
X173668876Y-101303919D01*
X173668876Y-101303919D02*
X173740093Y-101268311D01*
X173740093Y-101268311D02*
X173882527Y-101268311D01*
X173882527Y-101268311D02*
X173953743Y-101303919D01*
X173953743Y-101303919D02*
X173989352Y-101375136D01*
X173989352Y-101375136D02*
X173989352Y-101446352D01*
X173989352Y-101446352D02*
X173633268Y-101517569D01*
X174274219Y-101731220D02*
X174345436Y-101766828D01*
X174345436Y-101766828D02*
X174487869Y-101766828D01*
X174487869Y-101766828D02*
X174559086Y-101731220D01*
X174559086Y-101731220D02*
X174594694Y-101660003D01*
X174594694Y-101660003D02*
X174594694Y-101624394D01*
X174594694Y-101624394D02*
X174559086Y-101553178D01*
X174559086Y-101553178D02*
X174487869Y-101517569D01*
X174487869Y-101517569D02*
X174381044Y-101517569D01*
X174381044Y-101517569D02*
X174309827Y-101481961D01*
X174309827Y-101481961D02*
X174274219Y-101410744D01*
X174274219Y-101410744D02*
X174274219Y-101375136D01*
X174274219Y-101375136D02*
X174309827Y-101303919D01*
X174309827Y-101303919D02*
X174381044Y-101268311D01*
X174381044Y-101268311D02*
X174487869Y-101268311D01*
X174487869Y-101268311D02*
X174559086Y-101303919D01*
X174915169Y-101766828D02*
X174915169Y-101268311D01*
X174915169Y-101019052D02*
X174879561Y-101054660D01*
X174879561Y-101054660D02*
X174915169Y-101090269D01*
X174915169Y-101090269D02*
X174950778Y-101054660D01*
X174950778Y-101054660D02*
X174915169Y-101019052D01*
X174915169Y-101019052D02*
X174915169Y-101090269D01*
X175591729Y-101268311D02*
X175591729Y-101873653D01*
X175591729Y-101873653D02*
X175556120Y-101944870D01*
X175556120Y-101944870D02*
X175520512Y-101980478D01*
X175520512Y-101980478D02*
X175449295Y-102016087D01*
X175449295Y-102016087D02*
X175342470Y-102016087D01*
X175342470Y-102016087D02*
X175271253Y-101980478D01*
X175591729Y-101731220D02*
X175520512Y-101766828D01*
X175520512Y-101766828D02*
X175378079Y-101766828D01*
X175378079Y-101766828D02*
X175306862Y-101731220D01*
X175306862Y-101731220D02*
X175271253Y-101695611D01*
X175271253Y-101695611D02*
X175235645Y-101624394D01*
X175235645Y-101624394D02*
X175235645Y-101410744D01*
X175235645Y-101410744D02*
X175271253Y-101339527D01*
X175271253Y-101339527D02*
X175306862Y-101303919D01*
X175306862Y-101303919D02*
X175378079Y-101268311D01*
X175378079Y-101268311D02*
X175520512Y-101268311D01*
X175520512Y-101268311D02*
X175591729Y-101303919D01*
X175947812Y-101268311D02*
X175947812Y-101766828D01*
X175947812Y-101339527D02*
X175983421Y-101303919D01*
X175983421Y-101303919D02*
X176054638Y-101268311D01*
X176054638Y-101268311D02*
X176161463Y-101268311D01*
X176161463Y-101268311D02*
X176232679Y-101303919D01*
X176232679Y-101303919D02*
X176268288Y-101375136D01*
X176268288Y-101375136D02*
X176268288Y-101766828D01*
X177194105Y-101766828D02*
X177194105Y-101019052D01*
X177194105Y-101303919D02*
X177265322Y-101268311D01*
X177265322Y-101268311D02*
X177407756Y-101268311D01*
X177407756Y-101268311D02*
X177478972Y-101303919D01*
X177478972Y-101303919D02*
X177514581Y-101339527D01*
X177514581Y-101339527D02*
X177550189Y-101410744D01*
X177550189Y-101410744D02*
X177550189Y-101624394D01*
X177550189Y-101624394D02*
X177514581Y-101695611D01*
X177514581Y-101695611D02*
X177478972Y-101731220D01*
X177478972Y-101731220D02*
X177407756Y-101766828D01*
X177407756Y-101766828D02*
X177265322Y-101766828D01*
X177265322Y-101766828D02*
X177194105Y-101731220D01*
X177799448Y-101268311D02*
X177977490Y-101766828D01*
X178155531Y-101268311D02*
X177977490Y-101766828D01*
X177977490Y-101766828D02*
X177906273Y-101944870D01*
X177906273Y-101944870D02*
X177870664Y-101980478D01*
X177870664Y-101980478D02*
X177799448Y-102016087D01*
X178903307Y-101019052D02*
X179330608Y-101019052D01*
X179116958Y-101766828D02*
X179116958Y-101019052D01*
X179686692Y-101766828D02*
X179615475Y-101731220D01*
X179615475Y-101731220D02*
X179579866Y-101695611D01*
X179579866Y-101695611D02*
X179544258Y-101624394D01*
X179544258Y-101624394D02*
X179544258Y-101410744D01*
X179544258Y-101410744D02*
X179579866Y-101339527D01*
X179579866Y-101339527D02*
X179615475Y-101303919D01*
X179615475Y-101303919D02*
X179686692Y-101268311D01*
X179686692Y-101268311D02*
X179793517Y-101268311D01*
X179793517Y-101268311D02*
X179864733Y-101303919D01*
X179864733Y-101303919D02*
X179900342Y-101339527D01*
X179900342Y-101339527D02*
X179935950Y-101410744D01*
X179935950Y-101410744D02*
X179935950Y-101624394D01*
X179935950Y-101624394D02*
X179900342Y-101695611D01*
X179900342Y-101695611D02*
X179864733Y-101731220D01*
X179864733Y-101731220D02*
X179793517Y-101766828D01*
X179793517Y-101766828D02*
X179686692Y-101766828D01*
X180256425Y-101766828D02*
X180256425Y-101268311D01*
X180256425Y-101339527D02*
X180292034Y-101303919D01*
X180292034Y-101303919D02*
X180363251Y-101268311D01*
X180363251Y-101268311D02*
X180470076Y-101268311D01*
X180470076Y-101268311D02*
X180541292Y-101303919D01*
X180541292Y-101303919D02*
X180576901Y-101375136D01*
X180576901Y-101375136D02*
X180576901Y-101766828D01*
X180576901Y-101375136D02*
X180612509Y-101303919D01*
X180612509Y-101303919D02*
X180683726Y-101268311D01*
X180683726Y-101268311D02*
X180790551Y-101268311D01*
X180790551Y-101268311D02*
X180861768Y-101303919D01*
X180861768Y-101303919D02*
X180897376Y-101375136D01*
X180897376Y-101375136D02*
X180897376Y-101766828D01*
X181751978Y-101019052D02*
X181930020Y-101766828D01*
X181930020Y-101766828D02*
X182072453Y-101232702D01*
X182072453Y-101232702D02*
X182214887Y-101766828D01*
X182214887Y-101766828D02*
X182392929Y-101019052D01*
X182677795Y-101766828D02*
X182677795Y-101019052D01*
X182998271Y-101766828D02*
X182998271Y-101375136D01*
X182998271Y-101375136D02*
X182962662Y-101303919D01*
X182962662Y-101303919D02*
X182891446Y-101268311D01*
X182891446Y-101268311D02*
X182784621Y-101268311D01*
X182784621Y-101268311D02*
X182713404Y-101303919D01*
X182713404Y-101303919D02*
X182677795Y-101339527D01*
X183354354Y-101766828D02*
X183354354Y-101268311D01*
X183354354Y-101019052D02*
X183318746Y-101054660D01*
X183318746Y-101054660D02*
X183354354Y-101090269D01*
X183354354Y-101090269D02*
X183389963Y-101054660D01*
X183389963Y-101054660D02*
X183354354Y-101019052D01*
X183354354Y-101019052D02*
X183354354Y-101090269D01*
X183603613Y-101268311D02*
X183888480Y-101268311D01*
X183710438Y-101019052D02*
X183710438Y-101660003D01*
X183710438Y-101660003D02*
X183746047Y-101731220D01*
X183746047Y-101731220D02*
X183817264Y-101766828D01*
X183817264Y-101766828D02*
X183888480Y-101766828D01*
X184066523Y-101268311D02*
X184208956Y-101766828D01*
X184208956Y-101766828D02*
X184351390Y-101410744D01*
X184351390Y-101410744D02*
X184493823Y-101766828D01*
X184493823Y-101766828D02*
X184636257Y-101268311D01*
X185205990Y-101731220D02*
X185134774Y-101766828D01*
X185134774Y-101766828D02*
X184992340Y-101766828D01*
X184992340Y-101766828D02*
X184921123Y-101731220D01*
X184921123Y-101731220D02*
X184885515Y-101660003D01*
X184885515Y-101660003D02*
X184885515Y-101375136D01*
X184885515Y-101375136D02*
X184921123Y-101303919D01*
X184921123Y-101303919D02*
X184992340Y-101268311D01*
X184992340Y-101268311D02*
X185134774Y-101268311D01*
X185134774Y-101268311D02*
X185205990Y-101303919D01*
X185205990Y-101303919D02*
X185241599Y-101375136D01*
X185241599Y-101375136D02*
X185241599Y-101446352D01*
X185241599Y-101446352D02*
X184885515Y-101517569D01*
X185668900Y-101766828D02*
X185597683Y-101731220D01*
X185597683Y-101731220D02*
X185562074Y-101660003D01*
X185562074Y-101660003D02*
X185562074Y-101019052D01*
X186060592Y-101766828D02*
X185989375Y-101731220D01*
X185989375Y-101731220D02*
X185953766Y-101660003D01*
X185953766Y-101660003D02*
X185953766Y-101019052D01*
X169004178Y-102579013D02*
X169111003Y-102614621D01*
X169111003Y-102614621D02*
X169146612Y-102650229D01*
X169146612Y-102650229D02*
X169182220Y-102721446D01*
X169182220Y-102721446D02*
X169182220Y-102828271D01*
X169182220Y-102828271D02*
X169146612Y-102899488D01*
X169146612Y-102899488D02*
X169111003Y-102935097D01*
X169111003Y-102935097D02*
X169039786Y-102970705D01*
X169039786Y-102970705D02*
X168754919Y-102970705D01*
X168754919Y-102970705D02*
X168754919Y-102222929D01*
X168754919Y-102222929D02*
X169004178Y-102222929D01*
X169004178Y-102222929D02*
X169075395Y-102258537D01*
X169075395Y-102258537D02*
X169111003Y-102294146D01*
X169111003Y-102294146D02*
X169146612Y-102365362D01*
X169146612Y-102365362D02*
X169146612Y-102436579D01*
X169146612Y-102436579D02*
X169111003Y-102507796D01*
X169111003Y-102507796D02*
X169075395Y-102543404D01*
X169075395Y-102543404D02*
X169004178Y-102579013D01*
X169004178Y-102579013D02*
X168754919Y-102579013D01*
X169609521Y-102970705D02*
X169538304Y-102935097D01*
X169538304Y-102935097D02*
X169502695Y-102899488D01*
X169502695Y-102899488D02*
X169467087Y-102828271D01*
X169467087Y-102828271D02*
X169467087Y-102614621D01*
X169467087Y-102614621D02*
X169502695Y-102543404D01*
X169502695Y-102543404D02*
X169538304Y-102507796D01*
X169538304Y-102507796D02*
X169609521Y-102472188D01*
X169609521Y-102472188D02*
X169716346Y-102472188D01*
X169716346Y-102472188D02*
X169787562Y-102507796D01*
X169787562Y-102507796D02*
X169823171Y-102543404D01*
X169823171Y-102543404D02*
X169858779Y-102614621D01*
X169858779Y-102614621D02*
X169858779Y-102828271D01*
X169858779Y-102828271D02*
X169823171Y-102899488D01*
X169823171Y-102899488D02*
X169787562Y-102935097D01*
X169787562Y-102935097D02*
X169716346Y-102970705D01*
X169716346Y-102970705D02*
X169609521Y-102970705D01*
X170499730Y-102970705D02*
X170499730Y-102579013D01*
X170499730Y-102579013D02*
X170464121Y-102507796D01*
X170464121Y-102507796D02*
X170392905Y-102472188D01*
X170392905Y-102472188D02*
X170250471Y-102472188D01*
X170250471Y-102472188D02*
X170179254Y-102507796D01*
X170499730Y-102935097D02*
X170428513Y-102970705D01*
X170428513Y-102970705D02*
X170250471Y-102970705D01*
X170250471Y-102970705D02*
X170179254Y-102935097D01*
X170179254Y-102935097D02*
X170143646Y-102863880D01*
X170143646Y-102863880D02*
X170143646Y-102792663D01*
X170143646Y-102792663D02*
X170179254Y-102721446D01*
X170179254Y-102721446D02*
X170250471Y-102685838D01*
X170250471Y-102685838D02*
X170428513Y-102685838D01*
X170428513Y-102685838D02*
X170499730Y-102650229D01*
X170855813Y-102970705D02*
X170855813Y-102472188D01*
X170855813Y-102614621D02*
X170891422Y-102543404D01*
X170891422Y-102543404D02*
X170927030Y-102507796D01*
X170927030Y-102507796D02*
X170998247Y-102472188D01*
X170998247Y-102472188D02*
X171069464Y-102472188D01*
X171639198Y-102970705D02*
X171639198Y-102222929D01*
X171639198Y-102935097D02*
X171567981Y-102970705D01*
X171567981Y-102970705D02*
X171425548Y-102970705D01*
X171425548Y-102970705D02*
X171354331Y-102935097D01*
X171354331Y-102935097D02*
X171318722Y-102899488D01*
X171318722Y-102899488D02*
X171283114Y-102828271D01*
X171283114Y-102828271D02*
X171283114Y-102614621D01*
X171283114Y-102614621D02*
X171318722Y-102543404D01*
X171318722Y-102543404D02*
X171354331Y-102507796D01*
X171354331Y-102507796D02*
X171425548Y-102472188D01*
X171425548Y-102472188D02*
X171567981Y-102472188D01*
X171567981Y-102472188D02*
X171639198Y-102507796D01*
X172885491Y-102970705D02*
X172885491Y-102222929D01*
X172885491Y-102935097D02*
X172814274Y-102970705D01*
X172814274Y-102970705D02*
X172671841Y-102970705D01*
X172671841Y-102970705D02*
X172600624Y-102935097D01*
X172600624Y-102935097D02*
X172565015Y-102899488D01*
X172565015Y-102899488D02*
X172529407Y-102828271D01*
X172529407Y-102828271D02*
X172529407Y-102614621D01*
X172529407Y-102614621D02*
X172565015Y-102543404D01*
X172565015Y-102543404D02*
X172600624Y-102507796D01*
X172600624Y-102507796D02*
X172671841Y-102472188D01*
X172671841Y-102472188D02*
X172814274Y-102472188D01*
X172814274Y-102472188D02*
X172885491Y-102507796D01*
X173526441Y-102935097D02*
X173455225Y-102970705D01*
X173455225Y-102970705D02*
X173312791Y-102970705D01*
X173312791Y-102970705D02*
X173241574Y-102935097D01*
X173241574Y-102935097D02*
X173205966Y-102863880D01*
X173205966Y-102863880D02*
X173205966Y-102579013D01*
X173205966Y-102579013D02*
X173241574Y-102507796D01*
X173241574Y-102507796D02*
X173312791Y-102472188D01*
X173312791Y-102472188D02*
X173455225Y-102472188D01*
X173455225Y-102472188D02*
X173526441Y-102507796D01*
X173526441Y-102507796D02*
X173562050Y-102579013D01*
X173562050Y-102579013D02*
X173562050Y-102650229D01*
X173562050Y-102650229D02*
X173205966Y-102721446D01*
X173846917Y-102935097D02*
X173918134Y-102970705D01*
X173918134Y-102970705D02*
X174060567Y-102970705D01*
X174060567Y-102970705D02*
X174131784Y-102935097D01*
X174131784Y-102935097D02*
X174167392Y-102863880D01*
X174167392Y-102863880D02*
X174167392Y-102828271D01*
X174167392Y-102828271D02*
X174131784Y-102757055D01*
X174131784Y-102757055D02*
X174060567Y-102721446D01*
X174060567Y-102721446D02*
X173953742Y-102721446D01*
X173953742Y-102721446D02*
X173882525Y-102685838D01*
X173882525Y-102685838D02*
X173846917Y-102614621D01*
X173846917Y-102614621D02*
X173846917Y-102579013D01*
X173846917Y-102579013D02*
X173882525Y-102507796D01*
X173882525Y-102507796D02*
X173953742Y-102472188D01*
X173953742Y-102472188D02*
X174060567Y-102472188D01*
X174060567Y-102472188D02*
X174131784Y-102507796D01*
X174487867Y-102970705D02*
X174487867Y-102472188D01*
X174487867Y-102222929D02*
X174452259Y-102258537D01*
X174452259Y-102258537D02*
X174487867Y-102294146D01*
X174487867Y-102294146D02*
X174523476Y-102258537D01*
X174523476Y-102258537D02*
X174487867Y-102222929D01*
X174487867Y-102222929D02*
X174487867Y-102294146D01*
X175164427Y-102472188D02*
X175164427Y-103077530D01*
X175164427Y-103077530D02*
X175128818Y-103148747D01*
X175128818Y-103148747D02*
X175093210Y-103184355D01*
X175093210Y-103184355D02*
X175021993Y-103219964D01*
X175021993Y-103219964D02*
X174915168Y-103219964D01*
X174915168Y-103219964D02*
X174843951Y-103184355D01*
X175164427Y-102935097D02*
X175093210Y-102970705D01*
X175093210Y-102970705D02*
X174950777Y-102970705D01*
X174950777Y-102970705D02*
X174879560Y-102935097D01*
X174879560Y-102935097D02*
X174843951Y-102899488D01*
X174843951Y-102899488D02*
X174808343Y-102828271D01*
X174808343Y-102828271D02*
X174808343Y-102614621D01*
X174808343Y-102614621D02*
X174843951Y-102543404D01*
X174843951Y-102543404D02*
X174879560Y-102507796D01*
X174879560Y-102507796D02*
X174950777Y-102472188D01*
X174950777Y-102472188D02*
X175093210Y-102472188D01*
X175093210Y-102472188D02*
X175164427Y-102507796D01*
X175520510Y-102472188D02*
X175520510Y-102970705D01*
X175520510Y-102543404D02*
X175556119Y-102507796D01*
X175556119Y-102507796D02*
X175627336Y-102472188D01*
X175627336Y-102472188D02*
X175734161Y-102472188D01*
X175734161Y-102472188D02*
X175805377Y-102507796D01*
X175805377Y-102507796D02*
X175840986Y-102579013D01*
X175840986Y-102579013D02*
X175840986Y-102970705D01*
X176766803Y-102970705D02*
X176766803Y-102222929D01*
X176766803Y-102507796D02*
X176838020Y-102472188D01*
X176838020Y-102472188D02*
X176980454Y-102472188D01*
X176980454Y-102472188D02*
X177051670Y-102507796D01*
X177051670Y-102507796D02*
X177087279Y-102543404D01*
X177087279Y-102543404D02*
X177122887Y-102614621D01*
X177122887Y-102614621D02*
X177122887Y-102828271D01*
X177122887Y-102828271D02*
X177087279Y-102899488D01*
X177087279Y-102899488D02*
X177051670Y-102935097D01*
X177051670Y-102935097D02*
X176980454Y-102970705D01*
X176980454Y-102970705D02*
X176838020Y-102970705D01*
X176838020Y-102970705D02*
X176766803Y-102935097D01*
X177372146Y-102472188D02*
X177550188Y-102970705D01*
X177728229Y-102472188D02*
X177550188Y-102970705D01*
X177550188Y-102970705D02*
X177478971Y-103148747D01*
X177478971Y-103148747D02*
X177443362Y-103184355D01*
X177443362Y-103184355D02*
X177372146Y-103219964D01*
X178796481Y-102222929D02*
X178796481Y-102757055D01*
X178796481Y-102757055D02*
X178760872Y-102863880D01*
X178760872Y-102863880D02*
X178689656Y-102935097D01*
X178689656Y-102935097D02*
X178582830Y-102970705D01*
X178582830Y-102970705D02*
X178511614Y-102970705D01*
X179152564Y-102970705D02*
X179152564Y-102472188D01*
X179152564Y-102222929D02*
X179116956Y-102258537D01*
X179116956Y-102258537D02*
X179152564Y-102294146D01*
X179152564Y-102294146D02*
X179188173Y-102258537D01*
X179188173Y-102258537D02*
X179152564Y-102222929D01*
X179152564Y-102222929D02*
X179152564Y-102294146D01*
X179508648Y-102970705D02*
X179508648Y-102472188D01*
X179508648Y-102543404D02*
X179544257Y-102507796D01*
X179544257Y-102507796D02*
X179615474Y-102472188D01*
X179615474Y-102472188D02*
X179722299Y-102472188D01*
X179722299Y-102472188D02*
X179793515Y-102507796D01*
X179793515Y-102507796D02*
X179829124Y-102579013D01*
X179829124Y-102579013D02*
X179829124Y-102970705D01*
X179829124Y-102579013D02*
X179864732Y-102507796D01*
X179864732Y-102507796D02*
X179935949Y-102472188D01*
X179935949Y-102472188D02*
X180042774Y-102472188D01*
X180042774Y-102472188D02*
X180113991Y-102507796D01*
X180113991Y-102507796D02*
X180149599Y-102579013D01*
X180149599Y-102579013D02*
X180149599Y-102970705D01*
X181075417Y-102970705D02*
X181075417Y-102222929D01*
X181075417Y-102222929D02*
X181324676Y-102757055D01*
X181324676Y-102757055D02*
X181573935Y-102222929D01*
X181573935Y-102222929D02*
X181573935Y-102970705D01*
X182250494Y-102472188D02*
X182250494Y-102970705D01*
X181930018Y-102472188D02*
X181930018Y-102863880D01*
X181930018Y-102863880D02*
X181965627Y-102935097D01*
X181965627Y-102935097D02*
X182036844Y-102970705D01*
X182036844Y-102970705D02*
X182143669Y-102970705D01*
X182143669Y-102970705D02*
X182214885Y-102935097D01*
X182214885Y-102935097D02*
X182250494Y-102899488D01*
X182713403Y-102970705D02*
X182642186Y-102935097D01*
X182642186Y-102935097D02*
X182606577Y-102863880D01*
X182606577Y-102863880D02*
X182606577Y-102222929D01*
X182927053Y-102472188D02*
X183105095Y-102970705D01*
X183105095Y-102970705D02*
X183283136Y-102472188D01*
X183852870Y-102935097D02*
X183781654Y-102970705D01*
X183781654Y-102970705D02*
X183639220Y-102970705D01*
X183639220Y-102970705D02*
X183568003Y-102935097D01*
X183568003Y-102935097D02*
X183532395Y-102863880D01*
X183532395Y-102863880D02*
X183532395Y-102579013D01*
X183532395Y-102579013D02*
X183568003Y-102507796D01*
X183568003Y-102507796D02*
X183639220Y-102472188D01*
X183639220Y-102472188D02*
X183781654Y-102472188D01*
X183781654Y-102472188D02*
X183852870Y-102507796D01*
X183852870Y-102507796D02*
X183888479Y-102579013D01*
X183888479Y-102579013D02*
X183888479Y-102650229D01*
X183888479Y-102650229D02*
X183532395Y-102721446D01*
X184137738Y-102472188D02*
X184315780Y-102970705D01*
X184493821Y-102472188D02*
X184315780Y-102970705D01*
X184315780Y-102970705D02*
X184244563Y-103148747D01*
X184244563Y-103148747D02*
X184208954Y-103184355D01*
X184208954Y-103184355D02*
X184137738Y-103219964D01*
D11*
X110370856Y-114556537D02*
X110326926Y-114600467D01*
X110326926Y-114600467D02*
X110195136Y-114644396D01*
X110195136Y-114644396D02*
X110107276Y-114644396D01*
X110107276Y-114644396D02*
X109975487Y-114600467D01*
X109975487Y-114600467D02*
X109887627Y-114512607D01*
X109887627Y-114512607D02*
X109843697Y-114424747D01*
X109843697Y-114424747D02*
X109799767Y-114249027D01*
X109799767Y-114249027D02*
X109799767Y-114117238D01*
X109799767Y-114117238D02*
X109843697Y-113941518D01*
X109843697Y-113941518D02*
X109887627Y-113853658D01*
X109887627Y-113853658D02*
X109975487Y-113765798D01*
X109975487Y-113765798D02*
X110107276Y-113721868D01*
X110107276Y-113721868D02*
X110195136Y-113721868D01*
X110195136Y-113721868D02*
X110326926Y-113765798D01*
X110326926Y-113765798D02*
X110370856Y-113809728D01*
X110766225Y-114644396D02*
X110766225Y-113721868D01*
X110766225Y-114161167D02*
X111293384Y-114161167D01*
X111293384Y-114644396D02*
X111293384Y-113721868D01*
X111688753Y-114380817D02*
X112128052Y-114380817D01*
X111600893Y-114644396D02*
X111908403Y-113721868D01*
X111908403Y-113721868D02*
X112215912Y-114644396D01*
X112523421Y-114644396D02*
X112523421Y-113721868D01*
X112523421Y-113721868D02*
X113050580Y-114644396D01*
X113050580Y-114644396D02*
X113050580Y-113721868D01*
X113489879Y-114644396D02*
X113489879Y-113721868D01*
X113489879Y-113721868D02*
X114017038Y-114644396D01*
X114017038Y-114644396D02*
X114017038Y-113721868D01*
X114456337Y-114161167D02*
X114763846Y-114161167D01*
X114895636Y-114644396D02*
X114456337Y-114644396D01*
X114456337Y-114644396D02*
X114456337Y-113721868D01*
X114456337Y-113721868D02*
X114895636Y-113721868D01*
X115730304Y-114644396D02*
X115291005Y-114644396D01*
X115291005Y-114644396D02*
X115291005Y-113721868D01*
X116037813Y-114292957D02*
X116740692Y-114292957D01*
X117707150Y-114556537D02*
X117663220Y-114600467D01*
X117663220Y-114600467D02*
X117531430Y-114644396D01*
X117531430Y-114644396D02*
X117443570Y-114644396D01*
X117443570Y-114644396D02*
X117311781Y-114600467D01*
X117311781Y-114600467D02*
X117223921Y-114512607D01*
X117223921Y-114512607D02*
X117179991Y-114424747D01*
X117179991Y-114424747D02*
X117136061Y-114249027D01*
X117136061Y-114249027D02*
X117136061Y-114117238D01*
X117136061Y-114117238D02*
X117179991Y-113941518D01*
X117179991Y-113941518D02*
X117223921Y-113853658D01*
X117223921Y-113853658D02*
X117311781Y-113765798D01*
X117311781Y-113765798D02*
X117443570Y-113721868D01*
X117443570Y-113721868D02*
X117531430Y-113721868D01*
X117531430Y-113721868D02*
X117663220Y-113765798D01*
X117663220Y-113765798D02*
X117707150Y-113809728D01*
X117970729Y-113721868D02*
X118278239Y-114644396D01*
X118278239Y-114644396D02*
X118585748Y-113721868D01*
X119068977Y-113721868D02*
X119156836Y-113721868D01*
X119156836Y-113721868D02*
X119244696Y-113765798D01*
X119244696Y-113765798D02*
X119288626Y-113809728D01*
X119288626Y-113809728D02*
X119332556Y-113897588D01*
X119332556Y-113897588D02*
X119376486Y-114073308D01*
X119376486Y-114073308D02*
X119376486Y-114292957D01*
X119376486Y-114292957D02*
X119332556Y-114468677D01*
X119332556Y-114468677D02*
X119288626Y-114556537D01*
X119288626Y-114556537D02*
X119244696Y-114600467D01*
X119244696Y-114600467D02*
X119156836Y-114644396D01*
X119156836Y-114644396D02*
X119068977Y-114644396D01*
X119068977Y-114644396D02*
X118981117Y-114600467D01*
X118981117Y-114600467D02*
X118937187Y-114556537D01*
X118937187Y-114556537D02*
X118893257Y-114468677D01*
X118893257Y-114468677D02*
X118849327Y-114292957D01*
X118849327Y-114292957D02*
X118849327Y-114073308D01*
X118849327Y-114073308D02*
X118893257Y-113897588D01*
X118893257Y-113897588D02*
X118937187Y-113809728D01*
X118937187Y-113809728D02*
X118981117Y-113765798D01*
X118981117Y-113765798D02*
X119068977Y-113721868D01*
X95957832Y-104687596D02*
X95650323Y-104248297D01*
X95430673Y-104687596D02*
X95430673Y-103765068D01*
X95430673Y-103765068D02*
X95782112Y-103765068D01*
X95782112Y-103765068D02*
X95869972Y-103808998D01*
X95869972Y-103808998D02*
X95913902Y-103852928D01*
X95913902Y-103852928D02*
X95957832Y-103940788D01*
X95957832Y-103940788D02*
X95957832Y-104072578D01*
X95957832Y-104072578D02*
X95913902Y-104160438D01*
X95913902Y-104160438D02*
X95869972Y-104204367D01*
X95869972Y-104204367D02*
X95782112Y-104248297D01*
X95782112Y-104248297D02*
X95430673Y-104248297D01*
X96353201Y-104204367D02*
X96660710Y-104204367D01*
X96792500Y-104687596D02*
X96353201Y-104687596D01*
X96353201Y-104687596D02*
X96353201Y-103765068D01*
X96353201Y-103765068D02*
X96792500Y-103765068D01*
X97143939Y-104643667D02*
X97275729Y-104687596D01*
X97275729Y-104687596D02*
X97495378Y-104687596D01*
X97495378Y-104687596D02*
X97583238Y-104643667D01*
X97583238Y-104643667D02*
X97627168Y-104599737D01*
X97627168Y-104599737D02*
X97671098Y-104511877D01*
X97671098Y-104511877D02*
X97671098Y-104424017D01*
X97671098Y-104424017D02*
X97627168Y-104336157D01*
X97627168Y-104336157D02*
X97583238Y-104292227D01*
X97583238Y-104292227D02*
X97495378Y-104248297D01*
X97495378Y-104248297D02*
X97319659Y-104204367D01*
X97319659Y-104204367D02*
X97231799Y-104160438D01*
X97231799Y-104160438D02*
X97187869Y-104116508D01*
X97187869Y-104116508D02*
X97143939Y-104028648D01*
X97143939Y-104028648D02*
X97143939Y-103940788D01*
X97143939Y-103940788D02*
X97187869Y-103852928D01*
X97187869Y-103852928D02*
X97231799Y-103808998D01*
X97231799Y-103808998D02*
X97319659Y-103765068D01*
X97319659Y-103765068D02*
X97539308Y-103765068D01*
X97539308Y-103765068D02*
X97671098Y-103808998D01*
X98066467Y-104204367D02*
X98373976Y-104204367D01*
X98505766Y-104687596D02*
X98066467Y-104687596D01*
X98066467Y-104687596D02*
X98066467Y-103765068D01*
X98066467Y-103765068D02*
X98505766Y-103765068D01*
X98769345Y-103765068D02*
X99296504Y-103765068D01*
X99032925Y-104687596D02*
X99032925Y-103765068D01*
X99604013Y-104336157D02*
X100306892Y-104336157D01*
X101273350Y-104599737D02*
X101229420Y-104643667D01*
X101229420Y-104643667D02*
X101097630Y-104687596D01*
X101097630Y-104687596D02*
X101009770Y-104687596D01*
X101009770Y-104687596D02*
X100877981Y-104643667D01*
X100877981Y-104643667D02*
X100790121Y-104555807D01*
X100790121Y-104555807D02*
X100746191Y-104467947D01*
X100746191Y-104467947D02*
X100702261Y-104292227D01*
X100702261Y-104292227D02*
X100702261Y-104160438D01*
X100702261Y-104160438D02*
X100746191Y-103984718D01*
X100746191Y-103984718D02*
X100790121Y-103896858D01*
X100790121Y-103896858D02*
X100877981Y-103808998D01*
X100877981Y-103808998D02*
X101009770Y-103765068D01*
X101009770Y-103765068D02*
X101097630Y-103765068D01*
X101097630Y-103765068D02*
X101229420Y-103808998D01*
X101229420Y-103808998D02*
X101273350Y-103852928D01*
X101536929Y-103765068D02*
X101844439Y-104687596D01*
X101844439Y-104687596D02*
X102151948Y-103765068D01*
X102635177Y-103765068D02*
X102723036Y-103765068D01*
X102723036Y-103765068D02*
X102810896Y-103808998D01*
X102810896Y-103808998D02*
X102854826Y-103852928D01*
X102854826Y-103852928D02*
X102898756Y-103940788D01*
X102898756Y-103940788D02*
X102942686Y-104116508D01*
X102942686Y-104116508D02*
X102942686Y-104336157D01*
X102942686Y-104336157D02*
X102898756Y-104511877D01*
X102898756Y-104511877D02*
X102854826Y-104599737D01*
X102854826Y-104599737D02*
X102810896Y-104643667D01*
X102810896Y-104643667D02*
X102723036Y-104687596D01*
X102723036Y-104687596D02*
X102635177Y-104687596D01*
X102635177Y-104687596D02*
X102547317Y-104643667D01*
X102547317Y-104643667D02*
X102503387Y-104599737D01*
X102503387Y-104599737D02*
X102459457Y-104511877D01*
X102459457Y-104511877D02*
X102415527Y-104336157D01*
X102415527Y-104336157D02*
X102415527Y-104116508D01*
X102415527Y-104116508D02*
X102459457Y-103940788D01*
X102459457Y-103940788D02*
X102503387Y-103852928D01*
X102503387Y-103852928D02*
X102547317Y-103808998D01*
X102547317Y-103808998D02*
X102635177Y-103765068D01*
X109623660Y-103765068D02*
X110150819Y-103765068D01*
X109887240Y-104687596D02*
X109887240Y-103765068D01*
X110458328Y-104687596D02*
X110458328Y-103765068D01*
X110897627Y-104687596D02*
X110897627Y-103765068D01*
X110897627Y-103765068D02*
X111205136Y-104424017D01*
X111205136Y-104424017D02*
X111512646Y-103765068D01*
X111512646Y-103765068D02*
X111512646Y-104687596D01*
X111951945Y-104204367D02*
X112259454Y-104204367D01*
X112391244Y-104687596D02*
X111951945Y-104687596D01*
X111951945Y-104687596D02*
X111951945Y-103765068D01*
X111951945Y-103765068D02*
X112391244Y-103765068D01*
X112786613Y-104336157D02*
X113489492Y-104336157D01*
X114455950Y-104599737D02*
X114412020Y-104643667D01*
X114412020Y-104643667D02*
X114280230Y-104687596D01*
X114280230Y-104687596D02*
X114192370Y-104687596D01*
X114192370Y-104687596D02*
X114060581Y-104643667D01*
X114060581Y-104643667D02*
X113972721Y-104555807D01*
X113972721Y-104555807D02*
X113928791Y-104467947D01*
X113928791Y-104467947D02*
X113884861Y-104292227D01*
X113884861Y-104292227D02*
X113884861Y-104160438D01*
X113884861Y-104160438D02*
X113928791Y-103984718D01*
X113928791Y-103984718D02*
X113972721Y-103896858D01*
X113972721Y-103896858D02*
X114060581Y-103808998D01*
X114060581Y-103808998D02*
X114192370Y-103765068D01*
X114192370Y-103765068D02*
X114280230Y-103765068D01*
X114280230Y-103765068D02*
X114412020Y-103808998D01*
X114412020Y-103808998D02*
X114455950Y-103852928D01*
X114719529Y-103765068D02*
X115027039Y-104687596D01*
X115027039Y-104687596D02*
X115334548Y-103765068D01*
X115817777Y-103765068D02*
X115905636Y-103765068D01*
X115905636Y-103765068D02*
X115993496Y-103808998D01*
X115993496Y-103808998D02*
X116037426Y-103852928D01*
X116037426Y-103852928D02*
X116081356Y-103940788D01*
X116081356Y-103940788D02*
X116125286Y-104116508D01*
X116125286Y-104116508D02*
X116125286Y-104336157D01*
X116125286Y-104336157D02*
X116081356Y-104511877D01*
X116081356Y-104511877D02*
X116037426Y-104599737D01*
X116037426Y-104599737D02*
X115993496Y-104643667D01*
X115993496Y-104643667D02*
X115905636Y-104687596D01*
X115905636Y-104687596D02*
X115817777Y-104687596D01*
X115817777Y-104687596D02*
X115729917Y-104643667D01*
X115729917Y-104643667D02*
X115685987Y-104599737D01*
X115685987Y-104599737D02*
X115642057Y-104511877D01*
X115642057Y-104511877D02*
X115598127Y-104336157D01*
X115598127Y-104336157D02*
X115598127Y-104116508D01*
X115598127Y-104116508D02*
X115642057Y-103940788D01*
X115642057Y-103940788D02*
X115685987Y-103852928D01*
X115685987Y-103852928D02*
X115729917Y-103808998D01*
X115729917Y-103808998D02*
X115817777Y-103765068D01*
X144026655Y-110179678D02*
X143466403Y-110571854D01*
X144026655Y-110851980D02*
X142850127Y-110851980D01*
X142850127Y-110851980D02*
X142850127Y-110403779D01*
X142850127Y-110403779D02*
X142906152Y-110291728D01*
X142906152Y-110291728D02*
X142962177Y-110235703D01*
X142962177Y-110235703D02*
X143074227Y-110179678D01*
X143074227Y-110179678D02*
X143242303Y-110179678D01*
X143242303Y-110179678D02*
X143354353Y-110235703D01*
X143354353Y-110235703D02*
X143410378Y-110291728D01*
X143410378Y-110291728D02*
X143466403Y-110403779D01*
X143466403Y-110403779D02*
X143466403Y-110851980D01*
X143410378Y-109675452D02*
X143410378Y-109283276D01*
X144026655Y-109115200D02*
X144026655Y-109675452D01*
X144026655Y-109675452D02*
X142850127Y-109675452D01*
X142850127Y-109675452D02*
X142850127Y-109115200D01*
X143970630Y-108666999D02*
X144026655Y-108498924D01*
X144026655Y-108498924D02*
X144026655Y-108218798D01*
X144026655Y-108218798D02*
X143970630Y-108106748D01*
X143970630Y-108106748D02*
X143914604Y-108050722D01*
X143914604Y-108050722D02*
X143802554Y-107994697D01*
X143802554Y-107994697D02*
X143690504Y-107994697D01*
X143690504Y-107994697D02*
X143578454Y-108050722D01*
X143578454Y-108050722D02*
X143522428Y-108106748D01*
X143522428Y-108106748D02*
X143466403Y-108218798D01*
X143466403Y-108218798D02*
X143410378Y-108442898D01*
X143410378Y-108442898D02*
X143354353Y-108554949D01*
X143354353Y-108554949D02*
X143298328Y-108610974D01*
X143298328Y-108610974D02*
X143186278Y-108666999D01*
X143186278Y-108666999D02*
X143074227Y-108666999D01*
X143074227Y-108666999D02*
X142962177Y-108610974D01*
X142962177Y-108610974D02*
X142906152Y-108554949D01*
X142906152Y-108554949D02*
X142850127Y-108442898D01*
X142850127Y-108442898D02*
X142850127Y-108162773D01*
X142850127Y-108162773D02*
X142906152Y-107994697D01*
X143410378Y-107490471D02*
X143410378Y-107098295D01*
X144026655Y-106930219D02*
X144026655Y-107490471D01*
X144026655Y-107490471D02*
X142850127Y-107490471D01*
X142850127Y-107490471D02*
X142850127Y-106930219D01*
X142850127Y-106594068D02*
X142850127Y-105921767D01*
X144026655Y-106257917D02*
X142850127Y-106257917D01*
X142850127Y-105305490D02*
X142850127Y-105193440D01*
X142850127Y-105193440D02*
X142906152Y-105081390D01*
X142906152Y-105081390D02*
X142962177Y-105025365D01*
X142962177Y-105025365D02*
X143074227Y-104969339D01*
X143074227Y-104969339D02*
X143298328Y-104913314D01*
X143298328Y-104913314D02*
X143578454Y-104913314D01*
X143578454Y-104913314D02*
X143802554Y-104969339D01*
X143802554Y-104969339D02*
X143914604Y-105025365D01*
X143914604Y-105025365D02*
X143970630Y-105081390D01*
X143970630Y-105081390D02*
X144026655Y-105193440D01*
X144026655Y-105193440D02*
X144026655Y-105305490D01*
X144026655Y-105305490D02*
X143970630Y-105417541D01*
X143970630Y-105417541D02*
X143914604Y-105473566D01*
X143914604Y-105473566D02*
X143802554Y-105529591D01*
X143802554Y-105529591D02*
X143578454Y-105585616D01*
X143578454Y-105585616D02*
X143298328Y-105585616D01*
X143298328Y-105585616D02*
X143074227Y-105529591D01*
X143074227Y-105529591D02*
X142962177Y-105473566D01*
X142962177Y-105473566D02*
X142906152Y-105417541D01*
X142906152Y-105417541D02*
X142850127Y-105305490D01*
X95578719Y-113721868D02*
X95754438Y-113721868D01*
X95754438Y-113721868D02*
X95842298Y-113765798D01*
X95842298Y-113765798D02*
X95930158Y-113853658D01*
X95930158Y-113853658D02*
X95974088Y-114029378D01*
X95974088Y-114029378D02*
X95974088Y-114336887D01*
X95974088Y-114336887D02*
X95930158Y-114512607D01*
X95930158Y-114512607D02*
X95842298Y-114600467D01*
X95842298Y-114600467D02*
X95754438Y-114644396D01*
X95754438Y-114644396D02*
X95578719Y-114644396D01*
X95578719Y-114644396D02*
X95490859Y-114600467D01*
X95490859Y-114600467D02*
X95402999Y-114512607D01*
X95402999Y-114512607D02*
X95359069Y-114336887D01*
X95359069Y-114336887D02*
X95359069Y-114029378D01*
X95359069Y-114029378D02*
X95402999Y-113853658D01*
X95402999Y-113853658D02*
X95490859Y-113765798D01*
X95490859Y-113765798D02*
X95578719Y-113721868D01*
X96369457Y-113721868D02*
X96369457Y-114468677D01*
X96369457Y-114468677D02*
X96413387Y-114556537D01*
X96413387Y-114556537D02*
X96457317Y-114600467D01*
X96457317Y-114600467D02*
X96545177Y-114644396D01*
X96545177Y-114644396D02*
X96720896Y-114644396D01*
X96720896Y-114644396D02*
X96808756Y-114600467D01*
X96808756Y-114600467D02*
X96852686Y-114556537D01*
X96852686Y-114556537D02*
X96896616Y-114468677D01*
X96896616Y-114468677D02*
X96896616Y-113721868D01*
X97204125Y-113721868D02*
X97731284Y-113721868D01*
X97467705Y-114644396D02*
X97467705Y-113721868D01*
X98038793Y-114644396D02*
X98038793Y-113721868D01*
X98038793Y-113721868D02*
X98390232Y-113721868D01*
X98390232Y-113721868D02*
X98478092Y-113765798D01*
X98478092Y-113765798D02*
X98522022Y-113809728D01*
X98522022Y-113809728D02*
X98565952Y-113897588D01*
X98565952Y-113897588D02*
X98565952Y-114029378D01*
X98565952Y-114029378D02*
X98522022Y-114117238D01*
X98522022Y-114117238D02*
X98478092Y-114161167D01*
X98478092Y-114161167D02*
X98390232Y-114205097D01*
X98390232Y-114205097D02*
X98038793Y-114205097D01*
X98961321Y-113721868D02*
X98961321Y-114468677D01*
X98961321Y-114468677D02*
X99005251Y-114556537D01*
X99005251Y-114556537D02*
X99049181Y-114600467D01*
X99049181Y-114600467D02*
X99137041Y-114644396D01*
X99137041Y-114644396D02*
X99312760Y-114644396D01*
X99312760Y-114644396D02*
X99400620Y-114600467D01*
X99400620Y-114600467D02*
X99444550Y-114556537D01*
X99444550Y-114556537D02*
X99488480Y-114468677D01*
X99488480Y-114468677D02*
X99488480Y-113721868D01*
X99795989Y-113721868D02*
X100323148Y-113721868D01*
X100059569Y-114644396D02*
X100059569Y-113721868D01*
X100806377Y-113721868D02*
X100894236Y-113721868D01*
X100894236Y-113721868D02*
X100982096Y-113765798D01*
X100982096Y-113765798D02*
X101026026Y-113809728D01*
X101026026Y-113809728D02*
X101069956Y-113897588D01*
X101069956Y-113897588D02*
X101113886Y-114073308D01*
X101113886Y-114073308D02*
X101113886Y-114292957D01*
X101113886Y-114292957D02*
X101069956Y-114468677D01*
X101069956Y-114468677D02*
X101026026Y-114556537D01*
X101026026Y-114556537D02*
X100982096Y-114600467D01*
X100982096Y-114600467D02*
X100894236Y-114644396D01*
X100894236Y-114644396D02*
X100806377Y-114644396D01*
X100806377Y-114644396D02*
X100718517Y-114600467D01*
X100718517Y-114600467D02*
X100674587Y-114556537D01*
X100674587Y-114556537D02*
X100630657Y-114468677D01*
X100630657Y-114468677D02*
X100586727Y-114292957D01*
X100586727Y-114292957D02*
X100586727Y-114073308D01*
X100586727Y-114073308D02*
X100630657Y-113897588D01*
X100630657Y-113897588D02*
X100674587Y-113809728D01*
X100674587Y-113809728D02*
X100718517Y-113765798D01*
X100718517Y-113765798D02*
X100806377Y-113721868D01*
D12*
X164891659Y-109398695D02*
X164891659Y-108862990D01*
X165829143Y-109130843D02*
X164891659Y-109130843D01*
X165829143Y-108550495D02*
X164891659Y-108550495D01*
X165829143Y-108104074D02*
X164891659Y-108104074D01*
X164891659Y-108104074D02*
X165561290Y-107791579D01*
X165561290Y-107791579D02*
X164891659Y-107479085D01*
X164891659Y-107479085D02*
X165829143Y-107479085D01*
X165338080Y-107032664D02*
X165338080Y-106720169D01*
X165829143Y-106586243D02*
X165829143Y-107032664D01*
X165829143Y-107032664D02*
X164891659Y-107032664D01*
X164891659Y-107032664D02*
X164891659Y-106586243D01*
X165472006Y-106184464D02*
X165472006Y-105470191D01*
X165829143Y-105023770D02*
X164891659Y-105023770D01*
X164891659Y-105023770D02*
X164891659Y-104666633D01*
X164891659Y-104666633D02*
X164936301Y-104577349D01*
X164936301Y-104577349D02*
X164980943Y-104532707D01*
X164980943Y-104532707D02*
X165070227Y-104488065D01*
X165070227Y-104488065D02*
X165204153Y-104488065D01*
X165204153Y-104488065D02*
X165293437Y-104532707D01*
X165293437Y-104532707D02*
X165338080Y-104577349D01*
X165338080Y-104577349D02*
X165382722Y-104666633D01*
X165382722Y-104666633D02*
X165382722Y-105023770D01*
X164891659Y-103907718D02*
X164891659Y-103729149D01*
X164891659Y-103729149D02*
X164936301Y-103639865D01*
X164936301Y-103639865D02*
X165025585Y-103550581D01*
X165025585Y-103550581D02*
X165204153Y-103505939D01*
X165204153Y-103505939D02*
X165516648Y-103505939D01*
X165516648Y-103505939D02*
X165695216Y-103550581D01*
X165695216Y-103550581D02*
X165784501Y-103639865D01*
X165784501Y-103639865D02*
X165829143Y-103729149D01*
X165829143Y-103729149D02*
X165829143Y-103907718D01*
X165829143Y-103907718D02*
X165784501Y-103997002D01*
X165784501Y-103997002D02*
X165695216Y-104086286D01*
X165695216Y-104086286D02*
X165516648Y-104130928D01*
X165516648Y-104130928D02*
X165204153Y-104130928D01*
X165204153Y-104130928D02*
X165025585Y-104086286D01*
X165025585Y-104086286D02*
X164936301Y-103997002D01*
X164936301Y-103997002D02*
X164891659Y-103907718D01*
X164891659Y-103238086D02*
X164891659Y-102702381D01*
X165829143Y-102970234D02*
X164891659Y-102970234D01*
X164891659Y-102211318D02*
X164891659Y-102122033D01*
X164891659Y-102122033D02*
X164936301Y-102032749D01*
X164936301Y-102032749D02*
X164980943Y-101988107D01*
X164980943Y-101988107D02*
X165070227Y-101943465D01*
X165070227Y-101943465D02*
X165248795Y-101898823D01*
X165248795Y-101898823D02*
X165472006Y-101898823D01*
X165472006Y-101898823D02*
X165650574Y-101943465D01*
X165650574Y-101943465D02*
X165739858Y-101988107D01*
X165739858Y-101988107D02*
X165784501Y-102032749D01*
X165784501Y-102032749D02*
X165829143Y-102122033D01*
X165829143Y-102122033D02*
X165829143Y-102211318D01*
X165829143Y-102211318D02*
X165784501Y-102300602D01*
X165784501Y-102300602D02*
X165739858Y-102345244D01*
X165739858Y-102345244D02*
X165650574Y-102389886D01*
X165650574Y-102389886D02*
X165472006Y-102434528D01*
X165472006Y-102434528D02*
X165248795Y-102434528D01*
X165248795Y-102434528D02*
X165070227Y-102389886D01*
X165070227Y-102389886D02*
X164980943Y-102345244D01*
X164980943Y-102345244D02*
X164936301Y-102300602D01*
X164936301Y-102300602D02*
X164891659Y-102211318D01*
X194357954Y-109348485D02*
X194390501Y-109381032D01*
X194390501Y-109381032D02*
X194423047Y-109478672D01*
X194423047Y-109478672D02*
X194423047Y-109543766D01*
X194423047Y-109543766D02*
X194390501Y-109641407D01*
X194390501Y-109641407D02*
X194325407Y-109706500D01*
X194325407Y-109706500D02*
X194260313Y-109739047D01*
X194260313Y-109739047D02*
X194130126Y-109771594D01*
X194130126Y-109771594D02*
X194032485Y-109771594D01*
X194032485Y-109771594D02*
X193902298Y-109739047D01*
X193902298Y-109739047D02*
X193837204Y-109706500D01*
X193837204Y-109706500D02*
X193772110Y-109641407D01*
X193772110Y-109641407D02*
X193739563Y-109543766D01*
X193739563Y-109543766D02*
X193739563Y-109478672D01*
X193739563Y-109478672D02*
X193772110Y-109381032D01*
X193772110Y-109381032D02*
X193804657Y-109348485D01*
X194423047Y-109055563D02*
X193739563Y-109055563D01*
X194065032Y-109055563D02*
X194065032Y-108665001D01*
X194423047Y-108665001D02*
X193739563Y-108665001D01*
X194227766Y-108372079D02*
X194227766Y-108046611D01*
X194423047Y-108437173D02*
X193739563Y-108209345D01*
X193739563Y-108209345D02*
X194423047Y-107981517D01*
X194423047Y-107753689D02*
X193739563Y-107753689D01*
X193739563Y-107753689D02*
X194423047Y-107363127D01*
X194423047Y-107363127D02*
X193739563Y-107363127D01*
X194423047Y-107037658D02*
X193739563Y-107037658D01*
X193739563Y-107037658D02*
X194423047Y-106647096D01*
X194423047Y-106647096D02*
X193739563Y-106647096D01*
X194065032Y-106321627D02*
X194065032Y-106093799D01*
X194423047Y-105996159D02*
X194423047Y-106321627D01*
X194423047Y-106321627D02*
X193739563Y-106321627D01*
X193739563Y-106321627D02*
X193739563Y-105996159D01*
X194423047Y-105377769D02*
X194423047Y-105703237D01*
X194423047Y-105703237D02*
X193739563Y-105703237D01*
X194162673Y-105149940D02*
X194162673Y-104629191D01*
X194423047Y-104303722D02*
X193739563Y-104303722D01*
X193739563Y-104303722D02*
X193739563Y-104043347D01*
X193739563Y-104043347D02*
X193772110Y-103978254D01*
X193772110Y-103978254D02*
X193804657Y-103945707D01*
X193804657Y-103945707D02*
X193869751Y-103913160D01*
X193869751Y-103913160D02*
X193967391Y-103913160D01*
X193967391Y-103913160D02*
X194032485Y-103945707D01*
X194032485Y-103945707D02*
X194065032Y-103978254D01*
X194065032Y-103978254D02*
X194097579Y-104043347D01*
X194097579Y-104043347D02*
X194097579Y-104303722D01*
X193739563Y-103490051D02*
X193739563Y-103359863D01*
X193739563Y-103359863D02*
X193772110Y-103294770D01*
X193772110Y-103294770D02*
X193837204Y-103229676D01*
X193837204Y-103229676D02*
X193967391Y-103197129D01*
X193967391Y-103197129D02*
X194195219Y-103197129D01*
X194195219Y-103197129D02*
X194325407Y-103229676D01*
X194325407Y-103229676D02*
X194390501Y-103294770D01*
X194390501Y-103294770D02*
X194423047Y-103359863D01*
X194423047Y-103359863D02*
X194423047Y-103490051D01*
X194423047Y-103490051D02*
X194390501Y-103555145D01*
X194390501Y-103555145D02*
X194325407Y-103620238D01*
X194325407Y-103620238D02*
X194195219Y-103652785D01*
X194195219Y-103652785D02*
X193967391Y-103652785D01*
X193967391Y-103652785D02*
X193837204Y-103620238D01*
X193837204Y-103620238D02*
X193772110Y-103555145D01*
X193772110Y-103555145D02*
X193739563Y-103490051D01*
X193739563Y-103001848D02*
X193739563Y-102611286D01*
X194423047Y-102806567D02*
X193739563Y-102806567D01*
X193739563Y-102253270D02*
X193739563Y-102188176D01*
X193739563Y-102188176D02*
X193772110Y-102123082D01*
X193772110Y-102123082D02*
X193804657Y-102090536D01*
X193804657Y-102090536D02*
X193869751Y-102057989D01*
X193869751Y-102057989D02*
X193999938Y-102025442D01*
X193999938Y-102025442D02*
X194162673Y-102025442D01*
X194162673Y-102025442D02*
X194292860Y-102057989D01*
X194292860Y-102057989D02*
X194357954Y-102090536D01*
X194357954Y-102090536D02*
X194390501Y-102123082D01*
X194390501Y-102123082D02*
X194423047Y-102188176D01*
X194423047Y-102188176D02*
X194423047Y-102253270D01*
X194423047Y-102253270D02*
X194390501Y-102318364D01*
X194390501Y-102318364D02*
X194357954Y-102350910D01*
X194357954Y-102350910D02*
X194292860Y-102383457D01*
X194292860Y-102383457D02*
X194162673Y-102416004D01*
X194162673Y-102416004D02*
X193999938Y-102416004D01*
X193999938Y-102416004D02*
X193869751Y-102383457D01*
X193869751Y-102383457D02*
X193804657Y-102350910D01*
X193804657Y-102350910D02*
X193772110Y-102318364D01*
X193772110Y-102318364D02*
X193739563Y-102253270D01*
D13*
%TO.C,CHANNEL-CV0*%
X109956100Y-109058600D02*
X109956100Y-106058600D01*
X109956100Y-112058600D02*
X109956100Y-109058600D01*
X109956100Y-112058600D02*
X111956100Y-112058600D01*
X109956100Y-115058600D02*
X109956100Y-112058600D01*
X109956100Y-115058600D02*
X120456100Y-115058600D01*
X111956100Y-109058600D02*
X109956100Y-109058600D01*
X111956100Y-112058600D02*
X111956100Y-109058600D01*
X120456100Y-106058600D02*
X109956100Y-106058600D01*
X120456100Y-110358600D02*
X120456100Y-106058600D01*
X120456100Y-115058600D02*
X120456100Y-110358600D01*
X120556100Y-110758600D02*
X122656100Y-110758600D01*
X122656100Y-110358600D02*
X120456100Y-110358600D01*
X122656100Y-110758600D02*
X122656100Y-110358600D01*
X119118375Y-110558600D02*
G75*
G02*
X112793825Y-110558600I-3162275J0D01*
G01*
X112793825Y-110558600D02*
G75*
G02*
X119118375Y-110558600I3162275J0D01*
G01*
X118646821Y-110558600D02*
G75*
G02*
X113265379Y-110558600I-2690721J0D01*
G01*
X113265379Y-110558600D02*
G75*
G02*
X118646821Y-110558600I2690721J0D01*
G01*
%TO.C,RESET-CV0*%
X95351100Y-98898600D02*
X95351100Y-95898600D01*
X95351100Y-101898600D02*
X95351100Y-98898600D01*
X95351100Y-101898600D02*
X97351100Y-101898600D01*
X95351100Y-104898600D02*
X95351100Y-101898600D01*
X95351100Y-104898600D02*
X105851100Y-104898600D01*
X97351100Y-98898600D02*
X95351100Y-98898600D01*
X97351100Y-101898600D02*
X97351100Y-98898600D01*
X105851100Y-95898600D02*
X95351100Y-95898600D01*
X105851100Y-100198600D02*
X105851100Y-95898600D01*
X105851100Y-104898600D02*
X105851100Y-100198600D01*
X105951100Y-100598600D02*
X108051100Y-100598600D01*
X108051100Y-100198600D02*
X105851100Y-100198600D01*
X108051100Y-100598600D02*
X108051100Y-100198600D01*
X104513375Y-100398600D02*
G75*
G02*
X98188825Y-100398600I-3162275J0D01*
G01*
X98188825Y-100398600D02*
G75*
G02*
X104513375Y-100398600I3162275J0D01*
G01*
X104041821Y-100398600D02*
G75*
G02*
X98660379Y-100398600I-2690721J0D01*
G01*
X98660379Y-100398600D02*
G75*
G02*
X104041821Y-100398600I2690721J0D01*
G01*
%TO.C,LED4*%
X201421381Y-112464231D02*
X201421381Y-113099231D01*
D14*
X201427100Y-110507800D02*
X198887100Y-110507800D01*
D13*
X201744812Y-112777503D02*
X201109812Y-112777503D01*
D14*
X198125100Y-112082600D02*
G75*
G02*
X198856200Y-110521600I2031997J14D01*
G01*
X199200900Y-113875500D02*
G75*
G02*
X198125100Y-112082600I956200J1792960D01*
G01*
X200157100Y-114114600D02*
G75*
G02*
X199193700Y-113871700I3J2031999D01*
G01*
X201222100Y-113813200D02*
G75*
G02*
X200157100Y-114114600I-1064916J1730598D01*
G01*
X201469700Y-110531400D02*
G75*
G02*
X202189100Y-112082600I-1312603J-1551164D01*
G01*
X202189100Y-112082600D02*
G75*
G02*
X201165300Y-113846900I-2031999J-57D01*
G01*
D13*
%TO.C,TIME-CV0*%
X109956100Y-98898600D02*
X109956100Y-95898600D01*
X109956100Y-101898600D02*
X109956100Y-98898600D01*
X109956100Y-101898600D02*
X111956100Y-101898600D01*
X109956100Y-104898600D02*
X109956100Y-101898600D01*
X109956100Y-104898600D02*
X120456100Y-104898600D01*
X111956100Y-98898600D02*
X109956100Y-98898600D01*
X111956100Y-101898600D02*
X111956100Y-98898600D01*
X120456100Y-95898600D02*
X109956100Y-95898600D01*
X120456100Y-100198600D02*
X120456100Y-95898600D01*
X120456100Y-104898600D02*
X120456100Y-100198600D01*
X120556100Y-100598600D02*
X122656100Y-100598600D01*
X122656100Y-100198600D02*
X120456100Y-100198600D01*
X122656100Y-100598600D02*
X122656100Y-100198600D01*
X119118375Y-100398600D02*
G75*
G02*
X112793825Y-100398600I-3162275J0D01*
G01*
X112793825Y-100398600D02*
G75*
G02*
X119118375Y-100398600I3162275J0D01*
G01*
X118646821Y-100398600D02*
G75*
G02*
X113265379Y-100398600I-2690721J0D01*
G01*
X113265379Y-100398600D02*
G75*
G02*
X118646821Y-100398600I2690721J0D01*
G01*
%TO.C,LED2*%
X201421381Y-103574231D02*
X201421381Y-104209231D01*
D14*
X201427100Y-101617800D02*
X198887100Y-101617800D01*
D13*
X201744812Y-103887503D02*
X201109812Y-103887503D01*
D14*
X198125100Y-103192600D02*
G75*
G02*
X198856200Y-101631600I2031997J14D01*
G01*
X199200900Y-104985500D02*
G75*
G02*
X198125100Y-103192600I956200J1792960D01*
G01*
X200157100Y-105224600D02*
G75*
G02*
X199193700Y-104981700I3J2031999D01*
G01*
X201222100Y-104923200D02*
G75*
G02*
X200157100Y-105224600I-1064916J1730598D01*
G01*
X201469700Y-101641400D02*
G75*
G02*
X202189100Y-103192600I-1312603J-1551164D01*
G01*
X202189100Y-103192600D02*
G75*
G02*
X201165300Y-104956900I-2031999J-57D01*
G01*
D13*
%TO.C,LED5*%
X146118388Y-111133697D02*
X146753388Y-111133697D01*
D14*
X146436100Y-113403400D02*
X148976100Y-113403400D01*
D13*
X146441819Y-111446969D02*
X146441819Y-110811969D01*
D14*
X145674100Y-111828600D02*
G75*
G02*
X146697900Y-110064300I2031999J57D01*
G01*
X146393500Y-113379800D02*
G75*
G02*
X145674100Y-111828600I1312603J1551164D01*
G01*
X146641100Y-110098000D02*
G75*
G02*
X147706100Y-109796600I1064916J-1730598D01*
G01*
X147706100Y-109796600D02*
G75*
G02*
X148669500Y-110039500I-3J-2031999D01*
G01*
X148662300Y-110035700D02*
G75*
G02*
X149738100Y-111828600I-956200J-1792960D01*
G01*
X149738100Y-111828600D02*
G75*
G02*
X149007000Y-113389600I-2031997J-14D01*
G01*
D13*
%TO.C,RESET0*%
X139451100Y-109653600D02*
X139451100Y-107653600D01*
X140451100Y-108653600D02*
X138451100Y-108653600D01*
X144451100Y-111653600D02*
X144451100Y-105653600D01*
X144451100Y-111653600D02*
G75*
G02*
X144451100Y-105653600I-5000000J3000000D01*
G01*
%TO.C,LED3*%
X198569388Y-106942697D02*
X199204388Y-106942697D01*
D14*
X198887100Y-109212400D02*
X201427100Y-109212400D01*
D13*
X198892819Y-107255969D02*
X198892819Y-106620969D01*
D14*
X198125100Y-107637600D02*
G75*
G02*
X199148900Y-105873300I2031999J57D01*
G01*
X198844500Y-109188800D02*
G75*
G02*
X198125100Y-107637600I1312603J1551164D01*
G01*
X199092100Y-105907000D02*
G75*
G02*
X200157100Y-105605600I1064916J-1730598D01*
G01*
X200157100Y-105605600D02*
G75*
G02*
X201120500Y-105848500I-3J-2031999D01*
G01*
X201113300Y-105844700D02*
G75*
G02*
X202189100Y-107637600I-956200J-1792960D01*
G01*
X202189100Y-107637600D02*
G75*
G02*
X201458000Y-109198600I-2031997J-14D01*
G01*
D13*
%TO.C,OUTPUT0*%
X95351100Y-109058600D02*
X95351100Y-106058600D01*
X95351100Y-112058600D02*
X95351100Y-109058600D01*
X95351100Y-112058600D02*
X97351100Y-112058600D01*
X95351100Y-115058600D02*
X95351100Y-112058600D01*
X95351100Y-115058600D02*
X105851100Y-115058600D01*
X97351100Y-109058600D02*
X95351100Y-109058600D01*
X97351100Y-112058600D02*
X97351100Y-109058600D01*
X105851100Y-106058600D02*
X95351100Y-106058600D01*
X105851100Y-110358600D02*
X105851100Y-106058600D01*
X105851100Y-115058600D02*
X105851100Y-110358600D01*
X105951100Y-110758600D02*
X108051100Y-110758600D01*
X108051100Y-110358600D02*
X105851100Y-110358600D01*
X108051100Y-110758600D02*
X108051100Y-110358600D01*
X104513375Y-110558600D02*
G75*
G02*
X98188825Y-110558600I-3162275J0D01*
G01*
X98188825Y-110558600D02*
G75*
G02*
X104513375Y-110558600I3162275J0D01*
G01*
X104041821Y-110558600D02*
G75*
G02*
X98660379Y-110558600I-2690721J0D01*
G01*
X98660379Y-110558600D02*
G75*
G02*
X104041821Y-110558600I2690721J0D01*
G01*
D15*
%TO.C,X1*%
X132651100Y-98963600D02*
X133451100Y-98963600D01*
X132651100Y-101263600D02*
X132651100Y-98963600D01*
D16*
X133451100Y-97163600D02*
X145451100Y-97163600D01*
X133451100Y-98963600D02*
X133451100Y-97163600D01*
D15*
X133451100Y-101263600D02*
X132651100Y-101263600D01*
D16*
X133451100Y-101263600D02*
X133451100Y-102063600D01*
X133451100Y-102063600D02*
X145451100Y-102063600D01*
X145451100Y-97163600D02*
X145451100Y-98963600D01*
D15*
X145451100Y-98963600D02*
X145451100Y-101263600D01*
D16*
X145451100Y-102063600D02*
X145451100Y-101263600D01*
D13*
%TO.C,LED1*%
X198569388Y-98052697D02*
X199204388Y-98052697D01*
D14*
X198887100Y-100322400D02*
X201427100Y-100322400D01*
D13*
X198892819Y-98365969D02*
X198892819Y-97730969D01*
D14*
X198125100Y-98747600D02*
G75*
G02*
X199148900Y-96983300I2031999J57D01*
G01*
X198844500Y-100298800D02*
G75*
G02*
X198125100Y-98747600I1312603J1551164D01*
G01*
X199092100Y-97017000D02*
G75*
G02*
X200157100Y-96715600I1064916J-1730598D01*
G01*
X200157100Y-96715600D02*
G75*
G02*
X201120500Y-96958500I-3J-2031999D01*
G01*
X201113300Y-96954700D02*
G75*
G02*
X202189100Y-98747600I-956200J-1792960D01*
G01*
X202189100Y-98747600D02*
G75*
G02*
X201458000Y-100308600I-2031997J-14D01*
G01*
D17*
%TO.C,TIME-POT0*%
X156411100Y-109578600D02*
X156411100Y-101378600D01*
X156411100Y-109578600D02*
X156961100Y-109578600D01*
X156961100Y-100828600D02*
X156961100Y-101378600D01*
X156961100Y-100828600D02*
X160161100Y-100828600D01*
X156961100Y-101378600D02*
X156411100Y-101378600D01*
X156961100Y-109578600D02*
X156961100Y-110128600D01*
X160161100Y-110128600D02*
X156961100Y-110128600D01*
X164961100Y-100828600D02*
X167161100Y-100828600D01*
X167161100Y-101378600D02*
X167161100Y-100828600D01*
X167161100Y-109578600D02*
X167711100Y-109578600D01*
X167161100Y-110128600D02*
X164961100Y-110128600D01*
X167161100Y-110128600D02*
X167161100Y-109578600D01*
X167711100Y-101378600D02*
X167161100Y-101378600D01*
X167711100Y-101378600D02*
X167711100Y-109578600D01*
D18*
X163327100Y-105478600D02*
G75*
G02*
X161295100Y-105478600I-1016000J0D01*
G01*
X161295100Y-105478600D02*
G75*
G02*
X163327100Y-105478600I1016000J0D01*
G01*
X163708100Y-105478600D02*
G75*
G02*
X160914100Y-105478600I-1397000J0D01*
G01*
X160914100Y-105478600D02*
G75*
G02*
X163708100Y-105478600I1397000J0D01*
G01*
D17*
%TO.C,CHANNEL-POT0*%
X184351100Y-109578600D02*
X184351100Y-101378600D01*
X184351100Y-109578600D02*
X184901100Y-109578600D01*
X184901100Y-100828600D02*
X184901100Y-101378600D01*
X184901100Y-100828600D02*
X188101100Y-100828600D01*
X184901100Y-101378600D02*
X184351100Y-101378600D01*
X184901100Y-109578600D02*
X184901100Y-110128600D01*
X188101100Y-110128600D02*
X184901100Y-110128600D01*
X192901100Y-100828600D02*
X195101100Y-100828600D01*
X195101100Y-101378600D02*
X195101100Y-100828600D01*
X195101100Y-109578600D02*
X195651100Y-109578600D01*
X195101100Y-110128600D02*
X192901100Y-110128600D01*
X195101100Y-110128600D02*
X195101100Y-109578600D01*
X195651100Y-101378600D02*
X195101100Y-101378600D01*
X195651100Y-101378600D02*
X195651100Y-109578600D01*
D18*
X191267100Y-105478600D02*
G75*
G02*
X189235100Y-105478600I-1016000J0D01*
G01*
X189235100Y-105478600D02*
G75*
G02*
X191267100Y-105478600I1016000J0D01*
G01*
X191648100Y-105478600D02*
G75*
G02*
X188854100Y-105478600I-1397000J0D01*
G01*
X188854100Y-105478600D02*
G75*
G02*
X191648100Y-105478600I1397000J0D01*
G01*
%TD*%
M02*
