%TF.GenerationSoftware,KiCad,Pcbnew,8.0.5*%
%TF.CreationDate,2024-11-18T15:17:10-05:00*%
%TF.ProjectId,RadioMusic_F rev2-2,52616469-6f4d-4757-9369-635f46207265,rev?*%
%TF.SameCoordinates,Original*%
%TF.FileFunction,Legend,Bot*%
%TF.FilePolarity,Positive*%
%FSLAX46Y46*%
G04 Gerber Fmt 4.6, Leading zero omitted, Abs format (unit mm)*
G04 Created by KiCad (PCBNEW 8.0.5) date 2024-11-18 15:17:10*
%MOMM*%
%LPD*%
G01*
G04 APERTURE LIST*
%ADD10C,0.093472*%
%ADD11C,0.101600*%
%ADD12C,0.114300*%
%ADD13C,0.071120*%
%ADD14C,0.228600*%
%ADD15C,0.091440*%
%ADD16C,0.074778*%
%ADD17C,0.075470*%
%ADD18C,0.097536*%
%ADD19C,0.152400*%
%ADD20C,0.304800*%
%ADD21C,0.508000*%
%ADD22C,0.203200*%
%ADD23C,0.127000*%
G04 APERTURE END LIST*
D10*
X167377700Y-112294292D02*
X167769876Y-111734040D01*
X168050002Y-112294292D02*
X168050002Y-111117764D01*
X168050002Y-111117764D02*
X167601801Y-111117764D01*
X167601801Y-111117764D02*
X167489750Y-111173789D01*
X167489750Y-111173789D02*
X167433725Y-111229814D01*
X167433725Y-111229814D02*
X167377700Y-111341864D01*
X167377700Y-111341864D02*
X167377700Y-111509940D01*
X167377700Y-111509940D02*
X167433725Y-111621990D01*
X167433725Y-111621990D02*
X167489750Y-111678015D01*
X167489750Y-111678015D02*
X167601801Y-111734040D01*
X167601801Y-111734040D02*
X168050002Y-111734040D01*
X166257197Y-112294292D02*
X166929499Y-112294292D01*
X166593348Y-112294292D02*
X166593348Y-111117764D01*
X166593348Y-111117764D02*
X166705398Y-111285839D01*
X166705398Y-111285839D02*
X166817449Y-111397889D01*
X166817449Y-111397889D02*
X166929499Y-111453915D01*
X165248745Y-111117764D02*
X165472845Y-111117764D01*
X165472845Y-111117764D02*
X165584895Y-111173789D01*
X165584895Y-111173789D02*
X165640921Y-111229814D01*
X165640921Y-111229814D02*
X165752971Y-111397889D01*
X165752971Y-111397889D02*
X165808996Y-111621990D01*
X165808996Y-111621990D02*
X165808996Y-112070191D01*
X165808996Y-112070191D02*
X165752971Y-112182241D01*
X165752971Y-112182241D02*
X165696946Y-112238267D01*
X165696946Y-112238267D02*
X165584895Y-112294292D01*
X165584895Y-112294292D02*
X165360795Y-112294292D01*
X165360795Y-112294292D02*
X165248745Y-112238267D01*
X165248745Y-112238267D02*
X165192719Y-112182241D01*
X165192719Y-112182241D02*
X165136694Y-112070191D01*
X165136694Y-112070191D02*
X165136694Y-111790065D01*
X165136694Y-111790065D02*
X165192719Y-111678015D01*
X165192719Y-111678015D02*
X165248745Y-111621990D01*
X165248745Y-111621990D02*
X165360795Y-111565965D01*
X165360795Y-111565965D02*
X165584895Y-111565965D01*
X165584895Y-111565965D02*
X165696946Y-111621990D01*
X165696946Y-111621990D02*
X165752971Y-111678015D01*
X165752971Y-111678015D02*
X165808996Y-111790065D01*
X157875197Y-109119292D02*
X158267373Y-108559040D01*
X158547499Y-109119292D02*
X158547499Y-107942764D01*
X158547499Y-107942764D02*
X158099298Y-107942764D01*
X158099298Y-107942764D02*
X157987247Y-107998789D01*
X157987247Y-107998789D02*
X157931222Y-108054814D01*
X157931222Y-108054814D02*
X157875197Y-108166864D01*
X157875197Y-108166864D02*
X157875197Y-108334940D01*
X157875197Y-108334940D02*
X157931222Y-108446990D01*
X157931222Y-108446990D02*
X157987247Y-108503015D01*
X157987247Y-108503015D02*
X158099298Y-108559040D01*
X158099298Y-108559040D02*
X158547499Y-108559040D01*
X156754694Y-109119292D02*
X157426996Y-109119292D01*
X157090845Y-109119292D02*
X157090845Y-107942764D01*
X157090845Y-107942764D02*
X157202895Y-108110839D01*
X157202895Y-108110839D02*
X157314946Y-108222889D01*
X157314946Y-108222889D02*
X157426996Y-108278915D01*
D11*
X145906826Y-96552632D02*
X144738426Y-96552632D01*
X144738426Y-96552632D02*
X144738426Y-96830822D01*
X144738426Y-96830822D02*
X144794064Y-96997737D01*
X144794064Y-96997737D02*
X144905340Y-97109013D01*
X144905340Y-97109013D02*
X145016616Y-97164651D01*
X145016616Y-97164651D02*
X145239168Y-97220289D01*
X145239168Y-97220289D02*
X145406083Y-97220289D01*
X145406083Y-97220289D02*
X145628635Y-97164651D01*
X145628635Y-97164651D02*
X145739911Y-97109013D01*
X145739911Y-97109013D02*
X145851188Y-96997737D01*
X145851188Y-96997737D02*
X145906826Y-96830822D01*
X145906826Y-96830822D02*
X145906826Y-96552632D01*
X145906826Y-97776670D02*
X145906826Y-97999222D01*
X145906826Y-97999222D02*
X145851188Y-98110499D01*
X145851188Y-98110499D02*
X145795549Y-98166137D01*
X145795549Y-98166137D02*
X145628635Y-98277413D01*
X145628635Y-98277413D02*
X145406083Y-98333051D01*
X145406083Y-98333051D02*
X144960978Y-98333051D01*
X144960978Y-98333051D02*
X144849702Y-98277413D01*
X144849702Y-98277413D02*
X144794064Y-98221775D01*
X144794064Y-98221775D02*
X144738426Y-98110499D01*
X144738426Y-98110499D02*
X144738426Y-97887946D01*
X144738426Y-97887946D02*
X144794064Y-97776670D01*
X144794064Y-97776670D02*
X144849702Y-97721032D01*
X144849702Y-97721032D02*
X144960978Y-97665394D01*
X144960978Y-97665394D02*
X145239168Y-97665394D01*
X145239168Y-97665394D02*
X145350445Y-97721032D01*
X145350445Y-97721032D02*
X145406083Y-97776670D01*
X145406083Y-97776670D02*
X145461721Y-97887946D01*
X145461721Y-97887946D02*
X145461721Y-98110499D01*
X145461721Y-98110499D02*
X145406083Y-98221775D01*
X145406083Y-98221775D02*
X145350445Y-98277413D01*
X145350445Y-98277413D02*
X145239168Y-98333051D01*
D12*
X132653782Y-106172092D02*
X132592097Y-106202935D01*
X132592097Y-106202935D02*
X132499568Y-106202935D01*
X132499568Y-106202935D02*
X132407039Y-106172092D01*
X132407039Y-106172092D02*
X132345354Y-106110406D01*
X132345354Y-106110406D02*
X132314511Y-106048720D01*
X132314511Y-106048720D02*
X132283668Y-105925349D01*
X132283668Y-105925349D02*
X132283668Y-105832820D01*
X132283668Y-105832820D02*
X132314511Y-105709449D01*
X132314511Y-105709449D02*
X132345354Y-105647763D01*
X132345354Y-105647763D02*
X132407039Y-105586078D01*
X132407039Y-105586078D02*
X132499568Y-105555235D01*
X132499568Y-105555235D02*
X132561254Y-105555235D01*
X132561254Y-105555235D02*
X132653782Y-105586078D01*
X132653782Y-105586078D02*
X132684625Y-105616920D01*
X132684625Y-105616920D02*
X132684625Y-105832820D01*
X132684625Y-105832820D02*
X132561254Y-105832820D01*
X132962211Y-105555235D02*
X132962211Y-106202935D01*
X132962211Y-106202935D02*
X133332325Y-105555235D01*
X133332325Y-105555235D02*
X133332325Y-106202935D01*
X133640754Y-105555235D02*
X133640754Y-106202935D01*
X133640754Y-106202935D02*
X133794968Y-106202935D01*
X133794968Y-106202935D02*
X133887497Y-106172092D01*
X133887497Y-106172092D02*
X133949182Y-106110406D01*
X133949182Y-106110406D02*
X133980025Y-106048720D01*
X133980025Y-106048720D02*
X134010868Y-105925349D01*
X134010868Y-105925349D02*
X134010868Y-105832820D01*
X134010868Y-105832820D02*
X133980025Y-105709449D01*
X133980025Y-105709449D02*
X133949182Y-105647763D01*
X133949182Y-105647763D02*
X133887497Y-105586078D01*
X133887497Y-105586078D02*
X133794968Y-105555235D01*
X133794968Y-105555235D02*
X133640754Y-105555235D01*
D13*
X131208577Y-98770808D02*
X131208577Y-97952928D01*
X131208577Y-97952928D02*
X130897004Y-97952928D01*
X130897004Y-97952928D02*
X130819111Y-97991875D01*
X130819111Y-97991875D02*
X130780164Y-98030822D01*
X130780164Y-98030822D02*
X130741217Y-98108715D01*
X130741217Y-98108715D02*
X130741217Y-98225555D01*
X130741217Y-98225555D02*
X130780164Y-98303448D01*
X130780164Y-98303448D02*
X130819111Y-98342395D01*
X130819111Y-98342395D02*
X130897004Y-98381342D01*
X130897004Y-98381342D02*
X131208577Y-98381342D01*
X130234911Y-97952928D02*
X130079124Y-97952928D01*
X130079124Y-97952928D02*
X130001231Y-97991875D01*
X130001231Y-97991875D02*
X129923337Y-98069768D01*
X129923337Y-98069768D02*
X129884391Y-98225555D01*
X129884391Y-98225555D02*
X129884391Y-98498182D01*
X129884391Y-98498182D02*
X129923337Y-98653968D01*
X129923337Y-98653968D02*
X130001231Y-98731862D01*
X130001231Y-98731862D02*
X130079124Y-98770808D01*
X130079124Y-98770808D02*
X130234911Y-98770808D01*
X130234911Y-98770808D02*
X130312804Y-98731862D01*
X130312804Y-98731862D02*
X130390697Y-98653968D01*
X130390697Y-98653968D02*
X130429644Y-98498182D01*
X130429644Y-98498182D02*
X130429644Y-98225555D01*
X130429644Y-98225555D02*
X130390697Y-98069768D01*
X130390697Y-98069768D02*
X130312804Y-97991875D01*
X130312804Y-97991875D02*
X130234911Y-97952928D01*
X129611764Y-97952928D02*
X129417030Y-98770808D01*
X129417030Y-98770808D02*
X129261244Y-98186608D01*
X129261244Y-98186608D02*
X129105457Y-98770808D01*
X129105457Y-98770808D02*
X128910724Y-97952928D01*
X128599150Y-98342395D02*
X128326524Y-98342395D01*
X128209684Y-98770808D02*
X128599150Y-98770808D01*
X128599150Y-98770808D02*
X128599150Y-97952928D01*
X128599150Y-97952928D02*
X128209684Y-97952928D01*
X127391803Y-98770808D02*
X127664430Y-98381342D01*
X127859163Y-98770808D02*
X127859163Y-97952928D01*
X127859163Y-97952928D02*
X127547590Y-97952928D01*
X127547590Y-97952928D02*
X127469697Y-97991875D01*
X127469697Y-97991875D02*
X127430750Y-98030822D01*
X127430750Y-98030822D02*
X127391803Y-98108715D01*
X127391803Y-98108715D02*
X127391803Y-98225555D01*
X127391803Y-98225555D02*
X127430750Y-98303448D01*
X127430750Y-98303448D02*
X127469697Y-98342395D01*
X127469697Y-98342395D02*
X127547590Y-98381342D01*
X127547590Y-98381342D02*
X127859163Y-98381342D01*
D12*
X132681066Y-108693576D02*
X132619381Y-108724419D01*
X132619381Y-108724419D02*
X132526852Y-108724419D01*
X132526852Y-108724419D02*
X132434323Y-108693576D01*
X132434323Y-108693576D02*
X132372638Y-108631890D01*
X132372638Y-108631890D02*
X132341795Y-108570204D01*
X132341795Y-108570204D02*
X132310952Y-108446833D01*
X132310952Y-108446833D02*
X132310952Y-108354304D01*
X132310952Y-108354304D02*
X132341795Y-108230933D01*
X132341795Y-108230933D02*
X132372638Y-108169247D01*
X132372638Y-108169247D02*
X132434323Y-108107562D01*
X132434323Y-108107562D02*
X132526852Y-108076719D01*
X132526852Y-108076719D02*
X132588538Y-108076719D01*
X132588538Y-108076719D02*
X132681066Y-108107562D01*
X132681066Y-108107562D02*
X132711909Y-108138404D01*
X132711909Y-108138404D02*
X132711909Y-108354304D01*
X132711909Y-108354304D02*
X132588538Y-108354304D01*
X132989495Y-108076719D02*
X132989495Y-108724419D01*
X132989495Y-108724419D02*
X133359609Y-108076719D01*
X133359609Y-108076719D02*
X133359609Y-108724419D01*
X133668038Y-108076719D02*
X133668038Y-108724419D01*
X133668038Y-108724419D02*
X133822252Y-108724419D01*
X133822252Y-108724419D02*
X133914781Y-108693576D01*
X133914781Y-108693576D02*
X133976466Y-108631890D01*
X133976466Y-108631890D02*
X134007309Y-108570204D01*
X134007309Y-108570204D02*
X134038152Y-108446833D01*
X134038152Y-108446833D02*
X134038152Y-108354304D01*
X134038152Y-108354304D02*
X134007309Y-108230933D01*
X134007309Y-108230933D02*
X133976466Y-108169247D01*
X133976466Y-108169247D02*
X133914781Y-108107562D01*
X133914781Y-108107562D02*
X133822252Y-108076719D01*
X133822252Y-108076719D02*
X133668038Y-108076719D01*
X132626500Y-103650614D02*
X132564815Y-103681457D01*
X132564815Y-103681457D02*
X132472286Y-103681457D01*
X132472286Y-103681457D02*
X132379757Y-103650614D01*
X132379757Y-103650614D02*
X132318072Y-103588928D01*
X132318072Y-103588928D02*
X132287229Y-103527242D01*
X132287229Y-103527242D02*
X132256386Y-103403871D01*
X132256386Y-103403871D02*
X132256386Y-103311342D01*
X132256386Y-103311342D02*
X132287229Y-103187971D01*
X132287229Y-103187971D02*
X132318072Y-103126285D01*
X132318072Y-103126285D02*
X132379757Y-103064600D01*
X132379757Y-103064600D02*
X132472286Y-103033757D01*
X132472286Y-103033757D02*
X132533972Y-103033757D01*
X132533972Y-103033757D02*
X132626500Y-103064600D01*
X132626500Y-103064600D02*
X132657343Y-103095442D01*
X132657343Y-103095442D02*
X132657343Y-103311342D01*
X132657343Y-103311342D02*
X132533972Y-103311342D01*
X132934929Y-103033757D02*
X132934929Y-103681457D01*
X132934929Y-103681457D02*
X133305043Y-103033757D01*
X133305043Y-103033757D02*
X133305043Y-103681457D01*
X133613472Y-103033757D02*
X133613472Y-103681457D01*
X133613472Y-103681457D02*
X133767686Y-103681457D01*
X133767686Y-103681457D02*
X133860215Y-103650614D01*
X133860215Y-103650614D02*
X133921900Y-103588928D01*
X133921900Y-103588928D02*
X133952743Y-103527242D01*
X133952743Y-103527242D02*
X133983586Y-103403871D01*
X133983586Y-103403871D02*
X133983586Y-103311342D01*
X133983586Y-103311342D02*
X133952743Y-103187971D01*
X133952743Y-103187971D02*
X133921900Y-103126285D01*
X133921900Y-103126285D02*
X133860215Y-103064600D01*
X133860215Y-103064600D02*
X133767686Y-103033757D01*
X133767686Y-103033757D02*
X133613472Y-103033757D01*
D14*
X132582609Y-100857356D02*
X132582609Y-99870385D01*
X132089123Y-100363870D02*
X133076094Y-100363870D01*
D15*
X125868545Y-108758180D02*
X126369288Y-109108700D01*
X125868545Y-109359071D02*
X126920105Y-109359071D01*
X126920105Y-109359071D02*
X126920105Y-108958477D01*
X126920105Y-108958477D02*
X126870031Y-108858328D01*
X126870031Y-108858328D02*
X126819957Y-108808254D01*
X126819957Y-108808254D02*
X126719808Y-108758180D01*
X126719808Y-108758180D02*
X126569585Y-108758180D01*
X126569585Y-108758180D02*
X126469437Y-108808254D01*
X126469437Y-108808254D02*
X126419362Y-108858328D01*
X126419362Y-108858328D02*
X126369288Y-108958477D01*
X126369288Y-108958477D02*
X126369288Y-109359071D01*
X126419362Y-108307511D02*
X126419362Y-107956991D01*
X125868545Y-107806768D02*
X125868545Y-108307511D01*
X125868545Y-108307511D02*
X126920105Y-108307511D01*
X126920105Y-108307511D02*
X126920105Y-107806768D01*
X125868545Y-107356100D02*
X126920105Y-107356100D01*
X126920105Y-107356100D02*
X126920105Y-107105729D01*
X126920105Y-107105729D02*
X126870031Y-106955506D01*
X126870031Y-106955506D02*
X126769882Y-106855357D01*
X126769882Y-106855357D02*
X126669734Y-106805283D01*
X126669734Y-106805283D02*
X126469437Y-106755209D01*
X126469437Y-106755209D02*
X126319214Y-106755209D01*
X126319214Y-106755209D02*
X126118917Y-106805283D01*
X126118917Y-106805283D02*
X126018768Y-106855357D01*
X126018768Y-106855357D02*
X125918620Y-106955506D01*
X125918620Y-106955506D02*
X125868545Y-107105729D01*
X125868545Y-107105729D02*
X125868545Y-107356100D01*
X125918620Y-105553425D02*
X125868545Y-105403203D01*
X125868545Y-105403203D02*
X125868545Y-105152831D01*
X125868545Y-105152831D02*
X125918620Y-105052683D01*
X125918620Y-105052683D02*
X125968694Y-105002608D01*
X125968694Y-105002608D02*
X126068842Y-104952534D01*
X126068842Y-104952534D02*
X126168991Y-104952534D01*
X126168991Y-104952534D02*
X126269140Y-105002608D01*
X126269140Y-105002608D02*
X126319214Y-105052683D01*
X126319214Y-105052683D02*
X126369288Y-105152831D01*
X126369288Y-105152831D02*
X126419362Y-105353128D01*
X126419362Y-105353128D02*
X126469437Y-105453277D01*
X126469437Y-105453277D02*
X126519511Y-105503351D01*
X126519511Y-105503351D02*
X126619660Y-105553425D01*
X126619660Y-105553425D02*
X126719808Y-105553425D01*
X126719808Y-105553425D02*
X126819957Y-105503351D01*
X126819957Y-105503351D02*
X126870031Y-105453277D01*
X126870031Y-105453277D02*
X126920105Y-105353128D01*
X126920105Y-105353128D02*
X126920105Y-105102757D01*
X126920105Y-105102757D02*
X126870031Y-104952534D01*
X126920105Y-104652088D02*
X126920105Y-104051197D01*
X125868545Y-104351642D02*
X126920105Y-104351642D01*
X125868545Y-103099785D02*
X126369288Y-103450305D01*
X125868545Y-103700676D02*
X126920105Y-103700676D01*
X126920105Y-103700676D02*
X126920105Y-103300082D01*
X126920105Y-103300082D02*
X126870031Y-103199933D01*
X126870031Y-103199933D02*
X126819957Y-103149859D01*
X126819957Y-103149859D02*
X126719808Y-103099785D01*
X126719808Y-103099785D02*
X126569585Y-103099785D01*
X126569585Y-103099785D02*
X126469437Y-103149859D01*
X126469437Y-103149859D02*
X126419362Y-103199933D01*
X126419362Y-103199933D02*
X126369288Y-103300082D01*
X126369288Y-103300082D02*
X126369288Y-103700676D01*
X125868545Y-102649116D02*
X126920105Y-102649116D01*
X125868545Y-102148373D02*
X126920105Y-102148373D01*
X126920105Y-102148373D02*
X126920105Y-101747779D01*
X126920105Y-101747779D02*
X126870031Y-101647630D01*
X126870031Y-101647630D02*
X126819957Y-101597556D01*
X126819957Y-101597556D02*
X126719808Y-101547482D01*
X126719808Y-101547482D02*
X126569585Y-101547482D01*
X126569585Y-101547482D02*
X126469437Y-101597556D01*
X126469437Y-101597556D02*
X126419362Y-101647630D01*
X126419362Y-101647630D02*
X126369288Y-101747779D01*
X126369288Y-101747779D02*
X126369288Y-102148373D01*
X126419362Y-101096813D02*
X126419362Y-100746293D01*
X125868545Y-100596070D02*
X125868545Y-101096813D01*
X125868545Y-101096813D02*
X126920105Y-101096813D01*
X126920105Y-101096813D02*
X126920105Y-100596070D01*
D14*
X132543922Y-110841737D02*
X133530894Y-110841737D01*
D16*
X118310962Y-102588883D02*
X118355782Y-102633704D01*
X118355782Y-102633704D02*
X118490242Y-102678524D01*
X118490242Y-102678524D02*
X118579882Y-102678524D01*
X118579882Y-102678524D02*
X118714343Y-102633704D01*
X118714343Y-102633704D02*
X118803983Y-102544063D01*
X118803983Y-102544063D02*
X118848803Y-102454423D01*
X118848803Y-102454423D02*
X118893623Y-102275143D01*
X118893623Y-102275143D02*
X118893623Y-102140682D01*
X118893623Y-102140682D02*
X118848803Y-101961402D01*
X118848803Y-101961402D02*
X118803983Y-101871762D01*
X118803983Y-101871762D02*
X118714343Y-101782122D01*
X118714343Y-101782122D02*
X118579882Y-101737302D01*
X118579882Y-101737302D02*
X118490242Y-101737302D01*
X118490242Y-101737302D02*
X118355782Y-101782122D01*
X118355782Y-101782122D02*
X118310962Y-101826942D01*
X117862761Y-102678524D02*
X117683481Y-102678524D01*
X117683481Y-102678524D02*
X117593840Y-102633704D01*
X117593840Y-102633704D02*
X117549020Y-102588883D01*
X117549020Y-102588883D02*
X117459380Y-102454423D01*
X117459380Y-102454423D02*
X117414560Y-102275143D01*
X117414560Y-102275143D02*
X117414560Y-101916582D01*
X117414560Y-101916582D02*
X117459380Y-101826942D01*
X117459380Y-101826942D02*
X117504200Y-101782122D01*
X117504200Y-101782122D02*
X117593840Y-101737302D01*
X117593840Y-101737302D02*
X117773121Y-101737302D01*
X117773121Y-101737302D02*
X117862761Y-101782122D01*
X117862761Y-101782122D02*
X117907581Y-101826942D01*
X117907581Y-101826942D02*
X117952401Y-101916582D01*
X117952401Y-101916582D02*
X117952401Y-102140682D01*
X117952401Y-102140682D02*
X117907581Y-102230323D01*
X117907581Y-102230323D02*
X117862761Y-102275143D01*
X117862761Y-102275143D02*
X117773121Y-102319963D01*
X117773121Y-102319963D02*
X117593840Y-102319963D01*
X117593840Y-102319963D02*
X117504200Y-102275143D01*
X117504200Y-102275143D02*
X117459380Y-102230323D01*
X117459380Y-102230323D02*
X117414560Y-102140682D01*
D10*
X187766472Y-105898980D02*
X186814045Y-105898980D01*
X186814045Y-105898980D02*
X186701995Y-105842955D01*
X186701995Y-105842955D02*
X186645970Y-105786930D01*
X186645970Y-105786930D02*
X186589944Y-105674879D01*
X186589944Y-105674879D02*
X186589944Y-105450779D01*
X186589944Y-105450779D02*
X186645970Y-105338728D01*
X186645970Y-105338728D02*
X186701995Y-105282703D01*
X186701995Y-105282703D02*
X186814045Y-105226678D01*
X186814045Y-105226678D02*
X187766472Y-105226678D01*
X186589944Y-104050150D02*
X186589944Y-104722452D01*
X186589944Y-104386301D02*
X187766472Y-104386301D01*
X187766472Y-104386301D02*
X187598397Y-104498351D01*
X187598397Y-104498351D02*
X187486347Y-104610402D01*
X187486347Y-104610402D02*
X187430322Y-104722452D01*
X166504178Y-109012755D02*
X166896354Y-108452503D01*
X167176480Y-109012755D02*
X167176480Y-107836227D01*
X167176480Y-107836227D02*
X166728279Y-107836227D01*
X166728279Y-107836227D02*
X166616228Y-107892252D01*
X166616228Y-107892252D02*
X166560203Y-107948277D01*
X166560203Y-107948277D02*
X166504178Y-108060327D01*
X166504178Y-108060327D02*
X166504178Y-108228403D01*
X166504178Y-108228403D02*
X166560203Y-108340453D01*
X166560203Y-108340453D02*
X166616228Y-108396478D01*
X166616228Y-108396478D02*
X166728279Y-108452503D01*
X166728279Y-108452503D02*
X167176480Y-108452503D01*
X166112002Y-107836227D02*
X165327650Y-107836227D01*
X165327650Y-107836227D02*
X165831876Y-109012755D01*
X177680178Y-101915704D02*
X177736203Y-101971730D01*
X177736203Y-101971730D02*
X177904279Y-102027755D01*
X177904279Y-102027755D02*
X178016329Y-102027755D01*
X178016329Y-102027755D02*
X178184404Y-101971730D01*
X178184404Y-101971730D02*
X178296455Y-101859679D01*
X178296455Y-101859679D02*
X178352480Y-101747629D01*
X178352480Y-101747629D02*
X178408505Y-101523528D01*
X178408505Y-101523528D02*
X178408505Y-101355453D01*
X178408505Y-101355453D02*
X178352480Y-101131352D01*
X178352480Y-101131352D02*
X178296455Y-101019302D01*
X178296455Y-101019302D02*
X178184404Y-100907252D01*
X178184404Y-100907252D02*
X178016329Y-100851227D01*
X178016329Y-100851227D02*
X177904279Y-100851227D01*
X177904279Y-100851227D02*
X177736203Y-100907252D01*
X177736203Y-100907252D02*
X177680178Y-100963277D01*
X176615700Y-100851227D02*
X177175952Y-100851227D01*
X177175952Y-100851227D02*
X177231977Y-101411478D01*
X177231977Y-101411478D02*
X177175952Y-101355453D01*
X177175952Y-101355453D02*
X177063902Y-101299428D01*
X177063902Y-101299428D02*
X176783776Y-101299428D01*
X176783776Y-101299428D02*
X176671726Y-101355453D01*
X176671726Y-101355453D02*
X176615700Y-101411478D01*
X176615700Y-101411478D02*
X176559675Y-101523528D01*
X176559675Y-101523528D02*
X176559675Y-101803654D01*
X176559675Y-101803654D02*
X176615700Y-101915704D01*
X176615700Y-101915704D02*
X176671726Y-101971730D01*
X176671726Y-101971730D02*
X176783776Y-102027755D01*
X176783776Y-102027755D02*
X177063902Y-102027755D01*
X177063902Y-102027755D02*
X177175952Y-101971730D01*
X177175952Y-101971730D02*
X177231977Y-101915704D01*
X99182860Y-98339456D02*
X100105388Y-98339456D01*
X100105388Y-98339456D02*
X100105388Y-98119806D01*
X100105388Y-98119806D02*
X100061458Y-97988017D01*
X100061458Y-97988017D02*
X99973598Y-97900157D01*
X99973598Y-97900157D02*
X99885738Y-97856227D01*
X99885738Y-97856227D02*
X99710018Y-97812297D01*
X99710018Y-97812297D02*
X99578229Y-97812297D01*
X99578229Y-97812297D02*
X99402509Y-97856227D01*
X99402509Y-97856227D02*
X99314649Y-97900157D01*
X99314649Y-97900157D02*
X99226790Y-97988017D01*
X99226790Y-97988017D02*
X99182860Y-98119806D01*
X99182860Y-98119806D02*
X99182860Y-98339456D01*
X100105388Y-97021559D02*
X100105388Y-97197278D01*
X100105388Y-97197278D02*
X100061458Y-97285138D01*
X100061458Y-97285138D02*
X100017528Y-97329068D01*
X100017528Y-97329068D02*
X99885738Y-97416928D01*
X99885738Y-97416928D02*
X99710018Y-97460858D01*
X99710018Y-97460858D02*
X99358579Y-97460858D01*
X99358579Y-97460858D02*
X99270719Y-97416928D01*
X99270719Y-97416928D02*
X99226790Y-97372998D01*
X99226790Y-97372998D02*
X99182860Y-97285138D01*
X99182860Y-97285138D02*
X99182860Y-97109419D01*
X99182860Y-97109419D02*
X99226790Y-97021559D01*
X99226790Y-97021559D02*
X99270719Y-96977629D01*
X99270719Y-96977629D02*
X99358579Y-96933699D01*
X99358579Y-96933699D02*
X99578229Y-96933699D01*
X99578229Y-96933699D02*
X99666089Y-96977629D01*
X99666089Y-96977629D02*
X99710018Y-97021559D01*
X99710018Y-97021559D02*
X99753948Y-97109419D01*
X99753948Y-97109419D02*
X99753948Y-97285138D01*
X99753948Y-97285138D02*
X99710018Y-97372998D01*
X99710018Y-97372998D02*
X99666089Y-97416928D01*
X99666089Y-97416928D02*
X99578229Y-97460858D01*
X158630178Y-102535755D02*
X159022354Y-101975503D01*
X159302480Y-102535755D02*
X159302480Y-101359227D01*
X159302480Y-101359227D02*
X158854279Y-101359227D01*
X158854279Y-101359227D02*
X158742228Y-101415252D01*
X158742228Y-101415252D02*
X158686203Y-101471277D01*
X158686203Y-101471277D02*
X158630178Y-101583327D01*
X158630178Y-101583327D02*
X158630178Y-101751403D01*
X158630178Y-101751403D02*
X158686203Y-101863453D01*
X158686203Y-101863453D02*
X158742228Y-101919478D01*
X158742228Y-101919478D02*
X158854279Y-101975503D01*
X158854279Y-101975503D02*
X159302480Y-101975503D01*
X158238002Y-101359227D02*
X157509675Y-101359227D01*
X157509675Y-101359227D02*
X157901851Y-101807428D01*
X157901851Y-101807428D02*
X157733776Y-101807428D01*
X157733776Y-101807428D02*
X157621726Y-101863453D01*
X157621726Y-101863453D02*
X157565700Y-101919478D01*
X157565700Y-101919478D02*
X157509675Y-102031528D01*
X157509675Y-102031528D02*
X157509675Y-102311654D01*
X157509675Y-102311654D02*
X157565700Y-102423704D01*
X157565700Y-102423704D02*
X157621726Y-102479730D01*
X157621726Y-102479730D02*
X157733776Y-102535755D01*
X157733776Y-102535755D02*
X158069927Y-102535755D01*
X158069927Y-102535755D02*
X158181977Y-102479730D01*
X158181977Y-102479730D02*
X158238002Y-102423704D01*
X194919057Y-99582527D02*
X195361552Y-99885420D01*
X194924577Y-100109657D02*
X195847054Y-100099997D01*
X195847054Y-100099997D02*
X195843374Y-99748577D01*
X195843374Y-99748577D02*
X195798527Y-99661182D01*
X195798527Y-99661182D02*
X195754139Y-99617714D01*
X195754139Y-99617714D02*
X195665824Y-99574707D01*
X195665824Y-99574707D02*
X195534042Y-99576087D01*
X195534042Y-99576087D02*
X195446647Y-99620934D01*
X195446647Y-99620934D02*
X195403179Y-99665322D01*
X195403179Y-99665322D02*
X195360172Y-99753637D01*
X195360172Y-99753637D02*
X195363852Y-100105057D01*
X194909856Y-98703977D02*
X194915377Y-99231107D01*
X194912616Y-98967542D02*
X195835094Y-98957882D01*
X195835094Y-98957882D02*
X195704231Y-99047117D01*
X195704231Y-99047117D02*
X195617296Y-99135892D01*
X195617296Y-99135892D02*
X195574289Y-99224207D01*
X195740799Y-98343817D02*
X195784266Y-98299430D01*
X195784266Y-98299430D02*
X195827273Y-98211114D01*
X195827273Y-98211114D02*
X195824973Y-97991477D01*
X195824973Y-97991477D02*
X195780126Y-97904082D01*
X195780126Y-97904082D02*
X195735738Y-97860615D01*
X195735738Y-97860615D02*
X195647423Y-97817607D01*
X195647423Y-97817607D02*
X195559568Y-97818527D01*
X195559568Y-97818527D02*
X195428246Y-97863835D01*
X195428246Y-97863835D02*
X194906636Y-98396485D01*
X194906636Y-98396485D02*
X194900656Y-97825428D01*
X166765197Y-103150292D02*
X167157373Y-102590040D01*
X167437499Y-103150292D02*
X167437499Y-101973764D01*
X167437499Y-101973764D02*
X166989298Y-101973764D01*
X166989298Y-101973764D02*
X166877247Y-102029789D01*
X166877247Y-102029789D02*
X166821222Y-102085814D01*
X166821222Y-102085814D02*
X166765197Y-102197864D01*
X166765197Y-102197864D02*
X166765197Y-102365940D01*
X166765197Y-102365940D02*
X166821222Y-102477990D01*
X166821222Y-102477990D02*
X166877247Y-102534015D01*
X166877247Y-102534015D02*
X166989298Y-102590040D01*
X166989298Y-102590040D02*
X167437499Y-102590040D01*
X165700719Y-101973764D02*
X166260971Y-101973764D01*
X166260971Y-101973764D02*
X166316996Y-102534015D01*
X166316996Y-102534015D02*
X166260971Y-102477990D01*
X166260971Y-102477990D02*
X166148921Y-102421965D01*
X166148921Y-102421965D02*
X165868795Y-102421965D01*
X165868795Y-102421965D02*
X165756745Y-102477990D01*
X165756745Y-102477990D02*
X165700719Y-102534015D01*
X165700719Y-102534015D02*
X165644694Y-102646065D01*
X165644694Y-102646065D02*
X165644694Y-102926191D01*
X165644694Y-102926191D02*
X165700719Y-103038241D01*
X165700719Y-103038241D02*
X165756745Y-103094267D01*
X165756745Y-103094267D02*
X165868795Y-103150292D01*
X165868795Y-103150292D02*
X166148921Y-103150292D01*
X166148921Y-103150292D02*
X166260971Y-103094267D01*
X166260971Y-103094267D02*
X166316996Y-103038241D01*
X194014797Y-97740839D02*
X194322306Y-97301540D01*
X194541956Y-97740839D02*
X194541956Y-96818311D01*
X194541956Y-96818311D02*
X194190517Y-96818311D01*
X194190517Y-96818311D02*
X194102657Y-96862241D01*
X194102657Y-96862241D02*
X194058727Y-96906171D01*
X194058727Y-96906171D02*
X194014797Y-96994031D01*
X194014797Y-96994031D02*
X194014797Y-97125821D01*
X194014797Y-97125821D02*
X194058727Y-97213681D01*
X194058727Y-97213681D02*
X194102657Y-97257610D01*
X194102657Y-97257610D02*
X194190517Y-97301540D01*
X194190517Y-97301540D02*
X194541956Y-97301540D01*
X193136199Y-97740839D02*
X193663358Y-97740839D01*
X193399778Y-97740839D02*
X193399778Y-96818311D01*
X193399778Y-96818311D02*
X193487638Y-96950101D01*
X193487638Y-96950101D02*
X193575498Y-97037961D01*
X193575498Y-97037961D02*
X193663358Y-97081891D01*
X192257601Y-97740839D02*
X192784760Y-97740839D01*
X192521180Y-97740839D02*
X192521180Y-96818311D01*
X192521180Y-96818311D02*
X192609040Y-96950101D01*
X192609040Y-96950101D02*
X192696900Y-97037961D01*
X192696900Y-97037961D02*
X192784760Y-97081891D01*
X121108447Y-109038610D02*
X121415956Y-109038610D01*
X121415956Y-109521839D02*
X121415956Y-108599311D01*
X121415956Y-108599311D02*
X120976657Y-108599311D01*
X120669148Y-108687171D02*
X120625218Y-108643241D01*
X120625218Y-108643241D02*
X120537358Y-108599311D01*
X120537358Y-108599311D02*
X120317709Y-108599311D01*
X120317709Y-108599311D02*
X120229849Y-108643241D01*
X120229849Y-108643241D02*
X120185919Y-108687171D01*
X120185919Y-108687171D02*
X120141989Y-108775031D01*
X120141989Y-108775031D02*
X120141989Y-108862891D01*
X120141989Y-108862891D02*
X120185919Y-108994681D01*
X120185919Y-108994681D02*
X120713078Y-109521839D01*
X120713078Y-109521839D02*
X120141989Y-109521839D01*
X175528197Y-100229292D02*
X175920373Y-99669040D01*
X176200499Y-100229292D02*
X176200499Y-99052764D01*
X176200499Y-99052764D02*
X175752298Y-99052764D01*
X175752298Y-99052764D02*
X175640247Y-99108789D01*
X175640247Y-99108789D02*
X175584222Y-99164814D01*
X175584222Y-99164814D02*
X175528197Y-99276864D01*
X175528197Y-99276864D02*
X175528197Y-99444940D01*
X175528197Y-99444940D02*
X175584222Y-99556990D01*
X175584222Y-99556990D02*
X175640247Y-99613015D01*
X175640247Y-99613015D02*
X175752298Y-99669040D01*
X175752298Y-99669040D02*
X176200499Y-99669040D01*
X175079996Y-99164814D02*
X175023971Y-99108789D01*
X175023971Y-99108789D02*
X174911921Y-99052764D01*
X174911921Y-99052764D02*
X174631795Y-99052764D01*
X174631795Y-99052764D02*
X174519745Y-99108789D01*
X174519745Y-99108789D02*
X174463719Y-99164814D01*
X174463719Y-99164814D02*
X174407694Y-99276864D01*
X174407694Y-99276864D02*
X174407694Y-99388915D01*
X174407694Y-99388915D02*
X174463719Y-99556990D01*
X174463719Y-99556990D02*
X175136021Y-100229292D01*
X175136021Y-100229292D02*
X174407694Y-100229292D01*
X166765197Y-99736241D02*
X166821222Y-99792267D01*
X166821222Y-99792267D02*
X166989298Y-99848292D01*
X166989298Y-99848292D02*
X167101348Y-99848292D01*
X167101348Y-99848292D02*
X167269423Y-99792267D01*
X167269423Y-99792267D02*
X167381474Y-99680216D01*
X167381474Y-99680216D02*
X167437499Y-99568166D01*
X167437499Y-99568166D02*
X167493524Y-99344065D01*
X167493524Y-99344065D02*
X167493524Y-99175990D01*
X167493524Y-99175990D02*
X167437499Y-98951889D01*
X167437499Y-98951889D02*
X167381474Y-98839839D01*
X167381474Y-98839839D02*
X167269423Y-98727789D01*
X167269423Y-98727789D02*
X167101348Y-98671764D01*
X167101348Y-98671764D02*
X166989298Y-98671764D01*
X166989298Y-98671764D02*
X166821222Y-98727789D01*
X166821222Y-98727789D02*
X166765197Y-98783814D01*
X166373021Y-98671764D02*
X165644694Y-98671764D01*
X165644694Y-98671764D02*
X166036870Y-99119965D01*
X166036870Y-99119965D02*
X165868795Y-99119965D01*
X165868795Y-99119965D02*
X165756745Y-99175990D01*
X165756745Y-99175990D02*
X165700719Y-99232015D01*
X165700719Y-99232015D02*
X165644694Y-99344065D01*
X165644694Y-99344065D02*
X165644694Y-99624191D01*
X165644694Y-99624191D02*
X165700719Y-99736241D01*
X165700719Y-99736241D02*
X165756745Y-99792267D01*
X165756745Y-99792267D02*
X165868795Y-99848292D01*
X165868795Y-99848292D02*
X166204946Y-99848292D01*
X166204946Y-99848292D02*
X166316996Y-99792267D01*
X166316996Y-99792267D02*
X166373021Y-99736241D01*
X111311503Y-108372411D02*
X111750802Y-108679920D01*
X111311503Y-108899570D02*
X112234031Y-108899570D01*
X112234031Y-108899570D02*
X112234031Y-108548131D01*
X112234031Y-108548131D02*
X112190101Y-108460271D01*
X112190101Y-108460271D02*
X112146171Y-108416341D01*
X112146171Y-108416341D02*
X112058311Y-108372411D01*
X112058311Y-108372411D02*
X111926521Y-108372411D01*
X111926521Y-108372411D02*
X111838661Y-108416341D01*
X111838661Y-108416341D02*
X111794732Y-108460271D01*
X111794732Y-108460271D02*
X111750802Y-108548131D01*
X111750802Y-108548131D02*
X111750802Y-108899570D01*
X111311503Y-107933112D02*
X111311503Y-107757392D01*
X111311503Y-107757392D02*
X111355433Y-107669533D01*
X111355433Y-107669533D02*
X111399362Y-107625603D01*
X111399362Y-107625603D02*
X111531152Y-107537743D01*
X111531152Y-107537743D02*
X111706872Y-107493813D01*
X111706872Y-107493813D02*
X112058311Y-107493813D01*
X112058311Y-107493813D02*
X112146171Y-107537743D01*
X112146171Y-107537743D02*
X112190101Y-107581673D01*
X112190101Y-107581673D02*
X112234031Y-107669533D01*
X112234031Y-107669533D02*
X112234031Y-107845252D01*
X112234031Y-107845252D02*
X112190101Y-107933112D01*
X112190101Y-107933112D02*
X112146171Y-107977042D01*
X112146171Y-107977042D02*
X112058311Y-108020972D01*
X112058311Y-108020972D02*
X111838661Y-108020972D01*
X111838661Y-108020972D02*
X111750802Y-107977042D01*
X111750802Y-107977042D02*
X111706872Y-107933112D01*
X111706872Y-107933112D02*
X111662942Y-107845252D01*
X111662942Y-107845252D02*
X111662942Y-107669533D01*
X111662942Y-107669533D02*
X111706872Y-107581673D01*
X111706872Y-107581673D02*
X111750802Y-107537743D01*
X111750802Y-107537743D02*
X111838661Y-107493813D01*
X143087797Y-113361839D02*
X143395306Y-112922540D01*
X143614956Y-113361839D02*
X143614956Y-112439311D01*
X143614956Y-112439311D02*
X143263517Y-112439311D01*
X143263517Y-112439311D02*
X143175657Y-112483241D01*
X143175657Y-112483241D02*
X143131727Y-112527171D01*
X143131727Y-112527171D02*
X143087797Y-112615031D01*
X143087797Y-112615031D02*
X143087797Y-112746821D01*
X143087797Y-112746821D02*
X143131727Y-112834681D01*
X143131727Y-112834681D02*
X143175657Y-112878610D01*
X143175657Y-112878610D02*
X143263517Y-112922540D01*
X143263517Y-112922540D02*
X143614956Y-112922540D01*
X142560638Y-112834681D02*
X142648498Y-112790751D01*
X142648498Y-112790751D02*
X142692428Y-112746821D01*
X142692428Y-112746821D02*
X142736358Y-112658961D01*
X142736358Y-112658961D02*
X142736358Y-112615031D01*
X142736358Y-112615031D02*
X142692428Y-112527171D01*
X142692428Y-112527171D02*
X142648498Y-112483241D01*
X142648498Y-112483241D02*
X142560638Y-112439311D01*
X142560638Y-112439311D02*
X142384919Y-112439311D01*
X142384919Y-112439311D02*
X142297059Y-112483241D01*
X142297059Y-112483241D02*
X142253129Y-112527171D01*
X142253129Y-112527171D02*
X142209199Y-112615031D01*
X142209199Y-112615031D02*
X142209199Y-112658961D01*
X142209199Y-112658961D02*
X142253129Y-112746821D01*
X142253129Y-112746821D02*
X142297059Y-112790751D01*
X142297059Y-112790751D02*
X142384919Y-112834681D01*
X142384919Y-112834681D02*
X142560638Y-112834681D01*
X142560638Y-112834681D02*
X142648498Y-112878610D01*
X142648498Y-112878610D02*
X142692428Y-112922540D01*
X142692428Y-112922540D02*
X142736358Y-113010400D01*
X142736358Y-113010400D02*
X142736358Y-113186120D01*
X142736358Y-113186120D02*
X142692428Y-113273980D01*
X142692428Y-113273980D02*
X142648498Y-113317910D01*
X142648498Y-113317910D02*
X142560638Y-113361839D01*
X142560638Y-113361839D02*
X142384919Y-113361839D01*
X142384919Y-113361839D02*
X142297059Y-113317910D01*
X142297059Y-113317910D02*
X142253129Y-113273980D01*
X142253129Y-113273980D02*
X142209199Y-113186120D01*
X142209199Y-113186120D02*
X142209199Y-113010400D01*
X142209199Y-113010400D02*
X142253129Y-112922540D01*
X142253129Y-112922540D02*
X142297059Y-112878610D01*
X142297059Y-112878610D02*
X142384919Y-112834681D01*
X106376447Y-101291610D02*
X106683956Y-101291610D01*
X106683956Y-101774839D02*
X106683956Y-100852311D01*
X106683956Y-100852311D02*
X106244657Y-100852311D01*
X105409989Y-101774839D02*
X105937148Y-101774839D01*
X105673568Y-101774839D02*
X105673568Y-100852311D01*
X105673568Y-100852311D02*
X105761428Y-100984101D01*
X105761428Y-100984101D02*
X105849288Y-101071961D01*
X105849288Y-101071961D02*
X105937148Y-101115891D01*
X149691797Y-109678839D02*
X149999306Y-109239540D01*
X150218956Y-109678839D02*
X150218956Y-108756311D01*
X150218956Y-108756311D02*
X149867517Y-108756311D01*
X149867517Y-108756311D02*
X149779657Y-108800241D01*
X149779657Y-108800241D02*
X149735727Y-108844171D01*
X149735727Y-108844171D02*
X149691797Y-108932031D01*
X149691797Y-108932031D02*
X149691797Y-109063821D01*
X149691797Y-109063821D02*
X149735727Y-109151681D01*
X149735727Y-109151681D02*
X149779657Y-109195610D01*
X149779657Y-109195610D02*
X149867517Y-109239540D01*
X149867517Y-109239540D02*
X150218956Y-109239540D01*
X148813199Y-109678839D02*
X149340358Y-109678839D01*
X149076778Y-109678839D02*
X149076778Y-108756311D01*
X149076778Y-108756311D02*
X149164638Y-108888101D01*
X149164638Y-108888101D02*
X149252498Y-108975961D01*
X149252498Y-108975961D02*
X149340358Y-109019891D01*
X147978531Y-108756311D02*
X148417830Y-108756311D01*
X148417830Y-108756311D02*
X148461760Y-109195610D01*
X148461760Y-109195610D02*
X148417830Y-109151681D01*
X148417830Y-109151681D02*
X148329970Y-109107751D01*
X148329970Y-109107751D02*
X148110321Y-109107751D01*
X148110321Y-109107751D02*
X148022461Y-109151681D01*
X148022461Y-109151681D02*
X147978531Y-109195610D01*
X147978531Y-109195610D02*
X147934601Y-109283470D01*
X147934601Y-109283470D02*
X147934601Y-109503120D01*
X147934601Y-109503120D02*
X147978531Y-109590980D01*
X147978531Y-109590980D02*
X148022461Y-109634910D01*
X148022461Y-109634910D02*
X148110321Y-109678839D01*
X148110321Y-109678839D02*
X148329970Y-109678839D01*
X148329970Y-109678839D02*
X148417830Y-109634910D01*
X148417830Y-109634910D02*
X148461760Y-109590980D01*
D17*
X116377968Y-107897073D02*
X116679847Y-107897073D01*
X116679847Y-107897073D02*
X116679847Y-107825197D01*
X116679847Y-107825197D02*
X116665472Y-107782071D01*
X116665472Y-107782071D02*
X116636722Y-107753321D01*
X116636722Y-107753321D02*
X116607971Y-107738945D01*
X116607971Y-107738945D02*
X116550471Y-107724570D01*
X116550471Y-107724570D02*
X116507345Y-107724570D01*
X116507345Y-107724570D02*
X116449844Y-107738945D01*
X116449844Y-107738945D02*
X116421094Y-107753321D01*
X116421094Y-107753321D02*
X116392344Y-107782071D01*
X116392344Y-107782071D02*
X116377968Y-107825197D01*
X116377968Y-107825197D02*
X116377968Y-107897073D01*
X116651097Y-107609569D02*
X116665472Y-107595194D01*
X116665472Y-107595194D02*
X116679847Y-107566443D01*
X116679847Y-107566443D02*
X116679847Y-107494567D01*
X116679847Y-107494567D02*
X116665472Y-107465817D01*
X116665472Y-107465817D02*
X116651097Y-107451442D01*
X116651097Y-107451442D02*
X116622347Y-107437066D01*
X116622347Y-107437066D02*
X116593596Y-107437066D01*
X116593596Y-107437066D02*
X116550471Y-107451442D01*
X116550471Y-107451442D02*
X116377968Y-107623944D01*
X116377968Y-107623944D02*
X116377968Y-107437066D01*
D10*
X151918944Y-105771980D02*
X153095472Y-105771980D01*
X153095472Y-105771980D02*
X153095472Y-105491854D01*
X153095472Y-105491854D02*
X153039447Y-105323779D01*
X153039447Y-105323779D02*
X152927397Y-105211728D01*
X152927397Y-105211728D02*
X152815347Y-105155703D01*
X152815347Y-105155703D02*
X152591246Y-105099678D01*
X152591246Y-105099678D02*
X152423171Y-105099678D01*
X152423171Y-105099678D02*
X152199070Y-105155703D01*
X152199070Y-105155703D02*
X152087020Y-105211728D01*
X152087020Y-105211728D02*
X151974970Y-105323779D01*
X151974970Y-105323779D02*
X151918944Y-105491854D01*
X151918944Y-105491854D02*
X151918944Y-105771980D01*
X153095472Y-104035200D02*
X153095472Y-104595452D01*
X153095472Y-104595452D02*
X152535221Y-104651477D01*
X152535221Y-104651477D02*
X152591246Y-104595452D01*
X152591246Y-104595452D02*
X152647271Y-104483402D01*
X152647271Y-104483402D02*
X152647271Y-104203276D01*
X152647271Y-104203276D02*
X152591246Y-104091226D01*
X152591246Y-104091226D02*
X152535221Y-104035200D01*
X152535221Y-104035200D02*
X152423171Y-103979175D01*
X152423171Y-103979175D02*
X152143045Y-103979175D01*
X152143045Y-103979175D02*
X152030995Y-104035200D01*
X152030995Y-104035200D02*
X151974970Y-104091226D01*
X151974970Y-104091226D02*
X151918944Y-104203276D01*
X151918944Y-104203276D02*
X151918944Y-104483402D01*
X151918944Y-104483402D02*
X151974970Y-104595452D01*
X151974970Y-104595452D02*
X152030995Y-104651477D01*
X111374860Y-113052297D02*
X111814159Y-113359806D01*
X111374860Y-113579456D02*
X112297388Y-113579456D01*
X112297388Y-113579456D02*
X112297388Y-113228017D01*
X112297388Y-113228017D02*
X112253458Y-113140157D01*
X112253458Y-113140157D02*
X112209528Y-113096227D01*
X112209528Y-113096227D02*
X112121668Y-113052297D01*
X112121668Y-113052297D02*
X111989878Y-113052297D01*
X111989878Y-113052297D02*
X111902018Y-113096227D01*
X111902018Y-113096227D02*
X111858089Y-113140157D01*
X111858089Y-113140157D02*
X111814159Y-113228017D01*
X111814159Y-113228017D02*
X111814159Y-113579456D01*
X111374860Y-112173699D02*
X111374860Y-112700858D01*
X111374860Y-112437278D02*
X112297388Y-112437278D01*
X112297388Y-112437278D02*
X112165598Y-112525138D01*
X112165598Y-112525138D02*
X112077738Y-112612998D01*
X112077738Y-112612998D02*
X112033808Y-112700858D01*
X112297388Y-111602610D02*
X112297388Y-111514751D01*
X112297388Y-111514751D02*
X112253458Y-111426891D01*
X112253458Y-111426891D02*
X112209528Y-111382961D01*
X112209528Y-111382961D02*
X112121668Y-111339031D01*
X112121668Y-111339031D02*
X111945948Y-111295101D01*
X111945948Y-111295101D02*
X111726299Y-111295101D01*
X111726299Y-111295101D02*
X111550579Y-111339031D01*
X111550579Y-111339031D02*
X111462719Y-111382961D01*
X111462719Y-111382961D02*
X111418790Y-111426891D01*
X111418790Y-111426891D02*
X111374860Y-111514751D01*
X111374860Y-111514751D02*
X111374860Y-111602610D01*
X111374860Y-111602610D02*
X111418790Y-111690470D01*
X111418790Y-111690470D02*
X111462719Y-111734400D01*
X111462719Y-111734400D02*
X111550579Y-111778330D01*
X111550579Y-111778330D02*
X111726299Y-111822260D01*
X111726299Y-111822260D02*
X111945948Y-111822260D01*
X111945948Y-111822260D02*
X112121668Y-111778330D01*
X112121668Y-111778330D02*
X112209528Y-111734400D01*
X112209528Y-111734400D02*
X112253458Y-111690470D01*
X112253458Y-111690470D02*
X112297388Y-111602610D01*
X158891197Y-104674292D02*
X159283373Y-104114040D01*
X159563499Y-104674292D02*
X159563499Y-103497764D01*
X159563499Y-103497764D02*
X159115298Y-103497764D01*
X159115298Y-103497764D02*
X159003247Y-103553789D01*
X159003247Y-103553789D02*
X158947222Y-103609814D01*
X158947222Y-103609814D02*
X158891197Y-103721864D01*
X158891197Y-103721864D02*
X158891197Y-103889940D01*
X158891197Y-103889940D02*
X158947222Y-104001990D01*
X158947222Y-104001990D02*
X159003247Y-104058015D01*
X159003247Y-104058015D02*
X159115298Y-104114040D01*
X159115298Y-104114040D02*
X159563499Y-104114040D01*
X157882745Y-103889940D02*
X157882745Y-104674292D01*
X158162870Y-103441739D02*
X158442996Y-104282116D01*
X158442996Y-104282116D02*
X157714669Y-104282116D01*
X180372458Y-107900697D02*
X180316433Y-107956722D01*
X180316433Y-107956722D02*
X180260407Y-108124798D01*
X180260407Y-108124798D02*
X180260407Y-108236848D01*
X180260407Y-108236848D02*
X180316433Y-108404923D01*
X180316433Y-108404923D02*
X180428483Y-108516974D01*
X180428483Y-108516974D02*
X180540533Y-108572999D01*
X180540533Y-108572999D02*
X180764634Y-108629024D01*
X180764634Y-108629024D02*
X180932709Y-108629024D01*
X180932709Y-108629024D02*
X181156810Y-108572999D01*
X181156810Y-108572999D02*
X181268860Y-108516974D01*
X181268860Y-108516974D02*
X181380910Y-108404923D01*
X181380910Y-108404923D02*
X181436935Y-108236848D01*
X181436935Y-108236848D02*
X181436935Y-108124798D01*
X181436935Y-108124798D02*
X181380910Y-107956722D01*
X181380910Y-107956722D02*
X181324885Y-107900697D01*
X181044759Y-106892245D02*
X180260407Y-106892245D01*
X181492961Y-107172370D02*
X180652583Y-107452496D01*
X180652583Y-107452496D02*
X180652583Y-106724169D01*
X171330178Y-111694704D02*
X171386203Y-111750730D01*
X171386203Y-111750730D02*
X171554279Y-111806755D01*
X171554279Y-111806755D02*
X171666329Y-111806755D01*
X171666329Y-111806755D02*
X171834404Y-111750730D01*
X171834404Y-111750730D02*
X171946455Y-111638679D01*
X171946455Y-111638679D02*
X172002480Y-111526629D01*
X172002480Y-111526629D02*
X172058505Y-111302528D01*
X172058505Y-111302528D02*
X172058505Y-111134453D01*
X172058505Y-111134453D02*
X172002480Y-110910352D01*
X172002480Y-110910352D02*
X171946455Y-110798302D01*
X171946455Y-110798302D02*
X171834404Y-110686252D01*
X171834404Y-110686252D02*
X171666329Y-110630227D01*
X171666329Y-110630227D02*
X171554279Y-110630227D01*
X171554279Y-110630227D02*
X171386203Y-110686252D01*
X171386203Y-110686252D02*
X171330178Y-110742277D01*
X170657876Y-111134453D02*
X170769927Y-111078428D01*
X170769927Y-111078428D02*
X170825952Y-111022403D01*
X170825952Y-111022403D02*
X170881977Y-110910352D01*
X170881977Y-110910352D02*
X170881977Y-110854327D01*
X170881977Y-110854327D02*
X170825952Y-110742277D01*
X170825952Y-110742277D02*
X170769927Y-110686252D01*
X170769927Y-110686252D02*
X170657876Y-110630227D01*
X170657876Y-110630227D02*
X170433776Y-110630227D01*
X170433776Y-110630227D02*
X170321726Y-110686252D01*
X170321726Y-110686252D02*
X170265700Y-110742277D01*
X170265700Y-110742277D02*
X170209675Y-110854327D01*
X170209675Y-110854327D02*
X170209675Y-110910352D01*
X170209675Y-110910352D02*
X170265700Y-111022403D01*
X170265700Y-111022403D02*
X170321726Y-111078428D01*
X170321726Y-111078428D02*
X170433776Y-111134453D01*
X170433776Y-111134453D02*
X170657876Y-111134453D01*
X170657876Y-111134453D02*
X170769927Y-111190478D01*
X170769927Y-111190478D02*
X170825952Y-111246503D01*
X170825952Y-111246503D02*
X170881977Y-111358554D01*
X170881977Y-111358554D02*
X170881977Y-111582654D01*
X170881977Y-111582654D02*
X170825952Y-111694704D01*
X170825952Y-111694704D02*
X170769927Y-111750730D01*
X170769927Y-111750730D02*
X170657876Y-111806755D01*
X170657876Y-111806755D02*
X170433776Y-111806755D01*
X170433776Y-111806755D02*
X170321726Y-111750730D01*
X170321726Y-111750730D02*
X170265700Y-111694704D01*
X170265700Y-111694704D02*
X170209675Y-111582654D01*
X170209675Y-111582654D02*
X170209675Y-111358554D01*
X170209675Y-111358554D02*
X170265700Y-111246503D01*
X170265700Y-111246503D02*
X170321726Y-111190478D01*
X170321726Y-111190478D02*
X170433776Y-111134453D01*
X152922197Y-102657241D02*
X152978222Y-102713267D01*
X152978222Y-102713267D02*
X153146298Y-102769292D01*
X153146298Y-102769292D02*
X153258348Y-102769292D01*
X153258348Y-102769292D02*
X153426423Y-102713267D01*
X153426423Y-102713267D02*
X153538474Y-102601216D01*
X153538474Y-102601216D02*
X153594499Y-102489166D01*
X153594499Y-102489166D02*
X153650524Y-102265065D01*
X153650524Y-102265065D02*
X153650524Y-102096990D01*
X153650524Y-102096990D02*
X153594499Y-101872889D01*
X153594499Y-101872889D02*
X153538474Y-101760839D01*
X153538474Y-101760839D02*
X153426423Y-101648789D01*
X153426423Y-101648789D02*
X153258348Y-101592764D01*
X153258348Y-101592764D02*
X153146298Y-101592764D01*
X153146298Y-101592764D02*
X152978222Y-101648789D01*
X152978222Y-101648789D02*
X152922197Y-101704814D01*
X152473996Y-101704814D02*
X152417971Y-101648789D01*
X152417971Y-101648789D02*
X152305921Y-101592764D01*
X152305921Y-101592764D02*
X152025795Y-101592764D01*
X152025795Y-101592764D02*
X151913745Y-101648789D01*
X151913745Y-101648789D02*
X151857719Y-101704814D01*
X151857719Y-101704814D02*
X151801694Y-101816864D01*
X151801694Y-101816864D02*
X151801694Y-101928915D01*
X151801694Y-101928915D02*
X151857719Y-102096990D01*
X151857719Y-102096990D02*
X152530021Y-102769292D01*
X152530021Y-102769292D02*
X151801694Y-102769292D01*
D16*
X102873380Y-106004112D02*
X102918200Y-106048933D01*
X102918200Y-106048933D02*
X103052660Y-106093753D01*
X103052660Y-106093753D02*
X103142300Y-106093753D01*
X103142300Y-106093753D02*
X103276761Y-106048933D01*
X103276761Y-106048933D02*
X103366401Y-105959292D01*
X103366401Y-105959292D02*
X103411221Y-105869652D01*
X103411221Y-105869652D02*
X103456041Y-105690372D01*
X103456041Y-105690372D02*
X103456041Y-105555911D01*
X103456041Y-105555911D02*
X103411221Y-105376631D01*
X103411221Y-105376631D02*
X103366401Y-105286991D01*
X103366401Y-105286991D02*
X103276761Y-105197351D01*
X103276761Y-105197351D02*
X103142300Y-105152531D01*
X103142300Y-105152531D02*
X103052660Y-105152531D01*
X103052660Y-105152531D02*
X102918200Y-105197351D01*
X102918200Y-105197351D02*
X102873380Y-105242171D01*
X101976978Y-106093753D02*
X102514819Y-106093753D01*
X102245899Y-106093753D02*
X102245899Y-105152531D01*
X102245899Y-105152531D02*
X102335539Y-105286991D01*
X102335539Y-105286991D02*
X102425179Y-105376631D01*
X102425179Y-105376631D02*
X102514819Y-105421451D01*
X101394317Y-105152531D02*
X101304676Y-105152531D01*
X101304676Y-105152531D02*
X101215036Y-105197351D01*
X101215036Y-105197351D02*
X101170216Y-105242171D01*
X101170216Y-105242171D02*
X101125396Y-105331811D01*
X101125396Y-105331811D02*
X101080576Y-105511091D01*
X101080576Y-105511091D02*
X101080576Y-105735192D01*
X101080576Y-105735192D02*
X101125396Y-105914472D01*
X101125396Y-105914472D02*
X101170216Y-106004112D01*
X101170216Y-106004112D02*
X101215036Y-106048933D01*
X101215036Y-106048933D02*
X101304676Y-106093753D01*
X101304676Y-106093753D02*
X101394317Y-106093753D01*
X101394317Y-106093753D02*
X101483957Y-106048933D01*
X101483957Y-106048933D02*
X101528777Y-106004112D01*
X101528777Y-106004112D02*
X101573597Y-105914472D01*
X101573597Y-105914472D02*
X101618417Y-105735192D01*
X101618417Y-105735192D02*
X101618417Y-105511091D01*
X101618417Y-105511091D02*
X101573597Y-105331811D01*
X101573597Y-105331811D02*
X101528777Y-105242171D01*
X101528777Y-105242171D02*
X101483957Y-105197351D01*
X101483957Y-105197351D02*
X101394317Y-105152531D01*
D10*
X180316750Y-110576292D02*
X180316750Y-109399764D01*
X179084197Y-110464241D02*
X179140222Y-110520267D01*
X179140222Y-110520267D02*
X179308298Y-110576292D01*
X179308298Y-110576292D02*
X179420348Y-110576292D01*
X179420348Y-110576292D02*
X179588423Y-110520267D01*
X179588423Y-110520267D02*
X179700474Y-110408216D01*
X179700474Y-110408216D02*
X179756499Y-110296166D01*
X179756499Y-110296166D02*
X179812524Y-110072065D01*
X179812524Y-110072065D02*
X179812524Y-109903990D01*
X179812524Y-109903990D02*
X179756499Y-109679889D01*
X179756499Y-109679889D02*
X179700474Y-109567839D01*
X179700474Y-109567839D02*
X179588423Y-109455789D01*
X179588423Y-109455789D02*
X179420348Y-109399764D01*
X179420348Y-109399764D02*
X179308298Y-109399764D01*
X179308298Y-109399764D02*
X179140222Y-109455789D01*
X179140222Y-109455789D02*
X179084197Y-109511814D01*
X178075745Y-109791940D02*
X178075745Y-110576292D01*
X178355870Y-109343739D02*
X178635996Y-110184116D01*
X178635996Y-110184116D02*
X177907669Y-110184116D01*
X193760797Y-111075839D02*
X194068306Y-110636540D01*
X194287956Y-111075839D02*
X194287956Y-110153311D01*
X194287956Y-110153311D02*
X193936517Y-110153311D01*
X193936517Y-110153311D02*
X193848657Y-110197241D01*
X193848657Y-110197241D02*
X193804727Y-110241171D01*
X193804727Y-110241171D02*
X193760797Y-110329031D01*
X193760797Y-110329031D02*
X193760797Y-110460821D01*
X193760797Y-110460821D02*
X193804727Y-110548681D01*
X193804727Y-110548681D02*
X193848657Y-110592610D01*
X193848657Y-110592610D02*
X193936517Y-110636540D01*
X193936517Y-110636540D02*
X194287956Y-110636540D01*
X192882199Y-111075839D02*
X193409358Y-111075839D01*
X193145778Y-111075839D02*
X193145778Y-110153311D01*
X193145778Y-110153311D02*
X193233638Y-110285101D01*
X193233638Y-110285101D02*
X193321498Y-110372961D01*
X193321498Y-110372961D02*
X193409358Y-110416891D01*
X192574690Y-110153311D02*
X192003601Y-110153311D01*
X192003601Y-110153311D02*
X192311110Y-110504751D01*
X192311110Y-110504751D02*
X192179321Y-110504751D01*
X192179321Y-110504751D02*
X192091461Y-110548681D01*
X192091461Y-110548681D02*
X192047531Y-110592610D01*
X192047531Y-110592610D02*
X192003601Y-110680470D01*
X192003601Y-110680470D02*
X192003601Y-110900120D01*
X192003601Y-110900120D02*
X192047531Y-110987980D01*
X192047531Y-110987980D02*
X192091461Y-111031910D01*
X192091461Y-111031910D02*
X192179321Y-111075839D01*
X192179321Y-111075839D02*
X192442900Y-111075839D01*
X192442900Y-111075839D02*
X192530760Y-111031910D01*
X192530760Y-111031910D02*
X192574690Y-110987980D01*
D17*
X116377968Y-112850073D02*
X116679847Y-112850073D01*
X116679847Y-112850073D02*
X116679847Y-112778197D01*
X116679847Y-112778197D02*
X116665472Y-112735071D01*
X116665472Y-112735071D02*
X116636722Y-112706321D01*
X116636722Y-112706321D02*
X116607971Y-112691945D01*
X116607971Y-112691945D02*
X116550471Y-112677570D01*
X116550471Y-112677570D02*
X116507345Y-112677570D01*
X116507345Y-112677570D02*
X116449844Y-112691945D01*
X116449844Y-112691945D02*
X116421094Y-112706321D01*
X116421094Y-112706321D02*
X116392344Y-112735071D01*
X116392344Y-112735071D02*
X116377968Y-112778197D01*
X116377968Y-112778197D02*
X116377968Y-112850073D01*
X116377968Y-112390066D02*
X116377968Y-112562569D01*
X116377968Y-112476318D02*
X116679847Y-112476318D01*
X116679847Y-112476318D02*
X116636722Y-112505068D01*
X116636722Y-112505068D02*
X116607971Y-112533818D01*
X116607971Y-112533818D02*
X116593596Y-112562569D01*
D10*
X158891197Y-106975241D02*
X158947222Y-107031267D01*
X158947222Y-107031267D02*
X159115298Y-107087292D01*
X159115298Y-107087292D02*
X159227348Y-107087292D01*
X159227348Y-107087292D02*
X159395423Y-107031267D01*
X159395423Y-107031267D02*
X159507474Y-106919216D01*
X159507474Y-106919216D02*
X159563499Y-106807166D01*
X159563499Y-106807166D02*
X159619524Y-106583065D01*
X159619524Y-106583065D02*
X159619524Y-106414990D01*
X159619524Y-106414990D02*
X159563499Y-106190889D01*
X159563499Y-106190889D02*
X159507474Y-106078839D01*
X159507474Y-106078839D02*
X159395423Y-105966789D01*
X159395423Y-105966789D02*
X159227348Y-105910764D01*
X159227348Y-105910764D02*
X159115298Y-105910764D01*
X159115298Y-105910764D02*
X158947222Y-105966789D01*
X158947222Y-105966789D02*
X158891197Y-106022814D01*
X157770694Y-107087292D02*
X158442996Y-107087292D01*
X158106845Y-107087292D02*
X158106845Y-105910764D01*
X158106845Y-105910764D02*
X158218895Y-106078839D01*
X158218895Y-106078839D02*
X158330946Y-106190889D01*
X158330946Y-106190889D02*
X158442996Y-106246915D01*
X99119503Y-110013009D02*
X99558802Y-110320518D01*
X99119503Y-110540168D02*
X100042031Y-110540168D01*
X100042031Y-110540168D02*
X100042031Y-110188729D01*
X100042031Y-110188729D02*
X99998101Y-110100869D01*
X99998101Y-110100869D02*
X99954171Y-110056939D01*
X99954171Y-110056939D02*
X99866311Y-110013009D01*
X99866311Y-110013009D02*
X99734521Y-110013009D01*
X99734521Y-110013009D02*
X99646661Y-110056939D01*
X99646661Y-110056939D02*
X99602732Y-110100869D01*
X99602732Y-110100869D02*
X99558802Y-110188729D01*
X99558802Y-110188729D02*
X99558802Y-110540168D01*
X99119503Y-109134411D02*
X99119503Y-109661570D01*
X99119503Y-109397990D02*
X100042031Y-109397990D01*
X100042031Y-109397990D02*
X99910241Y-109485850D01*
X99910241Y-109485850D02*
X99822381Y-109573710D01*
X99822381Y-109573710D02*
X99778451Y-109661570D01*
X100042031Y-108826902D02*
X100042031Y-108211883D01*
X100042031Y-108211883D02*
X99119503Y-108607252D01*
X178101407Y-107900697D02*
X178661659Y-108292873D01*
X178101407Y-108572999D02*
X179277935Y-108572999D01*
X179277935Y-108572999D02*
X179277935Y-108124798D01*
X179277935Y-108124798D02*
X179221910Y-108012747D01*
X179221910Y-108012747D02*
X179165885Y-107956722D01*
X179165885Y-107956722D02*
X179053835Y-107900697D01*
X179053835Y-107900697D02*
X178885759Y-107900697D01*
X178885759Y-107900697D02*
X178773709Y-107956722D01*
X178773709Y-107956722D02*
X178717684Y-108012747D01*
X178717684Y-108012747D02*
X178661659Y-108124798D01*
X178661659Y-108124798D02*
X178661659Y-108572999D01*
X179277935Y-106892245D02*
X179277935Y-107116345D01*
X179277935Y-107116345D02*
X179221910Y-107228395D01*
X179221910Y-107228395D02*
X179165885Y-107284421D01*
X179165885Y-107284421D02*
X178997810Y-107396471D01*
X178997810Y-107396471D02*
X178773709Y-107452496D01*
X178773709Y-107452496D02*
X178325508Y-107452496D01*
X178325508Y-107452496D02*
X178213458Y-107396471D01*
X178213458Y-107396471D02*
X178157433Y-107340446D01*
X178157433Y-107340446D02*
X178101407Y-107228395D01*
X178101407Y-107228395D02*
X178101407Y-107004295D01*
X178101407Y-107004295D02*
X178157433Y-106892245D01*
X178157433Y-106892245D02*
X178213458Y-106836219D01*
X178213458Y-106836219D02*
X178325508Y-106780194D01*
X178325508Y-106780194D02*
X178605634Y-106780194D01*
X178605634Y-106780194D02*
X178717684Y-106836219D01*
X178717684Y-106836219D02*
X178773709Y-106892245D01*
X178773709Y-106892245D02*
X178829734Y-107004295D01*
X178829734Y-107004295D02*
X178829734Y-107228395D01*
X178829734Y-107228395D02*
X178773709Y-107340446D01*
X178773709Y-107340446D02*
X178717684Y-107396471D01*
X178717684Y-107396471D02*
X178605634Y-107452496D01*
X111184503Y-98710009D02*
X111623802Y-99017518D01*
X111184503Y-99237168D02*
X112107031Y-99237168D01*
X112107031Y-99237168D02*
X112107031Y-98885729D01*
X112107031Y-98885729D02*
X112063101Y-98797869D01*
X112063101Y-98797869D02*
X112019171Y-98753939D01*
X112019171Y-98753939D02*
X111931311Y-98710009D01*
X111931311Y-98710009D02*
X111799521Y-98710009D01*
X111799521Y-98710009D02*
X111711661Y-98753939D01*
X111711661Y-98753939D02*
X111667732Y-98797869D01*
X111667732Y-98797869D02*
X111623802Y-98885729D01*
X111623802Y-98885729D02*
X111623802Y-99237168D01*
X112019171Y-98358570D02*
X112063101Y-98314640D01*
X112063101Y-98314640D02*
X112107031Y-98226780D01*
X112107031Y-98226780D02*
X112107031Y-98007131D01*
X112107031Y-98007131D02*
X112063101Y-97919271D01*
X112063101Y-97919271D02*
X112019171Y-97875341D01*
X112019171Y-97875341D02*
X111931311Y-97831411D01*
X111931311Y-97831411D02*
X111843451Y-97831411D01*
X111843451Y-97831411D02*
X111711661Y-97875341D01*
X111711661Y-97875341D02*
X111184503Y-98402500D01*
X111184503Y-98402500D02*
X111184503Y-97831411D01*
X112107031Y-97260322D02*
X112107031Y-97172463D01*
X112107031Y-97172463D02*
X112063101Y-97084603D01*
X112063101Y-97084603D02*
X112019171Y-97040673D01*
X112019171Y-97040673D02*
X111931311Y-96996743D01*
X111931311Y-96996743D02*
X111755591Y-96952813D01*
X111755591Y-96952813D02*
X111535942Y-96952813D01*
X111535942Y-96952813D02*
X111360222Y-96996743D01*
X111360222Y-96996743D02*
X111272362Y-97040673D01*
X111272362Y-97040673D02*
X111228433Y-97084603D01*
X111228433Y-97084603D02*
X111184503Y-97172463D01*
X111184503Y-97172463D02*
X111184503Y-97260322D01*
X111184503Y-97260322D02*
X111228433Y-97348182D01*
X111228433Y-97348182D02*
X111272362Y-97392112D01*
X111272362Y-97392112D02*
X111360222Y-97436042D01*
X111360222Y-97436042D02*
X111535942Y-97479972D01*
X111535942Y-97479972D02*
X111755591Y-97479972D01*
X111755591Y-97479972D02*
X111931311Y-97436042D01*
X111931311Y-97436042D02*
X112019171Y-97392112D01*
X112019171Y-97392112D02*
X112063101Y-97348182D01*
X112063101Y-97348182D02*
X112107031Y-97260322D01*
X193760797Y-113615839D02*
X194068306Y-113176540D01*
X194287956Y-113615839D02*
X194287956Y-112693311D01*
X194287956Y-112693311D02*
X193936517Y-112693311D01*
X193936517Y-112693311D02*
X193848657Y-112737241D01*
X193848657Y-112737241D02*
X193804727Y-112781171D01*
X193804727Y-112781171D02*
X193760797Y-112869031D01*
X193760797Y-112869031D02*
X193760797Y-113000821D01*
X193760797Y-113000821D02*
X193804727Y-113088681D01*
X193804727Y-113088681D02*
X193848657Y-113132610D01*
X193848657Y-113132610D02*
X193936517Y-113176540D01*
X193936517Y-113176540D02*
X194287956Y-113176540D01*
X192882199Y-113615839D02*
X193409358Y-113615839D01*
X193145778Y-113615839D02*
X193145778Y-112693311D01*
X193145778Y-112693311D02*
X193233638Y-112825101D01*
X193233638Y-112825101D02*
X193321498Y-112912961D01*
X193321498Y-112912961D02*
X193409358Y-112956891D01*
X192091461Y-113000821D02*
X192091461Y-113615839D01*
X192311110Y-112649382D02*
X192530760Y-113308330D01*
X192530760Y-113308330D02*
X191959671Y-113308330D01*
X100833860Y-98193297D02*
X101273159Y-98500806D01*
X100833860Y-98720456D02*
X101756388Y-98720456D01*
X101756388Y-98720456D02*
X101756388Y-98369017D01*
X101756388Y-98369017D02*
X101712458Y-98281157D01*
X101712458Y-98281157D02*
X101668528Y-98237227D01*
X101668528Y-98237227D02*
X101580668Y-98193297D01*
X101580668Y-98193297D02*
X101448878Y-98193297D01*
X101448878Y-98193297D02*
X101361018Y-98237227D01*
X101361018Y-98237227D02*
X101317089Y-98281157D01*
X101317089Y-98281157D02*
X101273159Y-98369017D01*
X101273159Y-98369017D02*
X101273159Y-98720456D01*
X100833860Y-97314699D02*
X100833860Y-97841858D01*
X100833860Y-97578278D02*
X101756388Y-97578278D01*
X101756388Y-97578278D02*
X101624598Y-97666138D01*
X101624598Y-97666138D02*
X101536738Y-97753998D01*
X101536738Y-97753998D02*
X101492808Y-97841858D01*
X101361018Y-96787540D02*
X101404948Y-96875400D01*
X101404948Y-96875400D02*
X101448878Y-96919330D01*
X101448878Y-96919330D02*
X101536738Y-96963260D01*
X101536738Y-96963260D02*
X101580668Y-96963260D01*
X101580668Y-96963260D02*
X101668528Y-96919330D01*
X101668528Y-96919330D02*
X101712458Y-96875400D01*
X101712458Y-96875400D02*
X101756388Y-96787540D01*
X101756388Y-96787540D02*
X101756388Y-96611821D01*
X101756388Y-96611821D02*
X101712458Y-96523961D01*
X101712458Y-96523961D02*
X101668528Y-96480031D01*
X101668528Y-96480031D02*
X101580668Y-96436101D01*
X101580668Y-96436101D02*
X101536738Y-96436101D01*
X101536738Y-96436101D02*
X101448878Y-96480031D01*
X101448878Y-96480031D02*
X101404948Y-96523961D01*
X101404948Y-96523961D02*
X101361018Y-96611821D01*
X101361018Y-96611821D02*
X101361018Y-96787540D01*
X101361018Y-96787540D02*
X101317089Y-96875400D01*
X101317089Y-96875400D02*
X101273159Y-96919330D01*
X101273159Y-96919330D02*
X101185299Y-96963260D01*
X101185299Y-96963260D02*
X101009579Y-96963260D01*
X101009579Y-96963260D02*
X100921719Y-96919330D01*
X100921719Y-96919330D02*
X100877790Y-96875400D01*
X100877790Y-96875400D02*
X100833860Y-96787540D01*
X100833860Y-96787540D02*
X100833860Y-96611821D01*
X100833860Y-96611821D02*
X100877790Y-96523961D01*
X100877790Y-96523961D02*
X100921719Y-96480031D01*
X100921719Y-96480031D02*
X101009579Y-96436101D01*
X101009579Y-96436101D02*
X101185299Y-96436101D01*
X101185299Y-96436101D02*
X101273159Y-96480031D01*
X101273159Y-96480031D02*
X101317089Y-96523961D01*
X101317089Y-96523961D02*
X101361018Y-96611821D01*
X111247860Y-103019297D02*
X111687159Y-103326806D01*
X111247860Y-103546456D02*
X112170388Y-103546456D01*
X112170388Y-103546456D02*
X112170388Y-103195017D01*
X112170388Y-103195017D02*
X112126458Y-103107157D01*
X112126458Y-103107157D02*
X112082528Y-103063227D01*
X112082528Y-103063227D02*
X111994668Y-103019297D01*
X111994668Y-103019297D02*
X111862878Y-103019297D01*
X111862878Y-103019297D02*
X111775018Y-103063227D01*
X111775018Y-103063227D02*
X111731089Y-103107157D01*
X111731089Y-103107157D02*
X111687159Y-103195017D01*
X111687159Y-103195017D02*
X111687159Y-103546456D01*
X112082528Y-102667858D02*
X112126458Y-102623928D01*
X112126458Y-102623928D02*
X112170388Y-102536068D01*
X112170388Y-102536068D02*
X112170388Y-102316419D01*
X112170388Y-102316419D02*
X112126458Y-102228559D01*
X112126458Y-102228559D02*
X112082528Y-102184629D01*
X112082528Y-102184629D02*
X111994668Y-102140699D01*
X111994668Y-102140699D02*
X111906808Y-102140699D01*
X111906808Y-102140699D02*
X111775018Y-102184629D01*
X111775018Y-102184629D02*
X111247860Y-102711788D01*
X111247860Y-102711788D02*
X111247860Y-102140699D01*
X111247860Y-101262101D02*
X111247860Y-101789260D01*
X111247860Y-101525680D02*
X112170388Y-101525680D01*
X112170388Y-101525680D02*
X112038598Y-101613540D01*
X112038598Y-101613540D02*
X111950738Y-101701400D01*
X111950738Y-101701400D02*
X111906808Y-101789260D01*
X191901569Y-103646196D02*
X191901569Y-102723668D01*
X190935111Y-103558337D02*
X190979041Y-103602267D01*
X190979041Y-103602267D02*
X191110831Y-103646196D01*
X191110831Y-103646196D02*
X191198691Y-103646196D01*
X191198691Y-103646196D02*
X191330480Y-103602267D01*
X191330480Y-103602267D02*
X191418340Y-103514407D01*
X191418340Y-103514407D02*
X191462270Y-103426547D01*
X191462270Y-103426547D02*
X191506200Y-103250827D01*
X191506200Y-103250827D02*
X191506200Y-103119038D01*
X191506200Y-103119038D02*
X191462270Y-102943318D01*
X191462270Y-102943318D02*
X191418340Y-102855458D01*
X191418340Y-102855458D02*
X191330480Y-102767598D01*
X191330480Y-102767598D02*
X191198691Y-102723668D01*
X191198691Y-102723668D02*
X191110831Y-102723668D01*
X191110831Y-102723668D02*
X190979041Y-102767598D01*
X190979041Y-102767598D02*
X190935111Y-102811528D01*
X190056513Y-103646196D02*
X190583672Y-103646196D01*
X190320092Y-103646196D02*
X190320092Y-102723668D01*
X190320092Y-102723668D02*
X190407952Y-102855458D01*
X190407952Y-102855458D02*
X190495812Y-102943318D01*
X190495812Y-102943318D02*
X190583672Y-102987248D01*
D18*
X198413494Y-102762131D02*
X198413494Y-102353408D01*
X198413494Y-102557769D02*
X197698230Y-102557769D01*
X197698230Y-102557769D02*
X197800410Y-102489649D01*
X197800410Y-102489649D02*
X197868531Y-102421529D01*
X197868531Y-102421529D02*
X197902591Y-102353408D01*
X197698230Y-106792748D02*
X197698230Y-107235531D01*
X197698230Y-107235531D02*
X197970711Y-106997109D01*
X197970711Y-106997109D02*
X197970711Y-107099290D01*
X197970711Y-107099290D02*
X198004771Y-107167410D01*
X198004771Y-107167410D02*
X198038832Y-107201470D01*
X198038832Y-107201470D02*
X198106952Y-107235531D01*
X198106952Y-107235531D02*
X198277253Y-107235531D01*
X198277253Y-107235531D02*
X198345373Y-107201470D01*
X198345373Y-107201470D02*
X198379434Y-107167410D01*
X198379434Y-107167410D02*
X198413494Y-107099290D01*
X198413494Y-107099290D02*
X198413494Y-106894929D01*
X198413494Y-106894929D02*
X198379434Y-106826808D01*
X198379434Y-106826808D02*
X198345373Y-106792748D01*
X191078651Y-108051610D02*
X191555494Y-108051610D01*
X190806170Y-107881309D02*
X191317072Y-107711008D01*
X191317072Y-107711008D02*
X191317072Y-108153791D01*
X197775750Y-104515408D02*
X197741690Y-104549468D01*
X197741690Y-104549468D02*
X197707630Y-104617589D01*
X197707630Y-104617589D02*
X197707630Y-104787890D01*
X197707630Y-104787890D02*
X197741690Y-104856010D01*
X197741690Y-104856010D02*
X197775750Y-104890070D01*
X197775750Y-104890070D02*
X197843870Y-104924131D01*
X197843870Y-104924131D02*
X197911991Y-104924131D01*
X197911991Y-104924131D02*
X198014171Y-104890070D01*
X198014171Y-104890070D02*
X198422894Y-104481348D01*
X198422894Y-104481348D02*
X198422894Y-104924131D01*
D10*
X100770503Y-103536009D02*
X101209802Y-103843518D01*
X100770503Y-104063168D02*
X101693031Y-104063168D01*
X101693031Y-104063168D02*
X101693031Y-103711729D01*
X101693031Y-103711729D02*
X101649101Y-103623869D01*
X101649101Y-103623869D02*
X101605171Y-103579939D01*
X101605171Y-103579939D02*
X101517311Y-103536009D01*
X101517311Y-103536009D02*
X101385521Y-103536009D01*
X101385521Y-103536009D02*
X101297661Y-103579939D01*
X101297661Y-103579939D02*
X101253732Y-103623869D01*
X101253732Y-103623869D02*
X101209802Y-103711729D01*
X101209802Y-103711729D02*
X101209802Y-104063168D01*
X100770503Y-102657411D02*
X100770503Y-103184570D01*
X100770503Y-102920990D02*
X101693031Y-102920990D01*
X101693031Y-102920990D02*
X101561241Y-103008850D01*
X101561241Y-103008850D02*
X101473381Y-103096710D01*
X101473381Y-103096710D02*
X101429451Y-103184570D01*
X100770503Y-102218112D02*
X100770503Y-102042392D01*
X100770503Y-102042392D02*
X100814433Y-101954533D01*
X100814433Y-101954533D02*
X100858362Y-101910603D01*
X100858362Y-101910603D02*
X100990152Y-101822743D01*
X100990152Y-101822743D02*
X101165872Y-101778813D01*
X101165872Y-101778813D02*
X101517311Y-101778813D01*
X101517311Y-101778813D02*
X101605171Y-101822743D01*
X101605171Y-101822743D02*
X101649101Y-101866673D01*
X101649101Y-101866673D02*
X101693031Y-101954533D01*
X101693031Y-101954533D02*
X101693031Y-102130252D01*
X101693031Y-102130252D02*
X101649101Y-102218112D01*
X101649101Y-102218112D02*
X101605171Y-102262042D01*
X101605171Y-102262042D02*
X101517311Y-102305972D01*
X101517311Y-102305972D02*
X101297661Y-102305972D01*
X101297661Y-102305972D02*
X101209802Y-102262042D01*
X101209802Y-102262042D02*
X101165872Y-102218112D01*
X101165872Y-102218112D02*
X101121942Y-102130252D01*
X101121942Y-102130252D02*
X101121942Y-101954533D01*
X101121942Y-101954533D02*
X101165872Y-101866673D01*
X101165872Y-101866673D02*
X101209802Y-101822743D01*
X101209802Y-101822743D02*
X101297661Y-101778813D01*
D19*
%TO.C,D9*%
X147299700Y-96690200D02*
X148112500Y-96690200D01*
X147299700Y-97249000D02*
X147299700Y-96690200D01*
X147299700Y-99535000D02*
X147299700Y-98976200D01*
X148112500Y-99535000D02*
X147299700Y-99535000D01*
D20*
%TO.C,SV1*%
X125735100Y-110939600D02*
X126370100Y-111574600D01*
X126370100Y-111574600D02*
X126370100Y-110304600D01*
X126370100Y-111574600D02*
X127005100Y-110939600D01*
D21*
X126370100Y-112209600D02*
X132720100Y-112209600D01*
D19*
X127005100Y-100144600D02*
X127640100Y-99509600D01*
X127640100Y-99509600D02*
X131450100Y-99509600D01*
X131450100Y-99509600D02*
X132085100Y-100144600D01*
D11*
%TO.C,C9*%
X119190100Y-103081600D02*
X120290100Y-101981600D01*
X120290100Y-101981600D02*
X123390100Y-101981600D01*
X120290100Y-106181600D02*
X119190100Y-105081600D01*
X123390100Y-101981600D02*
X123390100Y-103231600D01*
X123390100Y-104931600D02*
X123390100Y-106181600D01*
X123390100Y-106181600D02*
X120290100Y-106181600D01*
X119540100Y-103231600D02*
G75*
G02*
X123040100Y-103231600I1750000J-849999D01*
G01*
X123040100Y-104931600D02*
G75*
G02*
X119540100Y-104931600I-1750000J849999D01*
G01*
D22*
%TO.C,U1*%
X150246100Y-96588600D02*
X185806100Y-96588600D01*
X150246100Y-114368600D02*
X150246100Y-96588600D01*
X184536100Y-104208600D02*
X184536100Y-106748600D01*
X184536100Y-106748600D02*
X185806100Y-106748600D01*
X185806100Y-96588600D02*
X185806100Y-104208600D01*
X185806100Y-104208600D02*
X184536100Y-104208600D01*
X185806100Y-106748600D02*
X185806100Y-114368600D01*
X185806100Y-114368600D02*
X150246100Y-114368600D01*
D19*
%TO.C,D6*%
X99420700Y-99103200D02*
X100233500Y-99103200D01*
X100233500Y-99103200D02*
X100233500Y-99662000D01*
X100233500Y-101389200D02*
X100233500Y-101948000D01*
X100233500Y-101948000D02*
X99420700Y-101948000D01*
%TO.C,F2*%
X120443100Y-106837600D02*
X121883100Y-106837600D01*
X120443100Y-108437600D02*
X121883100Y-108437600D01*
%TO.C,F1*%
X106727100Y-102265600D02*
X108167100Y-102265600D01*
X106727100Y-103865600D02*
X108167100Y-103865600D01*
D23*
%TO.C,D2*%
X116083100Y-108272600D02*
X116083100Y-105986600D01*
X116337100Y-107510600D02*
X116972100Y-106748600D01*
X116464100Y-107510600D02*
X116337100Y-107510600D01*
X116464100Y-107510600D02*
X116972100Y-106748600D01*
X116591100Y-107510600D02*
X116464100Y-107510600D01*
X116591100Y-107510600D02*
X116972100Y-106875600D01*
X116718100Y-107383600D02*
X116972100Y-107002600D01*
X116845100Y-107383600D02*
X116718100Y-107383600D01*
X116845100Y-107383600D02*
X116972100Y-107129600D01*
X116972100Y-106748600D02*
X117607100Y-107510600D01*
X116972100Y-106875600D02*
X117480100Y-107383600D01*
X116972100Y-107002600D02*
X117353100Y-107383600D01*
X116972100Y-107129600D02*
X117099100Y-107256600D01*
X116972100Y-107256600D02*
X117099100Y-107256600D01*
X117099100Y-107256600D02*
X116845100Y-107383600D01*
X117099100Y-107256600D02*
X117226100Y-107383600D01*
X117226100Y-107383600D02*
X116845100Y-107383600D01*
X117353100Y-107383600D02*
X116591100Y-107510600D01*
X117480100Y-107383600D02*
X116464100Y-107510600D01*
X117607100Y-107510600D02*
X116591100Y-107510600D01*
X117861100Y-105986600D02*
X117861100Y-108272600D01*
D19*
%TO.C,D5*%
X152252700Y-106469200D02*
X153065500Y-106469200D01*
X153065500Y-106469200D02*
X153065500Y-107028000D01*
X153065500Y-108755200D02*
X153065500Y-109314000D01*
X153065500Y-109314000D02*
X152252700Y-109314000D01*
D11*
%TO.C,C10*%
X104458100Y-105029600D02*
X107558100Y-105029600D01*
X104458100Y-106279600D02*
X104458100Y-105029600D01*
X104458100Y-109229600D02*
X104458100Y-107979600D01*
X107558100Y-105029600D02*
X108658100Y-106129600D01*
X107558100Y-109229600D02*
X104458100Y-109229600D01*
X108658100Y-108129600D02*
X107558100Y-109229600D01*
X104808100Y-106279600D02*
G75*
G02*
X108308100Y-106279600I1750000J-849999D01*
G01*
X108308100Y-107979600D02*
G75*
G02*
X104808100Y-107979600I-1750000J849999D01*
G01*
D23*
%TO.C,D1*%
X116083100Y-113225600D02*
X116083100Y-110939600D01*
X116337100Y-112463600D02*
X116972100Y-111701600D01*
X116464100Y-112463600D02*
X116337100Y-112463600D01*
X116464100Y-112463600D02*
X116972100Y-111701600D01*
X116591100Y-112463600D02*
X116464100Y-112463600D01*
X116591100Y-112463600D02*
X116972100Y-111828600D01*
X116718100Y-112336600D02*
X116972100Y-111955600D01*
X116845100Y-112336600D02*
X116718100Y-112336600D01*
X116845100Y-112336600D02*
X116972100Y-112082600D01*
X116972100Y-111701600D02*
X117607100Y-112463600D01*
X116972100Y-111828600D02*
X117480100Y-112336600D01*
X116972100Y-111955600D02*
X117353100Y-112336600D01*
X116972100Y-112082600D02*
X117099100Y-112209600D01*
X116972100Y-112209600D02*
X117099100Y-112209600D01*
X117099100Y-112209600D02*
X116845100Y-112336600D01*
X117099100Y-112209600D02*
X117226100Y-112336600D01*
X117226100Y-112336600D02*
X116845100Y-112336600D01*
X117353100Y-112336600D02*
X116591100Y-112463600D01*
X117480100Y-112336600D02*
X116464100Y-112463600D01*
X117607100Y-112463600D02*
X116591100Y-112463600D01*
X117861100Y-110939600D02*
X117861100Y-113225600D01*
D22*
%TO.C,IC1*%
X192410100Y-102329000D02*
X195966100Y-102329000D01*
X192410100Y-108882200D02*
X192410100Y-102329000D01*
X195966100Y-102329000D02*
X195966100Y-108882200D01*
X195966100Y-108882200D02*
X192410100Y-108882200D01*
%TD*%
M02*
