M48
; DRILL file {KiCad 8.0.5} date 2024-11-18T15:17:02-0500
; FORMAT={-:-/ absolute / inch / decimal}
; #@! TF.CreationDate,2024-11-18T15:17:02-05:00
; #@! TF.GenerationSoftware,Kicad,Pcbnew,8.0.5
; #@! TF.FileFunction,Plated,1,2,PTH
FMAT,2
INCH
; #@! TA.AperFunction,Plated,PTH,ViaDrill
T1C0.0120
; #@! TA.AperFunction,Plated,PTH,ComponentDrill
T2C0.0276
; #@! TA.AperFunction,Plated,PTH,ComponentDrill
T3C0.0320
; #@! TA.AperFunction,Plated,PTH,ComponentDrill
T4C0.0354
; #@! TA.AperFunction,Plated,PTH,ComponentDrill
T5C0.0380
; #@! TA.AperFunction,Plated,PTH,ComponentDrill
T6C0.0394
; #@! TA.AperFunction,Plated,PTH,ComponentDrill
T7C0.0400
; #@! TA.AperFunction,Plated,PTH,ComponentDrill
T8C0.0433
; #@! TA.AperFunction,Plated,PTH,ComponentDrill
T9C0.0827
%
G90
G05
T1
X4.0972Y-4.1672
X4.2827Y-4.1182
X4.2827Y-4.1707
X4.6187Y-4.2267
X4.7202Y-4.0307
X5.3572Y-3.9432
X5.3992Y-4.2792
X5.5287Y-3.9432
X5.8332Y-3.8627
X5.9102Y-4.2372
X5.9347Y-4.1707
X6.2532Y-4.3247
X6.2532Y-4.3807
X6.5017Y-4.0517
X6.5752Y-4.4997
X6.6137Y-4.0237
X6.6172Y-4.4577
X6.6837Y-4.2337
X6.8202Y-4.2302
X6.8482Y-4.1497
X6.9007Y-4.2302
X6.9042Y-3.9502
X7.0652Y-4.2722
X7.1142Y-4.4472
X7.2402Y-4.2022
X7.3452Y-4.4752
X7.7652Y-4.1147
T2
X5.3386Y-3.8777
X5.3819Y-3.8344
X5.4252Y-3.8777
X5.4685Y-3.8344
X5.5119Y-3.8777
X5.5552Y-3.8344
X5.5985Y-3.8777
X5.6418Y-3.8344
T3
X5.8152Y-4.3527
X5.8152Y-4.4527
X7.8802Y-3.8377
X7.8802Y-3.9377
X7.8802Y-4.0127
X7.8802Y-4.1127
X7.8802Y-4.1877
X7.8802Y-4.2877
X7.8802Y-4.3627
X7.8802Y-4.4627
T4
X5.3209Y-4.0025
X5.6595Y-4.0025
T5
X5.9652Y-3.8527
X5.9652Y-3.9527
X5.9652Y-4.4527
X6.0652Y-3.8527
X6.0652Y-4.4527
X6.1652Y-3.8527
X6.1652Y-4.4527
X6.2652Y-3.8527
X6.2652Y-4.4527
X6.3652Y-3.8527
X6.3652Y-4.4527
X6.4652Y-3.8527
X6.4652Y-4.4527
X6.5652Y-3.8527
X6.5652Y-4.4527
X6.6652Y-3.8527
X6.6652Y-4.4527
X6.7652Y-3.8527
X6.7652Y-4.4527
X6.8652Y-3.8527
X6.8652Y-4.4527
X6.9652Y-3.8527
X6.9652Y-4.4527
X7.0652Y-3.8527
X7.0652Y-4.4527
X7.1652Y-3.8527
X7.1652Y-4.4527
X7.2652Y-3.8527
X7.2652Y-4.4527
T6
X5.3918Y-4.1793
X5.3918Y-4.3761
X5.5886Y-4.1793
X5.5886Y-4.3761
T7
X5.0502Y-3.9677
X5.0502Y-4.0677
X5.0502Y-4.1677
X5.0502Y-4.2677
X5.0502Y-4.3677
X5.1502Y-3.9677
X5.1502Y-4.0677
X5.1502Y-4.1677
X5.1502Y-4.2677
X5.1502Y-4.3677
T8
X3.7934Y-3.9527
X3.7934Y-4.3527
X4.128Y-3.9527
X4.128Y-4.3527
X4.2461Y-3.9527
X4.2461Y-4.3527
X4.3684Y-3.9527
X4.3684Y-4.3527
X4.703Y-3.9527
X4.703Y-4.3527
X4.8211Y-3.9527
X4.8211Y-4.3527
X6.1146Y-4.0543
X6.1146Y-4.1527
X6.1146Y-4.2511
X7.2146Y-4.0543
X7.2146Y-4.1527
X7.2146Y-4.2511
T9
X6.3902Y-3.9755
X6.3902Y-4.3299
X7.4902Y-3.9755
X7.4902Y-4.3299
M30
