%TF.GenerationSoftware,KiCad,Pcbnew,8.0.5*%
%TF.CreationDate,2024-11-18T15:17:10-05:00*%
%TF.ProjectId,RadioMusic_F rev2-2,52616469-6f4d-4757-9369-635f46207265,rev?*%
%TF.SameCoordinates,Original*%
%TF.FileFunction,Copper,L2,Bot*%
%TF.FilePolarity,Positive*%
%FSLAX46Y46*%
G04 Gerber Fmt 4.6, Leading zero omitted, Abs format (unit mm)*
G04 Created by KiCad (PCBNEW 8.0.5) date 2024-11-18 15:17:10*
%MOMM*%
%LPD*%
G01*
G04 APERTURE LIST*
G04 Aperture macros list*
%AMRotRect*
0 Rectangle, with rotation*
0 The origin of the aperture is its center*
0 $1 length*
0 $2 width*
0 $3 Rotation angle, in degrees counterclockwise*
0 Add horizontal line*
21,1,$1,$2,0,0,$3*%
%AMOutline5P*
0 Free polygon, 5 corners , with rotation*
0 The origin of the aperture is its center*
0 number of corners: always 5*
0 $1 to $10 corner X, Y*
0 $11 Rotation angle, in degrees counterclockwise*
0 create outline with 5 corners*
4,1,5,$1,$2,$3,$4,$5,$6,$7,$8,$9,$10,$1,$2,$11*%
%AMOutline6P*
0 Free polygon, 6 corners , with rotation*
0 The origin of the aperture is its center*
0 number of corners: always 6*
0 $1 to $12 corner X, Y*
0 $13 Rotation angle, in degrees counterclockwise*
0 create outline with 6 corners*
4,1,6,$1,$2,$3,$4,$5,$6,$7,$8,$9,$10,$11,$12,$1,$2,$13*%
%AMOutline7P*
0 Free polygon, 7 corners , with rotation*
0 The origin of the aperture is its center*
0 number of corners: always 7*
0 $1 to $14 corner X, Y*
0 $15 Rotation angle, in degrees counterclockwise*
0 create outline with 7 corners*
4,1,7,$1,$2,$3,$4,$5,$6,$7,$8,$9,$10,$11,$12,$13,$14,$1,$2,$15*%
%AMOutline8P*
0 Free polygon, 8 corners , with rotation*
0 The origin of the aperture is its center*
0 number of corners: always 8*
0 $1 to $16 corner X, Y*
0 $17 Rotation angle, in degrees counterclockwise*
0 create outline with 8 corners*
4,1,8,$1,$2,$3,$4,$5,$6,$7,$8,$9,$10,$11,$12,$13,$14,$15,$16,$1,$2,$17*%
G04 Aperture macros list end*
%TA.AperFunction,ComponentPad*%
%ADD10C,1.650000*%
%TD*%
%TA.AperFunction,ComponentPad*%
%ADD11R,1.219200X1.219200*%
%TD*%
%TA.AperFunction,ComponentPad*%
%ADD12Outline8P,-0.609600X0.252505X-0.252505X0.609600X0.252505X0.609600X0.609600X0.252505X0.609600X-0.252505X0.252505X-0.609600X-0.252505X-0.609600X-0.609600X-0.252505X90.000000*%
%TD*%
%TA.AperFunction,ComponentPad*%
%ADD13Outline8P,-0.609600X0.252505X-0.252505X0.609600X0.252505X0.609600X0.609600X0.252505X0.609600X-0.252505X0.252505X-0.609600X-0.252505X-0.609600X-0.609600X-0.252505X270.000000*%
%TD*%
%TA.AperFunction,ComponentPad*%
%ADD14R,1.500000X1.500000*%
%TD*%
%TA.AperFunction,ComponentPad*%
%ADD15R,1.350000X1.350000*%
%TD*%
%TA.AperFunction,ComponentPad*%
%ADD16C,1.050000*%
%TD*%
%TA.AperFunction,ComponentPad*%
%ADD17R,1.676400X1.676400*%
%TD*%
%TA.AperFunction,ComponentPad*%
%ADD18Outline8P,-0.838200X0.347194X-0.347194X0.838200X0.347194X0.838200X0.838200X0.347194X0.838200X-0.347194X0.347194X-0.838200X-0.347194X-0.838200X-0.838200X-0.347194X180.000000*%
%TD*%
%TA.AperFunction,ComponentPad*%
%ADD19R,2.800000X2.800000*%
%TD*%
%TA.AperFunction,SMDPad,CuDef*%
%ADD20R,1.300000X1.500000*%
%TD*%
%TA.AperFunction,SMDPad,CuDef*%
%ADD21R,1.400000X1.000000*%
%TD*%
%TA.AperFunction,ComponentPad*%
%ADD22Outline8P,-0.762000X0.315631X-0.315631X0.762000X0.315631X0.762000X0.762000X0.315631X0.762000X-0.315631X0.315631X-0.762000X-0.315631X-0.762000X-0.762000X-0.315631X90.000000*%
%TD*%
%TA.AperFunction,SMDPad,CuDef*%
%ADD23R,2.200000X1.400000*%
%TD*%
%TA.AperFunction,ComponentPad*%
%ADD24C,1.447800*%
%TD*%
%TA.AperFunction,SMDPad,CuDef*%
%ADD25RotRect,1.300000X1.500000X180.600000*%
%TD*%
%TA.AperFunction,SMDPad,CuDef*%
%ADD26R,1.000000X1.800000*%
%TD*%
%TA.AperFunction,SMDPad,CuDef*%
%ADD27R,1.500000X1.300000*%
%TD*%
%TA.AperFunction,SMDPad,CuDef*%
%ADD28R,1.397000X1.397000*%
%TD*%
%TA.AperFunction,SMDPad,CuDef*%
%ADD29R,0.600000X2.200000*%
%TD*%
%TA.AperFunction,SMDPad,CuDef*%
%ADD30R,2.235200X1.219200*%
%TD*%
%TA.AperFunction,SMDPad,CuDef*%
%ADD31R,2.200000X3.600000*%
%TD*%
%TA.AperFunction,ViaPad*%
%ADD32C,0.609600*%
%TD*%
%TA.AperFunction,Conductor*%
%ADD33C,0.203200*%
%TD*%
%TA.AperFunction,Conductor*%
%ADD34C,0.304800*%
%TD*%
G04 APERTURE END LIST*
D10*
%TO.P,CHANNEL-CV0,P$1*%
%TO.N,N$9*%
X110956100Y-110558600D03*
%TO.P,CHANNEL-CV0,P$2*%
%TO.N,N/C*%
X119456100Y-110558600D03*
%TO.P,CHANNEL-CV0,P$3*%
%TO.N,GND*%
X122456100Y-110558600D03*
%TD*%
%TO.P,RESET-CV0,P$1*%
%TO.N,N$14*%
X96351100Y-100398600D03*
%TO.P,RESET-CV0,P$2*%
%TO.N,N/C*%
X104851100Y-100398600D03*
%TO.P,RESET-CV0,P$3*%
%TO.N,GND*%
X107851100Y-100398600D03*
%TD*%
D11*
%TO.P,LED4,A*%
%TO.N,N$12*%
X200157100Y-113352600D03*
D12*
%TO.P,LED4,K*%
%TO.N,GND*%
X200157100Y-110812600D03*
%TD*%
D10*
%TO.P,TIME-CV0,P$1*%
%TO.N,TEMP*%
X110956100Y-100398600D03*
%TO.P,TIME-CV0,P$2*%
%TO.N,N/C*%
X119456100Y-100398600D03*
%TO.P,TIME-CV0,P$3*%
%TO.N,GND*%
X122456100Y-100398600D03*
%TD*%
D11*
%TO.P,LED2,A*%
%TO.N,N$11*%
X200157100Y-104462600D03*
D12*
%TO.P,LED2,K*%
%TO.N,GND*%
X200157100Y-101922600D03*
%TD*%
D11*
%TO.P,LED5,A*%
%TO.N,N$16*%
X147706100Y-110558600D03*
D13*
%TO.P,LED5,K*%
%TO.N,GND*%
X147706100Y-113098600D03*
%TD*%
D14*
%TO.P,RESET0,P$1*%
%TO.N,RESET_SW*%
X141951100Y-111153600D03*
%TO.P,RESET0,P$2*%
X136951100Y-111153600D03*
%TO.P,RESET0,P$3*%
%TO.N,+3.3V*%
X136951100Y-106153600D03*
%TO.P,RESET0,P$4*%
X141951100Y-106153600D03*
%TD*%
D11*
%TO.P,LED3,A*%
%TO.N,N$13*%
X200157100Y-106367600D03*
D13*
%TO.P,LED3,K*%
%TO.N,GND*%
X200157100Y-108907600D03*
%TD*%
D10*
%TO.P,OUTPUT0,P$1*%
%TO.N,N$3*%
X96351100Y-110558600D03*
%TO.P,OUTPUT0,P$2*%
%TO.N,N/C*%
X104851100Y-110558600D03*
%TO.P,OUTPUT0,P$3*%
%TO.N,GND*%
X107851100Y-110558600D03*
%TD*%
D15*
%TO.P,X1,GND1*%
%TO.N,GND*%
X135151100Y-101663600D03*
%TO.P,X1,GND2*%
X143751100Y-101663600D03*
D16*
%TO.P,X1,P$1*%
%TO.N,N/C*%
X135601100Y-98493600D03*
%TO.P,X1,P$2*%
%TO.N,SS*%
X136701100Y-97393600D03*
%TO.P,X1,P$3*%
%TO.N,MOSI*%
X137801100Y-98493600D03*
%TO.P,X1,P$4*%
%TO.N,+3.3V*%
X138901100Y-97393600D03*
%TO.P,X1,P$5*%
%TO.N,SCLK*%
X140001100Y-98493600D03*
%TO.P,X1,P$6*%
%TO.N,GND*%
X141101100Y-97393600D03*
%TO.P,X1,P$7*%
%TO.N,MISO*%
X142201100Y-98493600D03*
%TO.P,X1,P$8*%
%TO.N,N/C*%
X143301100Y-97393600D03*
%TD*%
D11*
%TO.P,LED1,A*%
%TO.N,N$15*%
X200157100Y-97477600D03*
D13*
%TO.P,LED1,K*%
%TO.N,GND*%
X200157100Y-100017600D03*
%TD*%
D17*
%TO.P,TIME-POT0,1*%
%TO.N,GND*%
X155311100Y-102978600D03*
D18*
%TO.P,TIME-POT0,2*%
%TO.N,TIME_POT*%
X155311100Y-105478600D03*
%TO.P,TIME-POT0,3*%
%TO.N,+3.3V*%
X155311100Y-107978600D03*
D19*
%TO.P,TIME-POT0,M1*%
%TO.N,N/C*%
X162311100Y-109978600D03*
%TO.P,TIME-POT0,M2*%
X162311100Y-100978600D03*
%TD*%
D17*
%TO.P,CHANNEL-POT0,1*%
%TO.N,GND*%
X183251100Y-102978600D03*
D18*
%TO.P,CHANNEL-POT0,2*%
%TO.N,CHANNEL_POT*%
X183251100Y-105478600D03*
%TO.P,CHANNEL-POT0,3*%
%TO.N,+3.3V*%
X183251100Y-107978600D03*
D19*
%TO.P,CHANNEL-POT0,M1*%
%TO.N,N/C*%
X190251100Y-109978600D03*
%TO.P,CHANNEL-POT0,M2*%
X190251100Y-100978600D03*
%TD*%
D20*
%TO.P,R16,1*%
%TO.N,N$7*%
X165425100Y-110050600D03*
%TO.P,R16,2*%
%TO.N,AUDIO_OUT*%
X167325100Y-110050600D03*
%TD*%
%TO.P,R1,1*%
%TO.N,PIN22/A8*%
X155773100Y-110304600D03*
%TO.P,R1,2*%
%TO.N,N$1*%
X157673100Y-110304600D03*
%TD*%
D21*
%TO.P,D9,1*%
%TO.N,DGND*%
X149060100Y-97162600D03*
%TO.P,D9,2*%
%TO.N,+3.3V*%
X149060100Y-99062600D03*
%TO.P,D9,3*%
%TO.N,PIN20/A6*%
X146860100Y-98112600D03*
%TD*%
D22*
%TO.P,SV1,1*%
%TO.N,-12V_INLET*%
X128275100Y-110939600D03*
%TO.P,SV1,2*%
X130815100Y-110939600D03*
%TO.P,SV1,3*%
%TO.N,GND*%
X128275100Y-108399600D03*
%TO.P,SV1,4*%
X130815100Y-108399600D03*
%TO.P,SV1,5*%
X128275100Y-105859600D03*
%TO.P,SV1,6*%
X130815100Y-105859600D03*
%TO.P,SV1,7*%
X128275100Y-103319600D03*
%TO.P,SV1,8*%
X130815100Y-103319600D03*
%TO.P,SV1,9*%
%TO.N,+12V_INLET*%
X128275100Y-100779600D03*
%TO.P,SV1,10*%
X130815100Y-100779600D03*
%TD*%
D23*
%TO.P,C9,+*%
%TO.N,GND*%
X119690100Y-104081600D03*
%TO.P,C9,-*%
%TO.N,-12V*%
X122890100Y-104081600D03*
%TD*%
D24*
%TO.P,U1,0*%
%TO.N,N/C*%
X181996100Y-113098600D03*
%TO.P,U1,1*%
X179456100Y-113098600D03*
%TO.P,U1,2*%
X176916100Y-113098600D03*
%TO.P,U1,3*%
%TO.N,LED1*%
X174376100Y-113098600D03*
%TO.P,U1,3.3V*%
%TO.N,+3.3V*%
X179456100Y-97858600D03*
%TO.P,U1,4*%
%TO.N,LED2*%
X171836100Y-113098600D03*
%TO.P,U1,5*%
%TO.N,LED3*%
X169296100Y-113098600D03*
%TO.P,U1,6*%
%TO.N,LED4*%
X166756100Y-113098600D03*
%TO.P,U1,7*%
%TO.N,MOSI*%
X164216100Y-113098600D03*
%TO.P,U1,8*%
%TO.N,RESET_SW*%
X161676100Y-113098600D03*
%TO.P,U1,9*%
%TO.N,RESET_CV*%
X159136100Y-113098600D03*
%TO.P,U1,10*%
%TO.N,SS*%
X156596100Y-113098600D03*
%TO.P,U1,11*%
%TO.N,LED_RESET*%
X154056100Y-113098600D03*
%TO.P,U1,12*%
%TO.N,MISO*%
X151516100Y-113098600D03*
%TO.P,U1,13*%
%TO.N,N/C*%
X151516100Y-97858600D03*
%TO.P,U1,14/A0*%
%TO.N,SCLK*%
X154056100Y-97858600D03*
%TO.P,U1,15/A1*%
%TO.N,N/C*%
X156596100Y-97858600D03*
%TO.P,U1,16/A2*%
X159136100Y-97858600D03*
%TO.P,U1,17/A3*%
X161676100Y-97858600D03*
%TO.P,U1,18/A4*%
X164216100Y-97858600D03*
%TO.P,U1,19/A5*%
X166756100Y-97858600D03*
%TO.P,U1,20/A6*%
%TO.N,PIN20/A6*%
X169296100Y-97858600D03*
%TO.P,U1,21/A7*%
%TO.N,TIME_POT*%
X171836100Y-97858600D03*
%TO.P,U1,22/A8*%
%TO.N,PIN22/A8*%
X174376100Y-97858600D03*
%TO.P,U1,23/A9*%
%TO.N,CHANNEL_POT*%
X176916100Y-97858600D03*
%TO.P,U1,AGND*%
%TO.N,GND*%
X181996100Y-97858600D03*
%TO.P,U1,DAC*%
%TO.N,DAC*%
X151516100Y-100398600D03*
%TO.P,U1,GND*%
%TO.N,DGND*%
X184536100Y-113098600D03*
%TO.P,U1,VIN*%
%TO.N,+5V*%
X184536100Y-97858600D03*
%TD*%
D20*
%TO.P,R7,1*%
%TO.N,N$7*%
X167325100Y-107002600D03*
%TO.P,R7,2*%
%TO.N,GND*%
X165425100Y-107002600D03*
%TD*%
%TO.P,C5,1*%
%TO.N,GND*%
X175326100Y-101668600D03*
%TO.P,C5,2*%
%TO.N,+12V*%
X173426100Y-101668600D03*
%TD*%
D21*
%TO.P,D6,1*%
%TO.N,GND*%
X98473100Y-101475600D03*
%TO.P,D6,2*%
%TO.N,+3.3V*%
X98473100Y-99575600D03*
%TO.P,D6,3*%
%TO.N,RESET_CV*%
X100673100Y-100525600D03*
%TD*%
D20*
%TO.P,R3,1*%
%TO.N,N$4*%
X159451100Y-100398600D03*
%TO.P,R3,2*%
%TO.N,N$10*%
X157551100Y-100398600D03*
%TD*%
D25*
%TO.P,R12,1*%
%TO.N,N$11*%
X197805048Y-100007652D03*
%TO.P,R12,2*%
%TO.N,LED2*%
X195905152Y-100027548D03*
%TD*%
D20*
%TO.P,R5,1*%
%TO.N,GND*%
X165425100Y-104208600D03*
%TO.P,R5,2*%
%TO.N,N$6*%
X167325100Y-104208600D03*
%TD*%
%TO.P,R11,1*%
%TO.N,N$15*%
X197805100Y-97477600D03*
%TO.P,R11,2*%
%TO.N,LED1*%
X195905100Y-97477600D03*
%TD*%
D26*
%TO.P,F2,1*%
%TO.N,-12V*%
X122563100Y-107637600D03*
%TO.P,F2,2*%
%TO.N,-12V_INLET*%
X119763100Y-107637600D03*
%TD*%
D20*
%TO.P,R2,1*%
%TO.N,PIN20/A6*%
X171013100Y-99636600D03*
%TO.P,R2,2*%
%TO.N,N$8*%
X172913100Y-99636600D03*
%TD*%
%TO.P,C3,1*%
%TO.N,N$5*%
X165425100Y-100779600D03*
%TO.P,C3,2*%
%TO.N,N$6*%
X167325100Y-100779600D03*
%TD*%
D27*
%TO.P,R9,1*%
%TO.N,CHANNEL_CV*%
X113416100Y-107322600D03*
%TO.P,R9,2*%
%TO.N,N$9*%
X113416100Y-109222600D03*
%TD*%
D20*
%TO.P,R8,1*%
%TO.N,GND*%
X145354100Y-111193600D03*
%TO.P,R8,2*%
%TO.N,RESET_SW*%
X143454100Y-111193600D03*
%TD*%
D26*
%TO.P,F1,1*%
%TO.N,+12V*%
X108847100Y-103065600D03*
%TO.P,F1,2*%
%TO.N,+12V_INLET*%
X106047100Y-103065600D03*
%TD*%
D20*
%TO.P,R15,1*%
%TO.N,LED_RESET*%
X152847100Y-110812600D03*
%TO.P,R15,2*%
%TO.N,N$16*%
X150947100Y-110812600D03*
%TD*%
D28*
%TO.P,D2,+*%
%TO.N,GND*%
X116972100Y-108780600D03*
%TO.P,D2,-*%
%TO.N,+12V_INLET*%
X116972100Y-105478600D03*
%TD*%
D21*
%TO.P,D5,1*%
%TO.N,DGND*%
X151305100Y-108841600D03*
%TO.P,D5,2*%
%TO.N,+3.3V*%
X151305100Y-106941600D03*
%TO.P,D5,3*%
%TO.N,PIN22/A8*%
X153505100Y-107891600D03*
%TD*%
D27*
%TO.P,R10,1*%
%TO.N,GND*%
X113416100Y-113540600D03*
%TO.P,R10,2*%
%TO.N,N$9*%
X113416100Y-111640600D03*
%TD*%
D20*
%TO.P,R4,1*%
%TO.N,N$4*%
X160853100Y-104081600D03*
%TO.P,R4,2*%
%TO.N,N$2*%
X162753100Y-104081600D03*
%TD*%
D27*
%TO.P,C4,1*%
%TO.N,N$2*%
X180853100Y-105285600D03*
%TO.P,C4,2*%
%TO.N,GND*%
X180853100Y-103385600D03*
%TD*%
D20*
%TO.P,C8,1*%
%TO.N,GND*%
X175326100Y-111320600D03*
%TO.P,C8,2*%
%TO.N,-12V*%
X173426100Y-111320600D03*
%TD*%
%TO.P,C2,1*%
%TO.N,DAC*%
X153487100Y-100398600D03*
%TO.P,C2,2*%
%TO.N,N$10*%
X155387100Y-100398600D03*
%TD*%
D23*
%TO.P,C10,+*%
%TO.N,+12V*%
X108158100Y-107129600D03*
%TO.P,C10,-*%
%TO.N,GND*%
X104958100Y-107129600D03*
%TD*%
D29*
%TO.P,IC4,1*%
%TO.N,AUDIO_OUT*%
X169169100Y-103827600D03*
%TO.P,IC4,2*%
%TO.N,N$7*%
X170439100Y-103827600D03*
%TO.P,IC4,3*%
%TO.N,N$6*%
X171709100Y-103827600D03*
%TO.P,IC4,4*%
%TO.N,+12V*%
X172979100Y-103827600D03*
%TO.P,IC4,5*%
%TO.N,CHANNEL_CV*%
X174249100Y-103827600D03*
%TO.P,IC4,6*%
%TO.N,N$1*%
X175519100Y-103827600D03*
%TO.P,IC4,7*%
X176789100Y-103827600D03*
%TO.P,IC4,8*%
%TO.N,N$8*%
X176789100Y-109027600D03*
%TO.P,IC4,9*%
X175519100Y-109027600D03*
%TO.P,IC4,10*%
%TO.N,TIME_CV*%
X174249100Y-109027600D03*
%TO.P,IC4,11*%
%TO.N,-12V*%
X172979100Y-109027600D03*
%TO.P,IC4,12*%
%TO.N,N$2*%
X171709100Y-109027600D03*
%TO.P,IC4,13*%
%TO.N,N$5*%
X170439100Y-109027600D03*
%TO.P,IC4,14*%
X169169100Y-109027600D03*
%TD*%
D20*
%TO.P,R13,1*%
%TO.N,N$13*%
X197551100Y-110685600D03*
%TO.P,R13,2*%
%TO.N,LED3*%
X195651100Y-110685600D03*
%TD*%
D28*
%TO.P,D1,+*%
%TO.N,-12V_INLET*%
X116972100Y-113733600D03*
%TO.P,D1,-*%
%TO.N,GND*%
X116972100Y-110431600D03*
%TD*%
D20*
%TO.P,C1,1*%
%TO.N,N$4*%
X160853100Y-106494600D03*
%TO.P,C1,2*%
%TO.N,N$5*%
X162753100Y-106494600D03*
%TD*%
D27*
%TO.P,R17,1*%
%TO.N,AUDIO_OUT*%
X101351100Y-108592600D03*
%TO.P,R17,2*%
%TO.N,N$3*%
X101351100Y-110492600D03*
%TD*%
%TO.P,R6,1*%
%TO.N,GND*%
X178821100Y-103385600D03*
%TO.P,R6,2*%
%TO.N,N$2*%
X178821100Y-105285600D03*
%TD*%
%TO.P,R20,1*%
%TO.N,TIME_CV*%
X113289100Y-97162600D03*
%TO.P,R20,2*%
%TO.N,TEMP*%
X113289100Y-99062600D03*
%TD*%
D20*
%TO.P,R14,1*%
%TO.N,N$12*%
X197551100Y-113352600D03*
%TO.P,R14,2*%
%TO.N,LED4*%
X195651100Y-113352600D03*
%TD*%
D27*
%TO.P,R18,1*%
%TO.N,RESET_CV*%
X102748100Y-99316600D03*
%TO.P,R18,2*%
%TO.N,N$14*%
X102748100Y-97416600D03*
%TD*%
%TO.P,R21,1*%
%TO.N,GND*%
X113289100Y-103634600D03*
%TO.P,R21,2*%
%TO.N,TEMP*%
X113289100Y-101734600D03*
%TD*%
D30*
%TO.P,IC1,1*%
%TO.N,DGND*%
X197286900Y-103294200D03*
%TO.P,IC1,2*%
%TO.N,+5V*%
X197286900Y-105605600D03*
%TO.P,IC1,3*%
%TO.N,+12V*%
X197286900Y-107917000D03*
D31*
%TO.P,IC1,4*%
%TO.N,+5V*%
X191089100Y-105605600D03*
%TD*%
D27*
%TO.P,R19,1*%
%TO.N,RESET_CV*%
X102748100Y-101607600D03*
%TO.P,R19,2*%
%TO.N,GND*%
X102748100Y-103507600D03*
%TD*%
D32*
%TO.N,GND*%
X175366700Y-100335100D03*
X165143200Y-102913200D03*
%TO.N,CHANNEL_CV*%
X168076900Y-113225600D03*
X167010100Y-114292400D03*
X175277800Y-107447100D03*
X117315000Y-107358200D03*
%TO.N,DGND*%
X150119100Y-107624900D03*
X197236100Y-104513400D03*
X150741400Y-105935800D03*
%TO.N,+12V*%
X140429000Y-100157300D03*
X136072900Y-100157300D03*
X173944300Y-105402400D03*
X108780600Y-104602300D03*
X108780600Y-105935800D03*
X183901100Y-106735900D03*
%TO.N,-12V*%
X158831300Y-109847400D03*
X169766000Y-107536000D03*
X158831300Y-111269800D03*
X137139700Y-108691700D03*
%TO.N,PIN20/A6*%
X148163300Y-98112600D03*
%TO.N,LED1*%
X186568100Y-113670100D03*
%TO.N,LED2*%
X179456100Y-108513900D03*
%TO.N,LED4*%
X180700700Y-112958900D03*
%TO.N,AUDIO_OUT*%
X104068900Y-105846900D03*
X167988000Y-102202000D03*
%TO.N,TIME_CV*%
X173233100Y-107447100D03*
X119893100Y-102379800D03*
%TD*%
D33*
%TO.N,N$14*%
X102735400Y-97490300D02*
X102748100Y-97416600D01*
X98912700Y-97490300D02*
X102735400Y-97490300D01*
X96423500Y-100335100D02*
X96351100Y-100398600D01*
X96423500Y-99979500D02*
X98912700Y-97490300D01*
X96423500Y-100335100D02*
X96423500Y-99979500D01*
%TO.N,TEMP*%
X113314500Y-99090500D02*
X113314500Y-100335100D01*
X111003100Y-100335100D02*
X113314500Y-100335100D01*
X113314500Y-99090500D02*
X113289100Y-99062600D01*
X113314500Y-101668600D02*
X113289100Y-101734600D01*
X111003100Y-100335100D02*
X110956100Y-100398600D01*
X113314500Y-100335100D02*
X113314500Y-101668600D01*
%TO.N,N$9*%
X113403400Y-110558600D02*
X113403400Y-111625400D01*
X113403400Y-111625400D02*
X113416100Y-111640600D01*
X110956100Y-110558600D02*
X113403400Y-110558600D01*
X113403400Y-109225100D02*
X113416100Y-109222600D01*
X113403400Y-109225100D02*
X113403400Y-110558600D01*
%TO.N,N$3*%
X101313000Y-110558600D02*
X101351100Y-110492600D01*
X96351100Y-110558600D02*
X101313000Y-110558600D01*
D34*
%TO.N,GND*%
X180967400Y-103357700D02*
X181323000Y-103002100D01*
X107891600Y-100424000D02*
X108069400Y-100424000D01*
X102824300Y-103624400D02*
X102748100Y-103507600D01*
X109314000Y-110558600D02*
X107851100Y-110558600D01*
X113847900Y-113492300D02*
X113492300Y-113492300D01*
X182034200Y-103002100D02*
X182034200Y-97934800D01*
X119982000Y-106024700D02*
X120604300Y-106647000D01*
X104957900Y-107269300D02*
X104958100Y-107129600D01*
X165409900Y-107002600D02*
X165425100Y-107002600D01*
X176433500Y-111269800D02*
X175366700Y-111269800D01*
X116959400Y-108780600D02*
X116959400Y-110380800D01*
X181323000Y-103002100D02*
X182034200Y-103002100D01*
X107713800Y-100424000D02*
X107851100Y-100398600D01*
X145851900Y-111269800D02*
X145407400Y-111269800D01*
X145318500Y-111092000D02*
X145354100Y-111193600D01*
X180789600Y-103357700D02*
X180853100Y-103385600D01*
X116870500Y-110469700D02*
X113847900Y-113492300D01*
X145407400Y-111269800D02*
X145354100Y-111193600D01*
X177678100Y-104513400D02*
X177678100Y-110025200D01*
X143807200Y-101668600D02*
X145318500Y-103179900D01*
X119715300Y-106024700D02*
X119626400Y-105935800D01*
X107802700Y-110558600D02*
X107851100Y-110558600D01*
X98557100Y-101490800D02*
X98473100Y-101475600D01*
X165409900Y-104246700D02*
X165409900Y-107002600D01*
X112247700Y-113492300D02*
X109314000Y-110558600D01*
X122382300Y-109314000D02*
X122382300Y-110558600D01*
X147629900Y-113047800D02*
X145851900Y-111269800D01*
X127449600Y-109225100D02*
X122471200Y-109225100D01*
X177678100Y-110025200D02*
X176433500Y-111269800D01*
X122382300Y-110558600D02*
X122456100Y-110558600D01*
X107802700Y-110114100D02*
X107802700Y-110558600D01*
X147629900Y-113047800D02*
X147706100Y-113098600D01*
X182034200Y-103002100D02*
X183189900Y-103002100D01*
X103268800Y-103891100D02*
X102748100Y-103507600D01*
X100779600Y-101490800D02*
X98557100Y-101490800D01*
X165409900Y-104068900D02*
X165425100Y-104208600D01*
X104957900Y-107269300D02*
X107802700Y-110114100D01*
X111269800Y-103624400D02*
X113225600Y-103624400D01*
X180967400Y-103357700D02*
X180853100Y-103385600D01*
X102824300Y-103624400D02*
X104957900Y-105758000D01*
X113225600Y-103624400D02*
X113289100Y-103634600D01*
X165409900Y-104246700D02*
X165425100Y-104208600D01*
X113314500Y-113492300D02*
X112247700Y-113492300D01*
X175366700Y-111269800D02*
X175326100Y-111320600D01*
X108069400Y-100424000D02*
X111269800Y-103624400D01*
X119626400Y-104157800D02*
X119690100Y-104081600D01*
X175366700Y-101668600D02*
X175326100Y-101668600D01*
X102735400Y-103446600D02*
X102748100Y-103507600D01*
X143629400Y-101668600D02*
X143751100Y-101663600D01*
X165409900Y-103179900D02*
X165409900Y-104068900D01*
X145318500Y-103179900D02*
X145318500Y-111092000D01*
X182034200Y-97934800D02*
X181996100Y-97858600D01*
X128275100Y-108399600D02*
X127449600Y-109225100D01*
X116870500Y-108691700D02*
X119626400Y-105935800D01*
X106735900Y-100424000D02*
X107713800Y-100424000D01*
X183189900Y-103002100D02*
X183251100Y-102978600D01*
X104957900Y-105758000D02*
X104957900Y-107091500D01*
X103268800Y-103891100D02*
X106735900Y-100424000D01*
X116959400Y-110380800D02*
X116972100Y-110431600D01*
X119715300Y-106024700D02*
X119982000Y-106024700D01*
X178744900Y-103446600D02*
X178821100Y-103385600D01*
X113492300Y-113492300D02*
X113416100Y-113540600D01*
X143807200Y-101668600D02*
X143751100Y-101663600D01*
X122471200Y-109225100D02*
X122382300Y-109314000D01*
X104957900Y-107091500D02*
X104958100Y-107129600D01*
X119626400Y-105935800D02*
X119626400Y-104157800D01*
X120604300Y-106647000D02*
X120604300Y-107536000D01*
X120604300Y-107536000D02*
X122382300Y-109314000D01*
X116870500Y-110469700D02*
X116972100Y-110431600D01*
X178922700Y-103357700D02*
X180789600Y-103357700D01*
X143629400Y-101668600D02*
X135183900Y-101668600D01*
X113314500Y-113492300D02*
X113416100Y-113540600D01*
X116959400Y-108780600D02*
X116972100Y-108780600D01*
X116870500Y-108691700D02*
X116972100Y-108780600D01*
X102735400Y-103446600D02*
X100779600Y-101490800D01*
X165143200Y-102913200D02*
X165409900Y-103179900D01*
X178922700Y-103357700D02*
X178821100Y-103385600D01*
X135183900Y-101668600D02*
X135151100Y-101663600D01*
X178744900Y-103446600D02*
X177678100Y-104513400D01*
X175366700Y-100335100D02*
X175366700Y-101668600D01*
X107891600Y-100424000D02*
X107851100Y-100398600D01*
%TO.N,+12V_INLET*%
X109136200Y-105402400D02*
X116959400Y-105402400D01*
X121493300Y-103002100D02*
X123715800Y-100779600D01*
X106113600Y-103091000D02*
X106047100Y-103065600D01*
X108958400Y-105224600D02*
X109136200Y-105402400D01*
X117048300Y-105313500D02*
X117048300Y-104424500D01*
X117048300Y-104424500D02*
X118470700Y-103002100D01*
X118470700Y-103002100D02*
X121493300Y-103002100D01*
X117048300Y-105313500D02*
X116972100Y-105478600D01*
X108247200Y-105224600D02*
X108958400Y-105224600D01*
X123715800Y-100779600D02*
X128275100Y-100779600D01*
X106113600Y-103091000D02*
X108247200Y-105224600D01*
X116959400Y-105402400D02*
X116972100Y-105478600D01*
%TO.N,-12V_INLET*%
X118292900Y-111003100D02*
X119004100Y-111714300D01*
X119004100Y-111714300D02*
X122915700Y-111714300D01*
X123626900Y-111003100D02*
X128249700Y-111003100D01*
X118292900Y-111003100D02*
X117048300Y-112247700D01*
X119715300Y-107713800D02*
X119763100Y-107637600D01*
X128249700Y-111003100D02*
X128275100Y-110939600D01*
X122915700Y-111714300D02*
X123626900Y-111003100D01*
X119715300Y-107713800D02*
X118292900Y-109136200D01*
X117048300Y-113670100D02*
X116972100Y-113733600D01*
X117048300Y-112247700D02*
X117048300Y-113670100D01*
X118292900Y-109136200D02*
X118292900Y-111003100D01*
D33*
%TO.N,+3.3V*%
X149141200Y-99090500D02*
X149141200Y-99979500D01*
X134206000Y-95890100D02*
X106113600Y-95890100D01*
X136873000Y-105135700D02*
X136873000Y-106113600D01*
X134206000Y-102468700D02*
X136873000Y-105135700D01*
X106113600Y-95890100D02*
X103624400Y-98379300D01*
X155008600Y-111358700D02*
X156519900Y-111358700D01*
X139628900Y-96601300D02*
X143629400Y-96601300D01*
X138917700Y-97312500D02*
X139628900Y-96601300D01*
X143629400Y-96601300D02*
X146118600Y-99090500D01*
X138917700Y-97312500D02*
X138901100Y-97393600D01*
X138828800Y-97312500D02*
X138901100Y-97393600D01*
X151274800Y-106913700D02*
X151305100Y-106941600D01*
X98557100Y-99535000D02*
X98473100Y-99575600D01*
X153764000Y-109758500D02*
X153764000Y-110114100D01*
X152341600Y-107980500D02*
X152341600Y-108336100D01*
X149852400Y-105846900D02*
X150919200Y-106913700D01*
X155364200Y-107980500D02*
X155311100Y-107978600D01*
X137406400Y-95890100D02*
X134206000Y-95890100D01*
X149852400Y-100690700D02*
X149852400Y-105846900D01*
X156519900Y-111358700D02*
X156697700Y-111180900D01*
X152341600Y-108336100D02*
X153764000Y-109758500D01*
X153764000Y-110114100D02*
X155008600Y-111358700D01*
X148963400Y-99090500D02*
X149060100Y-99062600D01*
X149141200Y-99090500D02*
X149060100Y-99062600D01*
X156697700Y-109314000D02*
X155364200Y-107980500D01*
X136873000Y-106113600D02*
X136951100Y-106153600D01*
X151363700Y-107002600D02*
X152341600Y-107980500D01*
X138828800Y-97312500D02*
X137406400Y-95890100D01*
X146118600Y-99090500D02*
X148963400Y-99090500D01*
X150919200Y-106913700D02*
X151274800Y-106913700D01*
X151363700Y-107002600D02*
X151305100Y-106941600D01*
X156697700Y-111180900D02*
X156697700Y-109314000D01*
X149141200Y-99979500D02*
X149852400Y-100690700D01*
X101846400Y-98379300D02*
X100690700Y-99535000D01*
X100690700Y-99535000D02*
X98557100Y-99535000D01*
X103624400Y-98379300D02*
X101846400Y-98379300D01*
X134206000Y-95890100D02*
X134206000Y-102468700D01*
%TO.N,CHANNEL_CV*%
X117315000Y-107358200D02*
X113492300Y-107358200D01*
X175277800Y-105402400D02*
X175277800Y-107447100D01*
X174299900Y-104424500D02*
X175277800Y-105402400D01*
X113492300Y-107358200D02*
X113416100Y-107322600D01*
X174299900Y-103891100D02*
X174249100Y-103827600D01*
X168076900Y-113225600D02*
X167010100Y-114292400D01*
X174299900Y-103891100D02*
X174299900Y-104424500D01*
%TO.N,PIN22/A8*%
X153586200Y-107802700D02*
X153586200Y-102646500D01*
X157586700Y-98290400D02*
X157586700Y-98023700D01*
X153586200Y-107802700D02*
X153505100Y-107891600D01*
X155719800Y-110291900D02*
X153586200Y-108158300D01*
X154475200Y-99535000D02*
X154653000Y-99357200D01*
X153586200Y-102646500D02*
X154475200Y-101757500D01*
X155719800Y-110291900D02*
X155773100Y-110304600D01*
X174299900Y-97845900D02*
X174376100Y-97858600D01*
X153586200Y-107891600D02*
X153505100Y-107891600D01*
X157586700Y-98023700D02*
X159098000Y-96512400D01*
X156519900Y-99357200D02*
X157586700Y-98290400D01*
X153586200Y-108158300D02*
X153586200Y-107891600D01*
X154475200Y-101757500D02*
X154475200Y-99535000D01*
X159098000Y-96512400D02*
X172433000Y-96512400D01*
X154653000Y-99357200D02*
X156519900Y-99357200D01*
X173766500Y-97845900D02*
X174299900Y-97845900D01*
X172433000Y-96512400D02*
X173766500Y-97845900D01*
%TO.N,DGND*%
X149141200Y-97223600D02*
X149060100Y-97162600D01*
X151274800Y-108780600D02*
X151305100Y-108841600D01*
X197236100Y-103357700D02*
X197286900Y-103294200D01*
X150030200Y-98112600D02*
X150030200Y-100335100D01*
X197236100Y-104513400D02*
X197236100Y-103357700D01*
X150030200Y-100335100D02*
X150741400Y-101046300D01*
X150741400Y-101046300D02*
X150741400Y-105935800D01*
X150119100Y-107624900D02*
X151274800Y-108780600D01*
X149141200Y-97223600D02*
X150030200Y-98112600D01*
%TO.N,N$1*%
X173322000Y-97934800D02*
X172255200Y-96868000D01*
X176700200Y-103802200D02*
X175544500Y-103802200D01*
X158475700Y-101313000D02*
X157675600Y-102113100D01*
X176789100Y-100957400D02*
X175544500Y-99712800D01*
X158475700Y-99535000D02*
X158475700Y-101313000D01*
X172255200Y-96868000D02*
X168877000Y-96868000D01*
X167099000Y-98912700D02*
X159098000Y-98912700D01*
X157675600Y-110291900D02*
X157673100Y-110304600D01*
X168254700Y-97490300D02*
X168254700Y-97757000D01*
X168877000Y-96868000D02*
X168254700Y-97490300D01*
X175544500Y-99712800D02*
X174833300Y-99712800D01*
X159098000Y-98912700D02*
X158475700Y-99535000D01*
X173322000Y-98201500D02*
X173322000Y-97934800D01*
X176700200Y-103802200D02*
X176789100Y-103827600D01*
X174833300Y-99712800D02*
X173322000Y-98201500D01*
X176789100Y-103827600D02*
X176789100Y-100957400D01*
X157675600Y-102113100D02*
X157675600Y-110291900D01*
X175544500Y-103802200D02*
X175519100Y-103827600D01*
X168254700Y-97757000D02*
X167099000Y-98912700D01*
D34*
%TO.N,+12V*%
X140429000Y-100157300D02*
X136072900Y-100157300D01*
X184879000Y-107713800D02*
X192168800Y-107713800D01*
X108780600Y-103091000D02*
X108847100Y-103065600D01*
X173410900Y-101668600D02*
X173426100Y-101668600D01*
X173055300Y-103802200D02*
X173410900Y-103446600D01*
X173055300Y-103802200D02*
X172979100Y-103827600D01*
X172966400Y-103980000D02*
X172979100Y-103827600D01*
X197236100Y-107891600D02*
X197286900Y-107917000D01*
X172966400Y-103980000D02*
X172966400Y-104424500D01*
X183901100Y-106735900D02*
X184879000Y-107713800D01*
X108158300Y-107091500D02*
X108158100Y-107129600D01*
X108158300Y-107091500D02*
X108780600Y-106469200D01*
X173410900Y-103446600D02*
X173410900Y-101668600D01*
X108780600Y-104602300D02*
X108780600Y-103091000D01*
X192346600Y-107891600D02*
X197236100Y-107891600D01*
X172966400Y-104424500D02*
X173944300Y-105402400D01*
X108780600Y-106469200D02*
X108780600Y-105935800D01*
X192168800Y-107713800D02*
X192346600Y-107891600D01*
%TO.N,-12V*%
X122649000Y-104335600D02*
X122649000Y-107624900D01*
X122737900Y-107269300D02*
X131272300Y-107269300D01*
X122826800Y-104157800D02*
X122649000Y-104335600D01*
X122826800Y-104157800D02*
X122890100Y-104081600D01*
X169766000Y-107536000D02*
X172077400Y-107536000D01*
X158831300Y-111269800D02*
X158831300Y-109847400D01*
X172077400Y-107536000D02*
X172966400Y-108425000D01*
X132694700Y-108691700D02*
X137139700Y-108691700D01*
X131272300Y-107269300D02*
X132694700Y-108691700D01*
X122737900Y-107269300D02*
X122563100Y-107637600D01*
X173410900Y-111269800D02*
X173426100Y-111320600D01*
X172966400Y-108425000D02*
X172966400Y-108869500D01*
X173055300Y-109047300D02*
X173410900Y-109402900D01*
X122649000Y-107624900D02*
X122563100Y-107637600D01*
X173055300Y-109047300D02*
X172979100Y-109027600D01*
X173410900Y-109402900D02*
X173410900Y-111269800D01*
X172966400Y-108869500D02*
X172979100Y-109027600D01*
D33*
%TO.N,+5V*%
X184612300Y-99001600D02*
X184612300Y-97934800D01*
X191102000Y-105580200D02*
X191089100Y-105605600D01*
X191102000Y-105580200D02*
X197236100Y-105580200D01*
X191102000Y-105491300D02*
X191089100Y-105605600D01*
X197236100Y-105580200D02*
X197286900Y-105605600D01*
X184612300Y-97934800D02*
X184536100Y-97858600D01*
X191102000Y-105491300D02*
X184612300Y-99001600D01*
%TO.N,DAC*%
X151541500Y-100424000D02*
X153408400Y-100424000D01*
X151541500Y-100424000D02*
X151516100Y-100398600D01*
X153408400Y-100424000D02*
X153487100Y-100398600D01*
%TO.N,PIN20/A6*%
X171010600Y-99623900D02*
X171013100Y-99636600D01*
X148163300Y-98112600D02*
X146860100Y-98112600D01*
X169321500Y-97934800D02*
X171010600Y-99623900D01*
X169321500Y-97934800D02*
X169296100Y-97858600D01*
%TO.N,RESET_SW*%
X160520400Y-113136700D02*
X161676100Y-113136700D01*
X142029200Y-111180900D02*
X143451600Y-111180900D01*
X143540500Y-111269800D02*
X143540500Y-111714300D01*
X146296400Y-114470200D02*
X159186900Y-114470200D01*
X159186900Y-114470200D02*
X160520400Y-113136700D01*
X143540500Y-111269800D02*
X143454100Y-111193600D01*
X143540500Y-111714300D02*
X146296400Y-114470200D01*
X142029200Y-111180900D02*
X141951100Y-111153600D01*
X143451600Y-111180900D02*
X143454100Y-111193600D01*
X161676100Y-113136700D02*
X161676100Y-113098600D01*
%TO.N,RESET_CV*%
X130383300Y-101846400D02*
X130827800Y-101846400D01*
X157942300Y-113136700D02*
X159098000Y-113136700D01*
X159098000Y-113136700D02*
X159136100Y-113098600D01*
X103268800Y-99268300D02*
X106291400Y-96245700D01*
X131894600Y-102913200D02*
X131894600Y-103002100D01*
X136072900Y-107180400D02*
X141229100Y-107180400D01*
X156964400Y-114114600D02*
X157942300Y-113136700D01*
X100690700Y-100601800D02*
X100673100Y-100525600D01*
X125227100Y-96245700D02*
X129316500Y-100335100D01*
X141229100Y-107180400D02*
X144429500Y-110380800D01*
X101757500Y-100512900D02*
X102735400Y-99535000D01*
X129316500Y-100779600D02*
X130383300Y-101846400D01*
X101757500Y-100601800D02*
X100690700Y-100601800D01*
X129316500Y-100335100D02*
X129316500Y-100779600D01*
X102824300Y-99268300D02*
X103268800Y-99268300D01*
X101757500Y-100512900D02*
X101757500Y-100601800D01*
X106291400Y-96245700D02*
X125227100Y-96245700D01*
X102735400Y-99535000D02*
X102735400Y-99357200D01*
X131894600Y-103002100D02*
X136072900Y-107180400D01*
X102735400Y-101579700D02*
X102748100Y-101607600D01*
X102824300Y-99268300D02*
X102748100Y-99316600D01*
X130827800Y-101846400D02*
X131894600Y-102913200D01*
X102735400Y-101579700D02*
X101757500Y-100601800D01*
X144429500Y-110380800D02*
X144429500Y-112069900D01*
X146474200Y-114114600D02*
X156964400Y-114114600D01*
X144429500Y-112069900D02*
X146474200Y-114114600D01*
X102735400Y-99357200D02*
X102748100Y-99316600D01*
%TO.N,LED1*%
X187279300Y-114381300D02*
X196436000Y-114381300D01*
X199280800Y-102290900D02*
X199280800Y-99712800D01*
X199280800Y-99712800D02*
X198480700Y-98912700D01*
X201058800Y-103713300D02*
X200881000Y-103535500D01*
X200436500Y-109936300D02*
X201058800Y-109314000D01*
X186568100Y-113670100D02*
X187279300Y-114381300D01*
X198480700Y-111536500D02*
X198480700Y-111180900D01*
X198480700Y-98912700D02*
X197413900Y-98912700D01*
X199725300Y-109936300D02*
X200436500Y-109936300D01*
X196613800Y-112514400D02*
X196791600Y-112336600D01*
X200881000Y-103535500D02*
X200525400Y-103535500D01*
X197413900Y-98912700D02*
X195991500Y-97490300D01*
X200525400Y-103535500D02*
X199280800Y-102290900D01*
X198480700Y-111180900D02*
X199725300Y-109936300D01*
X196436000Y-114381300D02*
X196613800Y-114203500D01*
X196791600Y-112336600D02*
X197680600Y-112336600D01*
X196613800Y-114203500D02*
X196613800Y-112514400D01*
X201058800Y-109314000D02*
X201058800Y-103713300D01*
X197680600Y-112336600D02*
X198480700Y-111536500D01*
X195991500Y-97490300D02*
X195905100Y-97477600D01*
%TO.N,LED2*%
X195902600Y-99979500D02*
X195905153Y-100027550D01*
X184345600Y-103980000D02*
X184345600Y-102024200D01*
X183990000Y-104335600D02*
X184345600Y-103980000D01*
X189679600Y-96868000D02*
X192791100Y-99979500D01*
X179456100Y-108513900D02*
X181945300Y-106024700D01*
X181945300Y-106024700D02*
X181945300Y-105224600D01*
X181945300Y-105224600D02*
X182834300Y-104335600D01*
X182834300Y-104335600D02*
X183990000Y-104335600D01*
X183545500Y-97401400D02*
X184078900Y-96868000D01*
X184078900Y-96868000D02*
X189679600Y-96868000D01*
X192791100Y-99979500D02*
X195902600Y-99979500D01*
X183545500Y-101224100D02*
X183545500Y-97401400D01*
X184345600Y-102024200D02*
X183545500Y-101224100D01*
%TO.N,LED3*%
X170655000Y-114470200D02*
X184612300Y-114470200D01*
X186034700Y-113047800D02*
X190657500Y-113047800D01*
X169321500Y-113136700D02*
X170655000Y-114470200D01*
X169321500Y-113136700D02*
X169296100Y-113098600D01*
X195635900Y-110736400D02*
X195651100Y-110685600D01*
X192968900Y-110736400D02*
X195635900Y-110736400D01*
X184612300Y-114470200D02*
X186034700Y-113047800D01*
X190657500Y-113047800D02*
X192968900Y-110736400D01*
%TO.N,LED4*%
X180700700Y-112958900D02*
X185501300Y-108158300D01*
X192168800Y-108336100D02*
X195102500Y-108336100D01*
X191991000Y-108158300D02*
X192168800Y-108336100D01*
X195724800Y-112425500D02*
X195724800Y-113314500D01*
X196613800Y-109847400D02*
X196613800Y-111536500D01*
X195724800Y-113314500D02*
X195651100Y-113352600D01*
X185501300Y-108158300D02*
X191991000Y-108158300D01*
X196613800Y-111536500D02*
X195724800Y-112425500D01*
X195102500Y-108336100D02*
X196613800Y-109847400D01*
%TO.N,LED_RESET*%
X152875000Y-110825300D02*
X152847100Y-110812600D01*
X152875000Y-111892100D02*
X152875000Y-110825300D01*
X154030700Y-113047800D02*
X154056100Y-113098600D01*
X154030700Y-113047800D02*
X152875000Y-111892100D01*
%TO.N,MISO*%
X149496800Y-108602800D02*
X149496800Y-105669100D01*
X151541500Y-113047800D02*
X151516100Y-113098600D01*
X142207000Y-98557100D02*
X142201100Y-98493600D01*
X150652500Y-109758500D02*
X149496800Y-108602800D01*
X151897100Y-112692200D02*
X151897100Y-109936300D01*
X142384800Y-98557100D02*
X142207000Y-98557100D01*
X149496800Y-105669100D02*
X142384800Y-98557100D01*
X151719300Y-109758500D02*
X150652500Y-109758500D01*
X151897100Y-109936300D02*
X151719300Y-109758500D01*
X151541500Y-113047800D02*
X151897100Y-112692200D01*
%TO.N,N$2*%
X178833800Y-105313500D02*
X178821100Y-105285600D01*
X161765000Y-107358200D02*
X161765000Y-105669100D01*
X162742900Y-104691200D02*
X162742900Y-104157800D01*
X178833800Y-109758500D02*
X178833800Y-105402400D01*
X160609300Y-108158300D02*
X160964900Y-108158300D01*
X175366700Y-113225600D02*
X178833800Y-109758500D01*
X171632900Y-109047300D02*
X171632900Y-109669600D01*
X160431500Y-108336100D02*
X160609300Y-108158300D01*
X172877500Y-112603300D02*
X172877500Y-113047800D01*
X173944300Y-114114600D02*
X174744400Y-114114600D01*
X171632900Y-109669600D02*
X170788350Y-110514150D01*
X174744400Y-114114600D02*
X175366700Y-113492300D01*
X161765000Y-105669100D02*
X162742900Y-104691200D01*
X180789600Y-105313500D02*
X178833800Y-105313500D01*
X175366700Y-113492300D02*
X175366700Y-113225600D01*
X170788350Y-110514150D02*
X169499300Y-111803200D01*
X180789600Y-105313500D02*
X180853100Y-105285600D01*
X172877500Y-113047800D02*
X173944300Y-114114600D01*
X171632900Y-109047300D02*
X171709100Y-109027600D01*
X162742900Y-104157800D02*
X162753100Y-104081600D01*
X160431500Y-111625400D02*
X160431500Y-108336100D01*
X160609300Y-111803200D02*
X160431500Y-111625400D01*
X178833800Y-105402400D02*
X178821100Y-105285600D01*
X160964900Y-108158300D02*
X161765000Y-107358200D01*
X169499300Y-111803200D02*
X160609300Y-111803200D01*
X170788350Y-110514150D02*
X172877500Y-112603300D01*
%TO.N,N$4*%
X160876000Y-104157800D02*
X160876000Y-106469200D01*
X160876000Y-106469200D02*
X160853100Y-106494600D01*
X160876000Y-103980000D02*
X160853100Y-104081600D01*
X159453600Y-102557600D02*
X159453600Y-100424000D01*
X160876000Y-103980000D02*
X159453600Y-102557600D01*
X159453600Y-100424000D02*
X159451100Y-100398600D01*
X160876000Y-104157800D02*
X160853100Y-104081600D01*
%TO.N,N$5*%
X164165300Y-107891600D02*
X164165300Y-110558600D01*
X170388300Y-109047300D02*
X169232600Y-109047300D01*
X169232600Y-109047300D02*
X169169100Y-109027600D01*
X164520900Y-101668600D02*
X164520900Y-104157800D01*
X164165300Y-110558600D02*
X164698700Y-111092000D01*
X164520900Y-104157800D02*
X162831800Y-105846900D01*
X168076900Y-111092000D02*
X169232600Y-109936300D01*
X162831800Y-105846900D02*
X162831800Y-106469200D01*
X165409900Y-100779600D02*
X165425100Y-100779600D01*
X162831800Y-106469200D02*
X162753100Y-106494600D01*
X162831800Y-106558100D02*
X164165300Y-107891600D01*
X170388300Y-109047300D02*
X170439100Y-109027600D01*
X164698700Y-111092000D02*
X168076900Y-111092000D01*
X165409900Y-100779600D02*
X164520900Y-101668600D01*
X169232600Y-109936300D02*
X169232600Y-109136200D01*
X169232600Y-109136200D02*
X169169100Y-109027600D01*
X162831800Y-106558100D02*
X162753100Y-106494600D01*
%TO.N,N$6*%
X167365700Y-100779600D02*
X167325100Y-100779600D01*
X167365700Y-100779600D02*
X167365700Y-101579700D01*
X171632900Y-103802200D02*
X171709100Y-103827600D01*
X171632900Y-102646500D02*
X171632900Y-103802200D01*
X167365700Y-101579700D02*
X167365700Y-104157800D01*
X167365700Y-101579700D02*
X170566100Y-101579700D01*
X167365700Y-104157800D02*
X167325100Y-104208600D01*
X170566100Y-101579700D02*
X171632900Y-102646500D01*
%TO.N,N$7*%
X165498800Y-108780600D02*
X165498800Y-110025200D01*
X167276800Y-107002600D02*
X167325100Y-107002600D01*
X167365700Y-106913700D02*
X167325100Y-107002600D01*
X167899100Y-106913700D02*
X170388300Y-104424500D01*
X165498800Y-110025200D02*
X165425100Y-110050600D01*
X167365700Y-106913700D02*
X167899100Y-106913700D01*
X170388300Y-104424500D02*
X170388300Y-103891100D01*
X167276800Y-107002600D02*
X165498800Y-108780600D01*
X170388300Y-103891100D02*
X170439100Y-103827600D01*
%TO.N,N$10*%
X157497800Y-100424000D02*
X155453100Y-100424000D01*
X157497800Y-100424000D02*
X157551100Y-100398600D01*
X155453100Y-100424000D02*
X155387100Y-100398600D01*
%TO.N,AUDIO_OUT*%
X167365700Y-110025200D02*
X167325100Y-110050600D01*
X167988000Y-102646500D02*
X167988000Y-102202000D01*
X171010600Y-102557600D02*
X171010600Y-105135700D01*
X170921700Y-102468700D02*
X171010600Y-102557600D01*
X101401900Y-108513900D02*
X101351100Y-108592600D01*
X168965900Y-103535500D02*
X169169100Y-103827600D01*
X167365700Y-108780600D02*
X167365700Y-110025200D01*
X104068900Y-105846900D02*
X101401900Y-108513900D01*
X170032700Y-102468700D02*
X170921700Y-102468700D01*
X168965900Y-103535500D02*
X170032700Y-102468700D01*
X171010600Y-105135700D02*
X167365700Y-108780600D01*
X169169100Y-103827600D02*
X167988000Y-102646500D01*
%TO.N,N$8*%
X172877500Y-100424000D02*
X172877500Y-99712800D01*
X175455600Y-108958400D02*
X175455600Y-108425000D01*
X175455600Y-108958400D02*
X175519100Y-109027600D01*
X172344100Y-105313500D02*
X172344100Y-100957400D01*
X175544500Y-109047300D02*
X176789100Y-109047300D01*
X172877500Y-99712800D02*
X172913100Y-99636600D01*
X172344100Y-100957400D02*
X172877500Y-100424000D01*
X175544500Y-109047300D02*
X175519100Y-109027600D01*
X175455600Y-108425000D02*
X172344100Y-105313500D01*
X176789100Y-109047300D02*
X176789100Y-109027600D01*
%TO.N,TIME_CV*%
X113314500Y-97223600D02*
X113289100Y-97162600D01*
X174211000Y-108958400D02*
X174211000Y-108425000D01*
X174211000Y-108958400D02*
X174249100Y-109027600D01*
X174211000Y-108425000D02*
X173233100Y-107447100D01*
X114736900Y-97223600D02*
X113314500Y-97223600D01*
X119893100Y-102379800D02*
X114736900Y-97223600D01*
%TO.N,N$12*%
X200080900Y-113314500D02*
X200157100Y-113352600D01*
X197591700Y-113314500D02*
X197551100Y-113352600D01*
X200080900Y-113314500D02*
X197591700Y-113314500D01*
%TO.N,N$13*%
X197591700Y-110647500D02*
X197551100Y-110685600D01*
X200080900Y-106380300D02*
X200157100Y-106367600D01*
X200080900Y-106380300D02*
X200080900Y-107269300D01*
X200080900Y-107269300D02*
X197591700Y-109758500D01*
X197591700Y-109758500D02*
X197591700Y-110647500D01*
%TO.N,N$11*%
X200080900Y-103980000D02*
X197858400Y-101757500D01*
X200080900Y-104424500D02*
X200157100Y-104462600D01*
X197858400Y-100068400D02*
X197805050Y-100007654D01*
X197858400Y-101757500D02*
X197858400Y-100068400D01*
X200080900Y-104424500D02*
X200080900Y-103980000D01*
%TO.N,N$15*%
X200080900Y-97490300D02*
X200157100Y-97477600D01*
X197858400Y-97490300D02*
X197805100Y-97477600D01*
X200080900Y-97490300D02*
X197858400Y-97490300D01*
%TO.N,N$16*%
X147718800Y-110558600D02*
X147896600Y-110736400D01*
X147718800Y-110558600D02*
X147706100Y-110558600D01*
X150919200Y-110736400D02*
X150947100Y-110812600D01*
X147896600Y-110736400D02*
X150919200Y-110736400D01*
%TD*%
M02*
