<?xml version="1.0" encoding="UTF-8" standalone="no"?>
<!-- Created with Inkscape (http://www.inkscape.org/) -->

<svg
   xmlns:dc="http://purl.org/dc/elements/1.1/"
   xmlns:cc="http://creativecommons.org/ns#"
   xmlns:rdf="http://www.w3.org/1999/02/22-rdf-syntax-ns#"
   xmlns:svg="http://www.w3.org/2000/svg"
   xmlns="http://www.w3.org/2000/svg"
   xmlns:sodipodi="http://sodipodi.sourceforge.net/DTD/sodipodi-0.dtd"
   xmlns:inkscape="http://www.inkscape.org/namespaces/inkscape"
   id="svg2"
   version="1.1"
   inkscape:version="0.91 r13725"
   xml:space="preserve"
   width="765"
   height="990"
   viewBox="0 0 765 990"
   sodipodi:docname="Logoi panel.svg"><metadata
     id="metadata8"><rdf:RDF><cc:Work
         rdf:about=""><dc:format>image/svg+xml</dc:format><dc:type
           rdf:resource="http://purl.org/dc/dcmitype/StillImage" /><dc:title></dc:title></cc:Work></rdf:RDF></metadata><defs
     id="defs6"><clipPath
       clipPathUnits="userSpaceOnUse"
       id="clipPath18"><path
         d="M 0,99 5100,99 5100,5 0,5 0,99 Z"
         id="path20"
         inkscape:connector-curvature="0" /></clipPath><clipPath
       clipPathUnits="userSpaceOnUse"
       id="clipPath32"><path
         d="m 1798,4754 0,-2788 1503,0 0,2788 -1503,0 z m 333,-430 0,-2188 801,0 0,2188 -801,0 z"
         id="path34"
         inkscape:connector-curvature="0"
         style="clip-rule:evenodd" /></clipPath><clipPath
       clipPathUnits="userSpaceOnUse"
       id="clipPath52"><path
         d="m 2932,3082 22,0 0,-38 -22,0 0,38 z"
         id="path54"
         inkscape:connector-curvature="0" /></clipPath><clipPath
       clipPathUnits="userSpaceOnUse"
       id="clipPath66"><path
         d="m 2932,2422 22,0 0,-38 -22,0 0,38 z"
         id="path68"
         inkscape:connector-curvature="0" /></clipPath><clipPath
       clipPathUnits="userSpaceOnUse"
       id="clipPath80"><path
         d="m 2932,2752 22,0 0,-38 -22,0 0,38 z"
         id="path82"
         inkscape:connector-curvature="0" /></clipPath><clipPath
       clipPathUnits="userSpaceOnUse"
       id="clipPath94"><path
         d="m 2932,2801 26,0 0,-7 -26,0 0,7 z"
         id="path96"
         inkscape:connector-curvature="0" /></clipPath><clipPath
       clipPathUnits="userSpaceOnUse"
       id="clipPath104"><path
         d="m 2932,3049 26,0 0,-7 -26,0 0,7 z"
         id="path106"
         inkscape:connector-curvature="0" /></clipPath><clipPath
       clipPathUnits="userSpaceOnUse"
       id="clipPath116"><path
         d="m 1798,4754 0,-2788 1503,0 0,2788 -1503,0 z m 333,-430 0,-2188 801,0 0,2188 -801,0 z"
         id="path118"
         inkscape:connector-curvature="0"
         style="clip-rule:evenodd" /></clipPath><clipPath
       clipPathUnits="userSpaceOnUse"
       id="clipPath126"><path
         d="m 2932,2389 26,0 0,-7 -26,0 0,7 z"
         id="path128"
         inkscape:connector-curvature="0" /></clipPath><clipPath
       clipPathUnits="userSpaceOnUse"
       id="clipPath138"><path
         d="m 2932,2471 26,0 0,-7 -26,0 0,7 z"
         id="path140"
         inkscape:connector-curvature="0" /></clipPath><clipPath
       clipPathUnits="userSpaceOnUse"
       id="clipPath148"><path
         d="m 2932,2719 26,0 0,-7 -26,0 0,7 z"
         id="path150"
         inkscape:connector-curvature="0" /></clipPath><clipPath
       clipPathUnits="userSpaceOnUse"
       id="clipPath162"><path
         d="m 2163,4509 9,0 0,-185 -9,0 0,185 z"
         id="path164"
         inkscape:connector-curvature="0" /></clipPath><clipPath
       clipPathUnits="userSpaceOnUse"
       id="clipPath172"><path
         d="m 2387,4509 9,0 0,-185 -9,0 0,185 z"
         id="path174"
         inkscape:connector-curvature="0" /></clipPath><clipPath
       clipPathUnits="userSpaceOnUse"
       id="clipPath200"><path
         d="m 2183,4334 36,0 0,-10 -36,0 0,10 z"
         id="path202"
         inkscape:connector-curvature="0" /></clipPath><clipPath
       clipPathUnits="userSpaceOnUse"
       id="clipPath210"><path
         d="m 2323,4334 53,0 0,-10 -53,0 0,10 z"
         id="path212"
         inkscape:connector-curvature="0" /></clipPath><clipPath
       clipPathUnits="userSpaceOnUse"
       id="clipPath222"><path
         d="m 2191,4466 177,0 0,-142 -177,0 0,142 z"
         id="path224"
         inkscape:connector-curvature="0" /></clipPath><clipPath
       clipPathUnits="userSpaceOnUse"
       id="clipPath232"><path
         d="m 2209,4448 141,0 0,-124 -141,0 0,124 z"
         id="path234"
         inkscape:connector-curvature="0" /></clipPath><clipPath
       clipPathUnits="userSpaceOnUse"
       id="clipPath242"><path
         d="m 2932,4029 3,0 0,-273 -3,0 0,273 z"
         id="path244"
         inkscape:connector-curvature="0" /></clipPath><clipPath
       clipPathUnits="userSpaceOnUse"
       id="clipPath252"><path
         d="m 2932,4029 3,0 0,-9 -3,0 0,9 z"
         id="path254"
         inkscape:connector-curvature="0" /></clipPath><clipPath
       clipPathUnits="userSpaceOnUse"
       id="clipPath262"><path
         d="m 2932,3765 3,0 0,-9 -3,0 0,9 z"
         id="path264"
         inkscape:connector-curvature="0" /></clipPath><clipPath
       clipPathUnits="userSpaceOnUse"
       id="clipPath274"><path
         d="m 2702,4509 9,0 0,-185 -9,0 0,185 z"
         id="path276"
         inkscape:connector-curvature="0" /></clipPath><clipPath
       clipPathUnits="userSpaceOnUse"
       id="clipPath284"><path
         d="m 1798,4754 0,-2788 1503,0 0,2788 -1503,0 z m 333,-430 0,-2188 801,0 0,2188 -801,0 z"
         id="path286"
         inkscape:connector-curvature="0"
         style="clip-rule:evenodd" /></clipPath><clipPath
       clipPathUnits="userSpaceOnUse"
       id="clipPath298"><path
         d="m 2932,4244 3,0 0,-9 -3,0 0,9 z"
         id="path300"
         inkscape:connector-curvature="0" /></clipPath><clipPath
       clipPathUnits="userSpaceOnUse"
       id="clipPath322"><path
         d="m 2722,4334 36,0 0,-10 -36,0 0,10 z"
         id="path324"
         inkscape:connector-curvature="0" /></clipPath><clipPath
       clipPathUnits="userSpaceOnUse"
       id="clipPath332"><path
         d="m 2863,4334 52,0 0,-10 -52,0 0,10 z"
         id="path334"
         inkscape:connector-curvature="0" /></clipPath><clipPath
       clipPathUnits="userSpaceOnUse"
       id="clipPath344"><path
         d="m 2730,4466 177,0 0,-142 -177,0 0,142 z"
         id="path346"
         inkscape:connector-curvature="0" /></clipPath><clipPath
       clipPathUnits="userSpaceOnUse"
       id="clipPath354"><path
         d="m 2748,4448 141,0 0,-124 -141,0 0,124 z"
         id="path356"
         inkscape:connector-curvature="0" /></clipPath><clipPath
       clipPathUnits="userSpaceOnUse"
       id="clipPath388"><path
         d="m 2932,3647 25,0 0,-7 -25,0 0,7 z"
         id="path390"
         inkscape:connector-curvature="0" /></clipPath><clipPath
       clipPathUnits="userSpaceOnUse"
       id="clipPath404"><path
         d="m 2932,3587 25,0 0,-7 -25,0 0,7 z"
         id="path406"
         inkscape:connector-curvature="0" /></clipPath><clipPath
       clipPathUnits="userSpaceOnUse"
       id="clipPath416"><path
         d="m 2126,3347 5,0 0,-22 -5,0 0,22 z"
         id="path418"
         inkscape:connector-curvature="0" /></clipPath><clipPath
       clipPathUnits="userSpaceOnUse"
       id="clipPath426"><path
         d="m 2126,3377 5,0 0,-37 -5,0 0,37 z"
         id="path428"
         inkscape:connector-curvature="0" /></clipPath><clipPath
       clipPathUnits="userSpaceOnUse"
       id="clipPath436"><path
         d="m 2126,3392 5,0 0,-22 -5,0 0,22 z"
         id="path438"
         inkscape:connector-curvature="0" /></clipPath><clipPath
       clipPathUnits="userSpaceOnUse"
       id="clipPath446"><path
         d="m 2126,3407 5,0 0,-22 -5,0 0,22 z"
         id="path448"
         inkscape:connector-curvature="0" /></clipPath><clipPath
       clipPathUnits="userSpaceOnUse"
       id="clipPath456"><path
         d="m 2126,3437 5,0 0,-37 -5,0 0,37 z"
         id="path458"
         inkscape:connector-curvature="0" /></clipPath><clipPath
       clipPathUnits="userSpaceOnUse"
       id="clipPath466"><path
         d="m 2126,3452 5,0 0,-22 -5,0 0,22 z"
         id="path468"
         inkscape:connector-curvature="0" /></clipPath><clipPath
       clipPathUnits="userSpaceOnUse"
       id="clipPath476"><path
         d="m 2126,3467 5,0 0,-22 -5,0 0,22 z"
         id="path478"
         inkscape:connector-curvature="0" /></clipPath><clipPath
       clipPathUnits="userSpaceOnUse"
       id="clipPath486"><path
         d="m 2126,3497 5,0 0,-37 -5,0 0,37 z"
         id="path488"
         inkscape:connector-curvature="0" /></clipPath><clipPath
       clipPathUnits="userSpaceOnUse"
       id="clipPath496"><path
         d="m 2126,3512 5,0 0,-22 -5,0 0,22 z"
         id="path498"
         inkscape:connector-curvature="0" /></clipPath><clipPath
       clipPathUnits="userSpaceOnUse"
       id="clipPath506"><path
         d="m 2126,3527 5,0 0,-22 -5,0 0,22 z"
         id="path508"
         inkscape:connector-curvature="0" /></clipPath><clipPath
       clipPathUnits="userSpaceOnUse"
       id="clipPath516"><path
         d="m 2126,3557 5,0 0,-37 -5,0 0,37 z"
         id="path518"
         inkscape:connector-curvature="0" /></clipPath><clipPath
       clipPathUnits="userSpaceOnUse"
       id="clipPath526"><path
         d="m 2126,3572 5,0 0,-22 -5,0 0,22 z"
         id="path528"
         inkscape:connector-curvature="0" /></clipPath><clipPath
       clipPathUnits="userSpaceOnUse"
       id="clipPath536"><path
         d="m 2126,3587 5,0 0,-22 -5,0 0,22 z"
         id="path538"
         inkscape:connector-curvature="0" /></clipPath><clipPath
       clipPathUnits="userSpaceOnUse"
       id="clipPath546"><path
         d="m 2126,3617 5,0 0,-37 -5,0 0,37 z"
         id="path548"
         inkscape:connector-curvature="0" /></clipPath><clipPath
       clipPathUnits="userSpaceOnUse"
       id="clipPath556"><path
         d="m 2126,3632 5,0 0,-22 -5,0 0,22 z"
         id="path558"
         inkscape:connector-curvature="0" /></clipPath><clipPath
       clipPathUnits="userSpaceOnUse"
       id="clipPath566"><path
         d="m 2122,3312 9,0 0,-15 -9,0 0,15 z"
         id="path568"
         inkscape:connector-curvature="0" /></clipPath><clipPath
       clipPathUnits="userSpaceOnUse"
       id="clipPath576"><path
         d="m 2676,4341 39,0 0,-17 -39,0 0,17 z"
         id="path578"
         inkscape:connector-curvature="0" /></clipPath><clipPath
       clipPathUnits="userSpaceOnUse"
       id="clipPath590"><path
         d="m 2841,4341 39,0 0,-17 -39,0 0,17 z"
         id="path592"
         inkscape:connector-curvature="0" /></clipPath><clipPath
       clipPathUnits="userSpaceOnUse"
       id="clipPath604"><path
         d="m 2932,3949 312,0 0,-47 -312,0 0,47 z"
         id="path606"
         inkscape:connector-curvature="0" /></clipPath><clipPath
       clipPathUnits="userSpaceOnUse"
       id="clipPath618"><path
         d="m 2092,3624 39,0 0,-47 -39,0 0,47 z"
         id="path620"
         inkscape:connector-curvature="0" /></clipPath><clipPath
       clipPathUnits="userSpaceOnUse"
       id="clipPath632"><path
         d="m 2932,3620 13,0 0,-47 -13,0 0,47 z"
         id="path634"
         inkscape:connector-curvature="0" /></clipPath><clipPath
       clipPathUnits="userSpaceOnUse"
       id="clipPath646"><path
         d="m 2932,4009 312,0 0,-47 -312,0 0,47 z"
         id="path648"
         inkscape:connector-curvature="0" /></clipPath><clipPath
       clipPathUnits="userSpaceOnUse"
       id="clipPath660"><path
         d="m 2751,2136 47,0 0,-15 -47,0 0,15 z"
         id="path662"
         inkscape:connector-curvature="0" /></clipPath><clipPath
       clipPathUnits="userSpaceOnUse"
       id="clipPath674"><path
         d="m 2414,4407 49,0 0,-83 -49,0 0,83 z"
         id="path676"
         inkscape:connector-curvature="0" /></clipPath><clipPath
       clipPathUnits="userSpaceOnUse"
       id="clipPath692"><path
         d="m 2932,3651 26,0 0,-75 -26,0 0,75 z"
         id="path694"
         inkscape:connector-curvature="0" /></clipPath><clipPath
       clipPathUnits="userSpaceOnUse"
       id="clipPath702"><path
         d="m 2932,3626 19,0 0,-25 -19,0 0,25 z"
         id="path704"
         inkscape:connector-curvature="0" /></clipPath><clipPath
       clipPathUnits="userSpaceOnUse"
       id="clipPath712"><path
         d="m 2932,3629 22,0 0,-31 -22,0 0,31 z"
         id="path714"
         inkscape:connector-curvature="0" /></clipPath><clipPath
       clipPathUnits="userSpaceOnUse"
       id="clipPath738"><path
         d="m 2932,3936 30,0 0,-75 -30,0 0,75 z"
         id="path740"
         inkscape:connector-curvature="0" /></clipPath><clipPath
       clipPathUnits="userSpaceOnUse"
       id="clipPath748"><path
         d="m 2932,3938 32,0 0,-79 -32,0 0,79 z"
         id="path750"
         inkscape:connector-curvature="0" /></clipPath><clipPath
       clipPathUnits="userSpaceOnUse"
       id="clipPath758"><path
         d="m 2932,3924 18,0 0,-51 -18,0 0,51 z"
         id="path760"
         inkscape:connector-curvature="0" /></clipPath><clipPath
       clipPathUnits="userSpaceOnUse"
       id="clipPath768"><path
         d="m 2932,3927 21,0 0,-57 -21,0 0,57 z"
         id="path770"
         inkscape:connector-curvature="0" /></clipPath><clipPath
       clipPathUnits="userSpaceOnUse"
       id="clipPath794"><path
         d="m 2599,4335 19,0 0,-11 -19,0 0,11 z"
         id="path796"
         inkscape:connector-curvature="0" /></clipPath><clipPath
       clipPathUnits="userSpaceOnUse"
       id="clipPath804"><path
         d="m 2597,4337 23,0 0,-13 -23,0 0,13 z"
         id="path806"
         inkscape:connector-curvature="0" /></clipPath><clipPath
       clipPathUnits="userSpaceOnUse"
       id="clipPath814"><path
         d="m 2604,4330 9,0 0,-6 -9,0 0,6 z"
         id="path816"
         inkscape:connector-curvature="0" /></clipPath><clipPath
       clipPathUnits="userSpaceOnUse"
       id="clipPath824"><path
         d="m 2601,4333 15,0 0,-9 -15,0 0,9 z"
         id="path826"
         inkscape:connector-curvature="0" /></clipPath></defs><sodipodi:namedview
     pagecolor="#ffffff"
     bordercolor="#666666"
     borderopacity="1"
     objecttolerance="10"
     gridtolerance="10"
     guidetolerance="10"
     inkscape:pageopacity="0"
     inkscape:pageshadow="2"
     inkscape:window-width="1536"
     inkscape:window-height="801"
     id="namedview4"
     showgrid="false"
     inkscape:zoom="3.6226723"
     inkscape:cx="390.40994"
     inkscape:cy="669.13171"
     inkscape:window-x="-8"
     inkscape:window-y="-8"
     inkscape:window-maximized="1"
     inkscape:current-layer="g10" /><g
     id="g10"
     inkscape:groupmode="layer"
     inkscape:label="panel"
     transform="matrix(1.25,0,0,-1.25,0,990)"><g
       id="g6594"><path
         d="m 349.18967,525.32511 c 0,-6.05916 -5.0054,-11.06456 -11.06456,-11.06456 -6.05916,0 -11.06456,5.0054 -11.06456,11.06456 0,6.05916 5.0054,11.06455 11.06456,11.06455 6.05916,0 11.06456,-5.00539 11.06456,-11.06455 z"
         style="fill:none;stroke:#0000ff;stroke-width:0.072;stroke-linecap:round;stroke-linejoin:round;stroke-miterlimit:5.66666651;stroke-dasharray:none;stroke-opacity:1"
         id="path348"
         inkscape:connector-curvature="0" /><path
         d="m 284.63842,525.32511 c 0,-6.05916 -5.0054,-11.06456 -11.06456,-11.06456 -6.05916,0 -11.06456,5.0054 -11.06456,11.06456 0,6.05916 5.0054,11.06455 11.06456,11.06455 6.05916,0 11.06456,-5.00539 11.06456,-11.06455 z"
         style="fill:none;stroke:#0000ff;stroke-width:0.072;stroke-linecap:round;stroke-linejoin:round;stroke-miterlimit:5.66666651;stroke-dasharray:none;stroke-opacity:1"
         id="path348-2"
         inkscape:connector-curvature="0" /><path
         d="m 349.18967,467.72511 c 0,-6.05916 -5.0054,-11.06456 -11.06456,-11.06456 -6.05916,0 -11.06456,5.0054 -11.06456,11.06456 0,6.05916 5.0054,11.06455 11.06456,11.06455 6.05916,0 11.06456,-5.00539 11.06456,-11.06455 z"
         style="fill:none;stroke:#0000ff;stroke-width:0.072;stroke-linecap:round;stroke-linejoin:round;stroke-miterlimit:5.66666651;stroke-dasharray:none;stroke-opacity:1"
         id="path348-29"
         inkscape:connector-curvature="0" /><path
         d="m 284.63842,467.72511 c 0,-6.05916 -5.0054,-11.06456 -11.06456,-11.06456 -6.05916,0 -11.06456,5.0054 -11.06456,11.06456 0,6.05916 5.0054,11.06455 11.06456,11.06455 6.05916,0 11.06456,-5.00539 11.06456,-11.06455 z"
         style="fill:none;stroke:#0000ff;stroke-width:0.072;stroke-linecap:round;stroke-linejoin:round;stroke-miterlimit:5.66666651;stroke-dasharray:none;stroke-opacity:1"
         id="path348-2-3"
         inkscape:connector-curvature="0" /><polyline
         transform="matrix(0.00719999,0,0,-0.00719999,-14.610412,835.05711)"
         style="fill:none;fill-opacity:1;fill-rule:evenodd;stroke:#0000ff;stroke-width:10.00001389;stroke-linecap:round;stroke-linejoin:round;stroke-miterlimit:5.66666651;stroke-dasharray:none;stroke-opacity:1"
         points="39907,71156 39907,71156 39907,71156 40161,71262 40161,71262 40390,71414 40585,71609 40585,71609 40737,71838 40819,72034 40843,72092 40896,72362 40896,72637 40843,72907 40843,72907 40737,73161 40737,73161 40585,73390 40390,73585 40390,73585 40161,73737 39965,73819 39907,73843 39637,73896 39362,73896 39092,73843 39034,73819 38838,73737 38609,73585 38609,73585 38414,73390 38262,73161 38262,73161 38156,72907 38156,72907 38103,72637 38103,72362 38156,72092 38180,72034 38262,71838 38414,71609 38414,71609 38609,71414 38838,71262 38838,71262 39092,71156 39092,71156 39092,71156 39362,71103 39637,71103 39907,71156 "
         id="polyline38" /><polyline
         transform="matrix(0.00719999,0,0,-0.00719999,21.428573,835.05711)"
         style="fill:none;fill-opacity:1;fill-rule:evenodd;stroke:#0000ff;stroke-width:10.00001389;stroke-linecap:round;stroke-linejoin:round;stroke-miterlimit:5.66666651;stroke-dasharray:none;stroke-opacity:1"
         points="39907,71156 39907,71156 39907,71156 40161,71262 40161,71262 40390,71414 40585,71609 40585,71609 40737,71838 40819,72034 40843,72092 40896,72362 40896,72637 40843,72907 40843,72907 40737,73161 40737,73161 40585,73390 40390,73585 40390,73585 40161,73737 39965,73819 39907,73843 39637,73896 39362,73896 39092,73843 39034,73819 38838,73737 38609,73585 38609,73585 38414,73390 38262,73161 38262,73161 38156,72907 38156,72907 38103,72637 38103,72362 38156,72092 38180,72034 38262,71838 38414,71609 38414,71609 38609,71414 38838,71262 38838,71262 39092,71156 39092,71156 39092,71156 39362,71103 39637,71103 39907,71156 "
         id="polyline38-4" /><polyline
         transform="matrix(0.00719999,0,0,-0.00719999,57.467557,835.05711)"
         style="fill:none;fill-opacity:1;fill-rule:evenodd;stroke:#0000ff;stroke-width:10.00001389;stroke-linecap:round;stroke-linejoin:round;stroke-miterlimit:5.66666651;stroke-dasharray:none;stroke-opacity:1"
         points="39907,71156 39907,71156 39907,71156 40161,71262 40161,71262 40390,71414 40585,71609 40585,71609 40737,71838 40819,72034 40843,72092 40896,72362 40896,72637 40843,72907 40843,72907 40737,73161 40737,73161 40585,73390 40390,73585 40390,73585 40161,73737 39965,73819 39907,73843 39637,73896 39362,73896 39092,73843 39034,73819 38838,73737 38609,73585 38609,73585 38414,73390 38262,73161 38262,73161 38156,72907 38156,72907 38103,72637 38103,72362 38156,72092 38180,72034 38262,71838 38414,71609 38414,71609 38609,71414 38838,71262 38838,71262 39092,71156 39092,71156 39092,71156 39362,71103 39637,71103 39907,71156 "
         id="polyline38-4-1" /><polyline
         transform="matrix(0.00719999,0,0,-0.00719999,-14.610411,795.47661)"
         style="fill:none;fill-opacity:1;fill-rule:evenodd;stroke:#0000ff;stroke-width:10.00001389;stroke-linecap:round;stroke-linejoin:round;stroke-miterlimit:5.66666651;stroke-dasharray:none;stroke-opacity:1"
         points="39907,71156 39907,71156 39907,71156 40161,71262 40161,71262 40390,71414 40585,71609 40585,71609 40737,71838 40819,72034 40843,72092 40896,72362 40896,72637 40843,72907 40843,72907 40737,73161 40737,73161 40585,73390 40390,73585 40390,73585 40161,73737 39965,73819 39907,73843 39637,73896 39362,73896 39092,73843 39034,73819 38838,73737 38609,73585 38609,73585 38414,73390 38262,73161 38262,73161 38156,72907 38156,72907 38103,72637 38103,72362 38156,72092 38180,72034 38262,71838 38414,71609 38414,71609 38609,71414 38838,71262 38838,71262 39092,71156 39092,71156 39092,71156 39362,71103 39637,71103 39907,71156 "
         id="polyline38-2" /><polyline
         transform="matrix(0.00719999,0,0,-0.00719999,21.428579,795.47661)"
         style="fill:none;fill-opacity:1;fill-rule:evenodd;stroke:#0000ff;stroke-width:10.00001389;stroke-linecap:round;stroke-linejoin:round;stroke-miterlimit:5.66666651;stroke-dasharray:none;stroke-opacity:1"
         points="39907,71156 39907,71156 39907,71156 40161,71262 40161,71262 40390,71414 40585,71609 40585,71609 40737,71838 40819,72034 40843,72092 40896,72362 40896,72637 40843,72907 40843,72907 40737,73161 40737,73161 40585,73390 40390,73585 40390,73585 40161,73737 39965,73819 39907,73843 39637,73896 39362,73896 39092,73843 39034,73819 38838,73737 38609,73585 38609,73585 38414,73390 38262,73161 38262,73161 38156,72907 38156,72907 38103,72637 38103,72362 38156,72092 38180,72034 38262,71838 38414,71609 38414,71609 38609,71414 38838,71262 38838,71262 39092,71156 39092,71156 39092,71156 39362,71103 39637,71103 39907,71156 "
         id="polyline38-4-14" /><polyline
         transform="matrix(0.00719999,0,0,-0.00719999,57.467559,795.47661)"
         style="fill:none;fill-opacity:1;fill-rule:evenodd;stroke:#0000ff;stroke-width:10.00001389;stroke-linecap:round;stroke-linejoin:round;stroke-miterlimit:5.66666651;stroke-dasharray:none;stroke-opacity:1"
         points="39907,71156 39907,71156 39907,71156 40161,71262 40161,71262 40390,71414 40585,71609 40585,71609 40737,71838 40819,72034 40843,72092 40896,72362 40896,72637 40843,72907 40843,72907 40737,73161 40737,73161 40585,73390 40390,73585 40390,73585 40161,73737 39965,73819 39907,73843 39637,73896 39362,73896 39092,73843 39034,73819 38838,73737 38609,73585 38609,73585 38414,73390 38262,73161 38262,73161 38156,72907 38156,72907 38103,72637 38103,72362 38156,72092 38180,72034 38262,71838 38414,71609 38414,71609 38609,71414 38838,71262 38838,71262 39092,71156 39092,71156 39092,71156 39362,71103 39637,71103 39907,71156 "
         id="polyline38-4-1-0" /><polyline
         transform="matrix(0.00719999,0,0,-0.00719999,-14.610411,874.63761)"
         style="fill:none;fill-opacity:1;fill-rule:evenodd;stroke:#0000ff;stroke-width:10.00001389;stroke-linecap:round;stroke-linejoin:round;stroke-miterlimit:5.66666651;stroke-dasharray:none;stroke-opacity:1"
         points="39907,71156 39907,71156 39907,71156 40161,71262 40161,71262 40390,71414 40585,71609 40585,71609 40737,71838 40819,72034 40843,72092 40896,72362 40896,72637 40843,72907 40843,72907 40737,73161 40737,73161 40585,73390 40390,73585 40390,73585 40161,73737 39965,73819 39907,73843 39637,73896 39362,73896 39092,73843 39034,73819 38838,73737 38609,73585 38609,73585 38414,73390 38262,73161 38262,73161 38156,72907 38156,72907 38103,72637 38103,72362 38156,72092 38180,72034 38262,71838 38414,71609 38414,71609 38609,71414 38838,71262 38838,71262 39092,71156 39092,71156 39092,71156 39362,71103 39637,71103 39907,71156 "
         id="polyline38-5" /><polyline
         transform="matrix(0.00719999,0,0,-0.00719999,21.428579,877.83761)"
         style="fill:none;fill-opacity:1;fill-rule:evenodd;stroke:#0000ff;stroke-width:10.00001389;stroke-linecap:round;stroke-linejoin:round;stroke-miterlimit:5.66666651;stroke-dasharray:none;stroke-opacity:1"
         points="39907,71156 39907,71156 39907,71156 40161,71262 40161,71262 40390,71414 40585,71609 40585,71609 40737,71838 40819,72034 40843,72092 40896,72362 40896,72637 40843,72907 40843,72907 40737,73161 40737,73161 40585,73390 40390,73585 40390,73585 40161,73737 39965,73819 39907,73843 39637,73896 39362,73896 39092,73843 39034,73819 38838,73737 38609,73585 38609,73585 38414,73390 38262,73161 38262,73161 38156,72907 38156,72907 38103,72637 38103,72362 38156,72092 38180,72034 38262,71838 38414,71609 38414,71609 38609,71414 38838,71262 38838,71262 39092,71156 39092,71156 39092,71156 39362,71103 39637,71103 39907,71156 "
         id="polyline38-4-0" /><polyline
         transform="matrix(0.00719999,0,0,-0.00719999,57.467559,874.63761)"
         style="fill:none;fill-opacity:1;fill-rule:evenodd;stroke:#0000ff;stroke-width:10.00001389;stroke-linecap:round;stroke-linejoin:round;stroke-miterlimit:5.66666651;stroke-dasharray:none;stroke-opacity:1"
         points="39907,71156 39907,71156 39907,71156 40161,71262 40161,71262 40390,71414 40585,71609 40585,71609 40737,71838 40819,72034 40843,72092 40896,72362 40896,72637 40843,72907 40843,72907 40737,73161 40737,73161 40585,73390 40390,73585 40390,73585 40161,73737 39965,73819 39907,73843 39637,73896 39362,73896 39092,73843 39034,73819 38838,73737 38609,73585 38609,73585 38414,73390 38262,73161 38262,73161 38156,72907 38156,72907 38103,72637 38103,72362 38156,72092 38180,72034 38262,71838 38414,71609 38414,71609 38609,71414 38838,71262 38838,71262 39092,71156 39092,71156 39092,71156 39362,71103 39637,71103 39907,71156 "
         id="polyline38-4-1-6" /><polyline
         transform="matrix(0.00339781,0,0,-0.00335423,171.7036,624.73538)"
         style="fill:none;fill-opacity:1;fill-rule:evenodd;stroke:#0000ff;stroke-width:21.32733211;stroke-linecap:round;stroke-linejoin:round;stroke-miterlimit:5.66666651;stroke-dasharray:none;stroke-opacity:1"
         points="39907,71156 39907,71156 39907,71156 40161,71262 40161,71262 40390,71414 40585,71609 40585,71609 40737,71838 40819,72034 40843,72092 40896,72362 40896,72637 40843,72907 40843,72907 40737,73161 40737,73161 40585,73390 40390,73585 40390,73585 40161,73737 39965,73819 39907,73843 39637,73896 39362,73896 39092,73843 39034,73819 38838,73737 38609,73585 38609,73585 38414,73390 38262,73161 38262,73161 38156,72907 38156,72907 38103,72637 38103,72362 38156,72092 38180,72034 38262,71838 38414,71609 38414,71609 38609,71414 38838,71262 38838,71262 39092,71156 39092,71156 39092,71156 39362,71103 39637,71103 39907,71156 "
         id="polyline38-4-1-6-3-8" /><polyline
         transform="matrix(0.00339781,0,0,-0.00335423,135.78692,624.73538)"
         style="fill:none;fill-opacity:1;fill-rule:evenodd;stroke:#0000ff;stroke-width:21.32733211;stroke-linecap:round;stroke-linejoin:round;stroke-miterlimit:5.66666651;stroke-dasharray:none;stroke-opacity:1"
         points="39907,71156 39907,71156 39907,71156 40161,71262 40161,71262 40390,71414 40585,71609 40585,71609 40737,71838 40819,72034 40843,72092 40896,72362 40896,72637 40843,72907 40843,72907 40737,73161 40737,73161 40585,73390 40390,73585 40390,73585 40161,73737 39965,73819 39907,73843 39637,73896 39362,73896 39092,73843 39034,73819 38838,73737 38609,73585 38609,73585 38414,73390 38262,73161 38262,73161 38156,72907 38156,72907 38103,72637 38103,72362 38156,72092 38180,72034 38262,71838 38414,71609 38414,71609 38609,71414 38838,71262 38838,71262 39092,71156 39092,71156 39092,71156 39362,71103 39637,71103 39907,71156 "
         id="polyline38-4-1-6-3-8-4" /><text
         transform="scale(1,-1)"
         sodipodi:linespacing="125%"
         id="text5670"
         y="-499.0791"
         x="337.65128"
         style="font-style:normal;font-weight:normal;font-size:13px;line-height:125%;font-family:sans-serif;text-align:center;letter-spacing:0px;word-spacing:0px;text-anchor:middle;fill:#ff0000;fill-opacity:1;stroke:none;stroke-width:1px;stroke-linecap:butt;stroke-linejoin:miter;stroke-opacity:1"
         xml:space="preserve"><tspan
           style="font-style:normal;font-variant:normal;font-weight:normal;font-stretch:condensed;font-size:10px;line-height:80.00000119%;font-family:'Roboto Condensed';-inkscape-font-specification:'Roboto Condensed, Condensed';fill:#ff0000;fill-opacity:1"
           y="-499.0791"
           x="337.65128"
           id="tspan5672"
           sodipodi:role="line">div</tspan><tspan
           style="font-style:normal;font-variant:normal;font-weight:normal;font-stretch:condensed;font-size:10px;line-height:80.00000119%;font-family:'Roboto Condensed';-inkscape-font-specification:'Roboto Condensed, Condensed';fill:#ff0000;fill-opacity:1"
           id="tspan5674"
           y="-491.0791"
           x="337.65128"
           sodipodi:role="line">man</tspan></text>
<text
         transform="scale(1,-1)"
         sodipodi:linespacing="125%"
         id="text5670-5"
         y="-499.0791"
         x="272.93433"
         style="font-style:normal;font-weight:normal;font-size:13px;line-height:125%;font-family:sans-serif;text-align:center;letter-spacing:0px;word-spacing:0px;text-anchor:middle;fill:#ff0000;fill-opacity:1;stroke:none;stroke-width:1px;stroke-linecap:butt;stroke-linejoin:miter;stroke-opacity:1"
         xml:space="preserve"><tspan
           style="font-style:normal;font-variant:normal;font-weight:normal;font-stretch:condensed;font-size:10px;line-height:80.00000119%;font-family:'Roboto Condensed';-inkscape-font-specification:'Roboto Condensed, Condensed';fill:#ff0000;fill-opacity:1"
           y="-499.0791"
           x="272.93433"
           id="tspan5672-3"
           sodipodi:role="line">del</tspan><tspan
           style="font-style:normal;font-variant:normal;font-weight:normal;font-stretch:condensed;font-size:10px;line-height:80.00000119%;font-family:'Roboto Condensed';-inkscape-font-specification:'Roboto Condensed, Condensed';fill:#ff0000;fill-opacity:1"
           id="tspan5674-0"
           y="-491.0791"
           x="272.93433"
           sodipodi:role="line">man</tspan></text>
<text
         transform="scale(1,-1)"
         sodipodi:linespacing="125%"
         id="text5670-1"
         y="-441.47888"
         x="337.65128"
         style="font-style:normal;font-weight:normal;font-size:13px;line-height:125%;font-family:sans-serif;text-align:center;letter-spacing:0px;word-spacing:0px;text-anchor:middle;fill:#ff0000;fill-opacity:1;stroke:none;stroke-width:1px;stroke-linecap:butt;stroke-linejoin:miter;stroke-opacity:1"
         xml:space="preserve"><tspan
           style="font-style:normal;font-variant:normal;font-weight:normal;font-stretch:condensed;font-size:10px;line-height:80.00000119%;font-family:'Roboto Condensed';-inkscape-font-specification:'Roboto Condensed, Condensed';fill:#ff0000;fill-opacity:1"
           y="-441.47888"
           x="337.65128"
           id="tspan5672-8"
           sodipodi:role="line">div</tspan><tspan
           style="font-style:normal;font-variant:normal;font-weight:normal;font-stretch:condensed;font-size:10px;line-height:80.00000119%;font-family:'Roboto Condensed';-inkscape-font-specification:'Roboto Condensed, Condensed';fill:#ff0000;fill-opacity:1"
           id="tspan5674-2"
           y="-433.47888"
           x="337.65128"
           sodipodi:role="line">cv in</tspan></text>
<text
         transform="scale(1,-1)"
         sodipodi:linespacing="125%"
         id="text5670-5-6"
         y="-441.47888"
         x="272.93433"
         style="font-style:normal;font-weight:normal;font-size:13px;line-height:125%;font-family:sans-serif;text-align:center;letter-spacing:0px;word-spacing:0px;text-anchor:middle;fill:#ff0000;fill-opacity:1;stroke:none;stroke-width:1px;stroke-linecap:butt;stroke-linejoin:miter;stroke-opacity:1"
         xml:space="preserve"><tspan
           style="font-style:normal;font-variant:normal;font-weight:normal;font-stretch:condensed;font-size:10px;line-height:80.00000119%;font-family:'Roboto Condensed';-inkscape-font-specification:'Roboto Condensed, Condensed';fill:#ff0000;fill-opacity:1"
           y="-441.47888"
           x="272.93433"
           id="tspan5672-3-1"
           sodipodi:role="line">del</tspan><tspan
           style="font-style:normal;font-variant:normal;font-weight:normal;font-stretch:condensed;font-size:10px;line-height:80.00000119%;font-family:'Roboto Condensed';-inkscape-font-specification:'Roboto Condensed, Condensed';fill:#ff0000;fill-opacity:1"
           id="tspan5674-0-1"
           y="-433.47888"
           x="272.93433"
           sodipodi:role="line">cv in</tspan></text>
<path
         inkscape:connector-curvature="0"
         id="path414"
         style="fill:none;stroke:#0000ff;stroke-width:0.072;stroke-linecap:round;stroke-linejoin:round;stroke-miterlimit:5.66666651;stroke-dasharray:none;stroke-opacity:1;fill-opacity:1"
         d="m 363.02963,216.54185 -114.241,0 0,364.262 114.241,0 0,-364.262 z" /><polyline
         transform="matrix(0.00719999,0,0,-0.00719999,89.943911,1139.3079)"
         style="fill:none;fill-opacity:1;fill-rule:evenodd;stroke:#0000ff;stroke-width:10.00001389;stroke-linecap:round;stroke-linejoin:round;stroke-miterlimit:5.66666651;stroke-dasharray:none;stroke-opacity:1"
         points="25786,77940 25786,77940 25941,77987 25941,77987 26083,78063 26208,78166 26311,78291 26387,78433 26434,78588 26450,78750 26434,78911 26387,79066 26311,79208 26208,79333 26083,79436 26083,79436 25941,79512 25814,79551 25786,79559 25665,79571 24334,79571 24213,79559 24185,79551 24058,79512 23916,79436 23916,79436 23791,79333 23688,79208 23612,79066 23565,78911 23549,78750 23565,78588 23612,78433 23688,78291 23791,78166 23916,78063 24058,77987 24058,77987 24213,77940 24213,77940 24334,77928 25665,77928 25786,77940 "
         id="polyline26" /><polyline
         transform="matrix(0.00719999,0,0,-0.00719999,89.943907,792.0694)"
         style="fill:none;fill-opacity:1;fill-rule:evenodd;stroke:#0000ff;stroke-width:10.00001389;stroke-linecap:round;stroke-linejoin:round;stroke-miterlimit:5.66666651;stroke-dasharray:none;stroke-opacity:1"
         points="25786,77940 25786,77940 25941,77987 25941,77987 26083,78063 26208,78166 26311,78291 26387,78433 26434,78588 26450,78750 26434,78911 26387,79066 26311,79208 26208,79333 26083,79436 26083,79436 25941,79512 25814,79551 25786,79559 25665,79571 24334,79571 24213,79559 24185,79551 24058,79512 23916,79436 23916,79436 23791,79333 23688,79208 23612,79066 23565,78911 23549,78750 23565,78588 23612,78433 23688,78291 23791,78166 23916,78063 24058,77987 24058,77987 24213,77940 24213,77940 24334,77928 25665,77928 25786,77940 "
         id="polyline26-8" /><text
         transform="scale(1,-1)"
         sodipodi:linespacing="125%"
         id="text5670-6-2"
         y="-251.54663"
         x="305.96347"
         style="font-style:normal;font-weight:normal;font-size:13px;line-height:125%;font-family:sans-serif;text-align:center;letter-spacing:0px;word-spacing:0px;text-anchor:middle;fill:#ff0000;fill-opacity:1;stroke:none;stroke-width:1px;stroke-linecap:butt;stroke-linejoin:miter;stroke-opacity:1"
         xml:space="preserve"><tspan
           style="font-style:normal;font-variant:normal;font-weight:normal;font-stretch:condensed;font-size:10px;line-height:80.00000119%;font-family:'Roboto Condensed';-inkscape-font-specification:'Roboto Condensed, Condensed';fill:#ff0000;fill-opacity:1"
           id="tspan5674-05-1"
           y="-251.54663"
           x="305.96347"
           sodipodi:role="line">clk thru</tspan></text>
<text
         transform="scale(1,-1)"
         sodipodi:linespacing="125%"
         id="text5670-6-2-7"
         y="-291.12662"
         x="305.96347"
         style="font-style:normal;font-weight:normal;font-size:13px;line-height:125%;font-family:sans-serif;text-align:center;letter-spacing:0px;word-spacing:0px;text-anchor:middle;fill:#ff0000;fill-opacity:1;stroke:none;stroke-width:1px;stroke-linecap:butt;stroke-linejoin:miter;stroke-opacity:1"
         xml:space="preserve"><tspan
           style="font-style:normal;font-variant:normal;font-weight:normal;font-stretch:condensed;font-size:10px;line-height:80.00000119%;font-family:'Roboto Condensed';-inkscape-font-specification:'Roboto Condensed, Condensed';fill:#ff0000;fill-opacity:1"
           id="tspan5674-05-1-9"
           y="-291.12662"
           x="305.96347"
           sodipodi:role="line">cmb out</tspan></text>
<g
         transform="translate(-71.823898,0)"
         id="g5893"><text
           xml:space="preserve"
           style="font-style:normal;font-weight:normal;font-size:13px;line-height:125%;font-family:sans-serif;text-align:center;letter-spacing:0px;word-spacing:0px;text-anchor:middle;fill:#ff0000;fill-opacity:1;stroke:none;stroke-width:1px;stroke-linecap:butt;stroke-linejoin:miter;stroke-opacity:1"
           x="341.82666"
           y="-251.54663"
           id="text5670-6"
           sodipodi:linespacing="125%"
           transform="scale(1,-1)"><tspan
             sodipodi:role="line"
             x="341.82666"
             y="-251.54663"
             id="tspan5674-05"
             style="font-style:normal;font-variant:normal;font-weight:normal;font-stretch:condensed;font-size:10px;line-height:80.00000119%;font-family:'Roboto Condensed';-inkscape-font-specification:'Roboto Condensed, Condensed';fill:#ff0000;fill-opacity:1">rst in</tspan></text>
<text
           xml:space="preserve"
           style="font-style:normal;font-weight:normal;font-size:13px;line-height:125%;font-family:sans-serif;text-align:center;letter-spacing:0px;word-spacing:0px;text-anchor:middle;fill:#ff0000;fill-opacity:1;stroke:none;stroke-width:1px;stroke-linecap:butt;stroke-linejoin:miter;stroke-opacity:1"
           x="341.82666"
           y="-291.12662"
           id="text5670-6-4"
           sodipodi:linespacing="125%"
           transform="scale(1,-1)"><tspan
             sodipodi:role="line"
             x="341.82666"
             y="-291.12662"
             id="tspan5674-05-9"
             style="font-style:normal;font-variant:normal;font-weight:normal;font-stretch:condensed;font-size:10px;line-height:80.00000119%;font-family:'Roboto Condensed';-inkscape-font-specification:'Roboto Condensed, Condensed';fill:#ff0000;fill-opacity:1">div out</tspan></text>
<text
           xml:space="preserve"
           style="font-style:normal;font-weight:normal;font-size:13px;line-height:125%;font-family:sans-serif;text-align:center;letter-spacing:0px;word-spacing:0px;text-anchor:middle;fill:#ff0000;fill-opacity:1;stroke:none;stroke-width:1px;stroke-linecap:butt;stroke-linejoin:miter;stroke-opacity:1"
           x="341.82666"
           y="-330.7066"
           id="text5670-6-4-8"
           sodipodi:linespacing="125%"
           transform="scale(1,-1)"><tspan
             sodipodi:role="line"
             x="341.82666"
             y="-330.7066"
             id="tspan5674-05-9-0"
             style="font-style:normal;font-variant:normal;font-weight:normal;font-stretch:condensed;font-size:10px;line-height:80.00000119%;font-family:'Roboto Condensed';-inkscape-font-specification:'Roboto Condensed, Condensed';fill:#ff0000;fill-opacity:1">div in</tspan></text>
</g><g
         transform="translate(71.824138,0)"
         id="g5885"><text
           xml:space="preserve"
           style="font-style:normal;font-weight:normal;font-size:13px;line-height:125%;font-family:sans-serif;text-align:center;letter-spacing:0px;word-spacing:0px;text-anchor:middle;fill:#ff0000;fill-opacity:1;stroke:none;stroke-width:1px;stroke-linecap:butt;stroke-linejoin:miter;stroke-opacity:1"
           x="270.10028"
           y="-251.54663"
           id="text5670-6-2-2"
           sodipodi:linespacing="125%"
           transform="scale(1,-1)"><tspan
             sodipodi:role="line"
             x="270.10028"
             y="-251.54663"
             id="tspan5674-05-1-1"
             style="font-style:normal;font-variant:normal;font-weight:normal;font-stretch:condensed;font-size:10px;line-height:80.00000119%;font-family:'Roboto Condensed';-inkscape-font-specification:'Roboto Condensed, Condensed';fill:#ff0000;fill-opacity:1">clk in</tspan></text>
<text
           xml:space="preserve"
           style="font-style:normal;font-weight:normal;font-size:13px;line-height:125%;font-family:sans-serif;text-align:center;letter-spacing:0px;word-spacing:0px;text-anchor:middle;fill:#ff0000;fill-opacity:1;stroke:none;stroke-width:1px;stroke-linecap:butt;stroke-linejoin:miter;stroke-opacity:1"
           x="270.10028"
           y="-291.12662"
           id="text5670-6-2-2-7"
           sodipodi:linespacing="125%"
           transform="scale(1,-1)"><tspan
             sodipodi:role="line"
             x="270.10028"
             y="-291.12662"
             id="tspan5674-05-1-1-0"
             style="font-style:normal;font-variant:normal;font-weight:normal;font-stretch:condensed;font-size:10px;line-height:80.00000119%;font-family:'Roboto Condensed';-inkscape-font-specification:'Roboto Condensed, Condensed';fill:#ff0000;fill-opacity:1">del out</tspan></text>
<text
           xml:space="preserve"
           style="font-style:normal;font-weight:normal;font-size:13px;line-height:125%;font-family:sans-serif;text-align:center;letter-spacing:0px;word-spacing:0px;text-anchor:middle;fill:#ff0000;fill-opacity:1;stroke:none;stroke-width:1px;stroke-linecap:butt;stroke-linejoin:miter;stroke-opacity:1"
           x="270.10028"
           y="-330.7066"
           id="text5670-6-2-2-7-8"
           sodipodi:linespacing="125%"
           transform="scale(1,-1)"><tspan
             sodipodi:role="line"
             x="270.10028"
             y="-330.7066"
             id="tspan5674-05-1-1-0-5"
             style="font-style:normal;font-variant:normal;font-weight:normal;font-stretch:condensed;font-size:10px;line-height:80.00000119%;font-family:'Roboto Condensed';-inkscape-font-specification:'Roboto Condensed, Condensed';fill:#ff0000;fill-opacity:1">del in</tspan></text>
</g><polyline
         transform="matrix(0.00339781,0,0,-0.00335423,207.46708,624.73538)"
         style="fill:none;fill-opacity:1;fill-rule:evenodd;stroke:#0000ff;stroke-width:21.32733154;stroke-linecap:round;stroke-linejoin:round;stroke-miterlimit:5.66666651;stroke-dasharray:none;stroke-opacity:1"
         points="39907,71156 39907,71156 39907,71156 40161,71262 40161,71262 40390,71414 40585,71609 40585,71609 40737,71838 40819,72034 40843,72092 40896,72362 40896,72637 40843,72907 40843,72907 40737,73161 40737,73161 40585,73390 40390,73585 40390,73585 40161,73737 39965,73819 39907,73843 39637,73896 39362,73896 39092,73843 39034,73819 38838,73737 38609,73585 38609,73585 38414,73390 38262,73161 38262,73161 38156,72907 38156,72907 38103,72637 38103,72362 38156,72092 38180,72034 38262,71838 38414,71609 38414,71609 38609,71414 38838,71262 38838,71262 39092,71156 39092,71156 39092,71156 39362,71103 39637,71103 39907,71156 "
         id="polyline38-4-1-6-3-8-47" /><text
         transform="scale(1,-1)"
         sodipodi:linespacing="125%"
         id="text5916"
         y="-563.34106"
         x="325.0639"
         style="font-style:normal;font-weight:normal;font-size:13px;line-height:125%;font-family:sans-serif;text-align:center;letter-spacing:0px;word-spacing:0px;text-anchor:middle;fill:#ff0000;fill-opacity:1;stroke:none;stroke-width:1px;stroke-linecap:butt;stroke-linejoin:miter;stroke-opacity:1"
         xml:space="preserve"><tspan
           style="font-style:normal;font-variant:normal;font-weight:normal;font-stretch:condensed;font-size:18px;font-family:'Roboto Condensed';-inkscape-font-specification:'Roboto Condensed, Condensed';fill:#ff0000;fill-opacity:1"
           y="-563.34106"
           x="325.0639"
           id="tspan5918"
           sodipodi:role="line">Λόγοι</tspan></text>
<text
         transform="scale(1,-1)"
         sodipodi:linespacing="125%"
         id="text5981"
         y="-579.02008"
         x="394.40497"
         style="font-style:normal;font-weight:normal;font-size:13px;line-height:125%;font-family:sans-serif;text-align:center;letter-spacing:0px;word-spacing:0px;text-anchor:middle;fill:#000000;fill-opacity:1;stroke:none;stroke-width:1px;stroke-linecap:butt;stroke-linejoin:miter;stroke-opacity:1"
         xml:space="preserve"><tspan
           y="-579.02008"
           x="394.40497"
           id="tspan5983"
           sodipodi:role="line" /></text>
</g></g></svg>