M48
; DRILL file {KiCad 8.0.5} date 2024-11-11T16:03:33-0500
; FORMAT={-:-/ absolute / inch / decimal}
; #@! TF.CreationDate,2024-11-11T16:03:33-05:00
; #@! TF.GenerationSoftware,Kicad,Pcbnew,8.0.5
; #@! TF.FileFunction,Plated,1,2,PTH
FMAT,2
INCH
; #@! TA.AperFunction,Plated,PTH,ViaDrill
T1C0.0118
; #@! TA.AperFunction,Plated,PTH,ComponentDrill
T2C0.0354
; #@! TA.AperFunction,Plated,PTH,ComponentDrill
T3C0.0394
; #@! TA.AperFunction,Plated,PTH,ComponentDrill
T4C0.0433
; #@! TA.AperFunction,Plated,PTH,ComponentDrill
T5C0.0480
; #@! TA.AperFunction,Plated,PTH,ComponentDrill
T6C0.0559
; #@! TA.AperFunction,Plated,PTH,ComponentDrill
T7C0.0563
; #@! TA.AperFunction,Plated,PTH,ComponentDrill
T8C0.0591
%
G90
G05
T1
X0.8169Y-2.6772
X0.8346Y-2.3386
X0.8366Y-4.8622
X0.8366Y-5.0295
X0.8465Y-1.378
X0.8563Y-2.7165
X0.8661Y-2.126
X0.876Y-2.7657
X0.876Y-2.8346
X0.876Y-3.1791
X0.876Y-4.1634
X0.876Y-4.7047
X0.8957Y-3.3071
X0.9016Y-2.126
X0.9055Y-3.2185
X0.9134Y-1.4646
X0.9154Y-3.4055
X0.9252Y-2.8839
X0.9252Y-3.0512
X0.9252Y-3.1201
X0.9449Y-3.6909
X0.9449Y-4.2323
X0.9449Y-4.7835
X0.9646Y-2.9232
X0.9744Y-3.8583
X0.9744Y-4.4193
X0.9744Y-4.9803
X0.9843Y-2.9626
X0.9941Y-3.4055
X0.998Y-1.5177
X1.0039Y-1.9409
X1.0039Y-2.7756
X1.0039Y-3.4547
X1.0039Y-3.5531
X1.0335Y-2.7362
X1.0512Y-1.9016
X1.0531Y-3.1496
X1.0531Y-3.3169
X1.0531Y-3.4252
X1.0531Y-4.3307
X1.0531Y-4.8819
X1.0709Y-1.5768
X1.0827Y-2.2874
X1.0827Y-2.5098
X1.0827Y-2.563
X1.0827Y-3.0906
X1.0925Y-4.0748
X1.1024Y-2.8543
X1.1024Y-2.9134
X1.1122Y-4.3996
X1.1122Y-5.0295
X1.122Y-2.6673
X1.1319Y-4.6457
X1.1339Y-1.3543
X1.1339Y-1.437
X1.1417Y-3.3268
X1.1417Y-3.6614
X1.1614Y-2.5787
X1.1614Y-2.628
X1.1614Y-2.815
X1.1811Y-2.9429
X1.189Y-1.689
X1.1909Y-4.0945
X1.1909Y-4.2815
X1.1909Y-4.8228
X1.1929Y-1.8071
X1.2008Y-4.0354
X1.2106Y-3.5335
X1.2106Y-3.8189
X1.2106Y-3.8976
X1.2106Y-4.3996
X1.2205Y-2.5492
X1.2205Y-2.5984
X1.2323Y-0.9528
X1.2402Y-2.6969
X1.2402Y-4.8622
X1.2402Y-5.0295
X1.2441Y-1.1969
X1.2559Y-1.3701
X1.2598Y-1.8819
X1.2598Y-2.6575
X1.2638Y-1.7795
X1.2795Y-3.5138
X1.2795Y-4.5965
X1.3189Y-2.7067
X1.3484Y-3.7008
X1.3484Y-4.2323
X1.378Y-2.7756
X1.378Y-3.2579
X1.378Y-4.3996
X1.378Y-4.9803
X1.41Y-3.4055
X1.4272Y-0.9154
X1.4469Y-2.8543
X1.4567Y-2.687
X1.4567Y-3.4252
X1.4567Y-3.7894
X1.4567Y-4.3307
X1.4567Y-4.8819
X1.4665Y-2.5591
X1.4764Y-0.9547
X1.4764Y-3.061
X1.4961Y-3.2677
X1.4961Y-3.4055
X1.5039Y-2.2146
X1.5059Y-4.6457
X1.5157Y-4.9902
X1.5315Y-2.1693
X1.5354Y-2.8543
X1.5453Y-2.0177
X1.5453Y-3.3661
X1.5472Y-1.9331
X1.552Y-2.7362
X1.5551Y-0.9409
X1.5551Y-2.4902
X1.5551Y-4.0945
X1.5551Y-4.1732
X1.5748Y-1.9764
X1.5945Y-4.2815
X1.5945Y-4.8228
X1.6043Y-3.3071
X1.6043Y-3.5138
X1.6043Y-3.9173
X1.6142Y-2.8839
X1.6142Y-4.3996
X1.624Y-2.5394
X1.624Y-2.6476
X1.6437Y-3.8681
X1.6437Y-4.8622
X1.6437Y-5.0295
X1.6535Y-2.5984
X1.6535Y-3.2677
X1.6634Y-3.1102
X1.6634Y-3.1791
X1.6732Y-3.0413
X1.6831Y-2.815
X1.6831Y-4.1634
X1.6831Y-4.5965
X1.685Y-1.7933
X1.6929Y-3.3858
X1.7165Y-1.6299
X1.7224Y-2.0669
X1.7224Y-2.185
X1.7224Y-2.3524
X1.7323Y-1.8701
X1.7323Y-2.7362
X1.752Y-2.4213
X1.752Y-4.2323
X1.7618Y-3.5531
X1.7717Y-2.5
X1.7815Y-3.1398
X1.7815Y-4.4094
X1.7815Y-4.9606
X1.7913Y-2.6181
X1.811Y-3.0906
X1.8209Y-3.8878
X1.8307Y-3.3366
X1.8307Y-3.5531
X1.8406Y-2.687
X1.8602Y-4.3307
X1.8602Y-4.8819
X1.8642Y-1.2224
X1.8661Y-2.3543
X1.8799Y-2.628
X1.8799Y-3.8484
X1.8996Y-2.815
X1.8996Y-2.8839
X1.9094Y-2.3189
X1.9094Y-5.0295
X1.9193Y-2.6969
X1.9193Y-2.7559
X1.9193Y-3.6417
X1.9193Y-4.4291
X1.9193Y-4.8622
X1.9291Y-1.9783
X1.9291Y-2.1358
X1.9291Y-2.4213
X1.9291Y-4.3406
X1.939Y-3.5531
T2
X1.0781Y-3.0157
X1.1772Y-3.1526
X1.1772Y-3.2526
X1.1781Y-3.0157
X1.31Y-2.9429
X1.3366Y-3.0778
X1.3366Y-3.1778
X1.41Y-2.9429
X1.5285Y-2.9823
X1.5433Y-3.1073
X1.5433Y-3.2073
X1.6285Y-2.9823
X1.7815Y-2.8809
X1.7815Y-2.9809
T3
X0.8862Y-2.4134
X0.8862Y-2.5134
X0.8862Y-2.6134
X0.9354Y-0.9748
X0.9354Y-1.0748
X0.9354Y-1.1748
X0.9354Y-1.2748
X0.9354Y-1.3748
X0.9862Y-2.4134
X0.9862Y-2.5134
X0.9862Y-2.6134
X1.0354Y-0.9748
X1.0354Y-1.0748
X1.0354Y-1.1748
X1.0354Y-1.2748
X1.0354Y-1.3748
X1.0827Y-2.0157
X1.0827Y-2.1142
X1.0827Y-2.2126
X1.2283Y-0.8425
X1.3283Y-0.8425
X1.4283Y-0.8425
X1.5283Y-0.8425
X1.6535Y-2.0157
X1.6535Y-2.2126
X1.6831Y-3.4713
X1.7831Y-3.4713
X1.8831Y-3.4713
T4
X0.8465Y-1.6634
X0.8465Y-1.8406
X1.1024Y-1.6634
X1.1024Y-1.8406
T5
X0.9744Y-3.5118
X0.9744Y-4.0551
X0.9744Y-4.6004
X1.378Y-3.5118
X1.378Y-4.0551
X1.378Y-4.6004
X1.7835Y-4.0551
X1.7835Y-4.6004
T6
X0.9744Y-3.6339
X0.9744Y-4.1772
X0.9744Y-4.7224
X1.378Y-3.6339
X1.378Y-4.1772
X1.378Y-4.7224
X1.7835Y-4.1772
X1.7835Y-4.7224
T7
X0.9744Y-3.9606
X0.9744Y-4.5039
X0.9744Y-5.0492
X1.378Y-3.9606
X1.378Y-4.5039
X1.378Y-5.0492
X1.7835Y-4.5039
X1.7835Y-5.0492
T8
G00X1.3524Y-1.8937
M15
G01X1.4035Y-1.8937
M16
G05
G00X1.3524Y-2.3346
M15
G01X1.4035Y-2.3346
M16
G05
M30
