G04 #@! TF.GenerationSoftware,KiCad,Pcbnew,8.0.5*
G04 #@! TF.CreationDate,2024-11-11T16:03:41-05:00*
G04 #@! TF.ProjectId,main,6d61696e-2e6b-4696-9361-645f70636258,rev?*
G04 #@! TF.SameCoordinates,Original*
G04 #@! TF.FileFunction,Paste,Bot*
G04 #@! TF.FilePolarity,Positive*
%FSLAX46Y46*%
G04 Gerber Fmt 4.6, Leading zero omitted, Abs format (unit mm)*
G04 Created by KiCad (PCBNEW 8.0.5) date 2024-11-11 16:03:41*
%MOMM*%
%LPD*%
G01*
G04 APERTURE LIST*
G04 Aperture macros list*
%AMRoundRect*
0 Rectangle with rounded corners*
0 $1 Rounding radius*
0 $2 $3 $4 $5 $6 $7 $8 $9 X,Y pos of 4 corners*
0 Add a 4 corners polygon primitive as box body*
4,1,4,$2,$3,$4,$5,$6,$7,$8,$9,$2,$3,0*
0 Add four circle primitives for the rounded corners*
1,1,$1+$1,$2,$3*
1,1,$1+$1,$4,$5*
1,1,$1+$1,$6,$7*
1,1,$1+$1,$8,$9*
0 Add four rect primitives between the rounded corners*
20,1,$1+$1,$2,$3,$4,$5,0*
20,1,$1+$1,$4,$5,$6,$7,0*
20,1,$1+$1,$6,$7,$8,$9,0*
20,1,$1+$1,$8,$9,$2,$3,0*%
%AMRotRect*
0 Rectangle, with rotation*
0 The origin of the aperture is its center*
0 $1 length*
0 $2 width*
0 $3 Rotation angle, in degrees counterclockwise*
0 Add horizontal line*
21,1,$1,$2,0,0,$3*%
G04 Aperture macros list end*
%ADD10RoundRect,0.250000X0.450000X-0.262500X0.450000X0.262500X-0.450000X0.262500X-0.450000X-0.262500X0*%
%ADD11RoundRect,0.243750X-0.243750X-0.456250X0.243750X-0.456250X0.243750X0.456250X-0.243750X0.456250X0*%
%ADD12RoundRect,0.250000X0.262500X0.450000X-0.262500X0.450000X-0.262500X-0.450000X0.262500X-0.450000X0*%
%ADD13RoundRect,0.150000X0.150000X-0.587500X0.150000X0.587500X-0.150000X0.587500X-0.150000X-0.587500X0*%
%ADD14RoundRect,0.250000X0.475000X-0.250000X0.475000X0.250000X-0.475000X0.250000X-0.475000X-0.250000X0*%
%ADD15RotRect,1.600000X0.550000X225.000000*%
%ADD16RotRect,1.600000X0.550000X135.000000*%
%ADD17RoundRect,0.225000X0.017678X-0.335876X0.335876X-0.017678X-0.017678X0.335876X-0.335876X0.017678X0*%
%ADD18RoundRect,0.250000X-0.262500X-0.450000X0.262500X-0.450000X0.262500X0.450000X-0.262500X0.450000X0*%
%ADD19R,1.500000X2.000000*%
%ADD20R,3.800000X2.000000*%
%ADD21RoundRect,0.250000X0.250000X0.475000X-0.250000X0.475000X-0.250000X-0.475000X0.250000X-0.475000X0*%
%ADD22RoundRect,0.250000X-0.250000X-0.475000X0.250000X-0.475000X0.250000X0.475000X-0.250000X0.475000X0*%
%ADD23RoundRect,0.250000X-0.475000X0.250000X-0.475000X-0.250000X0.475000X-0.250000X0.475000X0.250000X0*%
%ADD24RoundRect,0.250000X-1.250000X-0.550000X1.250000X-0.550000X1.250000X0.550000X-1.250000X0.550000X0*%
%ADD25RotRect,1.400000X1.200000X315.000000*%
%ADD26RoundRect,0.250000X1.250000X0.550000X-1.250000X0.550000X-1.250000X-0.550000X1.250000X-0.550000X0*%
%ADD27RoundRect,0.112500X0.187500X0.112500X-0.187500X0.112500X-0.187500X-0.112500X0.187500X-0.112500X0*%
G04 APERTURE END LIST*
D10*
X22750000Y-126662500D03*
X22750000Y-124837500D03*
X37000000Y-126662500D03*
X37000000Y-124837500D03*
D11*
X31812500Y-43500000D03*
X33687500Y-43500000D03*
D12*
X35162500Y-98250000D03*
X33337500Y-98250000D03*
D10*
X28750000Y-98912500D03*
X28750000Y-97087500D03*
D13*
X33450000Y-108687500D03*
X31550000Y-108687500D03*
X32500000Y-106812500D03*
D10*
X43250000Y-126662500D03*
X43250000Y-124837500D03*
X37000000Y-99000000D03*
X37000000Y-97175000D03*
D13*
X33450000Y-94937500D03*
X31550000Y-94937500D03*
X32500000Y-93062500D03*
D14*
X45250000Y-82450000D03*
X45250000Y-80550000D03*
D15*
X40025305Y-61264897D03*
X40590990Y-61830583D03*
X41156676Y-62396268D03*
X41722361Y-62961953D03*
X42288047Y-63527639D03*
X42853732Y-64093324D03*
X43419417Y-64659010D03*
X43985103Y-65224695D03*
D16*
X43985103Y-67275305D03*
X43419417Y-67840990D03*
X42853732Y-68406676D03*
X42288047Y-68972361D03*
X41722361Y-69538047D03*
X41156676Y-70103732D03*
X40590990Y-70669417D03*
X40025305Y-71235103D03*
D15*
X37974695Y-71235103D03*
X37409010Y-70669417D03*
X36843324Y-70103732D03*
X36277639Y-69538047D03*
X35711953Y-68972361D03*
X35146268Y-68406676D03*
X34580583Y-67840990D03*
X34014897Y-67275305D03*
D16*
X34014897Y-65224695D03*
X34580583Y-64659010D03*
X35146268Y-64093324D03*
X35711953Y-63527639D03*
X36277639Y-62961953D03*
X36843324Y-62396268D03*
X37409010Y-61830583D03*
X37974695Y-61264897D03*
D17*
X45201992Y-59548008D03*
X46298008Y-58451992D03*
D10*
X22750000Y-112662500D03*
X22750000Y-110837500D03*
D13*
X43700000Y-122437500D03*
X41800000Y-122437500D03*
X42750000Y-120562500D03*
D10*
X47250000Y-112662500D03*
X47250000Y-110837500D03*
X37000000Y-112662500D03*
X37000000Y-110837500D03*
D18*
X41087500Y-23000000D03*
X42912500Y-23000000D03*
D12*
X33662500Y-41250000D03*
X31837500Y-41250000D03*
D19*
X42550000Y-43400000D03*
X40250000Y-43400000D03*
D20*
X40250000Y-37100000D03*
D19*
X37950000Y-43400000D03*
D10*
X26750000Y-112662500D03*
X26750000Y-110837500D03*
X26750000Y-98912500D03*
X26750000Y-97087500D03*
D21*
X33200000Y-28250000D03*
X31300000Y-28250000D03*
D22*
X22350000Y-55100000D03*
X24250000Y-55100000D03*
D10*
X45250000Y-85912500D03*
X45250000Y-84087500D03*
X43250000Y-112662500D03*
X43250000Y-110837500D03*
D13*
X33450000Y-122437500D03*
X31550000Y-122437500D03*
X32500000Y-120562500D03*
D23*
X25500000Y-71300000D03*
X25500000Y-73200000D03*
D13*
X43700000Y-108687500D03*
X41800000Y-108687500D03*
X42750000Y-106812500D03*
D18*
X22387500Y-50500000D03*
X24212500Y-50500000D03*
D22*
X44050000Y-33250000D03*
X45950000Y-33250000D03*
D10*
X33000000Y-126662500D03*
X33000000Y-124837500D03*
D13*
X23200000Y-94937500D03*
X21300000Y-94937500D03*
X22250000Y-93062500D03*
D24*
X42800000Y-28500000D03*
X47200000Y-28500000D03*
D10*
X27750000Y-102412500D03*
X27750000Y-100587500D03*
X33000000Y-112662500D03*
X33000000Y-110837500D03*
D21*
X24250000Y-52800000D03*
X22350000Y-52800000D03*
D25*
X46323223Y-61121142D03*
X47878858Y-62676777D03*
X46676777Y-63878858D03*
X45121142Y-62323223D03*
D13*
X23200000Y-122437500D03*
X21300000Y-122437500D03*
X22250000Y-120562500D03*
D17*
X47701992Y-65548008D03*
X48798008Y-64451992D03*
D26*
X36200000Y-32500000D03*
X31800000Y-32500000D03*
D21*
X33200000Y-26250000D03*
X31300000Y-26250000D03*
D27*
X33800000Y-39000000D03*
X31700000Y-39000000D03*
D18*
X41087500Y-21000000D03*
X42912500Y-21000000D03*
D13*
X23200000Y-108687500D03*
X21300000Y-108687500D03*
X22250000Y-106812500D03*
D21*
X33700000Y-36750000D03*
X31800000Y-36750000D03*
D10*
X47250000Y-126662500D03*
X47250000Y-124837500D03*
X26750000Y-126662500D03*
X26750000Y-124837500D03*
M02*
