G04 #@! TF.GenerationSoftware,KiCad,Pcbnew,8.0.5*
G04 #@! TF.CreationDate,2024-11-11T16:03:41-05:00*
G04 #@! TF.ProjectId,main,6d61696e-2e6b-4696-9361-645f70636258,rev?*
G04 #@! TF.SameCoordinates,Original*
G04 #@! TF.FileFunction,Soldermask,Bot*
G04 #@! TF.FilePolarity,Negative*
%FSLAX46Y46*%
G04 Gerber Fmt 4.6, Leading zero omitted, Abs format (unit mm)*
G04 Created by KiCad (PCBNEW 8.0.5) date 2024-11-11 16:03:41*
%MOMM*%
%LPD*%
G01*
G04 APERTURE LIST*
G04 Aperture macros list*
%AMRoundRect*
0 Rectangle with rounded corners*
0 $1 Rounding radius*
0 $2 $3 $4 $5 $6 $7 $8 $9 X,Y pos of 4 corners*
0 Add a 4 corners polygon primitive as box body*
4,1,4,$2,$3,$4,$5,$6,$7,$8,$9,$2,$3,0*
0 Add four circle primitives for the rounded corners*
1,1,$1+$1,$2,$3*
1,1,$1+$1,$4,$5*
1,1,$1+$1,$6,$7*
1,1,$1+$1,$8,$9*
0 Add four rect primitives between the rounded corners*
20,1,$1+$1,$2,$3,$4,$5,0*
20,1,$1+$1,$4,$5,$6,$7,0*
20,1,$1+$1,$6,$7,$8,$9,0*
20,1,$1+$1,$8,$9,$2,$3,0*%
%AMRotRect*
0 Rectangle, with rotation*
0 The origin of the aperture is its center*
0 $1 length*
0 $2 width*
0 $3 Rotation angle, in degrees counterclockwise*
0 Add horizontal line*
21,1,$1,$2,0,0,$3*%
G04 Aperture macros list end*
%ADD10C,0.150000*%
%ADD11C,0.200000*%
%ADD12R,1.930000X1.830000*%
%ADD13C,2.130000*%
%ADD14O,1.500000X3.000000*%
%ADD15R,1.800000X1.800000*%
%ADD16C,1.800000*%
%ADD17C,2.200000*%
%ADD18O,1.600000X2.000000*%
%ADD19R,2.000000X2.000000*%
%ADD20C,2.000000*%
%ADD21R,3.200000X2.000000*%
%ADD22R,1.700000X1.700000*%
%ADD23O,1.700000X1.700000*%
%ADD24RoundRect,0.250000X0.450000X-0.262500X0.450000X0.262500X-0.450000X0.262500X-0.450000X-0.262500X0*%
%ADD25RoundRect,0.243750X-0.243750X-0.456250X0.243750X-0.456250X0.243750X0.456250X-0.243750X0.456250X0*%
%ADD26RoundRect,0.250000X0.262500X0.450000X-0.262500X0.450000X-0.262500X-0.450000X0.262500X-0.450000X0*%
%ADD27RoundRect,0.150000X0.150000X-0.587500X0.150000X0.587500X-0.150000X0.587500X-0.150000X-0.587500X0*%
%ADD28RoundRect,0.250000X0.475000X-0.250000X0.475000X0.250000X-0.475000X0.250000X-0.475000X-0.250000X0*%
%ADD29RotRect,1.600000X0.550000X225.000000*%
%ADD30RotRect,1.600000X0.550000X135.000000*%
%ADD31RoundRect,0.225000X0.017678X-0.335876X0.335876X-0.017678X-0.017678X0.335876X-0.335876X0.017678X0*%
%ADD32RoundRect,0.250000X-0.262500X-0.450000X0.262500X-0.450000X0.262500X0.450000X-0.262500X0.450000X0*%
%ADD33R,1.500000X2.000000*%
%ADD34R,3.800000X2.000000*%
%ADD35RoundRect,0.250000X0.250000X0.475000X-0.250000X0.475000X-0.250000X-0.475000X0.250000X-0.475000X0*%
%ADD36RoundRect,0.250000X-0.250000X-0.475000X0.250000X-0.475000X0.250000X0.475000X-0.250000X0.475000X0*%
%ADD37RoundRect,0.250000X-0.475000X0.250000X-0.475000X-0.250000X0.475000X-0.250000X0.475000X0.250000X0*%
%ADD38RoundRect,0.250000X-1.250000X-0.550000X1.250000X-0.550000X1.250000X0.550000X-1.250000X0.550000X0*%
%ADD39RotRect,1.400000X1.200000X315.000000*%
%ADD40RoundRect,0.250000X1.250000X0.550000X-1.250000X0.550000X-1.250000X-0.550000X1.250000X-0.550000X0*%
%ADD41RoundRect,0.112500X0.187500X0.112500X-0.187500X0.112500X-0.187500X-0.112500X0.187500X-0.112500X0*%
G04 APERTURE END LIST*
D10*
X35000000Y-29000000D02*
X33000000Y-27000000D01*
X38000000Y-32000000D02*
X41000000Y-29000000D01*
X38000000Y-36000000D02*
X42500000Y-31500000D01*
X37000000Y-29000000D02*
X33000000Y-29000000D01*
X33000000Y-24000000D02*
X34000000Y-23000000D01*
X36000000Y-29000000D02*
X40000000Y-25000000D01*
X41000000Y-37000000D02*
X42000000Y-36000000D01*
X49000000Y-23000000D02*
X48000000Y-24000000D01*
X36000000Y-25000000D02*
X34237712Y-23237712D01*
X34000000Y-29000000D02*
X33000000Y-28000000D01*
X36000000Y-25000000D02*
X41000000Y-30000000D01*
X33000000Y-29000000D02*
X33000000Y-23000000D01*
X49000000Y-24000000D02*
X46000000Y-24000000D01*
X43000000Y-35000000D02*
X42000000Y-36000000D01*
X42000000Y-36000000D02*
X38000000Y-32000000D01*
X43500000Y-34500000D02*
X33000000Y-24000000D01*
X38000000Y-37000000D02*
X43000000Y-32000000D01*
X34000000Y-23000000D02*
X34237712Y-23237712D01*
X42000000Y-36000000D02*
X42500000Y-36500000D01*
X39000000Y-25000000D02*
X41000000Y-27000000D01*
X46000000Y-20000000D02*
X49000000Y-20000000D01*
D11*
X42100000Y-94500000D02*
X43600000Y-94500000D01*
X43600000Y-96000000D01*
X42100000Y-96000000D01*
X42100000Y-94500000D01*
G36*
X42100000Y-94500000D02*
G01*
X43600000Y-94500000D01*
X43600000Y-96000000D01*
X42100000Y-96000000D01*
X42100000Y-94500000D01*
G37*
D10*
X33000000Y-27000000D02*
X35500000Y-24500000D01*
X41500000Y-26500000D02*
X40000000Y-25000000D01*
X33000000Y-28000000D02*
X36000000Y-25000000D01*
X46000000Y-20000000D02*
X46000000Y-21000000D01*
X38000000Y-30000000D02*
X37000000Y-29000000D01*
X42000000Y-26000000D02*
X41000000Y-25000000D01*
X49000000Y-22000000D02*
X47000000Y-20000000D01*
X41000000Y-28000000D02*
X41000000Y-31000000D01*
X38000000Y-25000000D02*
X41000000Y-28000000D01*
X43000000Y-32000000D02*
X44000000Y-33000000D01*
X36000000Y-29000000D02*
X33000000Y-26000000D01*
X40000000Y-37000000D02*
X37500000Y-34500000D01*
X38000000Y-33000000D02*
X41000000Y-30000000D01*
X41000000Y-30000000D02*
X38000000Y-33000000D01*
X45000000Y-25000000D02*
X44000000Y-25000000D01*
X44000000Y-34000000D02*
X43000000Y-35000000D01*
X44000000Y-25000000D02*
X43000000Y-25000000D01*
X47000000Y-24000000D02*
X45000000Y-22000000D01*
X44000000Y-33000000D02*
X44000000Y-34000000D01*
X37000000Y-37000000D02*
X38000000Y-36000000D01*
X43500000Y-32500000D02*
X39000000Y-37000000D01*
D11*
X47000000Y-94500000D02*
X48500000Y-94500000D01*
X48500000Y-96000000D01*
X47000000Y-96000000D01*
X47000000Y-94500000D01*
G36*
X47000000Y-94500000D02*
G01*
X48500000Y-94500000D01*
X48500000Y-96000000D01*
X47000000Y-96000000D01*
X47000000Y-94500000D01*
G37*
D10*
X35000000Y-29000000D02*
X39000000Y-25000000D01*
X49000000Y-21000000D02*
X46000000Y-24000000D01*
X46000000Y-24000000D02*
X45000000Y-25000000D01*
X42500000Y-37000000D02*
X42000000Y-37000000D01*
X38000000Y-33000000D02*
X42000000Y-37000000D01*
X38000000Y-37000000D02*
X37000000Y-36000000D01*
X33000000Y-29000000D02*
X37000000Y-25000000D01*
X44000000Y-25000000D02*
X43500000Y-24500000D01*
X46000000Y-22000000D02*
X45500000Y-21500000D01*
X40000000Y-37000000D02*
X44000000Y-33000000D01*
X42000000Y-37000000D02*
X38000000Y-33000000D01*
X38000000Y-36000000D02*
X37000000Y-35000000D01*
X48000000Y-20000000D02*
X38000000Y-30000000D01*
X42000000Y-37000000D02*
X42500000Y-36500000D01*
X41000000Y-28000000D02*
X38000000Y-25000000D01*
X37000000Y-37000000D02*
X37000000Y-35000000D01*
X33000000Y-23000000D02*
X34000000Y-23000000D01*
X38000000Y-34000000D02*
X41000000Y-31000000D01*
X43000000Y-25000000D02*
X36000000Y-25000000D01*
X42500000Y-35500000D02*
X38000000Y-31000000D01*
X49000000Y-24000000D02*
X46000000Y-21000000D01*
X46000000Y-20000000D02*
X49000000Y-23000000D01*
X43000000Y-32000000D02*
X42000000Y-31000000D01*
X33000000Y-23000000D02*
X44000000Y-34000000D01*
X42000000Y-31000000D02*
X37500000Y-35500000D01*
X38000000Y-31000000D02*
X41000000Y-28000000D01*
X46000000Y-24000000D02*
X45000000Y-23000000D01*
X48000000Y-24000000D02*
X46000000Y-22000000D01*
X42500000Y-35500000D02*
X42500000Y-37000000D01*
X49000000Y-21000000D02*
X48000000Y-20000000D01*
X41000000Y-27000000D02*
X41000000Y-30000000D01*
X41000000Y-37000000D02*
X38000000Y-34000000D01*
X45000000Y-23000000D02*
X45000000Y-22000000D01*
X33000000Y-25000000D02*
X34495508Y-23504492D01*
X43000000Y-35000000D02*
X33000000Y-25000000D01*
X41000000Y-28000000D02*
X41000000Y-27000000D01*
X45000000Y-22000000D02*
X46000000Y-21000000D01*
X37000000Y-35000000D02*
X38000000Y-34000000D01*
X39000000Y-37000000D02*
X38000000Y-36000000D01*
X34000000Y-29000000D02*
X38000000Y-25000000D01*
X49000000Y-22000000D02*
X47000000Y-24000000D01*
X42000000Y-25000000D02*
X42500000Y-25500000D01*
X42000000Y-37000000D02*
X38000000Y-37000000D01*
X49000000Y-23000000D02*
X46000000Y-20000000D01*
X37000000Y-25000000D02*
X41000000Y-29000000D01*
X49000000Y-20000000D02*
X44000000Y-25000000D01*
X38000000Y-34000000D02*
X38000000Y-30000000D01*
X37500000Y-29500000D02*
X42000000Y-25000000D01*
X41000000Y-29000000D02*
X38000000Y-32000000D01*
X45000000Y-24000000D02*
X44500000Y-23500000D01*
X41000000Y-30000000D02*
X36000000Y-25000000D01*
X49000000Y-24000000D02*
X49000000Y-20000000D01*
X45500000Y-24500000D02*
X45000000Y-24000000D01*
X42000000Y-37000000D02*
X38000000Y-33000000D01*
X38000000Y-37000000D02*
X37000000Y-37000000D01*
X46000000Y-21000000D02*
X47000000Y-20000000D01*
X37500000Y-35500000D02*
X37000000Y-36000000D01*
X45000000Y-25000000D02*
X44000000Y-24000000D01*
X33000000Y-26000000D02*
X35000000Y-24000000D01*
X42000000Y-31000000D02*
X41000000Y-31000000D01*
X37000000Y-29000000D02*
X41000000Y-25000000D01*
D12*
X35000000Y-116850000D03*
D13*
X35000000Y-128250000D03*
X35000000Y-119950000D03*
D12*
X35000000Y-103000000D03*
D13*
X35000000Y-114400000D03*
X35000000Y-106100000D03*
D14*
X40800000Y-95000000D03*
D15*
X29925000Y-76600000D03*
D16*
X27385000Y-76600000D03*
D15*
X29900000Y-80075000D03*
D16*
X29900000Y-82615000D03*
D15*
X45250000Y-73175000D03*
D16*
X45250000Y-75715000D03*
D17*
X46500000Y-44750000D03*
D18*
X31200000Y-21400000D03*
X33740000Y-21400000D03*
X36280000Y-21400000D03*
X38820000Y-21400000D03*
D12*
X45300000Y-103000000D03*
D13*
X45300000Y-114400000D03*
X45300000Y-106100000D03*
D12*
X24750000Y-103000000D03*
D13*
X24750000Y-114400000D03*
X24750000Y-106100000D03*
D17*
X46500000Y-21750000D03*
D15*
X39200000Y-78925000D03*
D16*
X39200000Y-81465000D03*
D19*
X27500000Y-51200000D03*
D20*
X27500000Y-56200000D03*
X27500000Y-53700000D03*
D21*
X35000000Y-48100000D03*
X35000000Y-59300000D03*
D20*
X42000000Y-56200000D03*
X42000000Y-51200000D03*
D12*
X45300000Y-116850000D03*
D13*
X45300000Y-128250000D03*
X45300000Y-119950000D03*
D17*
X23750000Y-44750000D03*
D12*
X35000000Y-89200000D03*
D13*
X35000000Y-100600000D03*
X35000000Y-92300000D03*
D15*
X33950000Y-78175000D03*
D16*
X33950000Y-80715000D03*
D15*
X33275000Y-74750000D03*
D16*
X35815000Y-74750000D03*
D22*
X47830000Y-88170000D03*
D23*
X45290000Y-88170000D03*
X42750000Y-88170000D03*
D12*
X24750000Y-116850000D03*
D13*
X24750000Y-128250000D03*
X24750000Y-119950000D03*
D15*
X38825000Y-75750000D03*
D16*
X41365000Y-75750000D03*
D12*
X24750000Y-89200000D03*
D13*
X24750000Y-100600000D03*
X24750000Y-92300000D03*
D24*
X22750000Y-126662500D03*
X22750000Y-124837500D03*
X37000000Y-126662500D03*
X37000000Y-124837500D03*
D25*
X31812500Y-43500000D03*
X33687500Y-43500000D03*
D26*
X35162500Y-98250000D03*
X33337500Y-98250000D03*
D24*
X28750000Y-98912500D03*
X28750000Y-97087500D03*
D27*
X33450000Y-108687500D03*
X31550000Y-108687500D03*
X32500000Y-106812500D03*
D24*
X43250000Y-126662500D03*
X43250000Y-124837500D03*
X37000000Y-99000000D03*
X37000000Y-97175000D03*
D27*
X33450000Y-94937500D03*
X31550000Y-94937500D03*
X32500000Y-93062500D03*
D28*
X45250000Y-82450000D03*
X45250000Y-80550000D03*
D29*
X40025305Y-61264897D03*
X40590990Y-61830583D03*
X41156676Y-62396268D03*
X41722361Y-62961953D03*
X42288047Y-63527639D03*
X42853732Y-64093324D03*
X43419417Y-64659010D03*
X43985103Y-65224695D03*
D30*
X43985103Y-67275305D03*
X43419417Y-67840990D03*
X42853732Y-68406676D03*
X42288047Y-68972361D03*
X41722361Y-69538047D03*
X41156676Y-70103732D03*
X40590990Y-70669417D03*
X40025305Y-71235103D03*
D29*
X37974695Y-71235103D03*
X37409010Y-70669417D03*
X36843324Y-70103732D03*
X36277639Y-69538047D03*
X35711953Y-68972361D03*
X35146268Y-68406676D03*
X34580583Y-67840990D03*
X34014897Y-67275305D03*
D30*
X34014897Y-65224695D03*
X34580583Y-64659010D03*
X35146268Y-64093324D03*
X35711953Y-63527639D03*
X36277639Y-62961953D03*
X36843324Y-62396268D03*
X37409010Y-61830583D03*
X37974695Y-61264897D03*
D31*
X45201992Y-59548008D03*
X46298008Y-58451992D03*
D24*
X22750000Y-112662500D03*
X22750000Y-110837500D03*
D22*
X22510000Y-66380000D03*
D23*
X25050000Y-66380000D03*
X22510000Y-63840000D03*
X25050000Y-63840000D03*
X22510000Y-61300000D03*
X25050000Y-61300000D03*
D27*
X43700000Y-122437500D03*
X41800000Y-122437500D03*
X42750000Y-120562500D03*
D24*
X47250000Y-112662500D03*
X47250000Y-110837500D03*
X37000000Y-112662500D03*
X37000000Y-110837500D03*
D32*
X41087500Y-23000000D03*
X42912500Y-23000000D03*
D26*
X33662500Y-41250000D03*
X31837500Y-41250000D03*
D33*
X42550000Y-43400000D03*
X40250000Y-43400000D03*
D34*
X40250000Y-37100000D03*
D33*
X37950000Y-43400000D03*
D24*
X26750000Y-112662500D03*
X26750000Y-110837500D03*
X26750000Y-98912500D03*
X26750000Y-97087500D03*
D35*
X33200000Y-28250000D03*
X31300000Y-28250000D03*
D36*
X22350000Y-55100000D03*
X24250000Y-55100000D03*
D24*
X45250000Y-85912500D03*
X45250000Y-84087500D03*
X43250000Y-112662500D03*
X43250000Y-110837500D03*
D27*
X33450000Y-122437500D03*
X31550000Y-122437500D03*
X32500000Y-120562500D03*
D37*
X25500000Y-71300000D03*
X25500000Y-73200000D03*
D27*
X43700000Y-108687500D03*
X41800000Y-108687500D03*
X42750000Y-106812500D03*
D32*
X22387500Y-50500000D03*
X24212500Y-50500000D03*
D36*
X44050000Y-33250000D03*
X45950000Y-33250000D03*
D24*
X33000000Y-126662500D03*
X33000000Y-124837500D03*
D27*
X23200000Y-94937500D03*
X21300000Y-94937500D03*
X22250000Y-93062500D03*
D38*
X42800000Y-28500000D03*
X47200000Y-28500000D03*
D24*
X27750000Y-102412500D03*
X27750000Y-100587500D03*
X33000000Y-112662500D03*
X33000000Y-110837500D03*
D35*
X24250000Y-52800000D03*
X22350000Y-52800000D03*
D39*
X46323223Y-61121142D03*
X47878858Y-62676777D03*
X46676777Y-63878858D03*
X45121142Y-62323223D03*
D27*
X23200000Y-122437500D03*
X21300000Y-122437500D03*
X22250000Y-120562500D03*
D31*
X47701992Y-65548008D03*
X48798008Y-64451992D03*
D40*
X36200000Y-32500000D03*
X31800000Y-32500000D03*
D22*
X26300000Y-24760000D03*
D23*
X23760000Y-24760000D03*
X26300000Y-27300000D03*
X23760000Y-27300000D03*
X26300000Y-29840000D03*
X23760000Y-29840000D03*
X26300000Y-32380000D03*
X23760000Y-32380000D03*
X26300000Y-34920000D03*
X23760000Y-34920000D03*
D35*
X33200000Y-26250000D03*
X31300000Y-26250000D03*
D41*
X33800000Y-39000000D03*
X31700000Y-39000000D03*
D20*
X28000000Y-42250000D03*
X21500000Y-42250000D03*
X28000000Y-46750000D03*
X21500000Y-46750000D03*
D32*
X41087500Y-21000000D03*
X42912500Y-21000000D03*
D27*
X23200000Y-108687500D03*
X21300000Y-108687500D03*
X22250000Y-106812500D03*
D35*
X33700000Y-36750000D03*
X31800000Y-36750000D03*
D24*
X47250000Y-126662500D03*
X47250000Y-124837500D03*
X26750000Y-126662500D03*
X26750000Y-124837500D03*
M02*
