G04 #@! TF.GenerationSoftware,KiCad,Pcbnew,8.0.5*
G04 #@! TF.CreationDate,2024-11-20T22:49:29-05:00*
G04 #@! TF.ProjectId,1U Rim Panel,31552052-696d-4205-9061-6e656c2e6b69,rev?*
G04 #@! TF.SameCoordinates,Original*
G04 #@! TF.FileFunction,Soldermask,Bot*
G04 #@! TF.FilePolarity,Negative*
%FSLAX46Y46*%
G04 Gerber Fmt 4.6, Leading zero omitted, Abs format (unit mm)*
G04 Created by KiCad (PCBNEW 8.0.5) date 2024-11-20 22:49:29*
%MOMM*%
%LPD*%
G01*
G04 APERTURE LIST*
G04 APERTURE END LIST*
G36*
X33173757Y-60596634D02*
G01*
X33190893Y-60599820D01*
X33204121Y-60600687D01*
X33326677Y-60625064D01*
X33462693Y-60650352D01*
X33476315Y-60654828D01*
X33486332Y-60656821D01*
X33606211Y-60697514D01*
X33741892Y-60742102D01*
X33752028Y-60747013D01*
X33758800Y-60749312D01*
X33872633Y-60805448D01*
X34006370Y-60870246D01*
X34013197Y-60874767D01*
X34016864Y-60876575D01*
X34119726Y-60945305D01*
X34251409Y-61032499D01*
X34255253Y-61035860D01*
X34256117Y-61036438D01*
X34328657Y-61100053D01*
X34472635Y-61225965D01*
X34598589Y-61369992D01*
X34662161Y-61442482D01*
X34662737Y-61443345D01*
X34666101Y-61447191D01*
X34753331Y-61578928D01*
X34822024Y-61681735D01*
X34823831Y-61685399D01*
X34828354Y-61692230D01*
X34893179Y-61826024D01*
X34949287Y-61939799D01*
X34951584Y-61946566D01*
X34956498Y-61956708D01*
X35001105Y-62092449D01*
X35041778Y-62212267D01*
X35043769Y-62222278D01*
X35048248Y-62235907D01*
X35073546Y-62371983D01*
X35097912Y-62494478D01*
X35098778Y-62507698D01*
X35101966Y-62524843D01*
X35117000Y-62781600D01*
X35101966Y-63038357D01*
X35098778Y-63055502D01*
X35097912Y-63068721D01*
X35073549Y-63191200D01*
X35048248Y-63327293D01*
X35043768Y-63340923D01*
X35041778Y-63350932D01*
X35001115Y-63470718D01*
X34956498Y-63606492D01*
X34951583Y-63616635D01*
X34949287Y-63623400D01*
X34893207Y-63737117D01*
X34828354Y-63870970D01*
X34823829Y-63877803D01*
X34822024Y-63881464D01*
X34753404Y-63984160D01*
X34666101Y-64116009D01*
X34662734Y-64119858D01*
X34662161Y-64120717D01*
X34598902Y-64192850D01*
X34472635Y-64337235D01*
X34328250Y-64463502D01*
X34256117Y-64526761D01*
X34255258Y-64527334D01*
X34251409Y-64530701D01*
X34119560Y-64618004D01*
X34016864Y-64686624D01*
X34013203Y-64688429D01*
X34006370Y-64692954D01*
X33872517Y-64757807D01*
X33758800Y-64813887D01*
X33752035Y-64816183D01*
X33741892Y-64821098D01*
X33606118Y-64865715D01*
X33486332Y-64906378D01*
X33476323Y-64908368D01*
X33462693Y-64912848D01*
X33326600Y-64938149D01*
X33204121Y-64962512D01*
X33190902Y-64963378D01*
X33173757Y-64966566D01*
X32917000Y-64981600D01*
X30917000Y-64981600D01*
X30660243Y-64966566D01*
X30643098Y-64963378D01*
X30629878Y-64962512D01*
X30507383Y-64938146D01*
X30371307Y-64912848D01*
X30357678Y-64908369D01*
X30347667Y-64906378D01*
X30227849Y-64865705D01*
X30092108Y-64821098D01*
X30081966Y-64816184D01*
X30075199Y-64813887D01*
X29961424Y-64757779D01*
X29827630Y-64692954D01*
X29820799Y-64688431D01*
X29817135Y-64686624D01*
X29714328Y-64617931D01*
X29582591Y-64530701D01*
X29578745Y-64527337D01*
X29577882Y-64526761D01*
X29505392Y-64463189D01*
X29361365Y-64337235D01*
X29235453Y-64193257D01*
X29171838Y-64120717D01*
X29171260Y-64119853D01*
X29167899Y-64116009D01*
X29080705Y-63984326D01*
X29011975Y-63881464D01*
X29010167Y-63877797D01*
X29005646Y-63870970D01*
X28940848Y-63737233D01*
X28884712Y-63623400D01*
X28882413Y-63616628D01*
X28877502Y-63606492D01*
X28832914Y-63470811D01*
X28792221Y-63350932D01*
X28790228Y-63340915D01*
X28785752Y-63327293D01*
X28760464Y-63191277D01*
X28736087Y-63068721D01*
X28735220Y-63055494D01*
X28732034Y-63038357D01*
X28717000Y-62781600D01*
X28732034Y-62524843D01*
X28735219Y-62507706D01*
X28736087Y-62494478D01*
X28760467Y-62371906D01*
X28785752Y-62235907D01*
X28790228Y-62222285D01*
X28792221Y-62212267D01*
X28832925Y-62092357D01*
X28877502Y-61956708D01*
X28882412Y-61946573D01*
X28884712Y-61939799D01*
X28940876Y-61825909D01*
X29005646Y-61692230D01*
X29010165Y-61685405D01*
X29011975Y-61681735D01*
X29080778Y-61578762D01*
X29167899Y-61447191D01*
X29171258Y-61443349D01*
X29171838Y-61442482D01*
X29235765Y-61369585D01*
X29361365Y-61225965D01*
X29504985Y-61100365D01*
X29577882Y-61036438D01*
X29578749Y-61035858D01*
X29582591Y-61032499D01*
X29714162Y-60945378D01*
X29817135Y-60876575D01*
X29820805Y-60874765D01*
X29827630Y-60870246D01*
X29961309Y-60805476D01*
X30075199Y-60749312D01*
X30081973Y-60747012D01*
X30092108Y-60742102D01*
X30227757Y-60697525D01*
X30347667Y-60656821D01*
X30357685Y-60654828D01*
X30371307Y-60650352D01*
X30507306Y-60625067D01*
X30629878Y-60600687D01*
X30643106Y-60599819D01*
X30660243Y-60596634D01*
X30917000Y-60581600D01*
X32917000Y-60581600D01*
X33173757Y-60596634D01*
G37*
G36*
X53253757Y-60596634D02*
G01*
X53270893Y-60599820D01*
X53284121Y-60600687D01*
X53406677Y-60625064D01*
X53542693Y-60650352D01*
X53556315Y-60654828D01*
X53566332Y-60656821D01*
X53686211Y-60697514D01*
X53821892Y-60742102D01*
X53832028Y-60747013D01*
X53838800Y-60749312D01*
X53952633Y-60805448D01*
X54086370Y-60870246D01*
X54093197Y-60874767D01*
X54096864Y-60876575D01*
X54199726Y-60945305D01*
X54331409Y-61032499D01*
X54335253Y-61035860D01*
X54336117Y-61036438D01*
X54408657Y-61100053D01*
X54552635Y-61225965D01*
X54678589Y-61369992D01*
X54742161Y-61442482D01*
X54742737Y-61443345D01*
X54746101Y-61447191D01*
X54833331Y-61578928D01*
X54902024Y-61681735D01*
X54903831Y-61685399D01*
X54908354Y-61692230D01*
X54973179Y-61826024D01*
X55029287Y-61939799D01*
X55031584Y-61946566D01*
X55036498Y-61956708D01*
X55081105Y-62092449D01*
X55121778Y-62212267D01*
X55123769Y-62222278D01*
X55128248Y-62235907D01*
X55153546Y-62371983D01*
X55177912Y-62494478D01*
X55178778Y-62507698D01*
X55181966Y-62524843D01*
X55197000Y-62781600D01*
X55181966Y-63038357D01*
X55178778Y-63055502D01*
X55177912Y-63068721D01*
X55153549Y-63191200D01*
X55128248Y-63327293D01*
X55123768Y-63340923D01*
X55121778Y-63350932D01*
X55081115Y-63470718D01*
X55036498Y-63606492D01*
X55031583Y-63616635D01*
X55029287Y-63623400D01*
X54973207Y-63737117D01*
X54908354Y-63870970D01*
X54903829Y-63877803D01*
X54902024Y-63881464D01*
X54833404Y-63984160D01*
X54746101Y-64116009D01*
X54742734Y-64119858D01*
X54742161Y-64120717D01*
X54678902Y-64192850D01*
X54552635Y-64337235D01*
X54408250Y-64463502D01*
X54336117Y-64526761D01*
X54335258Y-64527334D01*
X54331409Y-64530701D01*
X54199560Y-64618004D01*
X54096864Y-64686624D01*
X54093203Y-64688429D01*
X54086370Y-64692954D01*
X53952517Y-64757807D01*
X53838800Y-64813887D01*
X53832035Y-64816183D01*
X53821892Y-64821098D01*
X53686118Y-64865715D01*
X53566332Y-64906378D01*
X53556323Y-64908368D01*
X53542693Y-64912848D01*
X53406600Y-64938149D01*
X53284121Y-64962512D01*
X53270902Y-64963378D01*
X53253757Y-64966566D01*
X52997000Y-64981600D01*
X50997000Y-64981600D01*
X50740243Y-64966566D01*
X50723098Y-64963378D01*
X50709878Y-64962512D01*
X50587383Y-64938146D01*
X50451307Y-64912848D01*
X50437678Y-64908369D01*
X50427667Y-64906378D01*
X50307849Y-64865705D01*
X50172108Y-64821098D01*
X50161966Y-64816184D01*
X50155199Y-64813887D01*
X50041424Y-64757779D01*
X49907630Y-64692954D01*
X49900799Y-64688431D01*
X49897135Y-64686624D01*
X49794328Y-64617931D01*
X49662591Y-64530701D01*
X49658745Y-64527337D01*
X49657882Y-64526761D01*
X49585392Y-64463189D01*
X49441365Y-64337235D01*
X49315453Y-64193257D01*
X49251838Y-64120717D01*
X49251260Y-64119853D01*
X49247899Y-64116009D01*
X49160705Y-63984326D01*
X49091975Y-63881464D01*
X49090167Y-63877797D01*
X49085646Y-63870970D01*
X49020848Y-63737233D01*
X48964712Y-63623400D01*
X48962413Y-63616628D01*
X48957502Y-63606492D01*
X48912914Y-63470811D01*
X48872221Y-63350932D01*
X48870228Y-63340915D01*
X48865752Y-63327293D01*
X48840464Y-63191277D01*
X48816087Y-63068721D01*
X48815220Y-63055494D01*
X48812034Y-63038357D01*
X48797000Y-62781600D01*
X48812034Y-62524843D01*
X48815219Y-62507706D01*
X48816087Y-62494478D01*
X48840467Y-62371906D01*
X48865752Y-62235907D01*
X48870228Y-62222285D01*
X48872221Y-62212267D01*
X48912925Y-62092357D01*
X48957502Y-61956708D01*
X48962412Y-61946573D01*
X48964712Y-61939799D01*
X49020876Y-61825909D01*
X49085646Y-61692230D01*
X49090165Y-61685405D01*
X49091975Y-61681735D01*
X49160778Y-61578762D01*
X49247899Y-61447191D01*
X49251258Y-61443349D01*
X49251838Y-61442482D01*
X49315765Y-61369585D01*
X49441365Y-61225965D01*
X49584985Y-61100365D01*
X49657882Y-61036438D01*
X49658749Y-61035858D01*
X49662591Y-61032499D01*
X49794162Y-60945378D01*
X49897135Y-60876575D01*
X49900805Y-60874765D01*
X49907630Y-60870246D01*
X50041309Y-60805476D01*
X50155199Y-60749312D01*
X50161973Y-60747012D01*
X50172108Y-60742102D01*
X50307757Y-60697525D01*
X50427667Y-60656821D01*
X50437685Y-60654828D01*
X50451307Y-60650352D01*
X50587306Y-60625067D01*
X50709878Y-60600687D01*
X50723106Y-60599819D01*
X50740243Y-60596634D01*
X50997000Y-60581600D01*
X52997000Y-60581600D01*
X53253757Y-60596634D01*
G37*
G36*
X31869123Y-47941141D02*
G01*
X31966599Y-47941141D01*
X32057701Y-47950405D01*
X32148948Y-47954888D01*
X32251779Y-47970141D01*
X32354597Y-47980597D01*
X32438477Y-47997834D01*
X32522667Y-48010323D01*
X32629668Y-48037125D01*
X32736612Y-48059103D01*
X32812652Y-48082960D01*
X32889152Y-48102123D01*
X32999001Y-48141427D01*
X33108725Y-48175854D01*
X33176498Y-48204938D01*
X33244870Y-48229402D01*
X33356141Y-48282029D01*
X33467117Y-48329653D01*
X33526372Y-48362542D01*
X33586412Y-48390939D01*
X33697572Y-48457566D01*
X33808111Y-48518920D01*
X33858819Y-48554214D01*
X33910458Y-48585165D01*
X34019819Y-48666272D01*
X34128208Y-48741713D01*
X34170543Y-48778057D01*
X34213920Y-48810227D01*
X34319763Y-48906158D01*
X34424123Y-48995748D01*
X34458426Y-49031835D01*
X34493854Y-49063945D01*
X34594383Y-49174861D01*
X34692819Y-49278416D01*
X34719613Y-49313031D01*
X34747572Y-49343879D01*
X34840958Y-49469797D01*
X34931539Y-49586817D01*
X34951513Y-49618863D01*
X34972634Y-49647341D01*
X35057059Y-49788195D01*
X35137834Y-49917787D01*
X35151806Y-49946271D01*
X35166860Y-49971387D01*
X35240487Y-50127059D01*
X35309588Y-50267930D01*
X35318517Y-50292040D01*
X35328397Y-50312929D01*
X35389507Y-50483719D01*
X35445036Y-50633652D01*
X35449962Y-50652678D01*
X35455676Y-50668647D01*
X35502601Y-50855984D01*
X35542790Y-51011201D01*
X35544850Y-51024649D01*
X35547476Y-51035132D01*
X35578590Y-51244894D01*
X35601847Y-51396702D01*
X35602230Y-51404263D01*
X35602911Y-51408851D01*
X35616774Y-51691055D01*
X35621600Y-51786200D01*
X35616774Y-51881352D01*
X35602911Y-52163548D01*
X35602230Y-52168135D01*
X35601847Y-52175698D01*
X35578586Y-52327536D01*
X35547476Y-52537267D01*
X35544850Y-52547748D01*
X35542790Y-52561199D01*
X35502593Y-52716445D01*
X35455676Y-52903752D01*
X35449963Y-52919718D01*
X35445036Y-52938748D01*
X35389496Y-53088708D01*
X35328397Y-53259470D01*
X35318519Y-53280354D01*
X35309588Y-53304470D01*
X35240474Y-53445367D01*
X35166860Y-53601012D01*
X35151809Y-53626122D01*
X35137834Y-53654613D01*
X35057043Y-53784229D01*
X34972634Y-53925058D01*
X34951517Y-53953530D01*
X34931539Y-53985583D01*
X34840941Y-54102625D01*
X34747572Y-54228520D01*
X34719618Y-54259361D01*
X34692819Y-54293984D01*
X34594363Y-54397558D01*
X34493854Y-54508454D01*
X34458433Y-54540557D01*
X34424123Y-54576652D01*
X34319742Y-54666259D01*
X34213920Y-54762172D01*
X34170552Y-54794335D01*
X34128208Y-54830687D01*
X34019797Y-54906142D01*
X33910458Y-54987234D01*
X33858830Y-55018178D01*
X33808111Y-55053480D01*
X33697550Y-55114846D01*
X33586412Y-55181460D01*
X33526384Y-55209850D01*
X33467117Y-55242747D01*
X33356118Y-55290380D01*
X33244870Y-55342997D01*
X33176512Y-55367455D01*
X33108725Y-55396546D01*
X32998978Y-55430979D01*
X32889152Y-55470276D01*
X32812668Y-55489434D01*
X32736612Y-55513297D01*
X32629646Y-55535278D01*
X32522667Y-55562076D01*
X32438495Y-55574561D01*
X32354597Y-55591803D01*
X32251758Y-55602260D01*
X32148948Y-55617511D01*
X32057720Y-55621992D01*
X31966599Y-55631259D01*
X31869102Y-55631259D01*
X31771600Y-55636049D01*
X31674097Y-55631259D01*
X31576601Y-55631259D01*
X31485480Y-55621992D01*
X31394251Y-55617511D01*
X31291438Y-55602260D01*
X31188603Y-55591803D01*
X31104707Y-55574561D01*
X31020532Y-55562076D01*
X30913547Y-55535277D01*
X30806588Y-55513297D01*
X30730535Y-55489435D01*
X30654047Y-55470276D01*
X30544213Y-55430976D01*
X30434475Y-55396546D01*
X30366692Y-55367457D01*
X30298329Y-55342997D01*
X30187070Y-55290375D01*
X30076083Y-55242747D01*
X30016820Y-55209853D01*
X29956787Y-55181460D01*
X29845636Y-55114838D01*
X29735089Y-55053480D01*
X29684375Y-55018182D01*
X29632741Y-54987234D01*
X29523386Y-54906131D01*
X29414992Y-54830687D01*
X29372654Y-54794341D01*
X29329279Y-54762172D01*
X29223438Y-54666243D01*
X29119077Y-54576652D01*
X29084772Y-54540563D01*
X29049345Y-54508454D01*
X28948814Y-54397536D01*
X28850381Y-54293984D01*
X28823587Y-54259369D01*
X28795627Y-54228520D01*
X28702234Y-54102594D01*
X28611661Y-53985583D01*
X28591687Y-53953538D01*
X28570565Y-53925058D01*
X28486130Y-53784187D01*
X28405366Y-53654613D01*
X28391395Y-53626131D01*
X28376339Y-53601012D01*
X28302697Y-53445310D01*
X28233612Y-53304470D01*
X28224684Y-53280364D01*
X28214802Y-53259470D01*
X28153673Y-53088629D01*
X28098164Y-52938748D01*
X28093239Y-52919728D01*
X28087523Y-52903752D01*
X28040575Y-52716326D01*
X28000410Y-52561199D01*
X27998350Y-52547758D01*
X27995723Y-52537267D01*
X27964582Y-52327330D01*
X27941353Y-52175698D01*
X27940969Y-52168145D01*
X27940288Y-52163548D01*
X27926393Y-51880722D01*
X27921600Y-51786200D01*
X27926393Y-51691685D01*
X27940288Y-51408851D01*
X27940970Y-51404252D01*
X27941353Y-51396702D01*
X27964577Y-51245099D01*
X27995723Y-51035132D01*
X27998351Y-51024639D01*
X28000410Y-51011201D01*
X28040567Y-50856102D01*
X28087523Y-50668647D01*
X28093240Y-50652667D01*
X28098164Y-50633652D01*
X28153663Y-50483799D01*
X28214802Y-50312929D01*
X28224686Y-50292030D01*
X28233612Y-50267930D01*
X28302684Y-50127116D01*
X28376339Y-49971387D01*
X28391397Y-49946262D01*
X28405366Y-49917787D01*
X28486114Y-49788237D01*
X28570565Y-49647341D01*
X28591691Y-49618855D01*
X28611661Y-49586817D01*
X28702217Y-49469828D01*
X28795627Y-49343879D01*
X28823592Y-49313023D01*
X28850381Y-49278416D01*
X28948795Y-49174884D01*
X29049345Y-49063945D01*
X29084779Y-49031829D01*
X29119077Y-48995748D01*
X29223417Y-48906174D01*
X29329279Y-48810227D01*
X29372662Y-48778051D01*
X29414992Y-48741713D01*
X29523364Y-48666284D01*
X29632741Y-48585165D01*
X29684386Y-48554209D01*
X29735089Y-48518920D01*
X29845613Y-48457573D01*
X29956787Y-48390939D01*
X30016832Y-48362539D01*
X30076083Y-48329653D01*
X30187047Y-48282034D01*
X30298329Y-48229402D01*
X30366706Y-48204936D01*
X30434475Y-48175854D01*
X30544190Y-48141430D01*
X30654047Y-48102123D01*
X30730551Y-48082959D01*
X30806588Y-48059103D01*
X30913525Y-48037126D01*
X31020532Y-48010323D01*
X31104724Y-47997834D01*
X31188603Y-47980597D01*
X31291416Y-47970141D01*
X31394251Y-47954888D01*
X31485499Y-47950405D01*
X31576601Y-47941141D01*
X31674077Y-47941141D01*
X31771600Y-47936350D01*
X31869123Y-47941141D01*
G37*
G36*
X42029123Y-47941141D02*
G01*
X42126599Y-47941141D01*
X42217701Y-47950405D01*
X42308948Y-47954888D01*
X42411779Y-47970141D01*
X42514597Y-47980597D01*
X42598477Y-47997834D01*
X42682667Y-48010323D01*
X42789668Y-48037125D01*
X42896612Y-48059103D01*
X42972652Y-48082960D01*
X43049152Y-48102123D01*
X43159001Y-48141427D01*
X43268725Y-48175854D01*
X43336498Y-48204938D01*
X43404870Y-48229402D01*
X43516141Y-48282029D01*
X43627117Y-48329653D01*
X43686372Y-48362542D01*
X43746412Y-48390939D01*
X43857572Y-48457566D01*
X43968111Y-48518920D01*
X44018819Y-48554214D01*
X44070458Y-48585165D01*
X44179819Y-48666272D01*
X44288208Y-48741713D01*
X44330543Y-48778057D01*
X44373920Y-48810227D01*
X44479763Y-48906158D01*
X44584123Y-48995748D01*
X44618426Y-49031835D01*
X44653854Y-49063945D01*
X44754383Y-49174861D01*
X44852819Y-49278416D01*
X44879613Y-49313031D01*
X44907572Y-49343879D01*
X45000958Y-49469797D01*
X45091539Y-49586817D01*
X45111513Y-49618863D01*
X45132634Y-49647341D01*
X45217059Y-49788195D01*
X45297834Y-49917787D01*
X45311806Y-49946271D01*
X45326860Y-49971387D01*
X45400487Y-50127059D01*
X45469588Y-50267930D01*
X45478517Y-50292040D01*
X45488397Y-50312929D01*
X45549507Y-50483719D01*
X45605036Y-50633652D01*
X45609962Y-50652678D01*
X45615676Y-50668647D01*
X45662601Y-50855984D01*
X45702790Y-51011201D01*
X45704850Y-51024649D01*
X45707476Y-51035132D01*
X45738590Y-51244894D01*
X45761847Y-51396702D01*
X45762230Y-51404263D01*
X45762911Y-51408851D01*
X45776774Y-51691055D01*
X45781600Y-51786200D01*
X45776774Y-51881352D01*
X45762911Y-52163548D01*
X45762230Y-52168135D01*
X45761847Y-52175698D01*
X45738586Y-52327536D01*
X45707476Y-52537267D01*
X45704850Y-52547748D01*
X45702790Y-52561199D01*
X45662593Y-52716445D01*
X45615676Y-52903752D01*
X45609963Y-52919718D01*
X45605036Y-52938748D01*
X45549496Y-53088708D01*
X45488397Y-53259470D01*
X45478519Y-53280354D01*
X45469588Y-53304470D01*
X45400474Y-53445367D01*
X45326860Y-53601012D01*
X45311809Y-53626122D01*
X45297834Y-53654613D01*
X45217043Y-53784229D01*
X45132634Y-53925058D01*
X45111517Y-53953530D01*
X45091539Y-53985583D01*
X45000941Y-54102625D01*
X44907572Y-54228520D01*
X44879618Y-54259361D01*
X44852819Y-54293984D01*
X44754363Y-54397558D01*
X44653854Y-54508454D01*
X44618433Y-54540557D01*
X44584123Y-54576652D01*
X44479742Y-54666259D01*
X44373920Y-54762172D01*
X44330552Y-54794335D01*
X44288208Y-54830687D01*
X44179797Y-54906142D01*
X44070458Y-54987234D01*
X44018830Y-55018178D01*
X43968111Y-55053480D01*
X43857550Y-55114846D01*
X43746412Y-55181460D01*
X43686384Y-55209850D01*
X43627117Y-55242747D01*
X43516118Y-55290380D01*
X43404870Y-55342997D01*
X43336512Y-55367455D01*
X43268725Y-55396546D01*
X43158978Y-55430979D01*
X43049152Y-55470276D01*
X42972668Y-55489434D01*
X42896612Y-55513297D01*
X42789646Y-55535278D01*
X42682667Y-55562076D01*
X42598495Y-55574561D01*
X42514597Y-55591803D01*
X42411758Y-55602260D01*
X42308948Y-55617511D01*
X42217720Y-55621992D01*
X42126599Y-55631259D01*
X42029102Y-55631259D01*
X41931600Y-55636049D01*
X41834097Y-55631259D01*
X41736601Y-55631259D01*
X41645480Y-55621992D01*
X41554251Y-55617511D01*
X41451438Y-55602260D01*
X41348603Y-55591803D01*
X41264707Y-55574561D01*
X41180532Y-55562076D01*
X41073547Y-55535277D01*
X40966588Y-55513297D01*
X40890535Y-55489435D01*
X40814047Y-55470276D01*
X40704213Y-55430976D01*
X40594475Y-55396546D01*
X40526692Y-55367457D01*
X40458329Y-55342997D01*
X40347070Y-55290375D01*
X40236083Y-55242747D01*
X40176820Y-55209853D01*
X40116787Y-55181460D01*
X40005636Y-55114838D01*
X39895089Y-55053480D01*
X39844375Y-55018182D01*
X39792741Y-54987234D01*
X39683386Y-54906131D01*
X39574992Y-54830687D01*
X39532654Y-54794341D01*
X39489279Y-54762172D01*
X39383438Y-54666243D01*
X39279077Y-54576652D01*
X39244772Y-54540563D01*
X39209345Y-54508454D01*
X39108814Y-54397536D01*
X39010381Y-54293984D01*
X38983587Y-54259369D01*
X38955627Y-54228520D01*
X38862234Y-54102594D01*
X38771661Y-53985583D01*
X38751687Y-53953538D01*
X38730565Y-53925058D01*
X38646130Y-53784187D01*
X38565366Y-53654613D01*
X38551395Y-53626131D01*
X38536339Y-53601012D01*
X38462697Y-53445310D01*
X38393612Y-53304470D01*
X38384684Y-53280364D01*
X38374802Y-53259470D01*
X38313673Y-53088629D01*
X38258164Y-52938748D01*
X38253239Y-52919728D01*
X38247523Y-52903752D01*
X38200575Y-52716326D01*
X38160410Y-52561199D01*
X38158350Y-52547758D01*
X38155723Y-52537267D01*
X38124582Y-52327330D01*
X38101353Y-52175698D01*
X38100969Y-52168145D01*
X38100288Y-52163548D01*
X38086393Y-51880722D01*
X38081600Y-51786200D01*
X38086393Y-51691685D01*
X38100288Y-51408851D01*
X38100970Y-51404252D01*
X38101353Y-51396702D01*
X38124577Y-51245099D01*
X38155723Y-51035132D01*
X38158351Y-51024639D01*
X38160410Y-51011201D01*
X38200567Y-50856102D01*
X38247523Y-50668647D01*
X38253240Y-50652667D01*
X38258164Y-50633652D01*
X38313663Y-50483799D01*
X38374802Y-50312929D01*
X38384686Y-50292030D01*
X38393612Y-50267930D01*
X38462684Y-50127116D01*
X38536339Y-49971387D01*
X38551397Y-49946262D01*
X38565366Y-49917787D01*
X38646114Y-49788237D01*
X38730565Y-49647341D01*
X38751691Y-49618855D01*
X38771661Y-49586817D01*
X38862217Y-49469828D01*
X38955627Y-49343879D01*
X38983592Y-49313023D01*
X39010381Y-49278416D01*
X39108795Y-49174884D01*
X39209345Y-49063945D01*
X39244779Y-49031829D01*
X39279077Y-48995748D01*
X39383417Y-48906174D01*
X39489279Y-48810227D01*
X39532662Y-48778051D01*
X39574992Y-48741713D01*
X39683364Y-48666284D01*
X39792741Y-48585165D01*
X39844386Y-48554209D01*
X39895089Y-48518920D01*
X40005613Y-48457573D01*
X40116787Y-48390939D01*
X40176832Y-48362539D01*
X40236083Y-48329653D01*
X40347047Y-48282034D01*
X40458329Y-48229402D01*
X40526706Y-48204936D01*
X40594475Y-48175854D01*
X40704190Y-48141430D01*
X40814047Y-48102123D01*
X40890551Y-48082959D01*
X40966588Y-48059103D01*
X41073525Y-48037126D01*
X41180532Y-48010323D01*
X41264724Y-47997834D01*
X41348603Y-47980597D01*
X41451416Y-47970141D01*
X41554251Y-47954888D01*
X41645499Y-47950405D01*
X41736601Y-47941141D01*
X41834077Y-47941141D01*
X41931600Y-47936350D01*
X42029123Y-47941141D01*
G37*
G36*
X52189123Y-47941141D02*
G01*
X52286599Y-47941141D01*
X52377701Y-47950405D01*
X52468948Y-47954888D01*
X52571779Y-47970141D01*
X52674597Y-47980597D01*
X52758477Y-47997834D01*
X52842667Y-48010323D01*
X52949668Y-48037125D01*
X53056612Y-48059103D01*
X53132652Y-48082960D01*
X53209152Y-48102123D01*
X53319001Y-48141427D01*
X53428725Y-48175854D01*
X53496498Y-48204938D01*
X53564870Y-48229402D01*
X53676141Y-48282029D01*
X53787117Y-48329653D01*
X53846372Y-48362542D01*
X53906412Y-48390939D01*
X54017572Y-48457566D01*
X54128111Y-48518920D01*
X54178819Y-48554214D01*
X54230458Y-48585165D01*
X54339819Y-48666272D01*
X54448208Y-48741713D01*
X54490543Y-48778057D01*
X54533920Y-48810227D01*
X54639763Y-48906158D01*
X54744123Y-48995748D01*
X54778426Y-49031835D01*
X54813854Y-49063945D01*
X54914383Y-49174861D01*
X55012819Y-49278416D01*
X55039613Y-49313031D01*
X55067572Y-49343879D01*
X55160958Y-49469797D01*
X55251539Y-49586817D01*
X55271513Y-49618863D01*
X55292634Y-49647341D01*
X55377059Y-49788195D01*
X55457834Y-49917787D01*
X55471806Y-49946271D01*
X55486860Y-49971387D01*
X55560487Y-50127059D01*
X55629588Y-50267930D01*
X55638517Y-50292040D01*
X55648397Y-50312929D01*
X55709507Y-50483719D01*
X55765036Y-50633652D01*
X55769962Y-50652678D01*
X55775676Y-50668647D01*
X55822601Y-50855984D01*
X55862790Y-51011201D01*
X55864850Y-51024649D01*
X55867476Y-51035132D01*
X55898590Y-51244894D01*
X55921847Y-51396702D01*
X55922230Y-51404263D01*
X55922911Y-51408851D01*
X55936774Y-51691055D01*
X55941600Y-51786200D01*
X55936774Y-51881352D01*
X55922911Y-52163548D01*
X55922230Y-52168135D01*
X55921847Y-52175698D01*
X55898586Y-52327536D01*
X55867476Y-52537267D01*
X55864850Y-52547748D01*
X55862790Y-52561199D01*
X55822593Y-52716445D01*
X55775676Y-52903752D01*
X55769963Y-52919718D01*
X55765036Y-52938748D01*
X55709496Y-53088708D01*
X55648397Y-53259470D01*
X55638519Y-53280354D01*
X55629588Y-53304470D01*
X55560474Y-53445367D01*
X55486860Y-53601012D01*
X55471809Y-53626122D01*
X55457834Y-53654613D01*
X55377043Y-53784229D01*
X55292634Y-53925058D01*
X55271517Y-53953530D01*
X55251539Y-53985583D01*
X55160941Y-54102625D01*
X55067572Y-54228520D01*
X55039618Y-54259361D01*
X55012819Y-54293984D01*
X54914363Y-54397558D01*
X54813854Y-54508454D01*
X54778433Y-54540557D01*
X54744123Y-54576652D01*
X54639742Y-54666259D01*
X54533920Y-54762172D01*
X54490552Y-54794335D01*
X54448208Y-54830687D01*
X54339797Y-54906142D01*
X54230458Y-54987234D01*
X54178830Y-55018178D01*
X54128111Y-55053480D01*
X54017550Y-55114846D01*
X53906412Y-55181460D01*
X53846384Y-55209850D01*
X53787117Y-55242747D01*
X53676118Y-55290380D01*
X53564870Y-55342997D01*
X53496512Y-55367455D01*
X53428725Y-55396546D01*
X53318978Y-55430979D01*
X53209152Y-55470276D01*
X53132668Y-55489434D01*
X53056612Y-55513297D01*
X52949646Y-55535278D01*
X52842667Y-55562076D01*
X52758495Y-55574561D01*
X52674597Y-55591803D01*
X52571758Y-55602260D01*
X52468948Y-55617511D01*
X52377720Y-55621992D01*
X52286599Y-55631259D01*
X52189102Y-55631259D01*
X52091600Y-55636049D01*
X51994097Y-55631259D01*
X51896601Y-55631259D01*
X51805480Y-55621992D01*
X51714251Y-55617511D01*
X51611438Y-55602260D01*
X51508603Y-55591803D01*
X51424707Y-55574561D01*
X51340532Y-55562076D01*
X51233547Y-55535277D01*
X51126588Y-55513297D01*
X51050535Y-55489435D01*
X50974047Y-55470276D01*
X50864213Y-55430976D01*
X50754475Y-55396546D01*
X50686692Y-55367457D01*
X50618329Y-55342997D01*
X50507070Y-55290375D01*
X50396083Y-55242747D01*
X50336820Y-55209853D01*
X50276787Y-55181460D01*
X50165636Y-55114838D01*
X50055089Y-55053480D01*
X50004375Y-55018182D01*
X49952741Y-54987234D01*
X49843386Y-54906131D01*
X49734992Y-54830687D01*
X49692654Y-54794341D01*
X49649279Y-54762172D01*
X49543438Y-54666243D01*
X49439077Y-54576652D01*
X49404772Y-54540563D01*
X49369345Y-54508454D01*
X49268814Y-54397536D01*
X49170381Y-54293984D01*
X49143587Y-54259369D01*
X49115627Y-54228520D01*
X49022234Y-54102594D01*
X48931661Y-53985583D01*
X48911687Y-53953538D01*
X48890565Y-53925058D01*
X48806130Y-53784187D01*
X48725366Y-53654613D01*
X48711395Y-53626131D01*
X48696339Y-53601012D01*
X48622697Y-53445310D01*
X48553612Y-53304470D01*
X48544684Y-53280364D01*
X48534802Y-53259470D01*
X48473673Y-53088629D01*
X48418164Y-52938748D01*
X48413239Y-52919728D01*
X48407523Y-52903752D01*
X48360575Y-52716326D01*
X48320410Y-52561199D01*
X48318350Y-52547758D01*
X48315723Y-52537267D01*
X48284582Y-52327330D01*
X48261353Y-52175698D01*
X48260969Y-52168145D01*
X48260288Y-52163548D01*
X48246393Y-51880722D01*
X48241600Y-51786200D01*
X48246393Y-51691685D01*
X48260288Y-51408851D01*
X48260970Y-51404252D01*
X48261353Y-51396702D01*
X48284577Y-51245099D01*
X48315723Y-51035132D01*
X48318351Y-51024639D01*
X48320410Y-51011201D01*
X48360567Y-50856102D01*
X48407523Y-50668647D01*
X48413240Y-50652667D01*
X48418164Y-50633652D01*
X48473663Y-50483799D01*
X48534802Y-50312929D01*
X48544686Y-50292030D01*
X48553612Y-50267930D01*
X48622684Y-50127116D01*
X48696339Y-49971387D01*
X48711397Y-49946262D01*
X48725366Y-49917787D01*
X48806114Y-49788237D01*
X48890565Y-49647341D01*
X48911691Y-49618855D01*
X48931661Y-49586817D01*
X49022217Y-49469828D01*
X49115627Y-49343879D01*
X49143592Y-49313023D01*
X49170381Y-49278416D01*
X49268795Y-49174884D01*
X49369345Y-49063945D01*
X49404779Y-49031829D01*
X49439077Y-48995748D01*
X49543417Y-48906174D01*
X49649279Y-48810227D01*
X49692662Y-48778051D01*
X49734992Y-48741713D01*
X49843364Y-48666284D01*
X49952741Y-48585165D01*
X50004386Y-48554209D01*
X50055089Y-48518920D01*
X50165613Y-48457573D01*
X50276787Y-48390939D01*
X50336832Y-48362539D01*
X50396083Y-48329653D01*
X50507047Y-48282034D01*
X50618329Y-48229402D01*
X50686706Y-48204936D01*
X50754475Y-48175854D01*
X50864190Y-48141430D01*
X50974047Y-48102123D01*
X51050551Y-48082959D01*
X51126588Y-48059103D01*
X51233525Y-48037126D01*
X51340532Y-48010323D01*
X51424724Y-47997834D01*
X51508603Y-47980597D01*
X51611416Y-47970141D01*
X51714251Y-47954888D01*
X51805499Y-47950405D01*
X51896601Y-47941141D01*
X51994077Y-47941141D01*
X52091600Y-47936350D01*
X52189123Y-47941141D01*
G37*
G36*
X34409123Y-30923141D02*
G01*
X34506599Y-30923141D01*
X34597701Y-30932405D01*
X34688948Y-30936888D01*
X34791779Y-30952141D01*
X34894597Y-30962597D01*
X34978477Y-30979834D01*
X35062667Y-30992323D01*
X35169668Y-31019125D01*
X35276612Y-31041103D01*
X35352652Y-31064960D01*
X35429152Y-31084123D01*
X35539001Y-31123427D01*
X35648725Y-31157854D01*
X35716498Y-31186938D01*
X35784870Y-31211402D01*
X35896141Y-31264029D01*
X36007117Y-31311653D01*
X36066372Y-31344542D01*
X36126412Y-31372939D01*
X36237572Y-31439566D01*
X36348111Y-31500920D01*
X36398819Y-31536214D01*
X36450458Y-31567165D01*
X36559819Y-31648272D01*
X36668208Y-31723713D01*
X36710543Y-31760057D01*
X36753920Y-31792227D01*
X36859763Y-31888158D01*
X36964123Y-31977748D01*
X36998426Y-32013835D01*
X37033854Y-32045945D01*
X37134383Y-32156861D01*
X37232819Y-32260416D01*
X37259613Y-32295031D01*
X37287572Y-32325879D01*
X37380958Y-32451797D01*
X37471539Y-32568817D01*
X37491513Y-32600863D01*
X37512634Y-32629341D01*
X37597059Y-32770195D01*
X37677834Y-32899787D01*
X37691806Y-32928271D01*
X37706860Y-32953387D01*
X37780487Y-33109059D01*
X37849588Y-33249930D01*
X37858517Y-33274040D01*
X37868397Y-33294929D01*
X37929507Y-33465719D01*
X37985036Y-33615652D01*
X37989962Y-33634678D01*
X37995676Y-33650647D01*
X38042601Y-33837984D01*
X38082790Y-33993201D01*
X38084850Y-34006649D01*
X38087476Y-34017132D01*
X38118590Y-34226894D01*
X38141847Y-34378702D01*
X38142230Y-34386263D01*
X38142911Y-34390851D01*
X38156774Y-34673055D01*
X38161600Y-34768200D01*
X38156774Y-34863352D01*
X38142911Y-35145548D01*
X38142230Y-35150135D01*
X38141847Y-35157698D01*
X38118586Y-35309536D01*
X38087476Y-35519267D01*
X38084850Y-35529748D01*
X38082790Y-35543199D01*
X38042593Y-35698445D01*
X37995676Y-35885752D01*
X37989963Y-35901718D01*
X37985036Y-35920748D01*
X37929496Y-36070708D01*
X37868397Y-36241470D01*
X37858519Y-36262354D01*
X37849588Y-36286470D01*
X37780474Y-36427367D01*
X37706860Y-36583012D01*
X37691809Y-36608122D01*
X37677834Y-36636613D01*
X37597043Y-36766229D01*
X37512634Y-36907058D01*
X37491517Y-36935530D01*
X37471539Y-36967583D01*
X37380941Y-37084625D01*
X37287572Y-37210520D01*
X37259618Y-37241361D01*
X37232819Y-37275984D01*
X37134363Y-37379558D01*
X37033854Y-37490454D01*
X36998433Y-37522557D01*
X36964123Y-37558652D01*
X36859742Y-37648259D01*
X36753920Y-37744172D01*
X36710552Y-37776335D01*
X36668208Y-37812687D01*
X36559797Y-37888142D01*
X36450458Y-37969234D01*
X36398830Y-38000178D01*
X36348111Y-38035480D01*
X36237550Y-38096846D01*
X36126412Y-38163460D01*
X36066384Y-38191850D01*
X36007117Y-38224747D01*
X35896118Y-38272380D01*
X35784870Y-38324997D01*
X35716512Y-38349455D01*
X35648725Y-38378546D01*
X35538978Y-38412979D01*
X35429152Y-38452276D01*
X35352668Y-38471434D01*
X35276612Y-38495297D01*
X35169646Y-38517278D01*
X35062667Y-38544076D01*
X34978495Y-38556561D01*
X34894597Y-38573803D01*
X34791758Y-38584260D01*
X34688948Y-38599511D01*
X34597720Y-38603992D01*
X34506599Y-38613259D01*
X34409102Y-38613259D01*
X34311600Y-38618049D01*
X34214097Y-38613259D01*
X34116601Y-38613259D01*
X34025480Y-38603992D01*
X33934251Y-38599511D01*
X33831438Y-38584260D01*
X33728603Y-38573803D01*
X33644707Y-38556561D01*
X33560532Y-38544076D01*
X33453547Y-38517277D01*
X33346588Y-38495297D01*
X33270535Y-38471435D01*
X33194047Y-38452276D01*
X33084213Y-38412976D01*
X32974475Y-38378546D01*
X32906692Y-38349457D01*
X32838329Y-38324997D01*
X32727070Y-38272375D01*
X32616083Y-38224747D01*
X32556820Y-38191853D01*
X32496787Y-38163460D01*
X32385636Y-38096838D01*
X32275089Y-38035480D01*
X32224375Y-38000182D01*
X32172741Y-37969234D01*
X32063386Y-37888131D01*
X31954992Y-37812687D01*
X31912654Y-37776341D01*
X31869279Y-37744172D01*
X31763438Y-37648243D01*
X31659077Y-37558652D01*
X31624772Y-37522563D01*
X31589345Y-37490454D01*
X31488814Y-37379536D01*
X31390381Y-37275984D01*
X31363587Y-37241369D01*
X31335627Y-37210520D01*
X31242234Y-37084594D01*
X31151661Y-36967583D01*
X31131687Y-36935538D01*
X31110565Y-36907058D01*
X31026130Y-36766187D01*
X30945366Y-36636613D01*
X30931395Y-36608131D01*
X30916339Y-36583012D01*
X30842697Y-36427310D01*
X30773612Y-36286470D01*
X30764684Y-36262364D01*
X30754802Y-36241470D01*
X30693673Y-36070629D01*
X30638164Y-35920748D01*
X30633239Y-35901728D01*
X30627523Y-35885752D01*
X30580575Y-35698326D01*
X30540410Y-35543199D01*
X30538350Y-35529758D01*
X30535723Y-35519267D01*
X30504582Y-35309330D01*
X30481353Y-35157698D01*
X30480969Y-35150145D01*
X30480288Y-35145548D01*
X30466393Y-34862722D01*
X30461600Y-34768200D01*
X30466393Y-34673685D01*
X30480288Y-34390851D01*
X30480970Y-34386252D01*
X30481353Y-34378702D01*
X30504577Y-34227099D01*
X30535723Y-34017132D01*
X30538351Y-34006639D01*
X30540410Y-33993201D01*
X30580567Y-33838102D01*
X30627523Y-33650647D01*
X30633240Y-33634667D01*
X30638164Y-33615652D01*
X30693663Y-33465799D01*
X30754802Y-33294929D01*
X30764686Y-33274030D01*
X30773612Y-33249930D01*
X30842684Y-33109116D01*
X30916339Y-32953387D01*
X30931397Y-32928262D01*
X30945366Y-32899787D01*
X31026114Y-32770237D01*
X31110565Y-32629341D01*
X31131691Y-32600855D01*
X31151661Y-32568817D01*
X31242217Y-32451828D01*
X31335627Y-32325879D01*
X31363592Y-32295023D01*
X31390381Y-32260416D01*
X31488795Y-32156884D01*
X31589345Y-32045945D01*
X31624779Y-32013829D01*
X31659077Y-31977748D01*
X31763417Y-31888174D01*
X31869279Y-31792227D01*
X31912662Y-31760051D01*
X31954992Y-31723713D01*
X32063364Y-31648284D01*
X32172741Y-31567165D01*
X32224386Y-31536209D01*
X32275089Y-31500920D01*
X32385613Y-31439573D01*
X32496787Y-31372939D01*
X32556832Y-31344539D01*
X32616083Y-31311653D01*
X32727047Y-31264034D01*
X32838329Y-31211402D01*
X32906706Y-31186936D01*
X32974475Y-31157854D01*
X33084190Y-31123430D01*
X33194047Y-31084123D01*
X33270551Y-31064959D01*
X33346588Y-31041103D01*
X33453525Y-31019126D01*
X33560532Y-30992323D01*
X33644724Y-30979834D01*
X33728603Y-30962597D01*
X33831416Y-30952141D01*
X33934251Y-30936888D01*
X34025499Y-30932405D01*
X34116601Y-30923141D01*
X34214077Y-30923141D01*
X34311600Y-30918350D01*
X34409123Y-30923141D01*
G37*
G36*
X49649123Y-30923141D02*
G01*
X49746599Y-30923141D01*
X49837701Y-30932405D01*
X49928948Y-30936888D01*
X50031779Y-30952141D01*
X50134597Y-30962597D01*
X50218477Y-30979834D01*
X50302667Y-30992323D01*
X50409668Y-31019125D01*
X50516612Y-31041103D01*
X50592652Y-31064960D01*
X50669152Y-31084123D01*
X50779001Y-31123427D01*
X50888725Y-31157854D01*
X50956498Y-31186938D01*
X51024870Y-31211402D01*
X51136141Y-31264029D01*
X51247117Y-31311653D01*
X51306372Y-31344542D01*
X51366412Y-31372939D01*
X51477572Y-31439566D01*
X51588111Y-31500920D01*
X51638819Y-31536214D01*
X51690458Y-31567165D01*
X51799819Y-31648272D01*
X51908208Y-31723713D01*
X51950543Y-31760057D01*
X51993920Y-31792227D01*
X52099763Y-31888158D01*
X52204123Y-31977748D01*
X52238426Y-32013835D01*
X52273854Y-32045945D01*
X52374383Y-32156861D01*
X52472819Y-32260416D01*
X52499613Y-32295031D01*
X52527572Y-32325879D01*
X52620958Y-32451797D01*
X52711539Y-32568817D01*
X52731513Y-32600863D01*
X52752634Y-32629341D01*
X52837059Y-32770195D01*
X52917834Y-32899787D01*
X52931806Y-32928271D01*
X52946860Y-32953387D01*
X53020487Y-33109059D01*
X53089588Y-33249930D01*
X53098517Y-33274040D01*
X53108397Y-33294929D01*
X53169507Y-33465719D01*
X53225036Y-33615652D01*
X53229962Y-33634678D01*
X53235676Y-33650647D01*
X53282601Y-33837984D01*
X53322790Y-33993201D01*
X53324850Y-34006649D01*
X53327476Y-34017132D01*
X53358590Y-34226894D01*
X53381847Y-34378702D01*
X53382230Y-34386263D01*
X53382911Y-34390851D01*
X53396774Y-34673055D01*
X53401600Y-34768200D01*
X53396774Y-34863352D01*
X53382911Y-35145548D01*
X53382230Y-35150135D01*
X53381847Y-35157698D01*
X53358586Y-35309536D01*
X53327476Y-35519267D01*
X53324850Y-35529748D01*
X53322790Y-35543199D01*
X53282593Y-35698445D01*
X53235676Y-35885752D01*
X53229963Y-35901718D01*
X53225036Y-35920748D01*
X53169496Y-36070708D01*
X53108397Y-36241470D01*
X53098519Y-36262354D01*
X53089588Y-36286470D01*
X53020474Y-36427367D01*
X52946860Y-36583012D01*
X52931809Y-36608122D01*
X52917834Y-36636613D01*
X52837043Y-36766229D01*
X52752634Y-36907058D01*
X52731517Y-36935530D01*
X52711539Y-36967583D01*
X52620941Y-37084625D01*
X52527572Y-37210520D01*
X52499618Y-37241361D01*
X52472819Y-37275984D01*
X52374363Y-37379558D01*
X52273854Y-37490454D01*
X52238433Y-37522557D01*
X52204123Y-37558652D01*
X52099742Y-37648259D01*
X51993920Y-37744172D01*
X51950552Y-37776335D01*
X51908208Y-37812687D01*
X51799797Y-37888142D01*
X51690458Y-37969234D01*
X51638830Y-38000178D01*
X51588111Y-38035480D01*
X51477550Y-38096846D01*
X51366412Y-38163460D01*
X51306384Y-38191850D01*
X51247117Y-38224747D01*
X51136118Y-38272380D01*
X51024870Y-38324997D01*
X50956512Y-38349455D01*
X50888725Y-38378546D01*
X50778978Y-38412979D01*
X50669152Y-38452276D01*
X50592668Y-38471434D01*
X50516612Y-38495297D01*
X50409646Y-38517278D01*
X50302667Y-38544076D01*
X50218495Y-38556561D01*
X50134597Y-38573803D01*
X50031758Y-38584260D01*
X49928948Y-38599511D01*
X49837720Y-38603992D01*
X49746599Y-38613259D01*
X49649102Y-38613259D01*
X49551600Y-38618049D01*
X49454097Y-38613259D01*
X49356601Y-38613259D01*
X49265480Y-38603992D01*
X49174251Y-38599511D01*
X49071438Y-38584260D01*
X48968603Y-38573803D01*
X48884707Y-38556561D01*
X48800532Y-38544076D01*
X48693547Y-38517277D01*
X48586588Y-38495297D01*
X48510535Y-38471435D01*
X48434047Y-38452276D01*
X48324213Y-38412976D01*
X48214475Y-38378546D01*
X48146692Y-38349457D01*
X48078329Y-38324997D01*
X47967070Y-38272375D01*
X47856083Y-38224747D01*
X47796820Y-38191853D01*
X47736787Y-38163460D01*
X47625636Y-38096838D01*
X47515089Y-38035480D01*
X47464375Y-38000182D01*
X47412741Y-37969234D01*
X47303386Y-37888131D01*
X47194992Y-37812687D01*
X47152654Y-37776341D01*
X47109279Y-37744172D01*
X47003438Y-37648243D01*
X46899077Y-37558652D01*
X46864772Y-37522563D01*
X46829345Y-37490454D01*
X46728814Y-37379536D01*
X46630381Y-37275984D01*
X46603587Y-37241369D01*
X46575627Y-37210520D01*
X46482234Y-37084594D01*
X46391661Y-36967583D01*
X46371687Y-36935538D01*
X46350565Y-36907058D01*
X46266130Y-36766187D01*
X46185366Y-36636613D01*
X46171395Y-36608131D01*
X46156339Y-36583012D01*
X46082697Y-36427310D01*
X46013612Y-36286470D01*
X46004684Y-36262364D01*
X45994802Y-36241470D01*
X45933673Y-36070629D01*
X45878164Y-35920748D01*
X45873239Y-35901728D01*
X45867523Y-35885752D01*
X45820575Y-35698326D01*
X45780410Y-35543199D01*
X45778350Y-35529758D01*
X45775723Y-35519267D01*
X45744582Y-35309330D01*
X45721353Y-35157698D01*
X45720969Y-35150145D01*
X45720288Y-35145548D01*
X45706393Y-34862722D01*
X45701600Y-34768200D01*
X45706393Y-34673685D01*
X45720288Y-34390851D01*
X45720970Y-34386252D01*
X45721353Y-34378702D01*
X45744577Y-34227099D01*
X45775723Y-34017132D01*
X45778351Y-34006639D01*
X45780410Y-33993201D01*
X45820567Y-33838102D01*
X45867523Y-33650647D01*
X45873240Y-33634667D01*
X45878164Y-33615652D01*
X45933663Y-33465799D01*
X45994802Y-33294929D01*
X46004686Y-33274030D01*
X46013612Y-33249930D01*
X46082684Y-33109116D01*
X46156339Y-32953387D01*
X46171397Y-32928262D01*
X46185366Y-32899787D01*
X46266114Y-32770237D01*
X46350565Y-32629341D01*
X46371691Y-32600855D01*
X46391661Y-32568817D01*
X46482217Y-32451828D01*
X46575627Y-32325879D01*
X46603592Y-32295023D01*
X46630381Y-32260416D01*
X46728795Y-32156884D01*
X46829345Y-32045945D01*
X46864779Y-32013829D01*
X46899077Y-31977748D01*
X47003417Y-31888174D01*
X47109279Y-31792227D01*
X47152662Y-31760051D01*
X47194992Y-31723713D01*
X47303364Y-31648284D01*
X47412741Y-31567165D01*
X47464386Y-31536209D01*
X47515089Y-31500920D01*
X47625613Y-31439573D01*
X47736787Y-31372939D01*
X47796832Y-31344539D01*
X47856083Y-31311653D01*
X47967047Y-31264034D01*
X48078329Y-31211402D01*
X48146706Y-31186936D01*
X48214475Y-31157854D01*
X48324190Y-31123430D01*
X48434047Y-31084123D01*
X48510551Y-31064959D01*
X48586588Y-31041103D01*
X48693525Y-31019126D01*
X48800532Y-30992323D01*
X48884724Y-30979834D01*
X48968603Y-30962597D01*
X49071416Y-30952141D01*
X49174251Y-30936888D01*
X49265499Y-30932405D01*
X49356601Y-30923141D01*
X49454077Y-30923141D01*
X49551600Y-30918350D01*
X49649123Y-30923141D01*
G37*
G36*
X33173757Y-23416634D02*
G01*
X33190893Y-23419820D01*
X33204121Y-23420687D01*
X33326677Y-23445064D01*
X33462693Y-23470352D01*
X33476315Y-23474828D01*
X33486332Y-23476821D01*
X33606211Y-23517514D01*
X33741892Y-23562102D01*
X33752028Y-23567013D01*
X33758800Y-23569312D01*
X33872633Y-23625448D01*
X34006370Y-23690246D01*
X34013197Y-23694767D01*
X34016864Y-23696575D01*
X34119726Y-23765305D01*
X34251409Y-23852499D01*
X34255253Y-23855860D01*
X34256117Y-23856438D01*
X34328657Y-23920053D01*
X34472635Y-24045965D01*
X34598589Y-24189992D01*
X34662161Y-24262482D01*
X34662737Y-24263345D01*
X34666101Y-24267191D01*
X34753331Y-24398928D01*
X34822024Y-24501735D01*
X34823831Y-24505399D01*
X34828354Y-24512230D01*
X34893179Y-24646024D01*
X34949287Y-24759799D01*
X34951584Y-24766566D01*
X34956498Y-24776708D01*
X35001105Y-24912449D01*
X35041778Y-25032267D01*
X35043769Y-25042278D01*
X35048248Y-25055907D01*
X35073546Y-25191983D01*
X35097912Y-25314478D01*
X35098778Y-25327698D01*
X35101966Y-25344843D01*
X35117000Y-25601600D01*
X35101966Y-25858357D01*
X35098778Y-25875502D01*
X35097912Y-25888721D01*
X35073549Y-26011200D01*
X35048248Y-26147293D01*
X35043768Y-26160923D01*
X35041778Y-26170932D01*
X35001115Y-26290718D01*
X34956498Y-26426492D01*
X34951583Y-26436635D01*
X34949287Y-26443400D01*
X34893207Y-26557117D01*
X34828354Y-26690970D01*
X34823829Y-26697803D01*
X34822024Y-26701464D01*
X34753404Y-26804160D01*
X34666101Y-26936009D01*
X34662734Y-26939858D01*
X34662161Y-26940717D01*
X34598902Y-27012850D01*
X34472635Y-27157235D01*
X34328250Y-27283502D01*
X34256117Y-27346761D01*
X34255258Y-27347334D01*
X34251409Y-27350701D01*
X34119560Y-27438004D01*
X34016864Y-27506624D01*
X34013203Y-27508429D01*
X34006370Y-27512954D01*
X33872517Y-27577807D01*
X33758800Y-27633887D01*
X33752035Y-27636183D01*
X33741892Y-27641098D01*
X33606118Y-27685715D01*
X33486332Y-27726378D01*
X33476323Y-27728368D01*
X33462693Y-27732848D01*
X33326600Y-27758149D01*
X33204121Y-27782512D01*
X33190902Y-27783378D01*
X33173757Y-27786566D01*
X32917000Y-27801600D01*
X30917000Y-27801600D01*
X30660243Y-27786566D01*
X30643098Y-27783378D01*
X30629878Y-27782512D01*
X30507383Y-27758146D01*
X30371307Y-27732848D01*
X30357678Y-27728369D01*
X30347667Y-27726378D01*
X30227849Y-27685705D01*
X30092108Y-27641098D01*
X30081966Y-27636184D01*
X30075199Y-27633887D01*
X29961424Y-27577779D01*
X29827630Y-27512954D01*
X29820799Y-27508431D01*
X29817135Y-27506624D01*
X29714328Y-27437931D01*
X29582591Y-27350701D01*
X29578745Y-27347337D01*
X29577882Y-27346761D01*
X29505392Y-27283189D01*
X29361365Y-27157235D01*
X29235453Y-27013257D01*
X29171838Y-26940717D01*
X29171260Y-26939853D01*
X29167899Y-26936009D01*
X29080705Y-26804326D01*
X29011975Y-26701464D01*
X29010167Y-26697797D01*
X29005646Y-26690970D01*
X28940848Y-26557233D01*
X28884712Y-26443400D01*
X28882413Y-26436628D01*
X28877502Y-26426492D01*
X28832914Y-26290811D01*
X28792221Y-26170932D01*
X28790228Y-26160915D01*
X28785752Y-26147293D01*
X28760464Y-26011277D01*
X28736087Y-25888721D01*
X28735220Y-25875494D01*
X28732034Y-25858357D01*
X28717000Y-25601600D01*
X28732034Y-25344843D01*
X28735219Y-25327706D01*
X28736087Y-25314478D01*
X28760467Y-25191906D01*
X28785752Y-25055907D01*
X28790228Y-25042285D01*
X28792221Y-25032267D01*
X28832925Y-24912357D01*
X28877502Y-24776708D01*
X28882412Y-24766573D01*
X28884712Y-24759799D01*
X28940876Y-24645909D01*
X29005646Y-24512230D01*
X29010165Y-24505405D01*
X29011975Y-24501735D01*
X29080778Y-24398762D01*
X29167899Y-24267191D01*
X29171258Y-24263349D01*
X29171838Y-24262482D01*
X29235765Y-24189585D01*
X29361365Y-24045965D01*
X29504985Y-23920365D01*
X29577882Y-23856438D01*
X29578749Y-23855858D01*
X29582591Y-23852499D01*
X29714162Y-23765378D01*
X29817135Y-23696575D01*
X29820805Y-23694765D01*
X29827630Y-23690246D01*
X29961309Y-23625476D01*
X30075199Y-23569312D01*
X30081973Y-23567012D01*
X30092108Y-23562102D01*
X30227757Y-23517525D01*
X30347667Y-23476821D01*
X30357685Y-23474828D01*
X30371307Y-23470352D01*
X30507306Y-23445067D01*
X30629878Y-23420687D01*
X30643106Y-23419819D01*
X30660243Y-23416634D01*
X30917000Y-23401600D01*
X32917000Y-23401600D01*
X33173757Y-23416634D01*
G37*
G36*
X53209757Y-23416634D02*
G01*
X53226893Y-23419820D01*
X53240121Y-23420687D01*
X53362677Y-23445064D01*
X53498693Y-23470352D01*
X53512315Y-23474828D01*
X53522332Y-23476821D01*
X53642211Y-23517514D01*
X53777892Y-23562102D01*
X53788028Y-23567013D01*
X53794800Y-23569312D01*
X53908633Y-23625448D01*
X54042370Y-23690246D01*
X54049197Y-23694767D01*
X54052864Y-23696575D01*
X54155726Y-23765305D01*
X54287409Y-23852499D01*
X54291253Y-23855860D01*
X54292117Y-23856438D01*
X54364657Y-23920053D01*
X54508635Y-24045965D01*
X54634589Y-24189992D01*
X54698161Y-24262482D01*
X54698737Y-24263345D01*
X54702101Y-24267191D01*
X54789331Y-24398928D01*
X54858024Y-24501735D01*
X54859831Y-24505399D01*
X54864354Y-24512230D01*
X54929179Y-24646024D01*
X54985287Y-24759799D01*
X54987584Y-24766566D01*
X54992498Y-24776708D01*
X55037105Y-24912449D01*
X55077778Y-25032267D01*
X55079769Y-25042278D01*
X55084248Y-25055907D01*
X55109546Y-25191983D01*
X55133912Y-25314478D01*
X55134778Y-25327698D01*
X55137966Y-25344843D01*
X55153000Y-25601600D01*
X55137966Y-25858357D01*
X55134778Y-25875502D01*
X55133912Y-25888721D01*
X55109549Y-26011200D01*
X55084248Y-26147293D01*
X55079768Y-26160923D01*
X55077778Y-26170932D01*
X55037115Y-26290718D01*
X54992498Y-26426492D01*
X54987583Y-26436635D01*
X54985287Y-26443400D01*
X54929207Y-26557117D01*
X54864354Y-26690970D01*
X54859829Y-26697803D01*
X54858024Y-26701464D01*
X54789404Y-26804160D01*
X54702101Y-26936009D01*
X54698734Y-26939858D01*
X54698161Y-26940717D01*
X54634902Y-27012850D01*
X54508635Y-27157235D01*
X54364250Y-27283502D01*
X54292117Y-27346761D01*
X54291258Y-27347334D01*
X54287409Y-27350701D01*
X54155560Y-27438004D01*
X54052864Y-27506624D01*
X54049203Y-27508429D01*
X54042370Y-27512954D01*
X53908517Y-27577807D01*
X53794800Y-27633887D01*
X53788035Y-27636183D01*
X53777892Y-27641098D01*
X53642118Y-27685715D01*
X53522332Y-27726378D01*
X53512323Y-27728368D01*
X53498693Y-27732848D01*
X53362600Y-27758149D01*
X53240121Y-27782512D01*
X53226902Y-27783378D01*
X53209757Y-27786566D01*
X52953000Y-27801600D01*
X50953000Y-27801600D01*
X50696243Y-27786566D01*
X50679098Y-27783378D01*
X50665878Y-27782512D01*
X50543383Y-27758146D01*
X50407307Y-27732848D01*
X50393678Y-27728369D01*
X50383667Y-27726378D01*
X50263849Y-27685705D01*
X50128108Y-27641098D01*
X50117966Y-27636184D01*
X50111199Y-27633887D01*
X49997424Y-27577779D01*
X49863630Y-27512954D01*
X49856799Y-27508431D01*
X49853135Y-27506624D01*
X49750328Y-27437931D01*
X49618591Y-27350701D01*
X49614745Y-27347337D01*
X49613882Y-27346761D01*
X49541392Y-27283189D01*
X49397365Y-27157235D01*
X49271453Y-27013257D01*
X49207838Y-26940717D01*
X49207260Y-26939853D01*
X49203899Y-26936009D01*
X49116705Y-26804326D01*
X49047975Y-26701464D01*
X49046167Y-26697797D01*
X49041646Y-26690970D01*
X48976848Y-26557233D01*
X48920712Y-26443400D01*
X48918413Y-26436628D01*
X48913502Y-26426492D01*
X48868914Y-26290811D01*
X48828221Y-26170932D01*
X48826228Y-26160915D01*
X48821752Y-26147293D01*
X48796464Y-26011277D01*
X48772087Y-25888721D01*
X48771220Y-25875494D01*
X48768034Y-25858357D01*
X48753000Y-25601600D01*
X48768034Y-25344843D01*
X48771219Y-25327706D01*
X48772087Y-25314478D01*
X48796467Y-25191906D01*
X48821752Y-25055907D01*
X48826228Y-25042285D01*
X48828221Y-25032267D01*
X48868925Y-24912357D01*
X48913502Y-24776708D01*
X48918412Y-24766573D01*
X48920712Y-24759799D01*
X48976876Y-24645909D01*
X49041646Y-24512230D01*
X49046165Y-24505405D01*
X49047975Y-24501735D01*
X49116778Y-24398762D01*
X49203899Y-24267191D01*
X49207258Y-24263349D01*
X49207838Y-24262482D01*
X49271765Y-24189585D01*
X49397365Y-24045965D01*
X49540985Y-23920365D01*
X49613882Y-23856438D01*
X49614749Y-23855858D01*
X49618591Y-23852499D01*
X49750162Y-23765378D01*
X49853135Y-23696575D01*
X49856805Y-23694765D01*
X49863630Y-23690246D01*
X49997309Y-23625476D01*
X50111199Y-23569312D01*
X50117973Y-23567012D01*
X50128108Y-23562102D01*
X50263757Y-23517525D01*
X50383667Y-23476821D01*
X50393685Y-23474828D01*
X50407307Y-23470352D01*
X50543306Y-23445067D01*
X50665878Y-23420687D01*
X50679106Y-23419819D01*
X50696243Y-23416634D01*
X50953000Y-23401600D01*
X52953000Y-23401600D01*
X53209757Y-23416634D01*
G37*
M02*
