%
M48
M72
T01C0.01378
T02C0.01600
T03C0.02400
T04C0.03200
T05C0.04000
T06C0.04331
T07C0.08500
T08C0.08661
%
T01
X59496Y306300
X34496Y351300
X104496Y371300
X104496Y321300
T02
X99496Y295700
X95496Y285300
X89496Y272500
X83096Y274100
X83896Y290900
X70296Y324900
X76696Y327700
X73896Y349700
X57896Y333700
X29896Y330500
X20296Y343700
X17496Y334100
X15096Y304900
X15096Y296100
X25496Y281300
X17096Y273700
X16296Y252500
X23896Y240900
X28696Y250900
X42696Y246500
X54296Y246500
X58696Y259700
X62696Y226500
X65496Y212900
X75496Y198500
X78296Y166500
X98696Y186500
X80696Y253300
X106696Y282100
X57096Y186500
X48696Y186500
X39496Y131700
X38696Y88500
X75496Y36100
T03
X89896Y256500
X81096Y266500
T04
X104496Y91300
X104496Y81300
X19496Y81300
X19496Y91300
T05
X44496Y91300
X44496Y81300
X54496Y81300
X54496Y91300
X64496Y91300
X64496Y81300
X74496Y81300
X74496Y91300
X84496Y91300
X84496Y81300
T06
X94496Y61221
X69339Y118741
X59496Y118741
X49654Y118741
X59496Y61221
X24496Y61221
X49654Y198741
X59496Y198741
X69339Y198741
X69339Y278741
X59496Y278741
X49654Y278741
X49654Y358741
X59496Y358741
X69339Y358741
T07
X77213Y386300
X41780Y386300
X41780Y306300
X41780Y226300
X77213Y226300
X77213Y306300
X77213Y146300
X41780Y146300
T08
X24496Y12402
X24496Y44292
X59496Y44292
X59496Y12402
X94496Y12402
X94496Y44292
M30
